<svg width="420" height="716" viewBox="0 0 420 716" fill="none" xmlns="http://www.w3.org/2000/svg">
<path d="M30.7518 65.343C43.5689 64.3578 60.9102 64.8421 74.1558 64.844L147.049 64.8562L265.514 64.8543C285.704 64.8485 307.27 64.4634 327.372 64.8907L327.355 421.223C356.859 420.28 389.78 420.92 419.532 421.012L419.525 715.814L146.621 715.852C104.326 715.852 60.0491 715.091 18.0364 715.916L18.0556 681.095L18.1977 540.852C18.1836 521.204 17.0954 491.506 18.46 472.902C19.1394 467.677 22.2357 451.011 24.8547 447.039C26.7522 446.182 28.727 446.812 30.835 447.189L30.9322 329.215C30.9674 327.075 31.318 324.693 30.1473 323.088C24.4063 321.892 8.4142 323.106 0.829518 322.448C-0.419243 314.27 0.113015 291.421 0.111095 281.842L0.120057 202.557L0.113019 121.945C0.111739 115.598 -0.227327 89.7591 0.881332 85.5036C4.77987 82.0829 24.9309 83.2133 30.7691 83.246L30.7518 65.343Z" fill="#65C6F7"/>
<path d="M264.856 428.701C283.909 428.26 303.14 429.108 322.171 428.433C326.793 428.269 329.177 424.804 334.229 424.809C360.3 424.841 386.48 425.114 412.54 424.757C412.436 440.981 412.441 457.205 412.556 473.429L159.174 473.475L74.5568 473.485C58.4253 473.487 40.9893 473.849 25.0088 473.211C26.2953 466.391 28.1979 458.973 29.9207 452.247L36.6206 451.844C53.461 452.67 73.2857 451.285 90.3826 451.869C94.6426 452.014 107.112 451.507 110.505 452.552C111.283 453.94 111.416 454.213 112.478 455.378C150.647 454.705 188.989 455.469 227.172 455.169C239.633 455.07 252.356 455.028 264.802 455.505C264.738 446.571 264.756 437.636 264.856 428.701Z" fill="#761717"/>
<path d="M315.233 432.518C319.141 431.186 321.406 431.072 325.186 433.252C331.908 437.129 337.928 442.696 344.478 447.149C346.057 445.202 345.319 445.65 347.353 444.818C356.374 445.816 381.856 446.702 382.701 458.47C380.601 466.142 361.478 468.338 354.734 468.744C346.484 470.179 343.921 469.217 336.212 469.265L336.953 467.185L332.468 464.518L336.951 463.718C330.729 458.973 318.857 451.783 311.814 447.087C311.944 442.711 312.049 438.845 312.51 434.489L315.233 432.518Z" fill="#65C6F7"/>
<path d="M347.348 444.811C356.369 445.809 381.851 446.695 382.696 458.462C380.595 466.135 361.472 468.331 354.729 468.737L353.522 468.185L352.945 466.423C354.212 463.685 353.918 453.721 353.904 450.134C351.784 448.677 348.232 446.793 347.348 444.811Z" fill="#65C6F7"/>
<path d="M312.51 434.487C319.48 439.992 333.063 449.029 338.778 454.509C338.931 457.118 339.404 461.212 338.706 463.585L337.679 464.063L336.951 463.716C330.729 458.971 318.857 451.781 311.814 447.085C311.944 442.709 312.049 438.843 312.51 434.487Z" fill="#65C6F7"/>
<path d="M312.538 434.488L315.261 432.517C322.267 438.665 336.075 447.651 341.244 453.073L341.74 465.326L350.276 463.138C350.402 459.563 350.465 455.651 350.694 452.108C348.662 450.445 346.605 448.717 344.506 447.148C346.084 445.201 345.347 445.649 347.381 444.817C348.265 446.799 351.817 448.683 353.937 450.14C353.951 453.728 354.245 463.691 352.978 466.429L353.555 468.191L354.762 468.743C346.511 470.178 343.948 469.216 336.24 469.264L336.98 467.184L332.496 464.517L336.978 463.717L337.706 464.064L338.734 463.586C339.431 461.213 338.958 457.119 338.806 454.51C333.091 449.03 319.507 439.993 312.538 434.488Z" fill="#761717"/>
<path d="M336.974 467.182C342.026 468.566 347.759 467.222 352.971 466.427L353.548 468.189L354.756 468.741C346.505 470.176 343.942 469.214 336.233 469.262L336.974 467.182Z" fill="#65C6F7"/>
<path d="M336.22 469.26C327.682 468.739 271.963 467.618 270.504 455.299C269.124 443.648 298.372 442.834 307.899 442.335C308.194 446.872 307.915 448.116 311.797 451.014C318.344 455.902 325.563 460.161 332.476 464.513L336.96 467.18L336.22 469.26Z" fill="#65C6F7"/>
<path d="M387.677 432.756C391.925 433.212 397.046 432.11 399.529 433.816C400.785 435.621 400.304 438.119 400.15 440.399C396.135 440.362 390.319 441.559 387.634 439.162C386.62 437.154 387.288 435.043 387.677 432.756Z" fill="#65C6F7"/>
<path d="M374.057 433.028C375.375 434.421 374.949 438.172 373.796 439.784C371.618 440.906 365.958 440.516 362.826 440.654C361.534 439.557 361.202 436.719 361.69 435.061C364.875 432.126 369.575 432.931 374.057 433.028Z" fill="#65C6F7"/>
<path d="M18.4747 472.9C18.7978 475.341 19.9391 479.868 20.0287 481.449C20.6754 492.868 20.4093 504.933 20.3824 516.394L20.3696 576.136L20.3683 638.02C20.3594 654.199 20.6946 669.047 19.2718 685.239C18.4402 684.651 18.3212 682.411 18.0704 681.094L18.2124 540.85C18.1984 521.202 17.1102 491.504 18.4747 472.9Z" fill="#65C6F7"/>
<path d="M30.9246 329.214C31.6936 329.891 32.1133 330.246 32.9577 330.825C33.5789 342.57 33.3959 355.891 33.165 367.719C32.6558 393.824 34.005 420.82 32.9321 446.794L30.6227 448.309C31.6789 451.917 34.1048 449.525 36.6144 451.839L29.9145 452.242L28.1143 451.294C29.118 449.502 28.9767 450.311 28.6139 448.25L27.3984 447.611L29.207 447.384L28.9421 447.444L30.8274 447.188L30.9246 329.214Z" fill="#65C6F7"/>
<path d="M25.2145 483.224C38.695 483.742 55.1323 483.298 68.783 483.302L154.251 483.307L412.526 483.279L412.46 622.304L412.565 661.974C412.582 667.264 412.888 678.511 412.293 683.29C368.986 683.801 324.794 683.334 281.418 683.334L24.8467 683.36C25.5408 677.929 25.2036 666.964 25.1998 661.091L25.1761 620.225L25.2145 483.224Z" fill="#761717"/>
<path d="M231.464 510.855L386.781 510.809C386.187 523.067 386.392 541.509 386.715 553.938L386.554 557.981C386.625 559.904 386.751 562.035 386.76 563.939L386.257 567.096C387.121 569.263 386.953 570.582 386.915 572.908L386.693 577.385L386.768 581.985C386.614 583.48 386.324 585.15 386.603 586.59C386.952 588.792 386.681 598.33 386.644 601.138C335.924 600.966 282.092 600.204 231.591 601.241L231.53 586.319L231.557 582.34L231.421 577.22L231.403 573.27L231.349 566.943L231.347 564.198L231.464 558.042L231.58 554.307C230.94 541.9 231.481 523.695 231.464 510.855Z" fill="#65C6F7"/>
<path d="M231.355 566.941L386.264 567.094C387.128 569.261 386.96 570.58 386.922 572.906L386.7 577.383L386.775 581.983C386.621 583.478 386.33 585.148 386.61 586.588C386.959 588.79 386.687 598.328 386.651 601.136C335.931 600.964 282.099 600.202 231.597 601.239L231.537 586.317L231.563 582.338L231.427 577.218L231.409 573.268L231.355 566.941Z" fill="#65C6F7"/>
<path d="M231.556 586.316L331.822 586.371C347.977 586.359 370.921 585.677 386.629 586.588C386.978 588.789 386.707 598.327 386.67 601.136C335.95 600.963 282.118 600.202 231.616 601.238L231.556 586.316Z" fill="#65C6F7"/>
<path d="M231.432 577.22L335.43 577.222L367.609 577.179C373.204 577.16 381.373 576.898 386.704 577.385L386.78 581.986C386.625 583.48 386.335 585.15 386.615 586.591C370.906 585.68 347.962 586.361 331.808 586.374L231.541 586.319L231.568 582.34L231.432 577.22Z" fill="#65C6F7"/>
<path d="M231.583 582.337L333.829 582.373C345.332 582.382 376.348 583.147 386.794 581.982C386.64 583.477 386.35 585.147 386.629 586.587C370.921 585.676 347.977 586.358 331.822 586.371L231.556 586.316L231.583 582.337Z" fill="#DB1B00"/>
<path d="M231.432 573.27L330.663 573.274C348.179 573.272 369.692 573.795 386.944 572.907L386.722 577.385C381.39 576.897 373.222 577.16 367.627 577.179L335.448 577.221L231.45 577.22L231.432 573.27Z" fill="#DB1B00"/>
<path d="M231.473 558.038L386.562 557.978C386.633 559.901 386.76 562.031 386.769 563.935L386.266 567.092L231.357 566.94L231.355 564.194L231.473 558.038Z" fill="#65C6F7"/>
<path d="M231.355 564.195C263.404 564.614 295.615 564.454 327.675 564.386C346.797 564.346 367.852 565.19 386.769 563.936L386.266 567.093L231.357 566.94L231.355 564.195Z" fill="#761717"/>
<path d="M231.577 554.306C240.365 553.75 257.513 554.328 266.901 554.328L341.085 554.348C355.72 554.356 372.295 554.766 386.712 553.937L386.55 557.98L231.461 558.041L231.577 554.306Z" fill="#DB1B00"/>
<path d="M313.186 526.052L315.848 526.082C314.868 528.308 315.097 529.906 315.164 532.337C312.875 535.021 313.309 536.471 313.195 540.323L312.591 541.2C307.099 542.402 300.74 542.949 297.797 537.126C297.555 535.026 297.775 531.698 297.855 529.477C302.185 523.492 306.564 527.159 312.624 526.151L313.186 526.052Z" fill="#761717"/>
<path d="M313.167 526.05L315.828 526.08C314.848 528.306 315.077 529.904 315.145 532.335C312.856 535.019 313.289 536.469 313.176 540.32C312.335 535.163 312.395 531.17 313.167 526.05Z" fill="#65C6F7"/>
<path d="M302.602 528.477C309.786 528.25 311.168 534.608 308.05 539.195C299.995 538.813 298.809 535.084 302.602 528.477Z" fill="#65C6F7"/>
<path d="M368.273 541.493C352.878 546.482 353.067 519.198 370.782 526.777C374.568 528.396 373.647 538.704 371.161 541.665L368.843 541.373L368.273 541.493Z" fill="#761717"/>
<path d="M368.269 541.492C366.61 537.67 361.787 540.11 360.458 535.664C359.33 531.886 361.187 529.983 364.457 528.932C370.757 530.503 369.32 536.193 368.839 541.372L368.269 541.492Z" fill="#65C6F7"/>
<path d="M345.231 538.796C342.985 541.743 339.041 542.816 335.61 541.415C332.179 540.014 330.115 536.485 330.574 532.808C331.034 529.131 333.903 526.218 337.573 525.705C341.243 525.19 344.802 527.202 346.254 530.612C347.41 533.325 347.019 536.45 345.231 538.796Z" fill="#761717"/>
<path d="M336.327 528.363C344.355 528.402 344.693 533.324 340.932 539.046C332.606 539.001 332.975 534.118 336.327 528.363Z" fill="#65C6F7"/>
<path d="M315.874 526.079L317.519 526.533C318.812 530.407 318.844 537.51 321.427 539.379C325.57 536.231 324.304 525.929 328.285 526.043C332.179 533.353 319.012 554.461 315.191 532.335C315.123 529.903 314.894 528.306 315.874 526.079Z" fill="#761717"/>
<path d="M284.166 536.681C285.813 538.211 286.684 538.872 288.907 539.192C293.515 537.095 289.726 530.487 293.177 526.145L295.401 525.98L296.391 529.464C297.484 529.72 297.038 529.84 297.859 529.473C297.779 531.695 297.559 535.023 297.801 537.123L295.525 536.29C293.173 542.207 287.963 543.78 282.682 540.309L282.556 539.17C282.991 537.244 282.57 537.91 284.166 536.681Z" fill="#761717"/>
<path d="M295.437 525.98L296.426 529.464C297.519 529.72 297.074 529.84 297.894 529.473C297.815 531.695 297.594 535.023 297.837 537.123L295.561 536.29L295.437 525.98Z" fill="#65C6F7"/>
<path d="M265.55 530.424C268.813 525.9 275.729 523.705 280.23 527.222L279.635 527.437C274.766 529.165 271.522 527.852 268.725 531.503C266.124 540.365 276.369 538.201 280.163 540.191C274.851 544.576 268.37 541.456 265.034 536.173L265.55 530.424Z" fill="#761717"/>
<path d="M349.079 530.197C351.011 526.134 351.037 526.331 355.618 525.759L356.475 526.281C355.053 529.442 353.333 529.679 352.127 533.684C351.103 537.09 352.531 539.84 350.644 541.663L348.087 541.929C347.692 540.848 347.446 540.07 347.14 538.962L345.219 538.8C347.007 536.454 347.397 533.33 346.242 530.616L349.079 530.197Z" fill="#761717"/>
<path d="M346.242 530.612L349.079 530.193C348.942 534.781 348.852 537.415 348.087 541.925C347.692 540.844 347.446 540.066 347.14 538.958L345.219 538.797C347.007 536.451 347.397 533.326 346.242 530.612Z" fill="#65C6F7"/>
<path d="M263.123 541.577C262.192 541.851 262.005 541.74 261.019 541.685C258.428 538.59 258.896 530.338 260.488 526.617C260.837 525.801 262.203 525.8 263.061 525.625C263.632 528.137 263.252 529.052 265.551 530.421L265.035 536.17C263.134 537.958 263.651 538.361 263.123 541.577Z" fill="#761717"/>
<path d="M263.036 525.631C263.607 528.142 263.227 529.058 265.527 530.427L265.01 536.176C263.11 537.964 263.626 538.367 263.098 541.583C262.56 536.838 262.778 530.373 263.036 525.631Z" fill="#65C6F7"/>
<path d="M248.167 525.207L249.611 526.31C250.671 529.91 249.496 532.423 249.81 535.791C250.242 540.418 253.994 537.775 257.272 540.188L257.327 541.77C254.227 541.958 252.142 542.523 249.24 540.753C245.303 538.351 245.549 528.234 248.167 525.207Z" fill="#761717"/>
<path d="M280.959 526.96L282.684 526.036L283.991 526.51C284.926 528.671 284.693 534.657 284.183 536.681C282.587 537.911 283.009 537.244 282.573 539.171C280.778 536.779 281.051 530.155 280.959 526.96Z" fill="#DB1B00"/>
<path d="M220.16 78.1366C251.311 76.8251 289.37 77.7022 321.014 77.8884L321.042 325.6C313.202 330.237 304.695 336.043 296.997 341.073C294.237 342.936 288.658 347.1 285.618 347.493C278.217 348.452 270.004 348.196 262.545 348.177L226.154 348.088L96.4611 348.074C90.6932 344.988 70.3785 327.489 64.2447 322.413C70.8474 322.853 77.6574 322.712 84.2607 322.426V145.893C84.2626 126.72 84.8326 106.104 83.795 87.13C83.3068 78.1986 44.7002 86.1237 38.0616 82.5424C37.0765 80.6834 37.2543 81.5355 37.6247 79.1947C37.8896 78.9324 38.2069 78.6183 38.5754 78.253C54.9058 77.9882 79.6572 77.9709 94.9103 77.8692C109.459 77.651 126.154 77.5467 140.609 78.0752L140.586 131.947C166.582 131.407 194.141 131.883 220.269 131.817C219.701 114.365 220.568 95.7888 220.16 78.1366Z" fill="#761717"/>
<path d="M37.6289 322.686C43.922 322.751 50.2157 322.772 56.5094 322.749C68.1269 334.951 83.7422 343.521 95.8319 355.198C102.51 361.649 124.797 409.644 130.423 420.796C143.144 421.78 167.429 421.004 181.042 420.954C181.091 409.229 181.077 397.503 181.001 385.777L194.393 385.387L194.399 421.102C201.252 420.995 243.117 421.922 245.269 420.04C250.885 415.13 277.809 362.875 283.251 357.45C288.909 351.809 313.578 336.734 320.945 331.873L321.069 346.725L321.021 422.977C297.789 423.639 275.008 423.49 251.747 424.568C251.284 431.615 251.381 440.727 251.282 447.922C209.688 448.146 165.178 446.958 123.951 448.082L123.919 424.393C119.684 424.503 115.447 424.574 111.211 424.606L111.267 447.069C87.6836 446.345 61.4219 446.923 37.6379 446.937C38.0889 433.324 37.691 417.652 37.6916 403.825L37.6289 322.686Z" fill="#761717"/>
<path d="M129.182 424.564C138.044 425.477 159.788 424.875 169.766 424.859L247.511 424.849C247.556 428.425 248.126 441.796 246.686 444.153C212.899 444.653 178.956 443.904 145.151 444.219C139.588 444.271 134.061 444.098 128.507 444.529C128.545 438.055 128.408 430.944 129.182 424.564Z" fill="#65C6F7"/>
<path d="M30.7888 97.2978L77.9277 97.2754L77.8867 241.602L77.982 285.158C78.0057 291.948 78.3422 303.356 77.7326 309.719C62.4378 310.116 46.3056 309.894 30.9737 309.837C29.5798 239.692 31.6269 167.684 30.7888 97.2978Z" fill="#761717"/>
<path d="M118.847 0.145028L242.923 0C243.008 2.70345 243.456 6.31878 242.238 8.59681C240.295 10.3003 240.835 9.79126 237.758 9.98913C235.582 12.2227 236.587 33.1177 236.641 37.4205C268.646 37.0559 301.259 37.2165 333.282 37.361L333.229 60.4529C303.053 59.8784 271.05 60.4119 240.728 60.4068L26.7163 60.4324C26.4182 52.8221 26.5333 44.9419 26.5404 37.308L123.964 37.3022C123.991 30.7654 124.421 16.6848 123.026 10.7828C118.171 8.97176 118.936 4.49912 118.847 0.145028Z" fill="#65C6F7"/>
<path d="M134.044 7.15127C165.239 7.01385 196.434 7.04143 227.628 7.23399L227.615 37.2698L134.089 37.4342C134.363 27.8216 134.073 16.8681 134.044 7.15127Z" fill="#761717"/>
<path d="M31.8317 93.8711V60.034V51.913H129.283V3.1875H233.501V51.913H322.831V422.768L414.868 424.122V686.698L22.3573 693.466V476.908L27.7712 449.838H33.1852L35.8921 317.196H15.5898V93.8711H31.8317Z" fill="#65C6F7"/>
<rect x="0.719727" y="83.041" width="83.9162" height="240.921" fill="#65C6F7"/>
</svg>
