<svg width="420" height="716" viewBox="0 0 420 716" fill="none" xmlns="http://www.w3.org/2000/svg">
<path d="M30.7518 65.343C43.5689 64.3578 60.9102 64.8421 74.1558 64.844L147.049 64.8562L265.514 64.8543C285.704 64.8485 307.27 64.4634 327.372 64.8907L327.355 421.223C356.859 420.28 389.78 420.92 419.532 421.012L419.525 715.814L146.621 715.852C104.326 715.852 60.0491 715.091 18.0364 715.916L18.0556 681.095L18.1977 540.852C18.1836 521.204 17.0954 491.506 18.46 472.902C19.1394 467.677 22.2357 451.011 24.8547 447.039C26.7522 446.182 28.727 446.812 30.835 447.189L30.9322 329.215C30.9674 327.075 31.318 324.693 30.1473 323.088C24.4063 321.892 8.4142 323.106 0.829518 322.448C-0.419243 314.27 0.113015 291.421 0.111095 281.842L0.120057 202.557L0.113019 121.945C0.111739 115.598 -0.227327 89.7591 0.881332 85.5036C4.77987 82.0829 24.9309 83.2133 30.7691 83.246L30.7518 65.343Z" fill="#65C6F7"/>
<path d="M264.856 428.701C283.909 428.26 303.14 429.108 322.171 428.433C326.793 428.269 329.177 424.804 334.229 424.809C360.3 424.841 386.48 425.114 412.54 424.757C412.436 440.981 412.441 457.205 412.556 473.429L159.174 473.475L74.5568 473.485C58.4253 473.487 40.9893 473.849 25.0088 473.211C26.2953 466.391 28.1979 458.973 29.9207 452.247L36.6206 451.844C53.461 452.67 73.2857 451.285 90.3826 451.869C94.6426 452.014 107.112 451.507 110.505 452.552C111.283 453.94 111.416 454.213 112.478 455.378C150.647 454.705 188.989 455.469 227.172 455.169C239.633 455.07 252.356 455.028 264.802 455.505C264.738 446.571 264.756 437.636 264.856 428.701Z" fill="#761717"/>
<path d="M315.234 432.517C319.142 431.185 321.407 431.072 325.187 433.252C331.909 437.129 337.929 442.696 344.479 447.148C346.058 445.201 345.32 445.65 347.354 444.817C356.375 445.816 381.857 446.701 382.702 458.469C380.602 466.142 361.479 468.338 354.735 468.743C346.485 470.179 343.922 469.217 336.213 469.265L336.954 467.184L332.469 464.518L336.952 463.718C330.73 458.973 318.858 451.782 311.815 447.086C311.945 442.711 312.05 438.845 312.511 434.489L315.234 432.517Z" fill="#65C6F7"/>
<path d="M347.348 444.811C356.369 445.809 381.851 446.695 382.696 458.462C380.595 466.135 361.472 468.331 354.729 468.737L353.522 468.185L352.945 466.423C354.212 463.685 353.918 453.721 353.904 450.134C351.784 448.677 348.232 446.793 347.348 444.811Z" fill="#65C6F7"/>
<path d="M312.511 434.488C319.481 439.992 333.064 449.03 338.779 454.51C338.932 457.118 339.405 461.212 338.707 463.585L337.68 464.064L336.952 463.717C330.73 458.972 318.858 451.781 311.815 447.085C311.945 442.71 312.05 438.844 312.511 434.488Z" fill="#65C6F7"/>
<path d="M312.538 434.489L315.261 432.517C322.267 438.666 336.075 447.652 341.244 453.073L341.74 465.327L350.276 463.139C350.402 459.563 350.465 455.651 350.694 452.108C348.662 450.445 346.605 448.717 344.506 447.148C346.084 445.201 345.347 445.65 347.381 444.817C348.265 446.8 351.817 448.684 353.937 450.14C353.951 453.728 354.245 463.691 352.978 466.429L353.555 468.192L354.762 468.743C346.511 470.179 343.948 469.217 336.24 469.265L336.98 467.184L332.496 464.518L336.978 463.718L337.706 464.065L338.734 463.586C339.431 461.213 338.958 457.119 338.806 454.511C333.091 449.031 319.507 439.993 312.538 434.489Z" fill="#761717"/>
<path d="M336.974 467.182C342.026 468.567 347.759 467.222 352.971 466.427L353.548 468.19L354.756 468.741C346.505 470.177 343.942 469.215 336.233 469.263L336.974 467.182Z" fill="#65C6F7"/>
<path d="M336.22 469.26C327.682 468.739 271.963 467.618 270.504 455.299C269.124 443.648 298.372 442.834 307.899 442.335C308.194 446.872 307.915 448.116 311.797 451.014C318.344 455.902 325.563 460.161 332.476 464.513L336.96 467.18L336.22 469.26Z" fill="#65C6F7"/>
<path d="M387.678 432.756C391.926 433.212 397.047 432.111 399.53 433.816C400.786 435.621 400.305 438.119 400.151 440.399C396.136 440.362 390.32 441.559 387.635 439.163C386.621 437.155 387.289 435.043 387.678 432.756Z" fill="#65C6F7"/>
<path d="M374.057 433.028C375.375 434.421 374.949 438.173 373.796 439.785C371.618 440.906 365.958 440.517 362.826 440.654C361.534 439.558 361.202 436.72 361.69 435.061C364.875 432.126 369.575 432.931 374.057 433.028Z" fill="#65C6F7"/>
<path d="M18.4757 472.9C18.7988 475.341 19.9401 479.868 20.0296 481.449C20.6764 492.868 20.4103 504.933 20.3834 516.394L20.3706 576.136L20.3693 638.02C20.3604 654.199 20.6956 669.047 19.2728 685.239C18.4412 684.651 18.3222 682.411 18.0714 681.094L18.2134 540.85C18.1993 521.202 17.1112 491.504 18.4757 472.9Z" fill="#65C6F7"/>
<path d="M30.9246 329.214C31.6936 329.892 32.1133 330.246 32.9577 330.826C33.5789 342.57 33.3959 355.891 33.165 367.72C32.6558 393.824 34.005 420.82 32.9321 446.794L30.6227 448.309C31.6789 451.917 34.1048 449.525 36.6144 451.839L29.9145 452.242L28.1143 451.295C29.118 449.503 28.9767 450.312 28.6139 448.251L27.3984 447.612L29.207 447.384L28.9421 447.445L30.8274 447.188L30.9246 329.214Z" fill="#65C6F7"/>
<path d="M25.2145 483.223C38.695 483.742 55.1323 483.297 68.783 483.301L154.251 483.307L412.526 483.279L412.46 622.303L412.565 661.973C412.582 667.264 412.888 678.51 412.293 683.289C368.986 683.801 324.794 683.334 281.418 683.334L24.8467 683.359C25.5408 677.928 25.2036 666.963 25.1998 661.09L25.1761 620.224L25.2145 483.223Z" fill="#761717"/>
<path d="M231.464 510.855L386.781 510.809C386.187 523.067 386.392 541.509 386.715 553.938L386.554 557.981C386.625 559.904 386.751 562.035 386.76 563.939L386.257 567.096C387.121 569.263 386.953 570.582 386.915 572.908L386.693 577.385L386.768 581.985C386.614 583.48 386.324 585.15 386.603 586.59C386.952 588.792 386.681 598.33 386.644 601.138C335.924 600.966 282.092 600.204 231.591 601.241L231.53 586.319L231.557 582.34L231.421 577.22L231.403 573.27L231.349 566.943L231.347 564.198L231.464 558.042L231.58 554.307C230.94 541.9 231.481 523.695 231.464 510.855Z" fill="#65C6F7"/>
<path d="M231.355 566.942L386.264 567.094C387.128 569.262 386.96 570.581 386.922 572.906L386.7 577.384L386.775 581.984C386.621 583.478 386.33 585.148 386.61 586.589C386.959 588.79 386.687 598.329 386.651 601.137C335.931 600.964 282.099 600.203 231.597 601.239L231.537 586.318L231.563 582.338L231.427 577.219L231.409 573.269L231.355 566.942Z" fill="#65C6F7"/>
<path d="M231.557 586.316L331.823 586.371C347.978 586.359 370.922 585.677 386.63 586.588C386.979 588.789 386.708 598.327 386.671 601.136C335.951 600.963 282.119 600.202 231.617 601.238L231.557 586.316Z" fill="#65C6F7"/>
<path d="M231.432 577.221L335.43 577.223L367.609 577.18C373.204 577.161 381.373 576.899 386.704 577.386L386.78 581.987C386.625 583.481 386.335 585.151 386.615 586.591C370.906 585.681 347.962 586.362 331.808 586.375L231.541 586.32L231.568 582.341L231.432 577.221Z" fill="#65C6F7"/>
<path d="M231.584 582.338L333.83 582.374C345.333 582.383 376.349 583.148 386.795 581.983C386.641 583.478 386.351 585.148 386.63 586.588C370.922 585.677 347.978 586.359 331.823 586.372L231.557 586.317L231.584 582.338Z" fill="#DB1B00"/>
<path d="M231.432 573.27L330.663 573.275C348.179 573.273 369.692 573.796 386.944 572.908L386.722 577.385C381.39 576.898 373.222 577.16 367.627 577.179L335.448 577.221L231.45 577.22L231.432 573.27Z" fill="#DB1B00"/>
<path d="M231.473 558.039L386.562 557.979C386.633 559.902 386.76 562.032 386.769 563.936L386.266 567.093L231.357 566.941L231.355 564.195L231.473 558.039Z" fill="#65C6F7"/>
<path d="M231.355 564.195C263.404 564.614 295.615 564.454 327.675 564.386C346.797 564.346 367.852 565.19 386.769 563.936L386.266 567.093L231.357 566.94L231.355 564.195Z" fill="#761717"/>
<path d="M231.577 554.305C240.365 553.75 257.513 554.328 266.901 554.328L341.085 554.347C355.72 554.355 372.295 554.766 386.712 553.936L386.55 557.98L231.461 558.041L231.577 554.305Z" fill="#DB1B00"/>
<path d="M313.186 526.053L315.848 526.083C314.868 528.309 315.097 529.906 315.164 532.338C312.875 535.022 313.309 536.471 313.195 540.323L312.591 541.2C307.099 542.403 300.74 542.95 297.797 537.126C297.555 535.027 297.775 531.699 297.855 529.477C302.185 523.492 306.564 527.159 312.624 526.152L313.186 526.053Z" fill="#761717"/>
<path d="M313.167 526.05L315.828 526.08C314.848 528.307 315.077 529.904 315.145 532.336C312.856 535.019 313.289 536.469 313.176 540.321C312.335 535.163 312.395 531.171 313.167 526.05Z" fill="#65C6F7"/>
<path d="M302.602 528.477C309.786 528.251 311.168 534.609 308.05 539.195C299.995 538.813 298.809 535.085 302.602 528.477Z" fill="#65C6F7"/>
<path d="M368.273 541.493C352.878 546.483 353.067 519.199 370.782 526.777C374.568 528.396 373.647 538.705 371.161 541.666L368.843 541.374L368.273 541.493Z" fill="#761717"/>
<path d="M368.269 541.491C366.61 537.669 361.787 540.11 360.458 535.663C359.33 531.885 361.187 529.982 364.457 528.931C370.757 530.502 369.32 536.193 368.839 541.371L368.269 541.491Z" fill="#65C6F7"/>
<path d="M345.231 538.795C342.985 541.742 339.041 542.816 335.61 541.415C332.179 540.013 330.115 536.484 330.574 532.807C331.034 529.13 333.903 526.218 337.573 525.704C341.243 525.19 344.802 527.202 346.254 530.611C347.41 533.325 347.019 536.449 345.231 538.795Z" fill="#761717"/>
<path d="M336.328 528.363C344.356 528.402 344.694 533.324 340.933 539.046C332.607 539.001 332.976 534.118 336.328 528.363Z" fill="#65C6F7"/>
<path d="M315.874 526.079L317.519 526.533C318.812 530.407 318.844 537.51 321.427 539.379C325.57 536.231 324.304 525.929 328.285 526.043C332.179 533.353 319.012 554.461 315.191 532.335C315.123 529.903 314.894 528.306 315.874 526.079Z" fill="#761717"/>
<path d="M284.166 536.681C285.813 538.211 286.684 538.872 288.907 539.192C293.515 537.095 289.726 530.487 293.177 526.145L295.401 525.98L296.391 529.464C297.484 529.72 297.038 529.84 297.859 529.473C297.779 531.695 297.559 535.023 297.801 537.123L295.525 536.29C293.173 542.207 287.963 543.78 282.682 540.309L282.556 539.17C282.991 537.244 282.57 537.91 284.166 536.681Z" fill="#761717"/>
<path d="M295.437 525.98L296.426 529.464C297.519 529.72 297.074 529.84 297.894 529.473C297.815 531.695 297.594 535.023 297.837 537.123L295.561 536.29L295.437 525.98Z" fill="#65C6F7"/>
<path d="M265.55 530.423C268.813 525.899 275.729 523.705 280.23 527.221L279.635 527.436C274.766 529.165 271.522 527.851 268.725 531.502C266.124 540.364 276.369 538.201 280.163 540.19C274.851 544.576 268.37 541.455 265.034 536.172L265.55 530.423Z" fill="#761717"/>
<path d="M349.079 530.198C351.011 526.134 351.037 526.331 355.618 525.759L356.475 526.282C355.053 529.442 353.333 529.68 352.127 533.685C351.103 537.09 352.531 539.84 350.644 541.663L348.087 541.93C347.692 540.849 347.446 540.07 347.14 538.963L345.219 538.801C347.007 536.455 347.397 533.331 346.242 530.617L349.079 530.198Z" fill="#761717"/>
<path d="M346.242 530.613L349.079 530.194C348.942 534.782 348.852 537.416 348.087 541.926C347.692 540.845 347.446 540.067 347.14 538.959L345.219 538.797C347.007 536.452 347.397 533.327 346.242 530.613Z" fill="#65C6F7"/>
<path d="M263.123 541.576C262.192 541.85 262.005 541.739 261.019 541.684C258.428 538.589 258.896 530.337 260.488 526.617C260.837 525.8 262.203 525.799 263.061 525.625C263.632 528.136 263.252 529.052 265.551 530.421L265.035 536.17C263.134 537.958 263.651 538.361 263.123 541.576Z" fill="#761717"/>
<path d="M263.036 525.63C263.607 528.142 263.227 529.057 265.527 530.426L265.01 536.176C263.11 537.964 263.626 538.367 263.098 541.582C262.56 536.837 262.778 530.373 263.036 525.63Z" fill="#65C6F7"/>
<path d="M248.167 525.208L249.611 526.311C250.671 529.911 249.496 532.424 249.81 535.792C250.242 540.419 253.994 537.777 257.272 540.19L257.327 541.771C254.227 541.959 252.142 542.524 249.24 540.755C245.303 538.352 245.549 528.236 248.167 525.208Z" fill="#761717"/>
<path d="M280.959 526.96L282.684 526.036L283.991 526.51C284.926 528.671 284.693 534.657 284.183 536.681C282.587 537.911 283.009 537.244 282.573 539.171C280.778 536.779 281.051 530.155 280.959 526.96Z" fill="#DB1B00"/>
<path d="M220.16 78.1371C251.311 76.8256 289.37 77.7027 321.014 77.8889L321.042 325.6C313.202 330.238 304.695 336.043 296.997 341.074C294.237 342.937 288.658 347.101 285.618 347.494C278.217 348.452 270.004 348.196 262.545 348.178L226.154 348.089L96.4611 348.074C90.6932 344.988 70.3785 327.489 64.2447 322.414C70.8474 322.853 77.6574 322.713 84.2607 322.426V145.894C84.2626 126.72 84.8326 106.105 83.795 87.1305C83.3068 78.1991 44.7002 86.1242 38.0616 82.5429C37.0765 80.6839 37.2543 81.536 37.6247 79.1952C37.8896 78.9329 38.2069 78.6188 38.5754 78.2535C54.9058 77.9887 79.6572 77.9714 94.9103 77.8697C109.459 77.6515 126.154 77.5472 140.609 78.0757L140.586 131.947C166.582 131.408 194.141 131.884 220.269 131.817C219.701 114.366 220.568 95.7893 220.16 78.1371Z" fill="#761717"/>
<path d="M37.6299 322.686C43.9229 322.751 50.2167 322.772 56.5104 322.749C68.1279 334.951 83.7432 343.521 95.8329 355.198C102.511 361.649 124.798 409.644 130.424 420.796C143.145 421.78 167.43 421.004 181.043 420.954C181.092 409.229 181.078 397.503 181.002 385.777L194.394 385.387L194.4 421.102C201.253 420.995 243.118 421.922 245.27 420.04C250.886 415.13 277.81 362.875 283.252 357.45C288.91 351.809 313.579 336.734 320.946 331.873L321.07 346.725L321.022 422.977C297.79 423.639 275.009 423.49 251.748 424.568C251.285 431.615 251.382 440.727 251.283 447.922C209.689 448.146 165.179 446.958 123.952 448.082L123.92 424.393C119.685 424.503 115.448 424.574 111.212 424.606L111.268 447.069C87.6846 446.345 61.4229 446.923 37.6388 446.937C38.0899 433.324 37.692 417.652 37.6926 403.825L37.6299 322.686Z" fill="#761717"/>
<path d="M129.182 424.564C138.044 425.477 159.788 424.875 169.766 424.859L247.511 424.849C247.556 428.425 248.126 441.796 246.686 444.153C212.899 444.653 178.956 443.904 145.151 444.219C139.588 444.271 134.061 444.098 128.507 444.529C128.545 438.055 128.408 430.944 129.182 424.564Z" fill="#65C6F7"/>
<path d="M30.7888 97.2978L77.9277 97.2754L77.8867 241.602L77.982 285.158C78.0057 291.948 78.3422 303.356 77.7326 309.719C62.4378 310.116 46.3056 309.894 30.9737 309.837C29.5798 239.692 31.6269 167.684 30.7888 97.2978Z" fill="#761717"/>
<path d="M118.847 0.145028L242.923 0C243.008 2.70345 243.456 6.31878 242.238 8.59681C240.295 10.3003 240.835 9.79126 237.758 9.98913C235.582 12.2227 236.587 33.1177 236.641 37.4205C268.646 37.0559 301.259 37.2165 333.282 37.361L333.229 60.4529C303.053 59.8784 271.05 60.4119 240.728 60.4068L26.7163 60.4324C26.4182 52.8221 26.5333 44.9419 26.5404 37.308L123.964 37.3022C123.991 30.7654 124.421 16.6848 123.026 10.7828C118.171 8.97176 118.936 4.49912 118.847 0.145028Z" fill="#65C6F7"/>
<path d="M134.045 7.15175C165.24 7.01434 196.435 7.04191 227.629 7.23447L227.616 37.2703L134.09 37.4347C134.364 27.8221 134.074 16.8685 134.045 7.15175Z" fill="#761717"/>
<path d="M31.8317 93.8711V60.034V51.913H129.283V3.1875H233.501V51.913H322.831V422.768L414.868 424.122V686.698L22.3573 693.466V476.908L27.7712 449.838H33.1852L35.8921 317.196H15.5898V93.8711H31.8317Z" fill="#65C6F7"/>
<rect x="0.719727" y="83.042" width="83.9162" height="240.921" fill="#65C6F7"/>
<path d="M315.234 432.517C319.142 431.185 321.407 431.072 325.187 433.252C331.909 437.129 337.929 442.696 344.479 447.148C346.058 445.201 345.32 445.65 347.354 444.817C356.375 445.816 381.857 446.701 382.702 458.469C380.602 466.142 361.479 468.338 354.735 468.743C346.485 470.179 343.922 469.217 336.213 469.265L336.954 467.184L332.469 464.518L336.952 463.718C330.73 458.973 318.858 451.782 311.815 447.086C311.945 442.711 312.05 438.845 312.511 434.489L315.234 432.517Z" fill="#DB1B00"/>
<path d="M347.348 444.813C356.369 445.812 381.851 446.698 382.696 458.465C380.595 466.138 361.472 468.334 354.729 468.74L353.522 468.188L352.945 466.426C354.212 463.688 353.918 453.724 353.904 450.137C351.784 448.68 348.232 446.796 347.348 444.813Z" fill="#DB1B00"/>
<path d="M312.511 434.487C319.481 439.991 333.064 449.029 338.779 454.509C338.932 457.117 339.405 461.211 338.707 463.584L337.68 464.063L336.952 463.716C330.73 458.971 318.858 451.78 311.815 447.084C311.945 442.709 312.05 438.843 312.511 434.487Z" fill="#DB1B00"/>
<path d="M312.538 434.482L315.261 432.511C322.267 438.659 336.075 447.646 341.244 453.067L341.74 465.32L350.276 463.132C350.402 459.557 350.465 455.645 350.694 452.102C348.662 450.439 346.605 448.711 344.506 447.142C346.084 445.195 345.347 445.643 347.381 444.811C348.265 446.793 351.817 448.677 353.937 450.134C353.951 453.722 354.245 463.685 352.978 466.423L353.555 468.186L354.762 468.737C346.511 470.173 343.948 469.21 336.24 469.258L336.98 467.178L332.496 464.512L336.978 463.711L337.706 464.059L338.734 463.58C339.431 461.207 338.958 457.113 338.806 454.504C333.091 449.024 319.507 439.987 312.538 434.482Z" fill="#65C6F7"/>
<path d="M336.974 467.182C342.026 468.566 347.759 467.222 352.971 466.427L353.548 468.189L354.756 468.741C346.505 470.176 343.942 469.214 336.233 469.262L336.974 467.182Z" fill="#DB1B00"/>
<path d="M336.22 469.26C327.682 468.739 271.963 467.617 270.504 455.298C269.124 443.647 298.372 442.833 307.899 442.334C308.194 446.871 307.915 448.116 311.797 451.014C318.344 455.902 325.563 460.161 332.476 464.513L336.96 467.179L336.22 469.26Z" fill="#DB1B00"/>
<path d="M30.7888 97.2973L77.9277 97.2749L77.8867 241.601L77.982 285.157C78.0057 291.948 78.3422 303.356 77.7326 309.718C62.4378 310.116 46.3056 309.893 30.9737 309.837C29.5798 239.692 31.6269 167.683 30.7888 97.2973Z" fill="#761717"/>
<rect x="0.719727" y="83.042" width="83.9162" height="240.921" fill="#DB1B00"/>
<rect x="38.6494" y="96.5752" width="40.6046" height="213.851" fill="#65C6F7"/>
<path d="M96.8185 355.096L54.8604 322.612H64.3348L96.8185 348.328L287.66 346.975L321.497 325.319V332.086L284.953 355.096L245.702 421.416H194.27V386.226H180.735V421.416H130.656L96.8185 355.096Z" fill="#DB1B00"/>
<rect x="38.6514" y="64.0947" width="281.525" height="10.8279" fill="#DB1B00"/>
<rect x="144.204" y="72.2153" width="73.0883" height="56.8465" fill="#DB1B00"/>
</svg>
