<svg width="887" height="754" viewBox="0 0 887 754" fill="none" xmlns="http://www.w3.org/2000/svg">
<path d="M766.768 104.909C766.768 104.909 828.062 189.05 829.089 201.914C830.116 214.779 829.634 211.232 829.634 211.232L828.374 217.906C825.248 224.685 597.48 390.737 486.833 464.307L372.053 310.306L709.502 80.0304C709.502 80.0304 722.535 78.4132 734.053 76.8467C737.6 76.3644 743.07 78.2151 746.078 80.2687C750.746 83.4549 766.768 104.909 766.768 104.909Z" fill="#FDE8BE"/>
<path d="M42.5111 470.217C59.5382 459.244 89.782 436.925 107.436 426.969C112.23 424.266 133.733 421.735 140.252 420.504C165.961 415.65 192.83 412.935 218.431 407.459L224.55 415.76C228.845 417.384 229.543 417.688 234.11 418.25C244.9 412.108 263.032 398.88 273.798 391.512C294.632 377.254 203.326 451.335 223.798 436.679C224.631 428.371 219.847 419.072 214.998 412.423C227.665 403.876 360.816 312.072 374.186 304.652C375.078 304.156 378.029 304.158 379.17 304.164C402.927 337.367 425.827 373.549 449.458 407.079C454.413 414.11 485.592 458.896 487.382 464.379C485.074 470.686 470.041 479.305 463.728 483.516L373.322 545.195C362.928 552.273 344.617 564.336 335.188 571.798C332.388 574.015 317.412 600.224 314.252 605.569L291.117 644.708C275.917 670.362 277.94 669.577 253.235 686.377L209.985 715.771L42.5111 470.217Z" fill="#FDE8BE"/>
<path d="M132.272 450.597C135.065 449.198 139.124 447.36 141.531 450.126C145.234 454.382 148.738 459.982 151.915 464.626L175.612 499.35L231.824 581.72C241.935 596.525 252.144 611.345 262.097 626.249C263.437 628.256 265.205 631.088 265.189 633.55C265.175 635.459 263.887 636.532 262.562 637.905C261.458 638.518 260.313 639.187 259.129 639.63C257.684 640.169 255.967 640.126 254.619 639.377C252.581 638.242 250.145 634.473 248.785 632.569C225.841 600.459 204.198 567.209 181.952 534.605C176.592 526.75 131.092 462.239 130.067 457.536C129.477 454.825 130.913 452.815 132.272 450.597Z" fill="#761717"/>
<path d="M104.481 469.718C106.82 468.046 108.793 467.126 111.642 467.507C113.629 468.788 115.456 471.208 116.79 473.15C155.552 529.537 194.008 586.147 232.59 642.66C234.325 645.201 236.632 648.723 237.594 651.628C238.19 653.427 236.933 654.755 235.998 656.108C234.034 657.329 229.424 660.542 227.635 658.067C185.786 600.155 146.716 539.87 105.931 481.104C102.249 475.797 101.235 474.947 104.481 469.718Z" fill="#761717"/>
<path d="M167.467 444.425C175.234 438.796 177.994 444.266 182.366 450.739C216.074 500.646 251.107 549.863 283.84 600.374C285.079 602.285 283.187 605.67 282.268 607.572C279.454 609.298 277.341 609.525 274.093 608.635C272.363 608.161 271.251 606.595 270.26 605.17C262.716 594.322 255.295 583.381 247.853 572.462L204.308 508.554C193.079 492.108 176.723 469.217 165.844 451.611C164.783 449.894 166.584 446.348 167.467 444.425Z" fill="#761717"/>
<path d="M6.62291 470.896C9.11973 468.966 32.64 451.824 34.6833 453.614C40.1104 458.369 47.8682 471.177 52.2128 477.544L87.0627 528.573L175.56 658.332C189.465 678.706 203.492 699.012 217.326 719.435C219.348 722.421 222.454 726.389 222.67 729.803C221.93 732.007 221.9 731.885 220.095 733.452C212.546 738.679 204.898 744.098 197.148 748.992C189.15 749.249 186.043 747.48 181.518 740.8C168.378 721.402 155.172 702.048 141.961 682.691L58.3219 560.129L23.9033 509.818C18.0222 501.287 10.8712 491.605 5.87328 482.602C4.03503 479.291 5.10733 474.345 6.62291 470.896Z" fill="#FDE8BE"/>
<path d="M422.652 353.437C427.332 351.064 444.923 338.477 450.455 334.697L511.931 292.686L683.023 175.954L738.17 138.301C749.198 130.768 761.295 122.128 772.605 115.161C775.243 118.841 779.165 123.934 780.411 128.183C770.617 136.214 754.279 146.709 743.54 154.032L678.517 198.405L512.172 311.907C485.901 329.835 457.52 348.485 431.684 366.809L422.652 353.437Z" fill="#FDE8BE"/>
<path d="M472.763 426.868L698.327 272.89L775.495 220.231C790.895 209.714 807.114 198.237 822.784 188.259C825.571 192.899 827.181 197.016 829.104 202.051C828.231 203.981 816.072 211.735 813.244 213.672L748.223 258.005L573.764 377.13C544.434 397.138 511.153 420.989 481.412 439.742L472.763 426.868Z" fill="#FDE8BE"/>
<path d="M435.328 371.925L662.703 216.759C703.265 189.08 744.322 160.478 785.179 133.352C787.647 136.87 791.331 142.061 793.062 145.853C787.407 151.269 766.086 165.097 758.515 170.249L688.648 217.896L443.931 384.759C441.027 380.553 438.174 376.181 435.328 371.925Z" fill="#FDE8BE"/>
<path d="M460.005 408.231C486.864 390.475 514.359 371.078 541.049 352.869L708.995 238.284L775.196 193.092C784.867 186.487 794.537 179.858 804.136 173.135C805.759 171.998 807.195 171.678 809.13 171.631C813.618 173.208 815.607 177.836 818.321 182.086C803.49 193.098 785.437 204.835 769.998 215.37L684.268 273.86L468.659 420.881C465.742 416.722 462.873 412.433 460.005 408.231Z" fill="#FDE8BE"/>
<path d="M410.119 334.973C438.656 314.983 468.211 295.239 497.047 275.565L659.385 164.785L725.599 119.559C732.333 114.959 752.887 100.314 759.242 97.6272C762.123 98.4425 766.519 106.009 768.413 108.872C756.357 117.9 740.622 128.035 727.963 136.671L651.244 189.007L418.689 347.711C415.758 343.603 412.918 339.189 410.119 334.973Z" fill="#FDE8BE"/>
<path d="M397.843 317.191L616.593 167.843C658.922 138.943 702.98 107.839 745.623 79.9118C748.481 82.7785 753.747 87.7771 755.85 90.8255C743.552 100.482 725.85 111.84 712.658 120.841L635.596 173.416L406.385 329.744L397.843 317.191Z" fill="#FDE8BE"/>
<path d="M819.203 216.955C822.417 214.665 826.514 212.197 829.901 210.042C829.812 219.006 826.552 229.569 819.412 235.298C809.337 243.387 797.725 250.827 787.02 258.125L723.455 301.457L504.278 451.016L493.987 458.128L485.254 445.133C514.37 424.683 544.629 404.496 574.078 384.4L737.617 272.815C764.906 254.335 792.101 235.718 819.203 216.955Z" fill="#FDE8BE"/>
<path d="M447.864 390.314C487.948 362.105 529.753 334.277 570.308 306.598L791.036 155.754C799.921 149.678 801.827 156.937 805.643 163.992C777.069 184.322 746.405 204.625 717.357 224.446L555.925 334.599L491.522 378.551C480.933 385.779 466.131 395.294 456.288 402.902C453.436 398.821 450.631 394.473 447.864 390.314Z" fill="#FDE8BE"/>
<path d="M386.248 300.111C413.298 282.351 440.945 262.897 467.759 244.607L622.387 139.101C650.036 120.223 677.6 101.219 705.392 82.5584C717.113 74.6884 724.296 74.066 737.695 76.9953C724.25 86.8934 707.243 97.926 693.286 107.445L608.891 164.987L393.944 311.561C391.327 307.845 388.775 303.902 386.248 300.111Z" fill="#FDE8BE"/>
<path d="M238.378 358.419C251.512 348.16 268.746 337.527 283.006 328.714C287.579 325.887 292.969 324.786 298.216 326.315C301.673 324.092 309.089 318.979 312.647 317.799C316.319 319.057 328.883 339.193 329.515 343.835C327.255 347.791 307.931 359.879 302.675 363.413L257.642 394.195C251.699 398.257 239.06 407.364 233.284 410.337C229.017 409.837 222.388 400.568 222.28 397.031C223.745 392.536 232.088 388.264 236.523 385.425C226.331 371.366 224.791 370.861 238.378 358.419Z" fill="#FDE8BE"/>
<path d="M287.482 334.343C289.531 332.782 291.075 331.313 293.483 331.427C296.967 334.277 306.345 347.084 305.861 351.572C304.618 352.32 301.297 354.283 300.249 353.846C295.71 351.954 287.416 338.651 287.482 334.343Z" fill="#761717"/>
<path d="M249.357 680.82L240.758 686.688L75.2376 454.681L88.0066 445.967L131.409 429.402L207.021 426.285L306.859 572.588L249.357 680.82Z" fill="#FDE8BE"/>
<rect x="334.366" y="436.804" width="112.054" height="32.0153" rx="1" transform="rotate(-124.31 334.366 436.804)" fill="#FDE8BE"/>
<path d="M132.631 451.13C135.425 449.731 139.483 447.893 141.89 450.659C145.594 454.914 149.097 460.515 152.274 465.159L175.972 499.883L232.184 582.253C242.295 597.058 252.503 611.878 262.456 626.782C263.796 628.788 265.564 631.62 265.548 634.083C265.534 635.992 264.246 637.065 262.922 638.438C261.817 639.05 260.673 639.72 259.489 640.163C258.044 640.702 256.327 640.659 254.979 639.909C252.941 638.775 250.504 635.005 249.144 633.102C226.201 600.992 204.557 567.742 182.311 535.138C176.952 527.283 131.451 462.772 130.427 458.068C129.836 455.358 131.273 453.348 132.631 451.13Z" fill="#DB1B00"/>
<path d="M104.844 470.253C107.183 468.581 109.156 467.661 112.005 468.042C113.992 469.322 115.819 471.743 117.154 473.684C155.915 530.072 194.372 586.681 232.953 643.195C234.688 645.736 236.996 649.258 237.957 652.163C238.553 653.962 237.296 655.289 236.361 656.642C234.397 657.863 229.787 661.076 227.998 658.601C186.15 600.69 147.079 540.405 106.295 481.639C102.612 476.331 101.598 475.481 104.844 470.253Z" fill="#DB1B00"/>
<path d="M167.83 444.961C175.597 439.331 178.357 444.801 182.729 451.274C216.437 501.182 251.47 550.398 284.204 600.909C285.442 602.82 283.55 606.205 282.631 608.107C279.817 609.833 277.704 610.061 274.456 609.17C272.726 608.696 271.615 607.13 270.624 605.705C263.08 594.857 255.659 583.916 248.216 572.997L204.672 509.089C193.442 492.643 177.087 469.752 166.207 452.146C165.146 450.429 166.948 446.883 167.83 444.961Z" fill="#DB1B00"/>
<path d="M423.011 353.973C427.691 351.599 445.283 339.013 450.814 335.232L512.29 293.222L683.382 176.49L738.529 138.836C749.557 131.304 761.655 122.663 772.965 115.697C775.602 119.377 779.525 124.469 780.77 128.718C770.977 136.75 754.639 147.245 743.899 154.568L678.876 198.94L512.532 312.443C486.26 330.371 457.879 349.02 432.043 367.344L423.011 353.973Z" fill="#DB1B00"/>
<path d="M473.119 427.403L698.683 273.426L775.851 220.766C791.251 210.25 807.47 198.772 823.14 188.794C825.926 193.435 827.536 197.552 829.46 202.587C828.586 204.517 816.427 212.27 813.599 214.208L748.578 258.541L574.12 377.666C544.789 397.674 511.509 421.524 481.768 440.277L473.119 427.403Z" fill="#DB1B00"/>
<path d="M435.676 372.449L663.05 217.283C703.613 189.605 744.67 161.002 785.527 133.876C787.995 137.394 791.679 142.586 793.409 146.377C787.755 151.793 766.434 165.621 758.863 170.773L688.995 218.42L444.278 385.283C441.375 381.077 438.521 376.706 435.676 372.449Z" fill="#DB1B00"/>
<path d="M460.365 408.755C487.224 390.999 514.718 371.603 541.409 353.393L709.354 238.808L775.555 193.617C785.227 187.012 794.896 180.382 804.495 173.659C806.118 172.523 807.554 172.202 809.489 172.156C813.978 173.733 815.966 178.361 818.68 182.61C803.85 193.623 785.796 205.36 770.357 215.895L684.627 274.385L469.019 421.405C466.101 417.246 463.233 412.957 460.365 408.755Z" fill="#DB1B00"/>
<path d="M410.459 335.465C438.996 315.475 468.551 295.731 497.387 276.058L659.725 165.277L725.939 120.051C732.672 115.451 753.227 100.806 759.582 98.1194C762.463 98.9347 766.859 106.502 768.753 109.364C756.697 118.393 740.962 128.527 728.303 137.164L651.584 189.499L419.029 348.203C416.098 344.096 413.258 339.681 410.459 335.465Z" fill="#DB1B00"/>
<path d="M398.179 317.686L616.929 168.338C659.258 139.438 703.316 108.334 745.959 80.4069C748.817 83.2737 754.083 88.2722 756.186 91.3206C743.888 100.977 726.186 112.335 712.994 121.336L635.932 173.911L406.721 330.239L398.179 317.686Z" fill="#DB1B00"/>
<path d="M819.559 217.48C822.772 215.19 826.87 212.722 830.257 210.567C830.168 219.531 826.907 230.094 819.767 235.823C809.693 243.912 798.08 251.352 787.376 258.65L723.811 301.982L504.634 451.541L494.342 458.653L485.61 445.658C514.726 425.208 544.984 405.021 574.433 384.925L737.973 273.34C765.261 254.86 792.456 236.243 819.559 217.48Z" fill="#DB1B00"/>
<path d="M448.215 390.842C488.299 362.633 530.105 334.805 570.66 307.126L791.387 156.282C800.273 150.206 802.179 157.465 805.995 164.52C777.421 184.85 746.757 205.153 717.708 224.974L556.276 335.127L491.874 379.079C481.285 386.307 466.483 395.822 456.639 403.43C453.788 399.348 450.983 395.001 448.215 390.842Z" fill="#DB1B00"/>
<path d="M386.612 300.647C413.662 282.887 441.308 263.433 468.123 245.143L622.75 139.637C650.4 120.759 677.964 101.755 705.755 83.0946C717.477 75.2246 724.659 74.6022 738.058 77.5314C724.613 87.4296 707.606 98.4622 693.65 107.981L609.255 165.523L394.307 312.097C391.691 308.381 389.138 304.438 386.612 300.647Z" fill="#DB1B00"/>
<path d="M287.83 334.864C289.878 333.304 291.423 331.834 293.831 331.949C297.315 334.799 306.693 347.606 306.209 352.093C304.966 352.841 301.645 354.805 300.597 354.368C296.058 352.475 287.764 339.172 287.83 334.864Z" fill="#DB1B00"/>
</svg>
