<svg width="845" height="701" viewBox="0 0 845 701" fill="none" xmlns="http://www.w3.org/2000/svg">
<path d="M207.096 700.663C226.852 687.149 243.736 669.853 256.784 649.76C269.833 629.667 278.789 607.173 283.144 583.56C287.498 559.948 287.164 535.68 282.161 512.142C277.158 488.605 267.584 466.258 253.986 446.379C240.388 426.5 223.032 409.477 202.908 396.282C182.785 383.087 160.289 373.979 136.704 369.478C113.119 364.977 88.9073 365.171 65.4514 370.048C41.9955 374.926 19.7547 384.392 -0.00113279 397.905L103.547 549.284L207.096 700.663Z" fill="#FDE8BE"/>
<rect x="98.7383" y="431.099" width="769.589" height="192.659" transform="rotate(-34.0674 98.7383 431.099)" fill="#FDE8BE"/>
</svg>
