<svg width="887" height="754" viewBox="0 0 887 754" fill="none" xmlns="http://www.w3.org/2000/svg">
<path d="M766.772 104.909C766.772 104.909 828.066 189.05 829.093 201.915C830.12 214.78 829.638 211.233 829.638 211.233L828.378 217.906C825.252 224.686 597.484 390.737 486.837 464.307L372.057 310.306L709.506 80.0308C709.506 80.0308 722.539 78.4136 734.057 76.8471C737.604 76.3648 743.073 78.2155 746.082 80.269C750.75 83.4553 766.772 104.909 766.772 104.909Z" fill="#FDE8BE"/>
<path d="M42.5189 470.217C59.5461 459.244 89.7898 436.925 107.444 426.969C112.238 424.266 133.741 421.734 140.26 420.504C165.969 415.65 192.837 412.934 218.439 407.459L224.558 415.76C228.853 417.384 229.551 417.687 234.117 418.25C244.908 412.108 263.04 398.88 273.806 391.512C294.64 377.254 203.334 451.335 223.806 436.679C224.638 428.371 219.855 419.072 215.005 412.422C227.673 403.876 360.823 312.072 374.194 304.652C375.086 304.156 378.037 304.157 379.178 304.164C402.935 337.367 425.835 373.549 449.466 407.079C454.421 414.11 485.599 458.896 487.39 464.379C485.082 470.686 470.049 479.305 463.736 483.516L373.33 545.195C362.936 552.272 344.625 564.336 335.196 571.798C332.395 574.015 317.42 600.224 314.26 605.569L291.125 644.707C275.925 670.361 277.948 669.577 253.242 686.377L209.993 715.771L42.5189 470.217Z" fill="#FDE8BE"/>
<path d="M132.279 450.597C135.073 449.198 139.131 447.36 141.539 450.126C145.242 454.381 148.746 459.982 151.922 464.626L175.62 499.35L231.832 581.72C241.943 596.525 252.151 611.345 262.105 626.249C263.445 628.256 265.213 631.088 265.197 633.55C265.183 635.459 263.894 636.532 262.57 637.905C261.466 638.517 260.321 639.187 259.137 639.63C257.692 640.169 255.975 640.126 254.627 639.377C252.589 638.242 250.153 634.473 248.793 632.569C225.849 600.459 204.205 567.209 181.959 534.605C176.6 526.75 131.099 462.239 130.075 457.536C129.484 454.825 130.921 452.815 132.279 450.597Z" fill="#761717"/>
<path d="M104.489 469.718C106.828 468.046 108.801 467.126 111.649 467.507C113.637 468.788 115.463 471.208 116.798 473.15C155.56 529.537 194.016 586.147 232.598 642.66C234.333 645.201 236.64 648.723 237.602 651.628C238.198 653.427 236.94 654.755 236.006 656.108C234.042 657.329 229.432 660.542 227.643 658.067C185.794 600.155 146.724 539.87 105.939 481.104C102.256 475.796 101.243 474.947 104.489 469.718Z" fill="#761717"/>
<path d="M167.474 444.425C175.242 438.796 178.001 444.266 182.374 450.739C216.082 500.646 251.115 549.863 283.848 600.374C285.087 602.285 283.195 605.67 282.275 607.572C279.462 609.298 277.349 609.525 274.1 608.635C272.371 608.161 271.259 606.595 270.268 605.17C262.724 594.321 255.303 583.381 247.861 572.462L204.316 508.554C193.087 492.108 176.731 469.217 165.851 451.611C164.791 449.894 166.592 446.348 167.474 444.425Z" fill="#761717"/>
<path d="M6.62682 470.896C9.12363 468.966 32.6439 451.824 34.6872 453.614C40.1143 458.369 47.8721 471.177 52.2167 477.544L87.0666 528.573L175.564 658.332C189.469 678.706 203.496 699.012 217.329 719.435C219.352 722.421 222.458 726.389 222.674 729.803C221.934 732.007 221.904 731.885 220.099 733.452C212.55 738.678 204.902 744.098 197.152 748.992C189.154 749.249 186.047 747.48 181.522 740.8C168.382 721.402 155.176 702.048 141.965 682.69L58.3258 560.129L23.9072 509.818C18.0261 501.287 10.8751 491.605 5.87719 482.602C4.03894 479.291 5.11124 474.345 6.62682 470.896Z" fill="#FDE8BE"/>
<path d="M422.659 353.437C427.339 351.064 444.931 338.477 450.463 334.696L511.939 292.686L683.031 175.954L738.178 138.301C749.206 130.768 761.303 122.128 772.613 115.161C775.251 118.841 779.173 123.933 780.419 128.183C770.625 136.214 754.287 146.709 743.548 154.032L678.524 198.405L512.18 311.907C485.908 329.835 457.528 348.484 431.692 366.809L422.659 353.437Z" fill="#FDE8BE"/>
<path d="M472.767 426.868L698.331 272.89L775.499 220.231C790.899 209.714 807.118 198.237 822.788 188.259C825.575 192.899 827.185 197.016 829.108 202.051C828.235 203.981 816.076 211.735 813.248 213.672L748.227 258.005L573.768 377.13C544.438 397.138 511.157 420.989 481.416 439.742L472.767 426.868Z" fill="#FDE8BE"/>
<path d="M435.332 371.924L662.707 216.759C703.269 189.08 744.326 160.477 785.183 133.352C787.651 136.87 791.335 142.061 793.066 145.853C787.411 151.269 766.09 165.097 758.519 170.249L688.651 217.896L443.935 384.759C441.031 380.553 438.178 376.181 435.332 371.924Z" fill="#FDE8BE"/>
<path d="M460.013 408.231C486.872 390.474 514.367 371.078 541.057 352.869L709.002 238.284L775.203 193.092C784.875 186.487 794.545 179.858 804.144 173.135C805.767 171.998 807.202 171.678 809.138 171.631C813.626 173.208 815.615 177.836 818.328 182.086C803.498 193.098 785.444 204.835 770.005 215.37L684.276 273.86L468.667 420.881C465.75 416.722 462.881 412.433 460.013 408.231Z" fill="#FDE8BE"/>
<path d="M410.127 334.973C438.664 314.983 468.219 295.239 497.055 275.565L659.393 164.785L725.607 119.558C732.34 114.959 752.895 100.314 759.25 97.6271C762.131 98.4424 766.527 106.009 768.421 108.872C756.365 117.9 740.63 128.034 727.971 136.671L651.252 189.007L418.697 347.711C415.766 343.603 412.926 339.189 410.127 334.973Z" fill="#FDE8BE"/>
<path d="M397.851 317.191L616.601 167.843C658.93 138.943 702.988 107.839 745.631 79.9117C748.489 82.7784 753.755 87.777 755.858 90.8254C743.559 100.482 725.858 111.84 712.666 120.841L635.604 173.416L406.393 329.744L397.851 317.191Z" fill="#FDE8BE"/>
<path d="M819.211 216.955C822.424 214.665 826.522 212.197 829.909 210.042C829.82 219.006 826.56 229.569 819.42 235.298C809.345 243.387 797.733 250.827 787.028 258.125L723.463 301.457L504.286 451.016L493.995 458.128L485.262 445.133C514.378 424.683 544.636 404.496 574.085 384.4L737.625 272.815C764.914 254.335 792.108 235.718 819.211 216.955Z" fill="#FDE8BE"/>
<path d="M447.872 390.314C487.956 362.105 529.761 334.277 570.316 306.598L791.044 155.754C799.929 149.678 801.835 156.937 805.651 163.992C777.077 184.322 746.413 204.625 717.365 224.446L555.932 334.599L491.53 378.551C480.941 385.779 466.139 395.294 456.295 402.902C453.444 398.82 450.639 394.473 447.872 390.314Z" fill="#FDE8BE"/>
<path d="M386.252 300.11C413.302 282.351 440.949 262.897 467.763 244.607L622.39 139.101C650.04 120.223 677.604 101.218 705.396 82.5583C717.117 74.6883 724.3 74.0659 737.699 76.9952C724.254 86.8933 707.247 97.9259 693.29 107.445L608.895 164.987L393.948 311.561C391.331 307.845 388.779 303.902 386.252 300.11Z" fill="#FDE8BE"/>
<path d="M238.385 358.419C251.52 348.16 268.754 337.527 283.014 328.714C287.587 325.887 292.977 324.786 298.224 326.315C301.681 324.092 309.097 318.979 312.655 317.799C316.327 319.057 328.891 339.193 329.523 343.835C327.262 347.791 307.939 359.879 302.683 363.413L257.65 394.195C251.706 398.256 239.068 407.364 233.292 410.336C229.025 409.837 222.395 400.568 222.288 397.031C223.753 392.536 232.095 388.264 236.53 385.425C226.339 371.366 224.798 370.861 238.385 358.419Z" fill="#FDE8BE"/>
<path d="M287.486 334.343C289.535 332.782 291.079 331.313 293.487 331.427C296.971 334.277 306.349 347.084 305.865 351.571C304.622 352.32 301.301 354.283 300.253 353.846C295.714 351.954 287.42 338.651 287.486 334.343Z" fill="#761717"/>
<path d="M249.364 680.82L240.765 686.688L75.2454 454.681L88.0144 445.967L131.416 429.402L207.029 426.285L306.867 572.588L249.364 680.82Z" fill="#FDE8BE"/>
<rect x="334.366" y="436.804" width="112.054" height="32.0153" rx="1" transform="rotate(-124.31 334.366 436.804)" fill="#FDE8BE"/>
</svg>
