<svg width="310" height="541" viewBox="0 0 310 541" fill="none" xmlns="http://www.w3.org/2000/svg">
<path d="M22.0751 39.4706C21.934 34.0222 22.0266 28.575 21.9869 23.1186C21.9026 11.602 31.7366 1.38924 43.1215 0.459503C52.1104 -0.274666 61.665 0.0906278 70.7672 0.0926153L124.719 0.0938162L216.387 0.108518C231.877 0.103748 247.387 0.0123247 262.929 0.120443C270.704 0.174502 276.329 2.72402 281.945 8.27421C289.346 15.5845 288.249 28.9025 287.721 39.07L287.26 40.0494C282.188 40.5697 269.996 40.2259 264.428 40.2191L218.791 40.1794L69.6045 40.2116L34.9495 40.2048C32.3388 40.2036 26.0131 40.1758 22.9961 40.2394C22.7703 40.2441 22.2321 39.7413 22.0751 39.4706Z" fill="#DB1B00"/>
<path d="M21.3145 192.829C24.0036 192.799 37.0127 192.342 38.4011 193.277L38.5673 193.944C38.1261 205.055 38.5132 217.495 38.3709 228.811C33.8387 228.608 25.5649 228.723 21.2855 229.772C21.1849 217.458 21.1949 205.143 21.3145 192.829Z" fill="#DB1B00"/>
<path d="M272.033 192.866C277.773 192.785 283.513 192.774 289.253 192.834L289.209 230.005C283.083 228.6 278.318 228.846 272.049 228.766L272.033 192.866Z" fill="#DB1B00"/>
<path d="M272.04 228.768C278.308 228.849 283.074 228.602 289.199 230.008C290.34 230.693 293.838 232.707 294.379 233.735C299.073 242.669 302.388 258.02 305.926 267.666C308.12 273.653 307.921 290.987 306.55 296.905C304.205 298.642 303.461 299.31 300.631 300.268C300.11 372.345 299.995 444.427 300.289 516.504C302.146 516.476 304.244 516.731 306.113 516.902L309.209 519.787C309.599 537.655 312.93 541.55 291.624 540.33C285.053 539.956 270.104 541.721 264.909 538.521C262.782 535.464 263.645 523.985 263.72 519.855C267.067 516.21 267.926 516.341 272.672 516.508L272.687 431.468C272.668 410.103 272.926 388.297 272.608 366.975L36.8479 367.031C36.4174 416.801 36.3487 466.571 36.642 516.337C38.9355 516.393 40.4154 516.599 42.6529 516.913C43.7373 517.891 44.8105 518.953 45.8674 519.966C45.9028 524.736 45.972 529.51 45.9962 534.272C46.0058 536.12 45.7215 537.452 44.3104 538.712C43.5763 539.392 42.4716 540.004 41.4545 540.099C37.4116 540.485 33.0117 540.35 28.9489 540.318C20.6048 540.258 12.2185 540.457 3.89021 540.139C1.8956 538.923 0.67369 537.949 0.358876 535.556C-0.292217 530.607 0.119205 524.847 0.232888 519.887C3.56189 516.54 4.38986 516.436 8.93559 516.401L8.92843 300.344C6.77203 299.871 4.82233 298.157 3.11629 296.798C1.25364 289.945 1.83398 278.696 2.82532 271.551C3.56585 266.212 6.19765 260.033 7.76298 254.801C9.14705 250.173 10.7772 245.47 12.0901 240.796C14.2218 233.862 15.2132 232.924 21.2885 229.773C25.5679 228.724 33.8417 228.608 38.3739 228.812C41.0677 229.165 46.125 229.013 48.9873 229.001L66.7107 228.952L131.879 228.98L225.084 228.959L254.482 228.985C259.515 228.99 267.111 229.16 272.04 228.768Z" fill="#DB1B00"/>
<path d="M272.021 228.768C278.289 228.849 283.055 228.602 289.18 230.008C290.321 230.693 293.819 232.707 294.36 233.735C299.054 242.669 302.369 258.02 305.907 267.666C308.101 273.653 307.902 290.987 306.531 296.905C304.186 298.642 303.442 299.31 300.612 300.268C291.537 300.542 281.636 300.423 272.498 300.475C261.968 300.049 249.829 300.332 239.172 300.328H179.945C132.662 300.328 84.3309 299.799 37.1227 300.407C28.1012 300.189 17.9584 300.268 8.9095 300.344C6.7531 299.871 4.80339 298.157 3.09735 296.798C1.2347 289.945 1.81505 278.696 2.80639 271.551C3.54692 266.212 6.17872 260.033 7.74404 254.801C9.12811 250.173 10.7582 245.47 12.0711 240.796C14.2029 233.862 15.1942 232.924 21.2695 229.773C25.5489 228.724 33.8227 228.608 38.355 228.812C41.0488 229.165 46.1061 229.013 48.9684 229.001L66.6918 228.952L131.86 228.98L225.065 228.959L254.463 228.985C259.496 228.99 267.092 229.16 272.021 228.768Z" fill="#DB1B00"/>
<path d="M37.1266 300.406C84.3348 299.798 132.666 300.326 179.949 300.326H239.176C249.832 300.33 261.972 300.048 272.501 300.473L272.529 309.143C263.681 308.312 263.514 310.053 263.53 318.404C263.542 323.719 262.636 327.499 267.036 331.045C268.868 331.104 270.856 331.072 272.704 331.08L272.494 343.88L37.0137 343.903C36.8348 339.754 36.8722 335.278 36.8301 331.1L42.6152 330.965C44.3932 329.614 45.4839 328.58 45.6834 326.243C46.0169 322.336 46.8354 312.959 44.6209 309.926C42.4951 308.69 39.6372 309 37.1385 309.031L37.1266 300.406Z" fill="#761717"/>
<path d="M289.219 230.002V230.009C289.051 229.971 288.884 229.934 288.719 229.898H288.751C288.906 229.932 289.062 229.966 289.219 230.002ZM272.084 228.767C277.858 228.842 282.357 228.641 287.817 229.707V229.714C282.345 228.642 277.841 228.844 272.059 228.769C271.166 228.84 270.186 228.892 269.15 228.93C270.196 228.892 271.185 228.839 272.084 228.767ZM30.0244 228.813C33.1137 228.69 36.21 228.712 38.418 228.811C41.1116 229.164 46.1688 229.013 49.0312 229.001L66.7549 228.952L131.924 228.979L225.128 228.96L254.526 228.985C257.194 228.988 260.582 229.035 263.911 229.022C260.574 229.036 257.176 228.989 254.502 228.986L225.103 228.961L131.898 228.981L66.7295 228.954L49.0068 229.003C46.1447 229.015 41.0874 229.166 38.3936 228.813C36.1916 228.714 33.1055 228.691 30.0244 228.813ZM267.199 228.985C266.129 229.007 265.023 229.018 263.911 229.022C265.024 229.018 266.129 229.007 267.199 228.985ZM267.261 228.985H267.259C267.872 228.972 268.473 228.955 269.057 228.934C268.474 228.955 267.873 228.972 267.261 228.985ZM43.1689 0.46451C52.1576 -0.269583 61.7126 0.0963029 70.8145 0.0982991L124.766 0.0992756L216.434 0.113924C231.924 0.109154 247.434 0.0175334 262.976 0.125643C270.75 0.179744 276.376 2.72989 281.992 8.27994C289.393 15.5903 288.296 28.9085 287.768 39.0758L287.817 39.1432V192.825C282.568 192.782 277.318 192.794 272.068 192.868L128.193 192.788L71.9326 192.786C61.3507 192.785 49.5344 192.535 39.0244 192.959C38.8785 193.265 38.6508 193.645 38.6143 193.945L38.4482 193.277C37.225 192.455 27.0245 192.706 22.75 192.799V17.6286C25.2006 8.52367 33.6408 1.24276 43.1689 0.46451Z" fill="#DB1B00"/>
<path d="M43.1729 0.464521C52.1616 -0.269611 61.7163 0.0963229 70.8184 0.0983104L124.77 0.0992869L216.438 0.113935C231.928 0.109165 247.439 0.0175361 262.98 0.125654C270.755 0.179815 276.38 2.72987 281.996 8.27995C289.397 15.5903 288.3 28.9084 287.771 39.0758L287.82 39.1423V108.882C247.967 108.845 113.99 108.617 22.75 108.687V17.6413C25.1962 8.5305 33.6402 1.24299 43.1729 0.464521Z" fill="#DB1B00"/>
<path d="M288.132 352.9H27.5625V171.789H281.473L288.132 352.9Z" fill="#DB1B00"/>
</svg>
