<svg width="537" height="649" viewBox="0 0 537 649" fill="none" xmlns="http://www.w3.org/2000/svg">
<path d="M133.013 39.4706C132.871 34.0222 132.964 28.575 132.924 23.1186C132.84 11.602 142.674 1.38924 154.059 0.459503C163.048 -0.274666 172.602 0.0906278 181.705 0.0926153L235.656 0.0938162L327.324 0.108518C342.814 0.103748 358.325 0.0123247 373.867 0.120443C381.641 0.174502 387.266 2.72402 392.883 8.27421C400.284 15.5845 399.187 28.9025 398.658 39.07L398.197 40.0494C393.125 40.5697 380.934 40.2259 375.365 40.2191L329.729 40.1794L180.542 40.2116L145.887 40.2048C143.276 40.2036 136.951 40.1758 133.934 40.2394C133.708 40.2441 133.17 39.7413 133.013 39.4706Z" fill="#DB1B00"/>
<path d="M132.254 192.829C134.943 192.799 147.952 192.342 149.341 193.277L149.507 193.944C149.066 205.055 149.453 217.495 149.31 228.811C144.778 228.608 136.504 228.723 132.225 229.772C132.124 217.458 132.134 205.143 132.254 192.829Z" fill="#DB1B00"/>
<path d="M382.973 192.866C388.712 192.785 394.452 192.774 400.192 192.834L400.148 230.005C394.023 228.6 389.257 228.846 382.989 228.766L382.973 192.866Z" fill="#DB1B00"/>
<path d="M382.977 228.767C389.245 228.848 394.011 228.602 400.137 230.007C401.278 230.692 404.776 232.707 405.316 233.734C410.011 242.668 413.326 258.019 416.863 267.665C419.057 273.653 418.859 290.986 417.487 296.905C415.142 298.642 414.399 299.31 411.569 300.268C411.048 372.345 410.933 444.426 411.227 516.504C413.083 516.476 415.182 516.73 417.05 516.901L420.147 519.787C420.536 537.654 423.867 541.55 402.561 540.329C395.991 539.956 381.041 541.72 375.846 538.521C373.719 535.464 374.582 523.984 374.658 519.854C378.004 516.209 378.863 516.341 383.609 516.508L383.625 431.468C383.605 410.103 383.863 388.296 383.545 366.975L147.785 367.03C147.355 416.8 147.286 466.571 147.58 516.337C149.873 516.392 151.353 516.599 153.59 516.913C154.675 517.891 155.748 518.952 156.805 519.966C156.84 524.736 156.909 529.51 156.934 534.271C156.943 536.12 156.659 537.451 155.248 538.711C154.514 539.391 153.409 540.003 152.392 540.099C148.349 540.484 143.949 540.349 139.886 540.317C131.542 540.258 123.156 540.456 114.828 540.138C112.833 538.922 111.611 537.948 111.296 535.555C110.645 530.607 111.057 524.847 111.17 519.886C114.499 516.539 115.327 516.436 119.873 516.4L119.866 300.343C117.71 299.87 115.76 298.157 114.054 296.797C112.191 289.945 112.771 278.695 113.763 271.551C114.503 266.212 117.135 260.033 118.7 254.8C120.085 250.173 121.715 245.469 123.028 240.796C125.159 233.861 126.151 232.924 132.226 229.773C136.505 228.723 144.779 228.608 149.311 228.811C152.005 229.164 157.062 229.012 159.925 229L177.648 228.952L242.817 228.979L336.021 228.959L365.42 228.984C370.452 228.989 378.048 229.16 382.977 228.767Z" fill="#DB1B00"/>
<path d="M382.956 228.767C389.225 228.848 393.991 228.602 400.116 230.007C401.257 230.692 404.755 232.707 405.295 233.734C409.99 242.668 413.305 258.019 416.842 267.665C419.036 273.653 418.838 290.986 417.466 296.905C415.121 298.642 414.378 299.31 411.548 300.268C402.473 300.542 392.571 300.423 383.433 300.474C372.904 300.049 360.764 300.331 350.107 300.327H290.881C243.597 300.327 195.266 299.799 148.058 300.407C139.037 300.188 128.894 300.268 119.845 300.343C117.689 299.87 115.739 298.157 114.033 296.797C112.17 289.945 112.751 278.695 113.742 271.551C114.482 266.212 117.114 260.033 118.68 254.8C120.064 250.173 121.694 245.469 123.007 240.796C125.138 233.861 126.13 232.924 132.205 229.773C136.484 228.723 144.758 228.608 149.291 228.811C151.984 229.164 157.042 229.012 159.904 229L177.627 228.952L242.796 228.979L336 228.959L365.399 228.984C370.431 228.989 378.027 229.16 382.956 228.767Z" fill="#DB1B00"/>
<path d="M148.062 300.406C195.27 299.798 243.601 300.326 290.885 300.326H350.111C360.768 300.33 372.907 300.048 383.437 300.473L383.465 309.143C374.617 308.312 374.45 310.053 374.466 318.404C374.478 323.719 373.571 327.499 377.971 331.045C379.804 331.104 381.791 331.072 383.64 331.08L383.429 343.88L147.949 343.903C147.77 339.754 147.808 335.278 147.766 331.1L153.551 330.965C155.329 329.614 156.419 328.58 156.619 326.243C156.952 322.336 157.771 312.959 155.556 309.926C153.431 308.69 150.573 309 148.074 309.031L148.062 300.406Z" fill="#761717"/>
<path d="M400.159 230.002V230.009C399.992 229.971 399.825 229.934 399.659 229.898H399.687C399.843 229.932 400.001 229.966 400.159 230.002ZM383.024 228.768C388.797 228.842 393.296 228.642 398.756 229.707V229.713C393.288 228.643 388.786 228.843 383.009 228.769C383.014 228.768 383.019 228.768 383.024 228.768ZM145.377 228.73C146.857 228.731 148.225 228.761 149.358 228.812C152.052 229.165 157.109 229.013 159.972 229.001L177.695 228.952L242.864 228.98L336.068 228.959L365.467 228.985C368.134 228.987 371.522 229.035 374.851 229.022C371.514 229.035 368.115 228.988 365.441 228.986L336.043 228.96L242.839 228.981L177.67 228.953L159.947 229.002C157.085 229.014 152.027 229.166 149.333 228.813C148.206 228.762 146.848 228.731 145.377 228.73ZM378.139 228.985C377.069 229.007 375.963 229.017 374.851 229.022C375.963 229.017 377.069 229.007 378.139 228.985ZM378.2 228.985H378.198C378.812 228.971 379.413 228.955 379.997 228.934C379.414 228.955 378.813 228.972 378.2 228.985ZM145.377 228.73C144.885 228.729 144.381 228.732 143.869 228.738C144.381 228.732 144.885 228.729 145.377 228.73ZM154.108 0.465009C163.097 -0.269115 172.653 0.0958299 181.755 0.0978212L235.706 0.0987978L327.374 0.113446C342.864 0.108674 358.374 0.0170524 373.916 0.125165C381.691 0.179304 387.316 2.72942 392.933 8.27946C400.333 15.5898 399.237 28.9081 398.708 39.0754L398.756 39.1408V192.824C393.507 192.781 388.257 192.794 383.008 192.867L239.134 192.788L182.873 192.786C172.291 192.786 160.475 192.536 149.965 192.959C149.819 193.265 149.591 193.644 149.555 193.945L149.389 193.278C148.167 192.455 137.967 192.706 133.691 192.8V17.6222C136.144 8.52045 144.582 1.2432 154.108 0.465009Z" fill="#DB1B00"/>
<path d="M154.106 0.465024C163.095 -0.269132 172.65 0.0958364 181.752 0.0978366L235.704 0.0988132L327.372 0.113462C342.862 0.108691 358.372 0.0170649 373.914 0.12518C381.689 0.179239 387.314 2.72929 392.931 8.27948C400.332 15.5898 399.235 28.908 398.706 39.0754L398.755 39.1418V108.881C358.902 108.844 224.924 108.617 133.684 108.687V17.6428C136.129 8.53121 144.573 1.24372 154.106 0.465024Z" fill="#DB1B00"/>
<path d="M136.06 132.859C135.919 127.411 135.383 173.169 135.343 167.712C135.259 156.196 145.093 145.983 156.478 145.053C165.467 144.319 175.021 144.685 184.123 144.686L238.075 144.688L329.743 144.702C345.233 144.698 360.743 144.606 376.285 144.714C384.06 144.768 389.685 147.318 395.301 152.868C402.703 160.178 411.054 133.247 410.525 143.415L399.969 137.55C404.222 138.112 422.223 130.647 427.474 130.642L484.093 130.624C491.149 130.623 500.593 130.171 507.398 131.449C509.219 131.791 512.47 135.266 513.579 136.891C519.049 144.889 529.829 156.784 533.672 165.083C534.269 166.151 535.39 168.178 535.529 169.307C536.308 175.643 536.53 189.709 535.724 195.557C534.297 197.276 533.7 198.041 531.927 199.49C529.495 199.546 526.871 199.659 524.459 199.657C513.317 199.476 500.597 199.428 489.451 199.648C489.463 216.158 489.861 234.299 489.428 250.69C489.594 262.301 490.612 264.901 486.45 275.385C483.473 278.246 479.896 281.633 475.726 282.499C468.118 284.079 457.867 283.335 449.945 283.445C434.228 283.664 418.237 283.149 402.571 283.471H384.72C378.595 283.471 373.829 283.471 367.561 283.471C362.632 283.471 355.036 283.471 350.004 283.471H320.605H227.4L162.232 283.471L144.509 283.471C141.646 283.471 136.589 283.471 133.895 283.471C129.363 283.471 121.089 283.471 116.81 283.471C116.709 283.476 134.646 283.464 134.646 283.464C110.969 282.57 85.6418 284.604 61.9326 282.885C58.6294 282.645 52.8554 278.442 50.0019 276.449C49.2303 273.619 47.225 270.521 46.9094 267.459C46.1819 260.396 46.5091 252.422 46.5202 245.296L46.5802 201.124C46.5397 200.808 46.2845 200.3 46.147 199.973C43.473 199.191 16.5556 199.615 12.095 199.666L4.23058 199.506C3.22294 198.78 0.641219 196.845 0.591135 195.532C0.280295 187.372 -1.23336 172.695 2.27372 165.481C5.55304 159.045 21.4011 137.515 27.3038 132.216C30.107 129.699 52.8805 130.892 58.152 130.634C66.0319 130.247 134.244 134.116 136.06 132.859Z" fill="#65C6F7"/>
<path d="M507.398 131.449C500.593 130.171 491.149 130.623 484.093 130.624L427.474 130.642C422.552 130.647 407.927 131.04 402.612 130.625L126.235 130.632C116.403 130.796 100.343 130.712 86.2092 130.633L58.152 130.634C52.8805 130.892 30.107 129.699 27.3038 132.216C21.4011 137.515 5.55304 159.045 2.27372 165.481C-1.23336 172.695 0.280295 187.372 0.591135 195.532C0.641219 196.845 3.22294 198.78 4.23058 199.506L12.095 199.666C16.5556 199.615 43.473 199.191 46.147 199.973C46.2845 200.3 46.5397 200.808 46.5802 201.124L47.0199 199.806C49.003 198.869 376.798 199.536 410.009 199.524L461.893 199.579C469.12 199.569 482.098 199.903 488.994 199.175L489.014 232.91C489.01 236.181 488.772 248.308 489.428 250.69C489.861 234.299 489.463 216.158 489.451 199.648C500.597 199.428 513.317 199.476 524.459 199.657C526.871 199.659 529.495 199.546 531.927 199.49C533.7 198.041 534.297 197.276 535.724 195.557C536.53 189.709 536.308 175.643 535.529 169.307C535.39 168.178 534.269 166.151 533.672 165.083C529.829 156.784 519.049 144.889 513.579 136.891C512.47 135.266 509.219 131.791 507.398 131.449Z" fill="#65C6F7"/>
<path d="M533.672 165.088C534.269 166.156 535.39 168.183 535.529 169.312C536.308 175.648 536.53 189.714 535.724 195.562C534.297 197.281 533.7 198.046 531.927 199.495C529.495 199.551 526.871 199.663 524.459 199.662C513.317 199.481 500.597 199.432 489.451 199.653C489.463 216.163 489.861 234.304 489.428 250.695C488.772 248.313 489.01 236.186 489.014 232.915L488.994 199.18C482.098 199.907 469.12 199.574 461.893 199.583L410.009 199.529C376.798 199.541 49.003 198.874 47.0199 199.811L46.5802 201.129C46.5397 200.813 46.2845 200.305 46.147 199.978C43.473 199.196 16.5556 199.62 12.095 199.671L4.23058 199.511C3.22294 198.785 0.641219 196.85 0.591135 195.537C0.280295 187.377 -1.23336 172.7 2.27372 165.486C4.91585 167.396 6.50265 168.513 9.78355 168.575C19.1091 168.752 28.5464 168.659 37.8716 168.653L91.2381 168.628L255.324 168.626L438.644 168.627L497.31 168.627C507.506 168.632 518.755 168.955 528.831 168.552C530.886 167.338 531.852 166.554 533.672 165.088Z" fill="#65C6F7"/>
<path d="M12.1132 199.666C16.5738 199.615 43.4912 199.191 46.1652 199.973C46.3027 200.299 46.5579 200.808 46.5984 201.124L46.5384 245.295C46.5273 252.422 46.2001 260.396 46.9276 267.459C47.2432 270.521 49.2485 273.619 50.02 276.448L49.9505 621.242C53.4039 621.186 56.5751 620.963 59.2395 623.316C60.546 625.9 60.7929 647.19 58.0005 647.675C50.9152 648.903 15.0963 649.805 9.66541 647.428C6.89488 644.133 7.82979 635.5 7.7002 631.187C7.3997 621.206 10.4226 621.043 18.9993 621.202C19.6794 589.223 19.0236 554.574 19.0232 522.401L19.0415 328.712C19.0391 299.244 18.415 267.815 19.1913 238.543C16.8286 238.307 14.324 238.404 12.7802 236.752C11.3432 231.914 11.6918 205.719 12.1132 199.666Z" fill="#65C6F7"/>
<path d="M489.471 199.649C500.616 199.429 513.336 199.478 524.478 199.659C524.339 205.832 525.086 233.9 523.301 237.158C521.517 238.295 519.144 238.36 517.001 238.582L516.989 621.248C530.265 621.264 528.385 623.581 528.608 635.935C528.664 639.127 529.037 645.085 526.644 647.371C524.875 648.082 523.115 648.396 521.226 648.547C515.181 649.036 481.684 649.45 477.995 647.522C476.946 646.973 476.723 646.326 476.445 645.228C475.396 641.067 475.861 627.154 476.707 622.79C480.885 621.045 481.652 621.113 486.219 621.287L486.299 393.556L486.311 317.44C486.311 304.06 485.937 288.631 486.47 275.387C490.631 264.903 489.614 262.302 489.447 250.692C489.88 234.301 489.483 216.159 489.471 199.649Z" fill="#65C6F7"/>
<rect x="35.2227" y="198.548" width="466.826" height="75.0674" fill="#65C6F7"/>
</svg>
