<svg width="521" height="761" viewBox="0 0 521 761" fill="none" xmlns="http://www.w3.org/2000/svg">
<path d="M294.837 715.31C294.837 715.31 208.905 717.954 199.651 712.666C190.397 707.378 193.041 708.7 193.041 708.7L189.075 704.734C185.905 699.445 178.659 466.768 179.979 357.039L338.467 350.429V687.826C338.467 687.826 333.503 697.469 329.21 706.056C327.888 708.7 324.079 711.569 321.278 712.666C316.931 714.367 294.837 715.31 294.837 715.31Z" fill="#761717"/>
<path d="M382.791 51.1753C382.351 67.8992 383.497 98.9204 382.07 115.598C381.683 120.127 373.399 135.974 371.204 140.995C362.547 160.792 351.892 180.385 343.709 200.399L335.198 200.709C332.091 202.882 331.559 203.217 329.05 206.071C328.216 216.291 328.799 234.818 328.814 245.592C328.842 266.442 320.81 169.669 321.278 190.458C326.558 194.893 335.128 195.959 341.922 195.746C341.855 208.366 342.498 341.934 341.335 354.509C341.258 355.349 339.884 357.361 339.348 358.137C305.638 358.886 270.295 357.665 236.422 358.176C229.319 358.284 184.253 358.705 179.678 357.373C176.451 352.863 177.569 338.595 177.635 332.328L177.645 241.943C177.655 231.558 177.95 213.451 177.249 203.545C177.04 200.602 166.133 178.186 163.957 173.542L148.028 139.54C137.603 117.229 137.196 118.974 137.237 94.2996L137.318 51.1123L382.791 51.1753Z" fill="#761717"/>
<path d="M354.35 121.53C354.003 124.087 353.368 127.711 350.361 128.066C345.734 128.611 340.283 128.394 335.635 128.399L300.916 128.401L218.557 128.402C203.751 128.408 188.889 128.473 174.088 128.324C172.096 128.305 169.341 128.192 167.668 127.035C166.372 126.137 166.24 124.758 165.92 123.216C166.017 122.177 166.093 121.085 166.342 120.071C166.647 118.834 167.475 117.683 168.614 117.112C170.337 116.25 174.042 116.343 175.974 116.301C208.559 115.598 241.317 116.311 273.915 116.313C281.768 116.314 346.957 115.305 350.643 116.796C352.767 117.655 353.469 119.571 354.35 121.53Z" fill="#761717"/>
<path d="M354.278 93.6785C354.33 96.0527 354.039 97.8271 352.453 99.5928C350.654 100.352 348.152 100.472 346.207 100.478C289.696 100.671 233.177 100.552 176.664 100.564C174.123 100.565 170.646 100.499 168.217 99.8027C166.712 99.3717 166.392 97.8962 165.904 96.6285C165.985 94.7205 165.94 90.0799 168.461 90.0118C227.448 88.4224 286.761 89.8334 345.836 89.3678C351.171 89.3261 352.222 89.0303 354.278 93.6785Z" fill="#761717"/>
<path d="M342.172 148.425C342.397 156.344 337.381 155.68 330.93 155.65C281.192 155.411 231.309 156.399 181.614 155.215C179.734 155.171 178.305 152.304 177.436 150.792C177.568 148.069 178.397 146.521 180.516 144.72C181.645 143.761 183.231 143.731 184.664 143.719C195.577 143.622 206.494 143.653 217.408 143.659L281.275 143.704C297.722 143.7 320.951 143.199 338.026 143.973C339.692 144.048 341.272 146.928 342.172 148.425Z" fill="#761717"/>
<path d="M399.029 26.369C399.184 28.9709 399.929 52.9956 397.756 53.5563C391.986 55.045 379.637 54.3746 373.271 54.3746L322.237 54.3934L192.522 54.3588C172.15 54.3599 151.768 54.4767 131.396 54.4061C128.418 54.3959 124.265 54.6674 121.836 53.2254C120.677 51.6944 120.773 51.7305 120.545 49.7701C120.494 42.1871 120.357 34.4471 120.626 26.8824C124.174 21.3066 126.827 20.0105 133.491 20.0333C152.841 20.0994 172.191 20.0999 191.546 20.0994L314.09 20.0974L364.433 20.0384C372.991 19.9978 382.925 19.6267 391.393 20.4084C394.507 20.6956 397.382 23.7295 399.029 26.369Z" fill="#761717"/>
<path d="M285.453 364.862C284.894 369.159 285.29 387.019 285.295 392.553L285.335 454.047L285.32 625.102L285.335 680.251C285.339 691.28 285.602 703.555 285.09 714.514C281.351 714.6 276.052 714.905 272.573 713.776C271.653 703.357 272.099 687.326 272.103 676.591L272.103 611.577L272.11 445.264C272.11 418.996 272.6 390.954 272.127 364.799L285.453 364.862Z" fill="#761717"/>
<path d="M212.064 364.859L212.099 590.412V667.568C212.104 682.969 212.384 699.376 211.896 714.711C207.433 714.452 203.875 713.634 199.545 712.602C198.635 711.107 199.006 699.203 199.001 696.372L199.026 631.379L198.976 456.913C198.981 427.59 198.203 393.784 199.255 364.766L212.064 364.859Z" fill="#761717"/>
<path d="M266.977 364.89L266.98 592.232C266.979 632.787 267.379 674.11 266.863 714.61C263.315 714.656 258.058 714.752 254.666 714.168C253.604 707.789 254.096 686.807 254.106 679.244L254.127 609.402L254.217 364.784C258.438 364.761 262.748 364.85 266.977 364.89Z" fill="#761717"/>
<path d="M230.724 364.827C230.333 391.416 230.766 419.201 230.763 445.886L230.749 613.795L230.759 679.993C230.763 689.666 230.784 699.348 230.902 709.026C230.922 710.663 230.472 711.791 229.603 713.133C226.438 715.461 222.355 714.663 218.192 714.536C217.584 699.292 217.981 681.513 217.982 666.076L217.99 580.366L218.066 364.842C222.261 364.788 226.522 364.828 230.724 364.827Z" fill="#761717"/>
<path d="M303.933 364.913C304.285 393.686 303.996 423.039 303.993 451.869L303.993 614.182L304.022 680.405C304.025 687.14 304.447 707.979 303.322 713.565C301.424 715.151 294.216 714.628 291.381 714.587C290.835 702.16 291.246 686.708 291.247 674.052L291.259 597.353L291.254 364.83C295.42 364.743 299.754 364.86 303.933 364.913Z" fill="#761717"/>
<path d="M321.775 364.816L321.824 583.565C321.834 625.895 322.543 670.43 321.743 712.52C318.457 713.135 312.595 714.401 309.537 714.416C308.675 701.531 309.167 684.169 309.167 670.979L309.176 593.934L309.235 364.799L321.775 364.816Z" fill="#761717"/>
<path d="M193.992 698.906C194.058 702.164 193.834 706.108 193.728 709.422C187.654 705.188 181.966 698.047 181.382 690.509C180.553 679.871 180.883 668.485 180.889 657.786L180.919 594.251L180.924 375.112L180.863 364.78L193.794 364.873C194.19 394.255 193.875 424.293 193.875 453.738L193.865 617.246C193.768 644.464 193.809 671.682 193.992 698.906Z" fill="#761717"/>
<path d="M248.561 364.89C249.145 405.366 248.668 446.839 248.67 487.39L248.82 708.185C248.828 717.075 242.989 714.996 236.4 714.315C235.833 685.358 236.257 654.989 236.259 625.946L236.265 464.542L236.262 400.148C236.261 389.56 236.661 375.033 236.053 364.776C240.165 364.731 244.436 364.842 248.561 364.89Z" fill="#761717"/>
<path d="M338.816 364.846C338.339 391.566 338.741 419.483 338.735 446.289L338.726 600.887C338.734 628.537 338.866 656.187 338.658 683.833C338.57 695.492 335.651 700.682 327.416 708.459C326.922 694.679 327.313 677.942 327.317 663.989L327.35 579.631L327.423 364.766C331.176 364.711 335.054 364.805 338.816 364.846Z" fill="#761717"/>
<path d="M367.868 236.83C368.752 250.565 367.983 267.272 367.357 281.102C367.156 285.538 365.399 289.727 361.913 292.595C361.82 295.988 361.856 303.427 361.004 306.404C358.437 308.324 338.852 307.52 335.391 305.79C333.744 302.407 334.494 283.598 334.53 278.367L334.494 233.317C334.491 227.372 334.161 214.51 334.822 209.187C337.149 206.508 346.559 206.301 349.022 207.874C351.406 210.966 350.436 218.645 350.309 222.992C364.644 222.585 365.706 221.769 367.868 236.83Z" fill="#761717"/>
<path d="M361.452 281.528C361.563 283.652 361.847 285.39 360.648 286.979C357.081 288.029 343.979 288.464 341.143 286.045C341.212 284.849 341.418 281.67 342.204 281.158C345.608 278.943 358.544 279.477 361.452 281.528Z" fill="#761717"/>
<path d="M142.795 94.2396V85.6419L378.117 80.7314V93.4985L369.213 130.818L336.14 183.85H189.859L142.795 94.2396Z" fill="#761717"/>
<rect x="269.719" y="265.818" width="92.5423" height="26.4407" rx="1" fill="#761717"/>
<path d="M64.2727 322.816L75.0088 322.777L61.7839 375.81C59.5967 384.423 56.7848 393.66 55.0571 402.286C47.9892 437.58 91.7877 434.325 114.886 434.33L156.17 434.325L285.351 434.321L383.927 434.325C399.667 434.325 415.845 434.656 431.455 433.995C443.81 433.469 465.244 429.349 466.25 413.878C466.431 411.094 466.804 405.727 466.189 403.096C459.932 376.281 452.628 349.638 446.222 322.828C447.628 322.795 457.404 322.345 457.679 323.619C459.793 332.517 458.168 343.217 459.43 352.323C461.11 363.155 464.518 373.813 467.051 384.484C470.971 401.029 477.595 418.357 461.762 430.918C462.954 449.279 463.168 470.904 463.764 489.558L466.911 578.488C467.809 605.145 468.796 631.886 469.495 658.553C469.886 672.031 465.063 683.93 455.701 693.558C441.916 707.734 427.069 706.495 408.978 706.505L379.308 706.514L267.264 706.463L267.115 698.604C262.73 698.395 258.563 698.479 254.182 698.544L254.08 706.5C201.401 705.974 148.581 706.966 95.9106 706.421C74.0162 706.198 55.4622 689.07 52.3249 667.724C51.0199 658.851 52.0567 646.891 52.3854 637.813L54.0567 592.24L59.9352 431.397C43.6056 419.386 50.127 400.857 54.1363 384.563C56.925 373.231 60.2969 361.829 62.6494 350.42C64.2439 342.687 62.1512 330.281 64.2727 322.816Z" fill="#65C6F7"/>
<path d="M141.932 439.536C156.428 439.294 171.692 439.555 186.253 439.564C186.585 449.476 186.312 460.831 186.306 470.826L186.289 529.527L186.321 560.733C186.339 566.846 186.544 573.536 185.921 579.588C185.65 582.223 183.812 584.699 182.239 586.734C177.669 590.682 174.031 590.873 168.039 591.213C159.177 591.711 144.97 591.543 142.912 580.165C141.957 574.886 142.401 566.399 142.394 560.677L142.355 530.714L141.932 439.536Z" fill="#65C6F7"/>
<path d="M335.65 439.596C350.059 439.303 365.213 439.54 379.678 439.54L379.394 536.04L379.328 563.065C379.319 571.417 380.72 579.797 375.255 586.561C370.152 591.091 365.781 591.133 359.165 591.203C352.112 591.301 344.598 591.766 339.235 586.287C334.161 581.105 335.529 569.708 335.529 562.706L335.525 535.625L335.65 439.596Z" fill="#65C6F7"/>
<path d="M113.847 62.257C127.288 61.5796 145.349 62.0926 159.199 62.0889L250.033 62.2118L350.936 62.1029L383.357 62.114C394.274 62.1206 408.809 61.1555 418.906 64.4055C431.285 68.419 441.56 77.1969 447.459 88.7999C449.116 92.0797 451.006 97.1653 451.174 100.822C451.653 111.274 451.695 121.893 452.058 132.36L455.829 253.191C456.001 259.477 457.496 289.665 456.327 293.177C453.259 295.116 442.896 294.434 438.646 294.392C431.849 271.291 436.048 258.826 406.225 260.527C398.581 260.963 387.985 260.565 380.075 260.574C379.702 244.143 380.061 227.856 380.219 211.444L381.178 117.297C381.253 101.562 381.984 85.7254 381.634 69.9879C381.602 68.4944 380.843 68.0992 379.893 67.0023C372.235 66.9027 325.554 65.966 321.849 67.4418C317.835 69.0386 320.815 82.6648 318.124 88.5331C316.7 91.6341 314.274 93.8171 311.048 94.9279C308.841 95.6891 306.453 95.9167 304.125 96.0136C288.301 96.6723 272.16 95.9232 256.304 95.9484C243.706 95.9684 227.697 96.8134 215.502 95.9074C213.022 95.7235 210.535 95.2901 208.315 94.1192C197.531 88.4316 203.919 76.8296 201.271 69.3953C200.991 68.6099 200.394 67.7947 199.598 67.4888C196.435 66.2751 152.157 66.5172 145.813 66.9972C143.761 67.1522 141.791 67.4544 139.917 68.3412C138.22 73.4795 139.768 136.032 139.878 146.081L140.791 260.628L117.356 260.545C109.54 260.525 93.8587 259.652 90.2437 267.636C87.2349 274.28 84.5798 287.064 82.7605 294.372C78.8568 294.428 67.9266 295.453 65.5491 292.499C64.8707 283.168 65.9289 264.734 66.2292 255.036L68.2441 186.498L69.4937 130.23C69.8889 112.124 68.0044 94.2491 80.4225 79.5033C89.335 68.9204 100.19 63.601 113.847 62.257Z" fill="#761717"/>
<path d="M200.501 228.351C202.695 228.193 204.91 228.178 207.11 228.176C230.264 228.153 253.426 228.239 276.578 228.208L304.409 228.157C309.097 228.15 313.827 228.004 318.506 228.282C337.44 229.408 334.697 247.183 334.539 260.588L321.732 260.64C277.114 260.676 231.135 261.168 186.631 260.583C186.493 246.732 183.558 232.523 200.501 228.351Z" fill="#65C6F7"/>
<path d="M140.38 278.672C145.254 278.557 166.706 276.416 166.177 284.401C165.468 295.118 163.233 306.893 161.647 317.616L155.586 358.577C154.584 365.226 153.578 371.862 152.477 378.496C151.404 384.963 147.006 386.592 140.994 387.086C138.423 387.062 135.727 387.221 133.181 387.141C127.129 386.96 118.399 388.454 114.096 383.17C113.432 382.356 113.753 377.956 113.975 376.741C118.445 352.251 123.53 327.86 128.2 303.405C129.508 296.59 130.728 289.444 132.453 282.763C135.438 280.04 136.439 279.568 140.38 278.672Z" fill="#65C6F7"/>
<path d="M363.005 278.679C369.15 278.52 382.413 277.452 386.892 280.863C390.035 283.258 392.772 301.578 393.652 306.109L400.551 341.54L405.458 366.415C406.361 370.962 407.423 375.659 407.94 380.25C408.419 384.524 403.107 386.148 400.044 386.991C393.615 387.238 386.697 387.27 380.263 387.079C375.635 386.944 372.246 385.282 369.318 381.716C364.164 349.703 359.713 317.298 354.932 285.203C354.271 280.771 359.718 279.301 363.005 278.679Z" fill="#65C6F7"/>
<path d="M397.909 0.118424C408.849 0.107245 428.667 -0.514282 438.677 1.20534C452.559 3.72579 465.358 10.377 475.399 20.2874C485.981 30.7003 493.002 44.1948 495.446 58.8391C496.806 66.7529 496.937 78.0696 497.276 86.3479L499.036 129.082L505.619 287.484L516.168 568.666L519.302 648.368C519.874 662.451 520.777 676.93 520.88 690.966C521.131 725.733 493.128 757.512 458.259 760.468C449.93 761.176 441.056 760.873 432.639 760.84H101.126C91.6115 760.849 81.8789 760.742 72.3779 760.882C48.9874 761.227 28.8403 751.739 14.5586 733.057C-3.15373 709.882 -0.27878 685.09 0.971689 657.837L3.31642 605.068L11.6611 407.94L21.5205 166.243L24.2617 96.0217C24.6844 84.5721 24.3157 70.4387 25.8701 59.2893C30.4299 26.579 57.7817 3.63572 89.1504 0.340104C90.3686 0.175784 93.6115 0.115508 94.8916 0.115494C120.801 0.122477 146.73 0.130143 172.637 0.130143L330.623 0.135025L397.909 0.118424ZM272.996 29.5696C271.529 22.7305 264.76 18.4056 257.936 19.9436C251.208 21.4604 246.954 28.1137 248.404 34.8577C249.854 41.6013 256.464 45.9192 263.224 44.5364C270.077 43.1342 274.467 36.4085 272.996 29.5696Z" fill="#65C6F7"/>
<path d="M256.202 392.72C272.892 390.988 288.172 402.11 266.254 406.495C248.109 408.776 232.147 397.226 256.202 392.72Z" fill="#65C6F7"/>
<path d="M66.9515 282.795L63.274 323.133L66.9515 328.022L64.4998 352.47L55.919 385.474L52.2415 396.475L51.0156 413.588L55.919 422.145L63.274 429.479L66.9515 444.147L453.09 438.035L467.8 418.478L470.251 402.587L455.541 341.468L458.491 326.368L457.265 288.474L391.798 63.9907H136.824L108.63 238.789L66.9515 282.795Z" fill="#761717"/>
<path d="M63.9731 322.022L74.7396 321.982L61.4772 375.016C59.2839 383.629 56.4639 392.865 54.7314 401.492C47.6433 436.785 91.5661 433.531 114.729 433.536L156.131 433.531L285.678 433.526L384.534 433.531C400.318 433.531 416.542 433.862 432.197 433.2C444.587 432.674 466.082 428.554 467.09 413.084C467.272 410.3 467.646 404.932 467.03 402.302C460.755 375.486 453.43 348.843 447.006 322.033C448.416 322.001 458.22 321.55 458.495 322.825C460.615 331.723 458.986 342.423 460.251 351.528C461.936 362.361 465.354 373.019 467.893 383.689C471.824 400.235 478.468 417.563 462.59 430.123C463.785 448.484 464 470.109 464.597 488.764L467.753 577.693C468.654 604.351 469.644 631.092 470.344 657.759C470.737 671.236 465.9 683.136 456.511 692.763C442.687 706.939 427.799 705.701 409.656 705.71L379.902 705.72L267.54 705.668L267.391 697.81C262.993 697.6 258.815 697.684 254.421 697.749L254.319 705.706C201.49 705.18 148.52 706.171 95.7007 705.627C73.7442 705.403 55.1376 688.275 51.9913 666.93C50.6827 658.057 51.7224 646.097 52.052 637.018L53.7281 591.446L59.6233 430.603C43.2473 418.591 49.7872 400.063 53.8079 383.768C56.6045 372.437 59.986 361.035 62.3451 349.626C63.9442 341.893 61.8456 329.487 63.9731 322.022Z" fill="#65C6F7"/>
<path d="M141.836 438.742C156.373 438.5 171.681 438.76 186.283 438.77C186.616 448.681 186.342 460.036 186.336 470.031L186.319 528.733L186.352 559.939C186.369 566.051 186.575 572.741 185.951 578.793C185.678 581.428 183.835 583.905 182.257 585.94C177.674 589.887 174.026 590.078 168.017 590.418C159.13 590.916 144.883 590.749 142.819 579.371C141.861 574.091 142.307 565.604 142.3 559.883L142.26 529.92L141.836 438.742Z" fill="#761717"/>
<path d="M336.126 438.805C350.576 438.512 365.772 438.749 380.278 438.749L379.993 535.248L379.928 562.273C379.918 570.625 381.324 579.005 375.843 585.77C370.726 590.3 366.342 590.341 359.708 590.411C352.634 590.509 345.099 590.975 339.721 585.495C334.632 580.313 336.004 568.917 336.004 561.915L336 534.834L336.126 438.805Z" fill="#761717"/>
<path d="M113.695 61.4669C127.175 60.7896 145.287 61.3026 159.176 61.2989L250.268 61.4218L351.457 61.3128L383.97 61.324C394.918 61.3305 409.494 60.3654 419.62 63.6154C432.034 67.6289 442.338 76.4069 448.253 88.0098C449.915 91.2896 451.811 96.3753 451.979 100.032C452.46 110.484 452.502 121.103 452.866 131.569L456.648 252.401C456.821 258.687 458.319 288.875 457.147 292.387C454.071 294.326 443.678 293.644 439.416 293.602C432.599 270.501 436.81 258.036 406.903 259.737C399.237 260.173 388.611 259.775 380.679 259.784C380.305 243.353 380.665 227.066 380.823 210.654L381.785 116.507C381.86 100.772 382.593 84.9353 382.243 69.1979C382.21 67.7044 381.449 67.3091 380.496 66.2123C372.816 66.1127 326.003 65.176 322.287 66.6518C318.263 68.2486 321.251 81.8748 318.552 87.7431C317.123 90.8441 314.691 93.0271 311.456 94.1379C309.243 94.899 306.848 95.1267 304.513 95.2235C288.644 95.8823 272.458 95.1332 256.556 95.1583C243.923 95.1784 227.868 96.0233 215.639 95.1174C213.152 94.9335 210.658 94.5 208.432 93.3292C197.617 87.6416 204.023 76.0396 201.367 68.6052C201.087 67.8198 200.488 67.0047 199.69 66.6988C196.518 65.4851 152.114 65.7272 145.752 66.2072C143.694 66.3622 141.719 66.6643 139.839 67.5512C138.138 72.6895 139.69 135.242 139.8 145.291L140.716 259.838L117.215 259.755C109.376 259.735 93.6506 258.862 90.0253 266.846C87.0079 273.49 84.3454 286.274 82.5209 293.581C78.6061 293.638 67.6449 294.663 65.2606 291.709C64.5804 282.378 65.6416 263.944 65.9427 254.246L67.9633 185.708L69.2164 129.44C69.6128 111.334 67.7229 93.4591 80.1762 78.7132C89.114 68.1304 99.9995 62.811 113.695 61.4669Z" fill="#65C6F7"/>
<path d="M200.578 227.559C202.778 227.401 205 227.386 207.206 227.384C230.426 227.361 253.654 227.447 276.871 227.416L304.781 227.365C309.482 227.358 314.225 227.212 318.918 227.49C337.905 228.616 335.155 246.391 334.997 259.796L322.153 259.848C277.408 259.884 231.299 260.376 186.668 259.791C186.53 245.94 183.587 231.731 200.578 227.559Z" fill="#65C6F7"/>
<path d="M140.291 277.884C145.179 277.77 166.692 275.628 166.162 283.614C165.45 294.33 163.209 306.105 161.619 316.828L155.541 357.789C154.535 364.438 153.527 371.074 152.423 377.709C151.347 384.175 146.937 385.804 140.908 386.298C138.329 386.275 135.625 386.433 133.072 386.354C127.003 386.172 118.248 387.667 113.933 382.383C113.267 381.568 113.589 377.168 113.812 375.953C118.295 351.464 123.394 327.072 128.077 302.617C129.389 295.802 130.612 288.657 132.342 281.976C135.336 279.252 136.34 278.78 140.291 277.884Z" fill="#65C6F7"/>
<path d="M363.516 277.887C369.679 277.728 382.98 276.66 387.471 280.071C390.623 282.466 393.368 300.786 394.25 305.317L401.169 340.748L406.09 365.624C406.996 370.17 408.06 374.867 408.578 379.458C409.059 383.732 403.732 385.356 400.66 386.199C394.213 386.446 387.275 386.478 380.823 386.287C376.182 386.152 372.783 384.49 369.847 380.924C364.679 348.911 360.215 316.506 355.42 284.411C354.757 279.979 360.22 278.509 363.516 277.887Z" fill="#65C6F7"/>
<path d="M256.483 391.926C273.22 390.194 288.543 401.316 266.563 405.702C248.366 407.983 232.36 396.433 256.483 391.926Z" fill="#65C6F7"/>
</svg>
