<svg width="880" height="473" viewBox="0 0 880 473" fill="none" xmlns="http://www.w3.org/2000/svg">
<path d="M125.003 279.363C117.527 284.552 112.434 292.512 110.856 301.474C100.699 357.324 229.674 379.062 266.974 385.276C316.018 393.118 365.519 397.771 415.165 399.205C422.815 399.492 430.443 400.225 438.1 400.372C517.321 401.896 704.344 391.342 767.436 346.384C778.437 338.54 789.879 327.461 792.176 313.586C793.759 304.057 791.318 295.263 785.709 287.499C782.363 282.863 773.323 275.066 771.726 272.117L772.234 271.482C777.803 271.173 784.231 273.533 789.589 274.943C815.476 281.752 844.294 291.35 864.499 309.456C872.273 316.421 879.327 326.37 879.776 337.13C880.185 347.017 874.833 356.585 868.215 363.59C811.596 423.499 570.904 434.362 485.682 436.35C403.302 438.026 320.898 434.447 238.973 425.632C183.556 419.544 126.575 411.421 73.4307 394.085C53.0401 387.433 29.2901 378.942 13.5332 363.874C6.80764 357.443 0.173059 348.209 0.00412752 338.598C-0.182357 327.986 5.97618 317.556 13.2218 310.197C54.0451 268.733 201.42 242.018 259.431 239C268.747 250.01 272.02 260.842 274.321 274.952C276.12 285.978 276.332 306.767 281.099 315.733C296.141 344.022 370.129 351.417 398.922 353.831C418.275 355.453 438.162 356.705 457.586 356.706C499.585 356.706 595.198 351.494 626.854 324.603C633.552 318.917 636.818 313.548 637.471 304.572C637.94 298.131 637.544 291.556 637.775 285.093C638.303 270.151 639.108 255.487 639.147 240.498C652.444 240.852 666.236 243.522 679.302 246.019C710.844 252.047 751.051 260.387 773.87 284.582C779.71 290.777 784.461 298.484 784.211 307.29C783.92 317.505 777.222 326.262 770.017 332.923C721.462 377.848 558.079 388.534 491.646 390.582C474.477 391.11 457.634 391.962 440.436 391.239C417.309 390.266 394.194 389.725 371.102 388.026C313.642 383.799 166.241 368.837 126.948 326.15C121.535 320.271 117.747 312.991 118.21 304.805C118.752 295.224 124.065 287.965 130.256 281.138C138.503 273.915 156.356 262.272 167.004 259.973C169.062 259.234 171.878 258.496 173.265 256.96C171.26 256.381 167.097 258.038 164.802 258.691C153.99 262.559 133.153 271.098 125.003 279.363Z" fill="#65C6F7"/>
<path d="M215.907 61.5538C233.604 58.4582 256.376 69.0158 269.643 80.2847C296.112 101.873 286.762 133.812 288.629 163.633C289.905 184.016 312.307 188.227 329.059 192.372C358.494 199.656 389.911 202.232 420.155 203.713C483.827 206.831 551.372 205.666 613.002 187.883C617.014 186.723 627.447 180.238 629.473 180.084C631.32 188.075 630.106 208.877 630.232 218.354C630.436 246.717 630.08 275.217 628.971 303.542C628.232 322.46 594.33 331.524 579.655 335.285C569.08 338.169 553.621 340.497 542.71 341.994C525.651 344.287 508.495 345.798 491.298 346.52C445.918 348.269 331.641 346.617 295.955 319.023C284.08 309.841 286.011 296.061 284.326 282.723C277.17 226.075 256.605 222.676 207.927 205.922C197.26 202.25 186.319 198.222 177.342 191.205C162.342 179.481 152.122 162.709 149.794 143.719C147.299 123.373 152.513 103.558 165.221 87.4577C177.557 71.8302 196.529 63.8113 215.907 61.5538ZM221.198 184.861C249.257 184.707 271.954 161.98 272.071 133.921C272.188 105.863 249.681 82.9467 221.625 82.5574C193.182 82.1634 169.88 105.048 169.761 133.494C169.643 161.939 192.753 185.018 221.198 184.861Z" fill="#65C6F7"/>
<path d="M876.899 366.653L877.665 367.045C878.628 369.152 878.166 374.833 878.001 377.207C877.282 387.863 868.756 397.673 860.567 404.117C845.284 416.142 821.145 425.574 802.655 431.557C739.161 452.103 667.629 460.951 601.158 466.134C487.448 474.983 373.193 474.223 259.61 463.861C196.797 457.89 73.3978 441.137 23.3162 405.863C17.5514 401.802 12.9018 396.949 8.42775 391.536C5.22201 386.581 -0.572344 372.051 5.35926 367.866C8.21922 369.171 11.4712 374.365 13.8065 376.137C28.1287 387 46.5396 394.761 63.1774 400.277C119.245 418.863 178.299 428.021 236.769 434.572C299.072 441.633 361.721 445.22 424.424 445.319C447.367 445.334 472.254 445.767 495.034 445.19C544.96 443.741 594.815 440.453 644.5 435.333C710.852 428.47 795.027 418.701 854.193 385.497C862.633 380.762 870.083 373.461 876.899 366.653Z" fill="#65C6F7"/>
<path d="M164.811 258.687L167.013 259.969C156.365 262.268 138.512 273.911 130.264 281.134L129.029 280.41C127.697 281.346 127.057 281.927 125.474 282.379C125.427 281.443 125.404 280.917 125.175 279.993L125.012 279.359C133.161 271.094 153.999 262.555 164.811 258.687Z" fill="#761717"/>
<ellipse cx="161.625" cy="287.753" rx="47.6652" ry="24.5538" transform="rotate(-34.4032 161.625 287.753)" fill="#65C6F7"/>
<path d="M125.003 279.363C117.527 284.552 112.434 292.512 110.856 301.474C100.699 357.324 229.674 379.062 266.974 385.276C316.018 393.118 365.519 397.771 415.165 399.205C422.815 399.492 430.443 400.225 438.1 400.372C517.321 401.896 704.344 391.342 767.436 346.384C778.437 338.54 789.879 327.461 792.176 313.586C793.759 304.057 791.318 295.263 785.709 287.499C782.363 282.863 773.323 275.066 771.726 272.117L772.234 271.482C777.803 271.173 784.231 273.533 789.589 274.943C815.476 281.752 844.294 291.35 864.499 309.456C872.273 316.421 879.327 326.37 879.776 337.13C880.185 347.017 874.833 356.585 868.215 363.59C811.596 423.499 570.904 434.362 485.682 436.35C403.302 438.026 320.898 434.447 238.973 425.632C183.556 419.544 126.575 411.421 73.4307 394.085C53.0401 387.433 29.2901 378.942 13.5332 363.874C6.80765 357.443 0.173059 348.209 0.00412752 338.598C-0.182357 327.986 5.97619 317.556 13.2218 310.197C54.0451 268.733 201.42 242.018 259.431 239C268.747 250.01 272.02 260.842 274.321 274.952C276.12 285.978 276.332 306.767 281.099 315.733C296.141 344.022 370.129 351.417 398.922 353.831C418.275 355.453 438.162 356.705 457.586 356.706C499.585 356.706 595.198 351.494 626.854 324.603C633.552 318.917 636.818 313.548 637.471 304.572C637.94 298.131 637.544 291.556 637.775 285.093C638.303 270.151 639.108 255.487 639.147 240.498C652.444 240.852 666.236 243.522 679.302 246.019C710.844 252.047 751.051 260.387 773.87 284.582C779.71 290.777 784.461 298.484 784.211 307.29C783.92 317.505 777.223 326.262 770.017 332.923C721.462 377.848 558.079 388.534 491.646 390.582C474.477 391.11 457.634 391.962 440.436 391.239C417.309 390.266 394.194 389.725 371.102 388.026C313.642 383.799 166.241 368.837 126.948 326.15C121.535 320.271 117.747 312.991 118.21 304.805C118.752 295.224 124.065 287.965 130.256 281.138C138.503 273.915 156.356 262.272 167.004 259.973C169.062 259.234 171.878 258.496 173.265 256.96C171.26 256.381 167.097 258.038 164.802 258.691C153.99 262.559 133.153 271.098 125.003 279.363Z" fill="#761717"/>
<path d="M413.587 0.976922C426.117 -0.723611 440.016 0.31439 452.686 0.306471C499.158 0.278756 618.611 2.64314 655.525 25.2602C662.144 29.3185 664.816 34.302 666.572 41.6267C660.751 64.7162 635.94 62.3466 634.461 72.9048C630.456 101.475 633.293 133.53 630.278 162.475C629.413 170.712 624.847 173.213 617.68 176.543C584.598 188.928 545.794 192.731 510.699 194.643C492.48 195.233 474.45 196.389 456.198 196.231C422.836 195.942 331.115 191.018 304.511 173.975C301.608 172.116 298.987 169.718 297.944 166.34C296.271 160.922 296.655 153.867 296.378 148.198C295.069 121.39 298.538 93.3185 292.585 67.0549C284.773 63.6499 276.321 60.5319 269.514 55.2957C264.825 51.6894 260.581 46.7646 259.859 40.6824C259.347 36.3701 260.491 32.0405 263.256 28.6751C278.042 10.672 351.262 4.97189 374.848 3.29841C387.704 2.38645 400.805 2.32969 413.587 0.976922ZM297.368 50.4996C327.576 69.5941 450.553 73.1166 488.867 70.5417C518.846 69.9485 597.072 64.6601 622.471 50.8579C610.151 47.9405 599.105 44.6042 586.491 42.4476C533.648 33.4118 482.407 33.8697 429.204 33.9133C393.95 35.1314 359.766 37.1032 324.906 43.5483C314.638 45.4468 306.852 48.347 297.368 50.4996Z" fill="#761717"/>
<path d="M876.899 366.653L877.665 367.045C878.628 369.152 878.166 374.833 878.001 377.207C877.282 387.863 868.756 397.673 860.567 404.117C845.284 416.142 821.145 425.574 802.655 431.557C739.161 452.103 667.629 460.951 601.158 466.134C487.448 474.983 373.193 474.223 259.61 463.861C196.797 457.89 73.3978 441.137 23.3162 405.863C17.5514 401.802 12.9018 396.949 8.42775 391.536C5.22201 386.581 -0.572344 372.051 5.35926 367.866C8.21922 369.171 11.4712 374.365 13.8065 376.137C28.1287 387 46.5396 394.761 63.1774 400.277C119.245 418.863 178.299 428.021 236.769 434.572C299.072 441.633 361.721 445.22 424.424 445.319C447.367 445.334 472.254 445.767 495.034 445.19C544.96 443.741 594.815 440.453 644.5 435.333C710.852 428.47 795.027 418.701 854.193 385.497C862.633 380.762 870.083 373.461 876.899 366.653Z" fill="#761717"/>
<path d="M164.811 258.687L167.013 259.969C156.365 262.268 138.512 273.911 130.264 281.134L129.029 280.41C127.697 281.346 127.057 281.927 125.474 282.379C125.427 281.443 125.404 280.917 125.175 279.993L125.012 279.359C133.161 271.094 153.999 262.555 164.811 258.687Z" fill="#761717"/>
<path d="M164.799 258.691C167.094 258.038 171.257 256.381 173.262 256.96C171.875 258.496 169.059 259.235 167.001 259.974L164.799 258.691Z" fill="#771817" fill-opacity="0.639216"/>
</svg>
