<svg width="881" height="473" viewBox="0 0 881 473" fill="none" xmlns="http://www.w3.org/2000/svg">
<path d="M125.202 279.363C117.726 284.552 112.633 292.512 111.055 301.474C100.898 357.324 229.873 379.062 267.173 385.276C316.218 393.118 365.718 397.771 415.365 399.205C423.015 399.492 430.642 400.225 438.299 400.372C517.52 401.896 704.544 391.342 767.636 346.384C778.636 338.54 790.078 327.461 792.375 313.586C793.959 304.057 791.517 295.263 785.908 287.499C782.562 282.863 773.522 275.066 771.925 272.117L772.433 271.482C778.002 271.173 784.43 273.533 789.788 274.943C815.676 281.752 844.493 291.35 864.699 309.456C872.472 316.421 879.526 326.37 879.975 337.13C880.384 347.017 875.032 356.585 868.414 363.59C811.795 423.499 571.104 434.362 485.882 436.35C403.501 438.026 321.097 434.447 239.172 425.632C183.755 419.544 126.775 411.421 73.6299 394.085C53.2393 387.433 29.4893 378.942 13.7325 363.874C7.00686 357.443 0.372278 348.209 0.203346 338.598C0.0168617 327.986 6.1754 317.556 13.421 310.197C54.2443 268.733 201.619 242.018 259.63 239C268.946 250.01 272.219 260.842 274.521 274.952C276.319 285.978 276.531 306.767 281.298 315.733C296.34 344.022 370.328 351.417 399.121 353.831C418.475 355.453 438.362 356.705 457.785 356.706C499.784 356.706 595.397 351.494 627.053 324.603C633.751 318.917 637.017 313.548 637.67 304.572C638.139 298.131 637.743 291.556 637.974 285.093C638.502 270.151 639.307 255.487 639.347 240.498C652.643 240.852 666.435 243.522 679.501 246.019C711.044 252.047 751.251 260.387 774.07 284.582C779.91 290.777 784.661 298.484 784.41 307.29C784.12 317.505 777.422 326.262 770.216 332.923C721.661 377.848 558.278 388.534 491.845 390.582C474.677 391.11 457.833 391.962 440.636 391.239C417.509 390.266 394.393 389.725 371.301 388.026C313.841 383.799 166.44 368.837 127.147 326.15C121.734 320.271 117.946 312.991 118.409 304.805C118.951 295.224 124.264 287.965 130.455 281.138C138.702 273.915 156.555 262.272 167.203 259.973C169.262 259.234 172.077 258.496 173.464 256.96C171.459 256.381 167.296 258.038 165.001 258.691C154.189 262.559 133.352 271.098 125.202 279.363Z" fill="#65C6F7"/>
<path d="M216.107 61.5538C233.804 58.4582 256.575 69.0158 269.843 80.2847C296.311 101.873 286.961 133.812 288.828 163.633C290.105 184.016 312.506 188.227 329.258 192.372C358.693 199.656 390.11 202.232 420.354 203.713C484.026 206.831 551.572 205.666 613.201 187.883C617.213 186.723 627.646 180.238 629.672 180.084C631.52 188.075 630.306 208.877 630.431 218.354C630.635 246.717 630.279 275.217 629.171 303.542C628.431 322.46 594.53 331.524 579.854 335.285C569.28 338.169 553.821 340.497 542.909 341.994C525.85 344.287 508.695 345.798 491.497 346.52C446.117 348.269 331.841 346.617 296.154 319.023C284.279 309.841 286.21 296.061 284.525 282.723C277.369 226.075 256.805 222.676 208.126 205.922C197.459 202.25 186.518 198.222 177.541 191.205C162.541 179.481 152.321 162.709 149.993 143.719C147.499 123.373 152.712 103.558 165.421 87.4577C177.756 71.8302 196.728 63.8113 216.107 61.5538ZM221.398 184.861C249.456 184.707 272.153 161.98 272.27 133.921C272.387 105.863 249.88 82.9467 221.825 82.5574C193.381 82.1634 170.079 105.048 169.961 133.494C169.842 161.939 192.952 185.018 221.398 184.861Z" fill="#761717"/>
<path d="M877.099 366.653L877.864 367.045C878.827 369.152 878.366 374.833 878.201 377.207C877.481 387.863 868.956 397.673 860.766 404.117C845.483 416.142 821.345 425.574 802.855 431.557C739.36 452.103 667.828 460.951 601.358 466.134C487.647 474.983 373.392 474.223 259.81 463.861C196.996 457.89 73.597 441.137 23.5154 405.863C17.7506 401.802 13.101 396.949 8.62697 391.536C5.42123 386.581 -0.373126 372.051 5.55848 367.866C8.41844 369.171 11.6704 374.365 14.0057 376.137C28.3279 387 46.7388 394.761 63.3766 400.277C119.444 418.863 178.498 428.021 236.968 434.572C299.272 441.633 361.92 445.22 424.623 445.319C447.566 445.334 472.454 445.767 495.234 445.19C545.159 443.741 595.015 440.453 644.699 435.333C711.051 428.47 795.226 418.701 854.392 385.497C862.832 380.762 870.282 373.461 877.099 366.653Z" fill="#65C6F7"/>
<path d="M165.01 258.687L167.212 259.969C156.564 262.268 138.711 273.911 130.464 281.134L129.228 280.41C127.896 281.346 127.257 281.927 125.673 282.379C125.626 281.443 125.604 280.917 125.374 279.993L125.211 279.359C133.361 271.094 154.198 262.555 165.01 258.687Z" fill="#DB1B00"/>
<ellipse cx="161.824" cy="287.753" rx="47.6652" ry="24.5538" transform="rotate(-34.4032 161.824 287.753)" fill="#65C6F7"/>
<path d="M125.199 279.363C117.723 284.552 112.63 292.512 111.052 301.474C100.894 357.324 229.87 379.062 267.17 385.276C316.214 393.118 365.715 397.771 415.361 399.205C423.011 399.492 430.639 400.225 438.295 400.372C517.516 401.896 704.54 391.342 767.632 346.384C778.632 338.54 790.075 327.461 792.371 313.586C793.955 304.057 791.513 295.263 785.904 287.499C782.559 282.863 773.518 275.066 771.921 272.117L772.429 271.482C777.999 271.173 784.426 273.533 789.785 274.943C815.672 281.752 844.489 291.35 864.695 309.456C872.469 316.421 879.523 326.37 879.972 337.13C880.381 347.017 881.556 366.495 874.938 373.5C818.319 433.409 571.656 449.512 486.434 451.5C404.053 453.177 316.359 448.315 234.434 439.5C179.017 433.413 117.579 422.336 64.434 405C44.0434 398.348 20.6951 385.568 4.93828 370.5C-1.78731 364.069 0.368772 348.209 0.199841 338.598C0.0133561 327.986 6.1719 317.556 13.4175 310.197C54.2408 268.733 201.616 242.018 259.627 239C268.943 250.01 272.216 260.842 274.517 274.952C276.315 285.978 276.528 306.767 281.295 315.733C296.336 344.022 370.324 351.417 399.118 353.831C418.471 355.453 438.358 356.705 457.782 356.706C499.781 356.706 595.393 351.494 627.049 324.603C633.747 318.917 637.014 313.548 637.667 304.572C638.135 298.131 637.74 291.556 637.971 285.093C638.498 270.151 639.303 255.487 639.343 240.498C652.64 240.852 666.432 243.522 679.497 246.019C711.04 252.047 781.615 263.304 804.434 287.499C810.274 293.694 799.685 312.194 799.434 321C799.144 331.215 784.14 347.169 776.934 353.831C728.379 398.755 560.867 405.452 494.434 407.5C477.266 408.029 460.131 408.223 442.934 407.5C419.807 406.527 391.526 409.199 368.434 407.5C310.974 403.273 157.227 386.187 117.934 343.5C112.522 337.621 99.9708 315.475 100.434 307.29C100.976 297.709 104.862 286.191 111.052 279.363C119.299 272.141 156.552 262.272 167.2 259.973C169.258 259.234 172.074 258.496 173.461 256.96C171.456 256.381 177.733 257.347 175.438 258C164.625 261.868 133.348 271.098 125.199 279.363Z" fill="#761717"/>
<path d="M413.786 0.976922C426.316 -0.723611 440.215 0.31439 452.886 0.306471C499.357 0.278756 618.81 2.64314 655.724 25.2602C662.343 29.3185 665.016 34.302 666.771 41.6267C660.951 64.7162 636.139 62.3466 634.661 72.9048C630.655 101.475 633.493 133.53 630.477 162.475C629.612 170.712 632.104 187.561 624.938 190.891C591.855 203.277 549.304 205.088 514.209 207C495.99 207.59 474.649 207.158 456.397 207C423.036 206.711 330.711 210.852 304.108 193.809C301.205 191.949 298.583 189.551 297.54 186.174C295.868 180.756 296.252 173.7 295.975 168.032C294.666 141.224 298.737 93.3185 292.784 67.0549C284.972 63.6499 276.521 60.5319 269.713 55.2957C265.025 51.6894 260.78 46.7646 260.058 40.6824C259.546 36.3701 260.69 32.0405 263.455 28.6751C278.242 10.672 351.461 4.97189 375.047 3.29841C387.903 2.38645 401.004 2.32969 413.786 0.976922ZM297.54 50.8579C327.749 69.9525 450.752 73.1166 489.066 70.5417C519.046 69.9485 597.271 64.6601 622.67 50.8579C617.438 59.5 600.051 75.0613 587.438 72.9048C534.594 63.8689 479.14 87.4564 425.938 87.5C390.683 88.7182 358.297 60.6098 323.438 67.0549C313.17 68.9534 300.938 58 297.54 50.8579Z" fill="#761717"/>
<path d="M877.099 366.653L877.864 367.045C878.827 369.152 878.366 374.833 878.201 377.207C877.481 387.863 868.956 397.673 860.766 404.117C845.483 416.142 821.345 425.574 802.855 431.557C739.36 452.103 667.828 460.951 601.358 466.134C487.647 474.983 373.392 474.223 259.81 463.861C196.996 457.89 73.597 441.137 23.5154 405.863C17.7506 401.802 13.101 396.949 8.62697 391.536C5.42123 386.581 -0.373126 372.051 5.55848 367.866C8.41844 369.171 11.6704 374.365 14.0057 376.137C28.3279 387 46.7388 394.761 63.3766 400.277C119.444 418.863 178.498 428.021 236.968 434.572C299.272 441.633 361.92 445.22 424.623 445.319C447.566 445.334 472.454 445.767 495.234 445.19C545.159 443.741 595.015 440.453 644.699 435.333C711.051 428.47 795.226 418.701 854.392 385.497C862.832 380.762 870.282 373.461 877.099 366.653Z" fill="#761717"/>
</svg>
