<svg width="860" height="475" viewBox="0 0 860 475" fill="none" xmlns="http://www.w3.org/2000/svg">
<path d="M591 160C591 138.988 586.836 118.183 578.745 98.7706C570.654 79.3586 558.794 61.7203 543.844 46.8629C528.894 32.0055 511.145 20.22 491.612 12.1793C472.079 4.13853 451.143 7.04327e-06 430 7.03753e-06C408.857 7.03179e-06 387.921 4.13853 368.388 12.1793C348.855 20.22 331.106 32.0055 316.156 46.8629C301.206 61.7203 289.346 79.3586 281.255 98.7706C273.164 118.183 269 138.988 269 160L430 160L591 160Z" fill="#761717"/>
<rect x="269" y="160" width="322" height="164" fill="#761717"/>
<circle cx="187" cy="132" r="71" fill="#761717"/>
<ellipse cx="430" cy="411" rx="430" ry="64" fill="#761717"/>
</svg>
