<svg width="260" height="59" viewBox="0 0 260 59" fill="none" xmlns="http://www.w3.org/2000/svg">
<rect width="4.55743" height="58.1072" transform="matrix(1 0 0 -1 45.3789 58.3555)" fill="#DB1B00"/>
<path d="M82.9845 58.3552C82.9845 56.485 82.6235 54.633 81.9221 52.9051C81.2207 51.1772 80.1926 49.6071 78.8966 48.2847C77.6006 46.9622 76.0619 45.9131 74.3686 45.1974C72.6752 44.4817 70.8603 44.1133 69.0274 44.1133C67.1946 44.1133 65.3796 44.4817 63.6863 45.1974C61.9929 45.9131 60.4543 46.9622 59.1583 48.2847C57.8622 49.6071 56.8341 51.1772 56.1327 52.9051C55.4313 54.633 55.0703 56.485 55.0703 58.3552L69.0274 58.3552H82.9845Z" fill="#DB1B00"/>
<path d="M55.0701 0.248277C55.0701 2.11856 55.4312 3.97052 56.1326 5.69844C56.834 7.42635 57.8621 8.99637 59.1581 10.3189C60.4541 11.6413 61.9927 12.6904 63.6861 13.4061C65.3795 14.1219 67.1944 14.4902 69.0273 14.4902C70.8601 14.4902 72.6751 14.1219 74.3684 13.4061C76.0618 12.6904 77.6004 11.6413 78.8964 10.3189C80.1925 8.99637 81.2205 7.42635 81.922 5.69844C82.6234 3.97052 82.9844 2.11856 82.9844 0.248278L69.0273 0.248278L55.0701 0.248277Z" fill="#DB1B00"/>
<rect width="4.6777" height="27.8975" transform="matrix(1.34991e-07 -1 -1 -1.2759e-07 82.9844 32.1504)" fill="#DB1B00"/>
<rect x="90.8125" y="0.249023" width="4.28789" height="57.8865" fill="#DB1B00"/>
<path d="M99.9537 38.84C102.558 38.84 105.137 38.341 107.543 37.3713C109.949 36.4016 112.135 34.9803 113.977 33.1885C115.818 31.3968 117.279 29.2696 118.276 26.9286C119.272 24.5876 119.785 22.0785 119.785 19.5445C119.785 17.0106 119.272 14.5015 118.276 12.1605C117.279 9.81942 115.818 7.6923 113.977 5.90055C112.135 4.10879 109.949 2.6875 107.543 1.71781C105.137 0.748116 102.558 0.249022 99.9537 0.249023L99.9537 19.5445L99.9537 38.84Z" fill="#DB1B00"/>
<rect width="4.17764" height="31.3323" transform="matrix(-1 8.82013e-08 8.66512e-08 1 171.473 0.000976562)" fill="#DB1B00"/>
<rect width="4.17764" height="31.3323" transform="matrix(-1 8.82013e-08 8.66512e-08 1 131.789 0.000976562)" fill="#DB1B00"/>
<path d="M171.475 35.7581C171.475 38.7069 170.907 41.6268 169.805 44.3512C168.703 47.0755 167.087 49.5509 165.051 51.636C163.014 53.7211 160.596 55.3752 157.935 56.5036C155.274 57.6321 152.422 58.2129 149.542 58.2129C146.662 58.2129 143.81 57.6321 141.149 56.5036C138.488 55.3752 136.07 53.7212 134.033 51.636C131.997 49.5509 130.381 47.0755 129.279 44.3512C128.177 41.6268 127.609 38.7069 127.609 35.7581L149.542 35.7581L171.475 35.7581Z" fill="#DB1B00"/>
<rect x="260" y="58.4619" width="4.17764" height="31.3323" transform="rotate(-180 260 58.4619)" fill="#DB1B00"/>
<rect x="220.309" y="58.4619" width="4.17764" height="31.3323" transform="rotate(-180 220.309 58.4619)" fill="#DB1B00"/>
<path d="M259.994 22.7038C259.994 19.755 259.427 16.8351 258.325 14.1108C257.222 11.3864 255.607 8.91101 253.57 6.82589C251.534 4.74077 249.116 3.08676 246.455 1.9583C243.794 0.829839 240.942 0.249028 238.062 0.249027C235.181 0.249027 232.329 0.829837 229.668 1.9583C227.007 3.08676 224.589 4.74076 222.553 6.82588C220.516 8.91101 218.901 11.3864 217.798 14.1107C216.696 16.8351 216.129 19.755 216.129 22.7038L238.062 22.7038L259.994 22.7038Z" fill="#DB1B00"/>
<rect x="179.312" y="0.249023" width="4.29338" height="57.9606" fill="#DB1B00"/>
<rect x="196.105" y="43.584" width="4.3335" height="14.6256" fill="#DB1B00"/>
<path d="M188.436 38.8894C191.044 38.8894 193.626 38.3897 196.035 37.4187C198.444 36.4478 200.633 35.0247 202.477 33.2306C204.321 31.4366 205.784 29.3068 206.781 26.9627C207.779 24.6187 208.293 22.1064 208.293 19.5692C208.293 17.032 207.779 14.5197 206.781 12.1757C205.784 9.83166 204.321 7.70182 202.477 5.90777C200.633 4.11373 198.444 2.69061 196.035 1.71968C193.626 0.748754 191.044 0.249022 188.436 0.249023L188.436 19.5692L188.436 38.8894Z" fill="#DB1B00"/>
<rect y="0.249023" width="4.28789" height="57.8865" fill="#DB1B00"/>
<path d="M8.6036 58.1356C12.4045 58.1356 16.1682 57.3869 19.6797 55.9324C23.1913 54.4779 26.382 52.3459 29.0696 49.6583C31.7572 46.9706 33.8892 43.78 35.3437 40.2684C36.7982 36.7568 37.5469 32.9932 37.5469 29.1923C37.5469 25.3914 36.7982 21.6277 35.3437 18.1162C33.8892 14.6046 31.7572 11.4139 29.0696 8.72631C26.382 6.03868 23.1913 3.90673 19.6797 2.4522C16.1682 0.997662 12.4045 0.249022 8.60361 0.249022L8.60361 29.1923L8.6036 58.1356Z" fill="#DB1B00"/>
<rect width="4.55743" height="58.1072" transform="matrix(1 0 0 -1 45.3789 58.3555)" fill="#DB1B00"/>
<path d="M82.9845 58.3552C82.9845 56.485 82.6235 54.633 81.9221 52.9051C81.2207 51.1772 80.1926 49.6071 78.8966 48.2847C77.6006 46.9622 76.0619 45.9131 74.3686 45.1974C72.6752 44.4817 70.8603 44.1133 69.0274 44.1133C67.1946 44.1133 65.3796 44.4817 63.6863 45.1974C61.9929 45.9131 60.4543 46.9622 59.1583 48.2847C57.8622 49.6071 56.8341 51.1772 56.1327 52.9051C55.4313 54.633 55.0703 56.485 55.0703 58.3552L69.0274 58.3552H82.9845Z" fill="#DB1B00"/>
<path d="M55.0701 0.248277C55.0701 2.11856 55.4312 3.97052 56.1326 5.69844C56.834 7.42635 57.8621 8.99637 59.1581 10.3189C60.4541 11.6413 61.9927 12.6904 63.6861 13.4061C65.3795 14.1219 67.1944 14.4902 69.0273 14.4902C70.8601 14.4902 72.6751 14.1219 74.3684 13.4061C76.0618 12.6904 77.6004 11.6413 78.8964 10.3189C80.1925 8.99637 81.2205 7.42635 81.922 5.69844C82.6234 3.97052 82.9844 2.11856 82.9844 0.248278L69.0273 0.248278L55.0701 0.248277Z" fill="#DB1B00"/>
<rect width="4.6777" height="27.8975" transform="matrix(1.34991e-07 -1 -1 -1.2759e-07 82.9844 32.1504)" fill="#DB1B00"/>
<rect x="90.8125" y="0.248047" width="4.28789" height="57.8865" fill="#DB1B00"/>
<path d="M99.9537 38.8391C102.558 38.8391 105.137 38.34 107.543 37.3703C109.949 36.4006 112.135 34.9793 113.977 33.1875C115.818 31.3958 117.279 29.2687 118.276 26.9276C119.272 24.5866 119.785 22.0775 119.785 19.5436C119.785 17.0096 119.272 14.5005 118.276 12.1595C117.279 9.81845 115.818 7.69132 113.977 5.89957C112.135 4.10782 109.949 2.68652 107.543 1.71683C105.137 0.747139 102.558 0.248046 99.9537 0.248046L99.9537 19.5436L99.9537 38.8391Z" fill="#DB1B00"/>
<rect width="4.17764" height="31.3323" transform="matrix(-1 8.82013e-08 8.66512e-08 1 171.473 0)" fill="#DB1B00"/>
<rect width="4.17764" height="31.3323" transform="matrix(-1 8.82013e-08 8.66512e-08 1 131.789 0)" fill="#DB1B00"/>
<path d="M171.475 35.7581C171.475 38.7069 170.907 41.6268 169.805 44.3512C168.703 47.0755 167.087 49.5509 165.051 51.636C163.014 53.7211 160.596 55.3752 157.935 56.5036C155.274 57.6321 152.422 58.2129 149.542 58.2129C146.662 58.2129 143.81 57.6321 141.149 56.5036C138.488 55.3752 136.07 53.7212 134.033 51.636C131.997 49.5509 130.381 47.0755 129.279 44.3512C128.177 41.6268 127.609 38.7069 127.609 35.7581L149.542 35.7581L171.475 35.7581Z" fill="#DB1B00"/>
<rect x="260" y="58.4609" width="4.17764" height="31.3323" transform="rotate(-180 260 58.4609)" fill="#DB1B00"/>
<rect x="220.309" y="58.4609" width="4.17764" height="31.3323" transform="rotate(-180 220.309 58.4609)" fill="#DB1B00"/>
<path d="M259.994 22.7029C259.994 19.7541 259.427 16.8341 258.325 14.1098C257.222 11.3854 255.607 8.91003 253.57 6.82491C251.534 4.73979 249.116 3.08578 246.455 1.95732C243.794 0.828862 240.942 0.248051 238.062 0.248051C235.181 0.24805 232.329 0.828861 229.668 1.95732C227.007 3.08578 224.589 4.73979 222.553 6.82491C220.516 8.91003 218.901 11.3854 217.798 14.1098C216.696 16.8341 216.129 19.754 216.129 22.7029L238.062 22.7029L259.994 22.7029Z" fill="#DB1B00"/>
<rect x="179.312" y="0.248047" width="4.29338" height="57.9606" fill="#DB1B00"/>
<rect x="196.105" y="43.583" width="4.3335" height="14.6256" fill="#DB1B00"/>
<path d="M188.436 38.8884C191.044 38.8884 193.626 38.3887 196.035 37.4178C198.444 36.4468 200.633 35.0237 202.477 33.2297C204.321 31.4356 205.784 29.3058 206.781 26.9617C207.779 24.6177 208.293 22.1054 208.293 19.5682C208.293 17.0311 207.779 14.5188 206.781 12.1747C205.784 9.83068 204.321 7.70084 202.477 5.9068C200.633 4.11275 198.444 2.68964 196.035 1.71871C193.626 0.747777 191.044 0.248046 188.436 0.248046L188.436 19.5682L188.436 38.8884Z" fill="#DB1B00"/>
<rect y="0.248047" width="4.28789" height="57.8865" fill="#DB1B00"/>
<path d="M8.6036 58.1346C12.4045 58.1346 16.1682 57.3859 19.6797 55.9314C23.1913 54.4769 26.382 52.3449 29.0696 49.6573C31.7572 46.9697 33.8892 43.779 35.3437 40.2674C36.7982 36.7559 37.5469 32.9922 37.5469 29.1913C37.5469 25.3904 36.7982 21.6268 35.3437 18.1152C33.8892 14.6036 31.7572 11.413 29.0696 8.72533C26.382 6.0377 23.1913 3.90576 19.6797 2.45122C16.1682 0.996685 12.4045 0.248045 8.60361 0.248046L8.60361 29.1913L8.6036 58.1346Z" fill="#DB1B00"/>
</svg>
