<svg width="815" height="427" viewBox="0 0 815 427" fill="none" xmlns="http://www.w3.org/2000/svg">
<path d="M419.505 303.223C416.818 304.343 333.279 303.987 324.554 304.045L125.422 304.941L47.6129 305.742C34.1525 305.831 16.1362 306.334 2.8753 305.386C1.03947 303.846 0.203524 300.038 0.161099 297.754C-0.279918 274.226 0.36014 250.667 0.0364483 227.134C0.0123547 225.369 0.534033 222.404 1.68215 221.006C2.77683 219.618 7.22996 219.366 9.00136 219.351C23.6084 219.22 38.3421 219.351 52.9444 219.424L151.971 220.22L344.374 220.356C352.486 220.356 415.697 219.534 419.552 221.027L421.768 223.143C422.229 230.978 421.941 241.208 421.935 249.232C421.867 266.056 421.904 282.884 422.04 299.713L421.537 301.573L419.505 303.223Z" fill="#DB1B00"/>
<path d="M363.441 422.869C364.555 421.573 365.374 420.802 365.321 418.941C364.639 395.086 366.402 369.788 365.302 346.09L364.781 344.606C396.492 345.213 430.334 344.639 462.237 344.663L505.092 344.7C511.922 344.701 522.921 345.032 529.489 344.503L573.21 344.7C579.05 343.952 586.12 343.814 591.866 344.154C593.882 344.264 595.846 344.839 597.606 345.835C601.414 345.912 602.325 343.941 606.238 343.653C610.088 344.021 610.884 344.412 614 346.729C616.441 345.05 617.97 344.144 621.008 343.923C625.879 344.061 626.482 344.14 630.483 346.852C633.993 345.003 635.082 344.379 639.126 344.068C643.012 344.414 643.882 344.723 647.071 346.935C649.313 345.402 649.622 345.004 652.199 344.532C657.437 344.061 657.856 344.157 662.392 346.811C663.717 345.799 664.492 344.93 666.111 344.86C669.997 344.278 672.16 344.158 675.25 346.853C678.461 345.163 682.342 343.79 686.035 344.534C688.565 345.873 689.104 346.081 690.953 348.223C693.232 347.096 693.975 346.522 696.432 346.317C700.858 346.37 701.816 347.248 704.802 350.557C707.604 350.509 710.459 349.822 713.203 349.609C743.242 359.762 775.029 373.241 799.223 393.855C803.559 397.553 810.547 402.786 812.935 407.846C816.345 415.074 811.688 421.858 803.915 422.642C798.185 422.203 786.615 422.58 780.534 422.581L734.039 422.576L587.44 422.496C584.035 422.935 573.539 422.713 569.804 422.704L534.235 422.608L423.54 422.559L386.774 422.524C379.544 422.521 370.529 422.316 363.441 422.869Z" fill="#65C6F7"/>
<path d="M419.996 422.88C416.773 424.797 208.883 424.139 185.264 424.399C152.359 424.891 119.45 425.193 86.5404 425.305C73.6147 425.444 10.9648 427.207 2.58898 424.579C-1.35561 420.558 0.390005 402.555 0.355505 396.664L0.207216 363.672C0.19269 357.967 -0.850205 343.908 2.59927 339.82C11.0629 338.12 38.6006 338.93 48.311 339.114C62.9787 339.343 77.6482 339.495 92.3177 339.572L321.512 341.252L381.752 341.806C388.107 341.839 416.399 341.396 419.452 342.872L421.544 344.539L422.146 346.024C423.417 369.746 421.379 395.069 422.167 418.948C422.229 420.81 421.282 421.582 419.996 422.88Z" fill="#DB1B00"/>
<path d="M604.78 289.412C606.802 288.975 606.702 289.254 607.739 288.283C608.263 277.338 607.472 265.463 607.739 254.39C607.807 251.655 607.933 237.624 607.519 235.66L608.043 234.998L596.654 242.939C585.964 246.562 570.333 254.412 570.563 253.705C575.528 251.779 417.795 223.633 421.723 223.264C430.322 222.463 672.454 222.924 682.069 223.123L764.474 224.854C777.807 225.144 796.158 225.93 809.193 225.648C815.891 226.953 816.148 235.795 809.523 237.496C804.799 237.206 794.184 237.579 789.051 237.677L749.789 238.493L718.597 238.911C710.056 239.027 703.792 238.162 696.361 241.27C691.522 247.666 694.271 251.745 703.682 253.709C707.463 253.235 719.152 253.619 723.421 253.705L757.755 254.39C770.214 254.601 782.673 254.868 795.121 255.191C798.593 255.282 807.229 255.308 810.173 255.583C811.414 255.944 812.927 256.493 813.257 257.502C814.477 261.238 815.394 265.979 809.612 267.675C802.741 267.254 791.387 267.958 784.071 268.112L735.942 269.12C725.222 269.346 712.061 269.128 701.357 269.88C698.916 270.053 696.518 272.349 694.68 273.624C693.287 279.125 694.795 283.437 703.625 284.159C706.767 283.911 747.878 284.52 750.177 285.028C754.801 285.111 759.425 285.16 764.044 285.175C778.813 284.953 795.105 286.127 809.659 285.86C815.404 287.071 814.436 291.44 813.425 294.924C812.943 296.598 811.634 297.08 809.67 297.855C805.26 297.181 780.295 298.34 773.817 298.487L687.243 300.342C673.909 300.658 447.598 301.099 434.553 300.339C430.248 300.087 575.497 286.665 570.563 285.175C568.416 284.532 606.425 289.976 604.78 289.412Z" fill="#65C6F7"/>
<path d="M421.537 301.586L422.04 299.726C421.904 282.897 421.867 266.069 421.935 249.245C421.94 241.221 422.228 230.991 421.768 223.156L507.394 223.098C522.536 223.088 538.637 222.768 553.691 223.135C565.276 222.92 576.857 222.863 588.443 222.957C594.571 222.988 605.673 223.871 611.193 222.865C610.963 223.85 610.819 223.062 610.274 223.968L607.98 224.507L607.456 225.429C607.87 228.163 607.744 247.695 607.676 251.502C607.409 266.917 608.2 283.447 607.676 298.684C606.639 300.035 606.738 299.648 604.717 300.255C598.054 299.92 589.731 301.177 582.477 301.198C577.564 301.821 568.765 301.502 563.485 301.497L529.251 301.518C493.645 301.549 457.018 302.099 421.537 301.586Z" fill="#65C6F7"/>
<path d="M422.046 299.694C421.91 282.865 421.873 266.036 421.941 249.213C421.946 241.189 422.234 230.959 421.773 223.124L507.4 223.066C522.542 223.056 538.643 222.736 553.696 223.103C565.282 222.888 576.863 222.83 588.449 222.925C594.577 222.956 606.106 223.834 611.627 222.829C611.396 223.814 610.824 223.029 610.28 223.936L607.986 224.475L607.462 225.397C607.876 228.131 610.412 247.677 610.344 251.485C610.077 266.9 608.206 283.415 607.682 298.652C606.645 300.003 606.744 299.616 604.722 300.223C598.06 299.888 589.737 301.145 582.483 301.166C580.482 299.679 578.293 299.6 575.883 299.532C574.82 298.181 574.323 296.997 573.526 295.467C574.27 273.39 573.553 250.899 573.647 228.791C573.652 227.843 574.469 225.879 574.846 224.936C569.462 224.454 561.611 224.664 556.064 224.648L524.328 224.59L422.318 224.491C422.879 248.82 422.381 275.166 422.381 299.652L422.046 299.694Z" fill="#65C6F7"/>
<path d="M419.784 139.244C415.881 140.186 396.013 139.874 390.502 139.887L330.176 140.145C244.572 139.94 158.968 140.353 73.3693 141.383C62.5067 141.411 8.30187 143.545 3.23384 140.918C2.06006 140.309 0.925568 138.894 0.634873 137.62C-0.578188 132.3 0.320087 117.696 0.320087 111.6C0.320088 95.5929 -0.396437 79.2134 0.440555 63.2393C0.566785 60.8295 0.885238 58.5369 1.62795 56.2297C3.76862 54.0733 6.54252 54.2314 9.55894 54.2351C61.2361 54.298 113.136 55.466 164.783 55.5001L332.256 55.5634C359.268 55.577 386.301 55.5488 413.315 55.6048C415.352 55.609 418.616 55.498 420.187 56.7561L422.156 58.6066L422.193 106.016C422.193 112.57 421.837 124.81 422.523 130.651L422.696 133.497L421.936 137.142L419.784 139.244Z" fill="#DB1B00"/>
<path d="M419.779 139.234C419.575 132.18 419.418 57.9944 420.182 56.7468L422.152 58.5973L422.189 106.007C422.189 112.561 421.832 124.801 422.518 130.642L422.691 133.488L421.932 137.132L419.779 139.234Z" fill="#65C6F7"/>
<path d="M590.563 140.048C592.812 140.074 596.27 140.505 597.845 139.186L597.484 137.818C596.454 135.448 596.114 131.027 595.344 127.943C591.494 112.52 590.819 96.8165 593.21 80.954C594.057 75.3424 598.489 63.9815 596.747 57.2494C596.563 56.5352 595.198 56.2081 594.387 55.8709L593.032 55.0643C601.727 39.102 614.19 25.9352 629.132 16.9113C681.225 -14.9725 761.765 -1.82784 792.329 57.3327C802.976 78.2332 805.55 102.85 799.492 125.801C792.423 151.912 775.273 172.21 753.195 184.612C697.533 215.876 621.582 203.338 590.563 140.048Z" fill="#65C6F7"/>
<path d="M793.287 60.9973C791.037 60.9712 787.579 60.5399 786.004 61.8589L786.365 63.2267C787.396 65.5971 787.736 70.0178 788.505 73.1019C792.356 88.5252 793.031 104.228 790.64 120.091C789.792 125.703 785.361 137.063 787.103 143.796C787.286 144.51 788.652 144.837 789.463 145.174L790.818 145.981C782.122 161.943 769.66 175.11 754.718 184.134C702.624 216.017 622.085 202.873 591.52 143.712C580.874 122.812 578.3 98.1951 584.358 75.2444C591.426 49.1325 608.576 28.8346 630.655 16.433C686.317 -14.8313 762.267 -2.29256 793.287 60.9973Z" fill="#65C6F7"/>
<path d="M683.396 193.595C660.458 191.415 641.647 184.147 623.466 168.258C606.567 153.545 595.769 132.196 593.454 108.903C591.516 85.9144 598.054 63.0276 611.661 45.2068C626.512 25.6519 651.22 11.3176 674.516 8.82563C702.633 2.70905 732.493 11.4365 756.445 28.077C794.514 54.5273 807.506 107.355 781.206 148.49C765.625 172.855 739.798 186.126 713.572 192.372C707.485 193.796 689.121 194.966 683.396 193.595Z" fill="#65C6F7"/>
<path d="M683.35 193.318C660.423 191.138 641.622 183.871 623.45 167.985C606.56 153.273 595.768 131.927 593.453 108.637C591.517 85.6525 598.051 62.769 611.651 44.9508C626.495 25.3987 651.191 11.0664 674.474 8.57483L684.106 8.76168C661.463 17.6917 645.784 33.7262 635.518 57.3147C625.219 81.286 624.254 108.711 632.846 133.455C641.879 159.868 662.355 181.934 687.67 189.102C690.1 189.791 692.814 190.205 694.913 191.681C693.349 193.669 685.87 193.324 683.35 193.318Z" fill="#65C6F7"/>
<path d="M700.91 10.3183C705.715 9.71396 721.101 13.7752 725.874 15.4754C750.291 24.1911 772.238 39.9307 784.17 64.9491C793.296 83.6632 794.947 105.564 788.733 125.611C780.974 150.879 763.817 167.033 742.333 178.693C730.227 184.506 725.091 186.252 712.37 189.039C725.348 179.399 735.157 168.331 742.89 153.536C754.991 130.053 757.892 102.356 750.943 76.571C742.853 45.7532 726.458 25.6202 700.91 10.3183Z" fill="#65C6F7"/>
<path d="M421.939 137.107L422.699 133.463L422.526 130.616C421.84 124.775 422.196 112.536 422.196 105.981L422.159 58.5717C478.727 58.6927 536.515 57.861 592.915 58.5592L594.272 59.3045C595.083 59.6161 596.45 59.9184 596.634 60.5783C598.378 66.7992 593.942 77.2972 593.093 82.4825C590.699 97.1404 591.375 111.651 595.23 125.903C596 128.753 596.341 132.838 597.372 135.028C594.109 134.937 591.695 134.985 588.437 135.145C585.163 135.923 582.508 136.73 579.134 136.623L574.358 136.741C568.418 136.444 560.2 136.687 554.051 136.691L514.276 136.73C484.096 136.772 451.915 136.345 421.939 137.107Z" fill="#65C6F7"/>
<path d="M588.442 135.185C584.461 135.287 574.331 136.613 574.054 130.85C573.001 108.932 573.242 86.4863 573.944 64.5444C573.986 63.0946 575.07 61.319 575.845 60.1405C579.391 60.0912 591.998 60.6606 594.277 59.3443C595.088 59.656 596.456 59.9582 596.639 60.6181C598.383 66.839 593.947 77.337 593.098 82.5224C590.705 97.1802 591.38 111.691 595.235 125.943C596.005 128.793 596.346 132.877 597.377 135.068C594.114 134.977 591.7 135.024 588.442 135.185Z" fill="#65C6F7"/>
<path d="M422.512 130.642C421.826 124.801 422.182 112.561 422.182 106.006L422.146 58.597C478.713 58.718 536.501 57.8863 592.901 58.5845L594.258 59.3298C591.979 60.646 579.372 60.0767 575.826 60.1259C563.722 60.4308 550.392 59.9526 538.12 60.0505C499.827 60.3553 460.905 59.3769 422.659 60.1317C422.507 83.2668 423.125 107.648 422.512 130.642Z" fill="#65C6F7"/>
<path d="M421.939 137.107L422.699 133.463C423.526 133.866 426.297 135.197 427.062 135.25C438.847 136.077 452.853 135.573 464.58 135.551L539.438 135.468C551.27 135.437 563.458 135.22 575.295 135.361C576.657 135.377 577.977 135.899 579.134 136.623L574.358 136.741C568.418 136.444 560.2 136.687 554.051 136.691L514.276 136.73C484.096 136.772 451.915 136.345 421.939 137.107Z" fill="#65C6F7"/>
<path d="M590.441 137.106C585.386 136.941 579.164 137.397 574.355 136.759L579.132 136.641C582.505 136.748 585.161 135.94 588.435 135.163C591.692 135.002 594.107 134.955 597.37 135.046L597.732 136.31C596.155 137.528 592.693 137.13 590.441 137.106Z" fill="#65C6F7"/>
</svg>
