<svg width="362" height="835" viewBox="0 0 362 835" fill="none" xmlns="http://www.w3.org/2000/svg">
<path d="M362 835C362 811.362 357.318 787.956 348.222 766.117C339.126 744.278 325.794 724.435 308.986 707.721C292.179 691.006 272.226 677.748 250.266 668.702C228.306 659.656 204.769 655 181 655C157.231 655 133.694 659.656 111.734 668.702C89.7744 677.748 69.8211 691.006 53.0137 707.721C36.2063 724.435 22.8739 744.278 13.7778 766.117C4.68169 787.956 -8.91278e-06 811.362 -7.86805e-06 835L181 835L362 835Z" fill="#65C6F7"/>
<rect x="152" y="41" width="58" height="675" fill="#65C6F7"/>
<circle cx="180.5" cy="44.5" r="44.5" fill="#65C6F7"/>
</svg>
