<svg width="621" height="769" viewBox="0 0 621 769" fill="none" xmlns="http://www.w3.org/2000/svg">
<path d="M300.897 0.387837C314.421 -0.554482 349.606 -0.328805 361.575 7.49037C363.528 8.87661 365.41 11.3832 365.527 13.8429C366.218 28.2828 348.852 33.7578 337.915 34.9572C338.385 59.7568 337.987 85.8153 337.99 110.69L338.001 254.92L338.016 712.273C429.266 714.502 524.015 700.645 606.705 747.857C614.52 752.32 628.075 760.101 614.721 768.116C608.546 768.427 600.259 768.186 593.959 768.186L554.63 768.176L442.957 768.227C442.352 768.227 437.137 768.086 436.845 767.851C432.491 764.329 428.641 754.8 423.458 752.205C396.8 738.879 346.228 740.677 318.529 740.707C283.352 740.672 242.851 739.335 208.136 747.285C195.233 750.241 190.928 757.094 184.907 768.061C176.599 768.421 166.605 768.176 158.146 768.176L110.404 768.171C76.073 768.181 39.584 768.828 5.4158 768.086C1.32404 765.546 -2.4724 759.855 2.04666 756.032C10.9778 748.473 23.4212 742.106 34.1492 737.482C66.2359 723.955 100.346 715.845 135.092 713.47C151.423 712.187 169.392 712.578 185.85 712.337C217.715 711.871 250.765 713.088 282.519 712.107L282.532 288.204L282.524 126.528C282.399 96.0022 282.447 65.4751 282.668 34.9494C272.159 35.1081 256.253 30.0979 255.126 17.7179C254.931 15.5817 254.989 11.5448 256.717 10.1457C267.617 1.31772 287.651 1.08569 300.897 0.387837ZM326.914 652.019C316.165 651.893 304.296 651.708 293.604 652.014L293.541 712.291C304.716 712.366 315.892 712.316 327.066 712.146C326.799 692.688 327.58 671.146 326.914 652.019ZM326.936 36.0783C317.852 36.5823 302.791 37.2788 293.726 36.3976C293.267 44.7498 293.485 54.6632 293.499 63.1095L293.548 105.963L293.527 245.08L293.584 640.425L326.943 640.34L326.973 245.857L326.973 107.561C326.973 83.9347 327.282 59.6371 326.936 36.0783Z" fill="#65C6F7"/>
<rect x="290.109" y="10.8794" width="42.6093" height="702.601" fill="#65C6F7"/>
<path d="M158.655 725.265H460.547L587.015 768.328H11.7891L158.655 725.265Z" fill="#65C6F7"/>
</svg>
