<svg width="714" height="621" viewBox="0 0 714 621" fill="none" xmlns="http://www.w3.org/2000/svg">
<path d="M146.244 1.20177C220.055 -2.30761 295.15 2.97507 368.834 3.08361C435.481 3.17405 504.624 -2.34392 571.451 1.31017C607.217 3.26385 607.796 8.36594 636.542 21.2457C659.626 31.5929 686.111 36.7666 709.81 45.6666C717.57 52.2153 712.09 82.6769 711.692 92.6627C706.825 213.917 698.738 335.136 693.51 456.173C691.665 498.919 692.551 542.045 690.036 584.755C689.729 589.835 688.155 608.188 688.154 608.205C688.154 608.205 687.73 612.012 687.73 614.549C687.73 614.574 687.727 615.834 687.377 617.509C687.024 619.201 681.824 619.74 679.996 619.993C676.722 620.463 670.771 617.859 668.238 615.453L635.547 558.561C635.534 558.57 635.521 558.577 635.508 558.586L606.742 496.369C604.111 488.394 599.482 476.271 598.099 473.937C596.506 471.259 584.531 458.779 582.179 457.368C571.107 450.675 544.044 450.204 530.765 448.088C530.041 408.363 537.441 368.403 557.902 334.141H157.19C160.048 345.013 167.718 354.438 171.608 364.912C180.997 390.219 183.313 421.297 183.421 448.088C170.703 450.132 142.464 451 132.007 457.368C129.637 458.816 117.698 471.241 116.087 473.937C115.912 474.233 115.716 474.602 115.503 475.034L115.448 474.972L64.5208 585.115C58.9764 596.196 53.1429 607.186 46.7269 614.385C43.0546 618.491 40.0517 621.114 34.6068 618.112C33.7384 617.624 27.1888 610.351 26.8089 609.212C25.7054 605.829 24.5481 591.213 24.2406 586.437C18.2706 489.676 18.0167 392.119 13.4398 295.14C10.0749 223.777 2.5317 151.545 0.632154 80.0367C0.342701 69.1287 -3.004 46.5889 9.24348 43.2604C29.6859 37.6888 47.7768 31.8998 68.4544 22.8912C99.1905 9.52312 110.678 2.88412 146.244 1.20177ZM224.144 68.1881C210.232 58.9082 177.56 64.3707 161.116 66.6861C147.964 68.5494 119.561 71.8422 110.968 81.6647C104.727 88.792 102.447 108.311 102.049 117.953C100.367 158.582 107.783 225.422 120.646 263.935C122.093 268.258 128.985 287.361 130.777 289.587C135.188 295.083 179.647 291.001 188.78 290.618L231.941 81.7194C231.814 76.7267 228.232 70.9197 224.144 68.1881ZM577.856 70.8649C558.643 66.4329 508.875 58.51 492.268 66.8131C488.36 68.7668 484.217 73.4156 483.041 77.6305C481.069 84.631 488.197 114.768 490.006 124.338C500.589 179.927 514.881 235.028 525.392 290.654C544.279 292.318 562.876 291.667 581.492 291.685C593.829 268.675 600.378 242.897 604.648 217.21C608.248 195.557 611.287 168.766 612.119 146.896C612.626 133.835 612.318 90.6912 604.376 81.3932H604.412C599.908 76.1112 584.803 72.4748 577.856 70.8649Z" fill="#DB1B00"/>
</svg>
