<svg width="714" height="621" viewBox="0 0 714 621" fill="none" xmlns="http://www.w3.org/2000/svg">
<path d="M146.244 1.20192C220.055 -2.30746 295.15 2.97425 368.834 3.08278C435.481 3.17322 504.624 -2.34377 571.451 1.31032C607.217 3.26401 607.796 8.36512 636.542 21.2449C659.626 31.5921 686.111 36.7657 709.81 45.6658C717.571 52.2142 712.09 82.6774 711.692 92.6629C706.825 213.917 698.738 335.136 693.51 456.174C691.665 498.919 692.551 542.045 690.036 584.755C689.729 589.838 688.154 608.205 688.154 608.205C688.149 608.249 687.73 612.026 687.73 614.549C687.73 614.549 687.73 615.818 687.377 617.51C687.024 619.201 681.824 619.74 679.996 619.993C676.722 620.463 670.77 617.858 668.238 615.452L635.547 558.56C635.534 558.569 635.521 558.576 635.508 558.585L606.742 496.37C604.112 488.395 599.482 476.272 598.099 473.937C596.507 471.26 584.531 458.778 582.179 457.367C571.107 450.674 544.044 450.204 530.765 448.088C530.041 408.363 537.441 368.402 557.902 334.14H157.19C160.048 345.012 167.718 354.437 171.608 364.911C180.997 390.218 183.313 421.297 183.421 448.088C170.703 450.132 142.464 450.999 132.007 457.367C129.637 458.814 117.697 471.242 116.087 473.937C115.912 474.233 115.716 474.602 115.503 475.033L115.448 474.971L64.5238 585.108C58.9784 596.191 53.1441 607.184 46.7269 614.385C43.0545 618.491 40.052 621.114 34.6068 618.111C33.7385 617.623 27.1898 610.352 26.8089 609.212C25.7054 605.829 24.5481 591.212 24.2405 586.436C18.2706 489.675 18.0167 392.118 13.4398 295.139C10.0749 223.776 2.53168 151.544 0.632148 80.0359C0.34263 69.1277 -3.00387 46.589 9.24348 43.2605C29.686 37.6889 47.7767 31.8999 68.4544 22.8914C99.1906 9.52323 110.678 2.88428 146.244 1.20192ZM224.144 68.1873C210.232 58.9074 177.56 64.3708 161.116 66.6863C147.964 68.5495 119.561 71.8422 110.968 81.6648C104.727 88.7921 102.447 108.31 102.049 117.952C100.367 158.581 107.783 225.423 120.646 263.935C122.093 268.258 128.985 287.358 130.777 289.586C135.188 295.082 179.647 291.001 188.78 290.617L231.941 81.7185C231.814 76.7258 228.232 70.9188 224.144 68.1873ZM577.856 70.865C558.643 66.4331 508.875 58.5101 492.268 66.8133C488.36 68.767 484.217 73.4158 483.041 77.6306C481.07 84.6318 488.197 114.768 490.006 124.338C500.589 179.927 514.881 235.028 525.392 290.653C544.279 292.317 562.876 291.666 581.492 291.684C593.829 268.674 600.378 242.897 604.648 217.21C608.248 195.556 611.287 168.766 612.119 146.895C612.626 133.834 612.318 90.6914 604.376 81.3933H604.412C599.908 76.1113 584.803 72.475 577.856 70.865Z" fill="#DB1B00"/>
<path d="M181.439 448.111L40.0859 618.58V76.7947L153.169 31.6459L457.817 13.0801L673.434 54.8532V618.58L530.815 448.111L521.11 324.058H208.022L181.439 448.111Z" fill="#DB1B00"/>
</svg>
