<svg width="466" height="850" viewBox="0 0 466 850" fill="none" xmlns="http://www.w3.org/2000/svg">
<path d="M203.344 412.993C213.243 413.52 223.751 415.053 233.88 415.724C242.247 416.282 258.939 415.399 266.098 416.613C263.311 416.773 259.144 416.612 256.253 416.581C263.773 433.671 270.97 454.148 277.914 471.863C292.746 509.275 307.365 546.764 321.775 584.341C353.89 666.094 385.369 748.099 416.203 830.347C422.662 831.044 429.276 830.765 434.832 834.875C437.522 836.75 438.807 841.066 435.554 843.141C423.292 850.948 377.593 852.208 368.563 840.343C367.371 834.751 378.187 831.777 382.431 830.564C375.993 816.298 370.06 800.835 364.278 786.229L341.225 728.195L271.923 552.671C258.718 518.233 245.057 483.965 230.945 449.889C229.257 448.959 230.179 449.243 227.999 449.362C226.188 450.854 221.673 463.741 220.389 467.056C211.191 490.574 202.124 514.149 193.19 537.77L117.127 734.866L94.6943 793.168C90.0713 805.033 84.0578 818.957 80.4483 831.06C84.8891 831.669 95.0273 834.307 94.5549 839.868C87.5083 852.471 29.7095 852.265 25.5 839.569C26.1598 831.979 40.6387 830.683 46.3832 830.559C50.4084 817.455 57.7647 800.009 62.7358 786.719L92.9063 706.035L167.245 509.006L192.798 441.803C195.17 435.504 202.1 418.492 203.344 412.993Z" fill="#DB1B00"/>
<path d="M233.842 265.409C163.283 265.978 104.62 211.235 100.314 140.81C96.0076 70.3835 147.566 8.90231 217.666 0.872652C287.765 -7.157 351.891 41.0731 363.621 110.648C375.357 180.224 330.588 246.814 261.733 262.214C252.573 264.263 243.223 265.333 233.842 265.409Z" fill="#DB1B00"/>
<path d="M230.062 87.4806C254.912 85.7339 276.437 104.555 278.022 129.419C279.602 154.283 260.643 175.681 235.767 177.101C211.124 178.507 189.965 159.758 188.401 135.125C186.831 110.491 205.439 89.2112 230.062 87.4806Z" fill="#DB1B00"/>
<path d="M217.905 362.554C221.581 361.175 239.384 358.898 245.745 357.256L245.848 732.082C251.135 732.361 267.213 733.76 267.156 741.205C262.313 753.571 215.737 751.743 204.786 746.766C190.014 740.054 203.237 733.559 212.592 732.593C214.461 732.387 216.341 732.263 218.225 732.221L218.189 481.3L218.21 405.356C218.215 392.252 218.68 375.41 217.905 362.554Z" fill="#DB1B00"/>
<path d="M217.785 265.408C227.167 265.332 236.517 264.261 245.676 262.212C245.144 301.092 246.487 341.396 245.537 380.004C237.797 379.346 226.031 376.803 218.131 375.262C217.821 372.481 217.992 365.734 217.987 362.727L217.945 338.991L217.785 265.408Z" fill="#DB1B00"/>
<path d="M0.368666 412.189C-1.16529 390.423 67.2463 383.83 83.0774 381.777C96.9604 379.978 111.981 378.285 125.936 377.2C182.975 373.178 240.209 372.686 297.307 375.725C322.343 376.882 346.537 377.568 371.424 381.201C379.132 382.326 387.218 382.578 395.055 383.677C402.955 385.219 414.721 387.762 422.461 388.42C433.283 390.894 466.518 398.189 465.175 412.38C465.366 417.715 465.382 426.823 465.01 432.094C455.489 445.468 436.887 447.435 422.569 452.171C416.208 453.813 398.406 456.089 394.73 457.468C374.573 460.829 354.272 462.616 333.955 464.872C317.041 466.751 299.321 466.767 282.257 467.335C248.774 468.662 215.25 468.651 181.769 467.288C174.61 466.075 157.919 466.958 149.551 466.4C139.422 465.729 128.914 464.196 119.015 463.669C93.8817 460.354 68.7999 458.671 44.0557 452.418C30.595 449.015 14.7468 445.62 4.0711 436.397C-1.57733 431.517 0.264372 419.275 0.368666 412.189Z" fill="#DB1B00"/>
<path d="M0.368666 412.184C1.1643 413.107 1.97076 414.021 2.78704 414.926C15.02 428.461 62.393 435.271 80.6089 437.825C98.5481 440.34 117.097 443.475 135.294 443.861C157.497 445.606 179.091 447.07 201.359 447.86C243.048 449.013 284.776 447.833 326.334 444.326C335.344 443.613 345.19 443.206 354.014 442.327C377.067 439.946 399.96 436.243 422.59 431.235C436.799 427.948 455.179 423.56 465.175 412.375C465.366 417.71 465.382 426.818 465.01 432.089C455.489 445.463 436.887 447.43 422.569 452.166C416.208 453.807 398.406 456.084 394.73 457.463C374.573 460.824 354.272 462.611 333.955 464.867C317.041 466.746 299.321 466.762 282.257 467.33C248.774 468.657 215.25 468.646 181.769 467.283C174.61 466.07 157.919 466.953 149.551 466.395C139.422 465.724 128.914 464.19 119.015 463.664C93.8817 460.349 68.7999 458.666 44.0557 452.413C30.595 449.01 14.7468 445.615 4.0711 436.392C-1.57733 431.512 0.264372 419.27 0.368666 412.184Z" fill="#DB1B00"/>
</svg>
