<svg width="486" height="649" viewBox="0 0 486 649" fill="none" xmlns="http://www.w3.org/2000/svg">
<path d="M485.567 636.092C484.486 645.062 477.226 648.392 469.107 648.44C448.413 648.555 427.72 648.497 407.027 648.492L290.223 648.488L23.0414 648.512C5.10134 648.353 -0.137993 645.888 0.318437 626.257C0.452483 620.501 0.310751 613.722 0.314595 607.875L0.397715 565.235L0.359285 477.23L0.31892 399.871C0.291054 387.261 -1.1407 352.72 2.29838 342.845C8.9978 323.608 37.9205 304.195 49.0632 286.848C54.7489 277.997 53.4324 258.278 53.4286 247.611L53.4118 205.511L53.3882 73.9146L53.3824 38.8968C53.3748 31.5305 53.2936 24.4179 53.714 16.8878C53.3099 12.4134 58.9221 1.50614 63.7948 0.857529C73.695 -0.459389 87.5248 0.126281 97.7772 0.150304H153.833L323.262 0.129161C353.207 0.11763 383.173 0.0715058 413.115 0.117629C416.252 0.366503 421.527 -0.265767 424.146 1.47683C434.495 8.37372 432.674 22.8233 432.655 33.5605L432.602 63.0996L432.64 189.036L432.621 234.005C432.611 244.582 431.473 275.522 435.605 283.508C446.987 305.502 480.469 322.862 485.548 349.129C486.345 358.959 485.721 377.534 485.721 387.912L485.716 463.778L485.701 576.266C485.701 595.345 486.273 617.21 485.567 636.092Z" fill="#FDE8BE"/>
<path d="M485.567 636.092C484.486 645.062 477.226 648.392 469.107 648.44C448.413 648.555 427.72 648.497 407.027 648.492L290.223 648.488L23.0414 648.512C5.10134 648.353 -0.137993 645.888 0.318436 626.257C0.452483 620.501 0.310751 613.722 0.314595 607.875L0.397715 565.235L0.359285 477.23L0.31892 399.871C0.291054 387.261 -1.1407 352.72 2.29838 342.845C8.9978 323.608 37.9205 304.195 49.0632 286.848C54.7489 277.997 53.4324 258.278 53.4286 247.611L53.4118 205.511L53.3882 73.9146L53.3824 38.8968C53.3748 31.5305 53.2936 24.4179 53.714 16.8878C53.3099 12.4134 58.9221 1.50614 63.7948 0.857529C73.695 -0.459389 87.5248 0.126281 97.7772 0.150304H153.833L323.262 0.129161C353.207 0.11763 383.173 0.0715058 413.115 0.117629C416.252 0.366503 421.527 -0.265767 424.146 1.47683C434.495 8.37372 432.674 22.8233 432.655 33.5605L432.602 63.0996L432.64 189.036L432.621 234.005C432.611 244.582 431.473 275.522 435.605 283.508C446.987 305.502 480.469 322.862 485.548 349.129L483.885 350.287C479.676 321.89 442.634 304.78 433.457 281.855C429.969 273.14 431.28 237.431 431.29 225.266L431.281 169.705L431.252 63.5834L431.343 35.7422C431.367 28.6632 431.655 21.6424 430.589 14.6206C429.436 7.06641 426.178 4.34897 420.249 0.54139C421.234 2.39641 422.599 4.30862 422.839 6.23907C421.71 5.93255 418.669 2.60493 417.564 1.54218C388.736 0.854168 357.815 1.42206 328.795 1.42446L160.993 1.42831L96.7024 1.42686C92.2313 1.42734 70.7556 1.08142 67.6759 2.01638C66.1408 3.70133 64.5871 5.36946 63.015 7.02077L62.6801 6.89345C63.8275 4.15824 65.3385 2.91002 66.8418 0.446261C62.3213 2.82642 56.9085 6.98954 56.1152 12.0862C53.9407 26.0529 54.9108 46.66 54.9137 60.9597L54.8954 202.412L54.917 242.355C54.9386 254.564 55.8669 269.353 52.8823 281.102C51.0979 290.148 42.6664 295.966 37.6596 301.977C29.8513 311.35 5.31371 332.169 3.53652 343.343C0.872892 360.087 2.08458 390.488 2.08746 408.068L2.07497 506.822L2.07305 589.445C2.07353 603.724 2.06824 618.113 2.13695 632.282C2.16337 637.692 4.16303 645.273 9.79056 645.999C25.6416 648.041 46.8046 647.094 62.5437 647.099H154.144L366.972 647.085C400.786 647.07 434.663 647.123 468.482 647.065C471.254 647.061 475.545 646.652 477.961 645.288C480.95 643.582 483.092 640.719 483.885 637.37C483.957 637.072 484.02 636.769 484.082 636.467L485.567 636.092Z" fill="#FDE8BE"/>
<path d="M483.89 350.287L485.552 349.129C486.35 358.959 485.725 377.534 485.725 387.911L485.72 463.778L485.706 576.266C485.706 595.345 486.278 617.21 485.571 636.092L484.087 636.467C483.558 626.627 483.923 613.458 483.928 603.445V542.577L483.89 350.287Z" fill="#FDE8BE"/>
<path d="M9.36694 363.959C9.54855 365.465 9.67395 368.03 10.6483 369.137C11.0846 391.58 10.7113 415.281 10.7079 437.795L10.7185 564.783L10.6795 609.633C10.6728 616.134 10.2837 630.437 11.4699 636.13C12.7075 637.288 14.1931 638.763 15.4499 639.844C36.574 640.565 60.8671 640.022 82.1919 640.017L206.031 639.998L376.65 640.003C404.839 639.998 433.06 640.031 461.253 639.988C463.627 639.988 470.713 639.988 472.212 638.691L472.63 637.509C462.853 626.906 453.249 614.87 443.976 603.685C438.677 597.291 429.784 587.552 425.248 581.344L425.801 580.556C427.665 583.261 431.441 587.388 433.666 590.016L448.238 607.327C455.003 615.62 461.887 623.816 468.883 631.917C469.945 633.147 472.323 636.543 473.072 637.173L473.913 636.885C475.398 635.222 475.58 634.684 475.681 632.104C476.008 623.831 475.864 615.259 475.849 606.976L475.816 562.246L475.869 410.81C476.123 410.748 476.435 410.496 476.681 410.334C476.729 408.442 476.733 407.3 477.084 405.402L477.156 405.03C477.608 421.921 477.223 440.73 477.219 457.71L477.209 558.83L477.247 608.226C477.252 615.058 477.646 629.745 476.599 635.765C473.692 639.445 472.64 640.92 467.653 640.968C447.704 641.161 427.746 641.026 407.793 641.026L288.155 641.04L109.629 641.031C78.6116 641.031 46.3464 641.531 15.4615 640.964C10.2202 637.793 9.49666 636.207 9.33571 630.12C9.01765 618.084 9.17043 606.011 9.18196 593.966L9.19734 527.774L9.17765 425.5C9.07339 404.986 9.13632 384.472 9.36694 363.959Z" fill="#FDE8BE"/>
<path d="M60.5731 576.573C60.6164 577.923 60.6097 579.849 60.8033 581.127C59.7357 583.664 14.4666 636.629 14.555 636.586L14.2422 635.904C14.8495 634.116 55.207 586.657 59.9976 581.171C60.2085 580.695 60.4943 577.327 60.5731 576.573Z" fill="#FDE8BE"/>
<path d="M425.593 348.702C435.731 348.291 446.546 347.947 456.597 348.97C477.463 351.091 475.796 367.243 475.781 382.732C475.7 392.092 475.729 401.451 475.873 410.81L475.82 562.246L475.854 606.976C475.868 615.259 476.012 623.83 475.685 632.103C475.585 634.683 475.402 635.222 473.917 636.884L473.077 637.172C472.327 636.543 469.949 633.146 468.887 631.916C461.892 623.816 455.007 615.619 448.242 607.326L433.67 590.016C431.445 587.388 427.669 583.261 425.805 580.556C424.83 550.407 425.488 517.439 425.579 487.117L425.593 348.702Z" fill="#FDE8BE"/>
<path d="M19.2013 341.92C24.0611 343.124 56.1361 342.589 63.6465 342.598C99.6814 342.847 135.718 342.893 171.753 342.736L374.011 342.863L427.98 342.604C439.9 342.579 452.997 342.914 464.739 342.109L464.47 343.353L465.129 343.475L465.412 343.683C471.283 347.901 475.67 348.279 476.866 358.129C477.885 366.472 477.169 377.773 477.313 386.374C477.38 390.331 477.543 401.609 477.173 405.03L477.101 405.402C476.751 407.3 476.746 408.442 476.698 410.333C476.453 410.496 476.141 410.748 475.886 410.81C475.742 401.452 475.713 392.092 475.795 382.732C475.809 367.243 477.476 351.091 456.61 348.97C446.559 347.948 435.744 348.291 425.607 348.702L425.592 487.118C425.501 517.439 424.843 550.408 425.818 580.556L425.265 581.344L424.9 581.185L424.578 580.96C423.704 576.453 423.987 561.948 423.997 556.812L424.011 515.272L423.853 348.4L62.0154 348.464L61.9447 498.836C61.9375 521.163 62.4478 545.925 61.8251 568.093C61.458 561.626 61.6594 553.795 61.6594 547.179L61.6637 510.713L61.6766 398.891L61.6694 366.021C61.6675 362.707 61.8717 351.795 61.2567 349.018C60.5404 350.347 60.6413 352.262 60.5721 353.832C60.5034 352.016 60.4443 350.2 60.3948 348.382C47.7234 348.394 25.697 345.825 16.1678 354.643C11.8913 358.601 11.1028 363.611 10.6656 369.137C9.69125 368.03 9.56586 365.464 9.38425 363.959C8.68279 355.075 11.3493 347.992 19.8792 344.215L20.0215 343.533L19.0101 342.809L19.2013 341.92Z" fill="#FDE8BE"/>
<path d="M464.723 342.109L465.262 341.977C466.948 341.548 468.654 341.099 469.61 339.503C470.412 338.158 470.253 336.55 469.759 335.128C468.087 330.289 462.955 325.877 459.53 322.232C453.298 315.602 429.588 291.879 427.32 285.001C424.25 275.672 425.816 239.836 425.816 227.824L425.826 90.7436L425.84 49.8692C425.84 36.5799 426.057 25.2609 424.5 12.0413L424.884 11.5771C427.969 15.01 427.2 53.0354 427.2 59.8486L427.205 220.19L427.128 258.743C427.099 268.545 425.49 281.964 431.394 290.203C433.571 293.237 436.891 296.347 439.505 299.112L459.237 320.218C463.777 325.13 480.468 340.375 465.113 343.475L464.454 343.353L464.723 342.109Z" fill="#FDE8BE"/>
<path d="M52.0117 293.834C60.9207 281.584 59.318 275.8 59.28 261.261L59.23 230.601L59.2516 94.8526L59.256 50.5204C59.2531 44.2533 58.519 14.0363 61.6184 10.5093C61.6534 10.7101 61.688 10.9114 61.7231 11.1122C60.3918 34.4411 60.9164 61.9652 60.9284 85.1129L60.8131 209.643L60.878 252.794C60.8665 265.754 62.9012 281.133 54.8719 291.91L52.0117 293.834Z" fill="#FDE8BE"/>
<path d="M52.0139 293.834L54.8741 291.91C43.3302 305.514 29.3313 317.975 18.1238 331.992C14.4839 336.545 15.1147 338.341 19.1851 341.92L18.9939 342.808C16.4336 341.677 15.5678 339.771 14.125 337.43C16.2054 330.596 25.5501 321.821 30.58 316.376C37.3558 309.041 44.6414 300.473 52.0139 293.834Z" fill="#FDE8BE"/>
<path d="M13.4629 345.937C13.4629 344.28 14.806 342.937 16.4629 342.937H67.0266C68.6834 342.937 70.0266 344.28 70.0266 345.937V575.192C70.0266 575.87 69.7965 576.529 69.3738 577.06L18.8101 640.586C17.0417 642.807 13.4629 641.557 13.4629 638.717V345.937Z" fill="#761717"/>
<path d="M476.746 345.937C476.746 344.28 475.403 342.937 473.746 342.937H423.182C421.526 342.937 420.182 344.28 420.182 345.937V575.192C420.182 575.87 420.413 576.529 420.835 577.06L471.399 640.586C473.167 642.807 476.746 641.557 476.746 638.717V345.937Z" fill="#761717"/>
</svg>
