<svg width="200" height="865" viewBox="0 0 200 865" fill="none" xmlns="http://www.w3.org/2000/svg">
<g clip-path="url(#clip0_1341_2665)">
<path d="M196.553 850.465C197.853 863.368 191.032 863.275 180.725 862.637L176.718 859.872C171.073 859.479 163.444 859.707 157.685 859.716L125.491 859.724L21.3398 859.695C20.8869 860.248 20.3888 860.759 19.8505 861.227C16.8226 863.836 11.5091 862.886 7.60817 862.582C5.30542 861.058 4.52657 860.07 3.07991 857.74C2.64975 851.503 2.38254 848.713 7.94588 844.887C7.51403 828.484 7.83105 811.038 7.83274 794.525L7.82894 703.693L7.82894 427.996L7.8205 225.097C7.70188 194.554 7.98219 164.011 8.66183 133.475C8.89611 123.904 8.65169 113.575 9.16923 104.149C9.53691 97.4542 10.8979 88.2363 11.7151 81.4676L17.7871 33.6772C19.826 18.6137 17.3295 1.39709 37.7825 1.20987L124.795 1.23613L150.56 1.20029C153.587 1.19192 156.863 1.24167 159.866 1.19151C178.95 0.87264 178.056 13.3893 179.832 27.8336L182.904 52.0157L187.332 86.4384C188.343 94.4361 189.572 102.667 189.844 110.719C190.454 128.792 190.302 146.91 190.683 164.979C192.05 237.432 192.369 309.9 191.641 382.362L191.631 844.837C194.226 846.614 195.344 847.513 196.553 850.465Z" fill="#DB1B00"/>
<path d="M139.768 519.795C140.185 526.791 139.905 535.556 139.854 542.7C113.898 542.704 84.8 543.367 59.1636 542.628L59.1792 409.301C58.5553 390.415 59.1472 368.733 59.0834 349.551L139.814 349.506L139.876 457.142C139.876 476.994 140.535 500.318 139.768 519.795Z" fill="#DB1B00"/>
<path d="M139.814 349.506L139.876 457.142C139.876 476.994 140.535 500.318 139.768 519.795C138.344 517.895 139.726 516.164 138.625 514.386C138.269 491.962 138.738 469.335 138.551 446.903C138.475 437.741 138.803 427.785 138.463 418.688C128.219 403.203 70.2785 403.159 60.6297 417.886C58.6853 416.409 60.1565 412.085 59.1792 409.301C58.5553 390.415 59.1472 368.733 59.0834 349.551L139.814 349.506Z" fill="#DB1B00"/>
<path d="M139.768 519.794C140.186 526.791 139.905 535.556 139.854 542.7C113.898 542.704 84.8 543.367 59.1637 542.628L59.1793 409.301C60.1565 412.084 58.6854 416.408 60.6297 417.885C60.9544 418.782 60.75 432.534 60.7488 434.384L60.6897 489.2C60.6665 498.341 60.4917 507.542 60.7526 516.67C61.2338 521.939 62.6197 523.996 68.1725 523.915C89.7369 523.616 111.362 524.126 132.908 523.734C138.288 523.637 138.521 518.524 138.625 514.386C139.726 516.163 138.344 517.894 139.768 519.794Z" fill="#DB1B00"/>
<path d="M125.596 736.664C125.664 744.496 125.822 752.345 125.645 760.165C126.118 764.894 118.561 765.485 114.96 765.05C109.171 764.353 96.5155 767.035 92.8332 762.373C92.8049 756.72 91.7099 739.717 94.0506 735.334C95.2832 733.029 118.013 733.924 121.342 734.139C123.412 734.27 124.359 735.051 125.596 736.664Z" fill="#DB1B00"/>
<path d="M82.9829 25.472C83.4683 37.1633 82.8833 49.363 83.072 61.1019C83.1885 68.3346 75.2966 71.5177 71.2842 63.6095C71.2652 51.5724 71.104 39.4157 71.2787 27.3945C71.3784 20.5631 79.1284 16.832 82.9829 25.472Z" fill="#DB1B00"/>
<path d="M104.575 25.2071C104.63 37.1893 104.745 49.1976 104.59 61.176C104.493 68.7556 97.1322 71.02 92.8876 64.0774C92.8627 57.7919 91.8698 28.1879 93.3207 24.4239C93.8961 22.9312 95.1169 21.5452 96.5986 20.9117C97.9811 20.3204 99.5269 20.3578 100.909 20.931C102.821 21.7233 103.823 23.3765 104.575 25.2071Z" fill="#DB1B00"/>
<path d="M61.5804 24.895C61.9139 29.3516 62.3639 61.547 61.2317 64.3898C60.6635 65.816 59.3249 67.119 57.9175 67.705C56.5021 68.2945 55.006 68.2028 53.6147 67.6012C51.7931 66.8137 50.9383 65.5665 50.2409 63.7695C50.398 51.9233 48.8817 36.9654 50.3651 25.0174C50.6935 23.4583 51.74 22.0903 53.087 21.3511C57.2535 19.0647 59.4794 21.3358 61.5804 24.895Z" fill="#DB1B00"/>
<path d="M126.006 27.7869C126.166 37.6083 126.456 55.3669 125.775 64.7372C121.432 70.0108 115.446 69.0789 114.327 62.1723L114.248 37.9438C114.237 34.2246 113.458 24.8313 115.909 22.6117C121.306 17.7251 125.666 21.5954 126.006 27.7869Z" fill="#DB1B00"/>
<path d="M147.651 24.8279C148.276 36.4611 147.468 48.8412 147.742 60.5384C147.919 68.1252 140.58 71.4992 136.249 64.1859C136.251 51.8162 136.224 39.5637 135.929 27.1954C135.783 21.0639 142.957 17.0611 147.651 24.8279Z" fill="#DB1B00"/>
<path d="M40.0214 24.3182C40.5195 36.393 40.1071 51.0515 39.8985 63.2866C39.801 69.0132 32.87 70.0282 28.8905 64.3477C28.5739 62.6491 28.6148 59.6593 28.6351 57.8974C28.7605 46.9856 28.2045 35.9657 28.8842 25.0847C28.9665 23.7676 30.4545 21.9828 31.5428 21.3849C35.4112 19.2587 37.9014 21.0074 40.0214 24.3182Z" fill="#DB1B00"/>
<path d="M169.147 25.4828C169.475 34.7322 169.655 54.7783 168.736 64.4032C168.413 67.7734 161.491 71.1773 157.831 63.639C157.651 58.0066 156.929 27.2109 158.32 24.0997C158.943 22.7055 160.278 21.5035 161.703 20.9803C162.964 20.5177 164.674 20.4007 165.898 21.033C167.513 21.8672 168.596 23.828 169.147 25.4828Z" fill="#DB1B00"/>
</g>
<rect x="70.248" y="614.312" width="60.4344" height="181.303" fill="#DB1B00"/>
<defs>
<clipPath id="clip0_1341_2665">
<rect width="864.706" height="199.248" fill="white" transform="matrix(0 1 -1 0 199.248 0)"/>
</clipPath>
</defs>
</svg>
