<svg width="185" height="860" viewBox="0 0 185 860" fill="none" xmlns="http://www.w3.org/2000/svg">
<rect y="94" width="185" height="766" fill="#DB1B00"/>
<path d="M185 94C185 81.6557 182.607 69.4324 177.959 58.0278C173.31 46.6231 166.497 36.2607 157.907 27.532C149.318 18.8033 139.121 11.8793 127.898 7.15532C116.676 2.43138 104.647 -5.39585e-07 92.5 0C80.3527 5.39585e-07 68.3244 2.43138 57.1018 7.15533C45.8792 11.8793 35.682 18.8033 27.0926 27.532C18.5032 36.2607 11.6897 46.6232 7.04114 58.0278C2.39258 69.4324 -1.06195e-06 81.6557 0 94L92.5 94L185 94Z" fill="#DB1B00"/>
</svg>
