<svg width="664" height="462" viewBox="0 0 664 462" fill="none" xmlns="http://www.w3.org/2000/svg">
<path d="M455.641 0.643001C516.623 0.531786 578.235 -1.60709 639.057 2.58929C643.634 2.90544 648.109 7.9832 650.307 11.6948C649.923 32.8374 651.123 58.0661 650.211 78.4233L649.939 79.6352C652.211 79.6767 653.155 79.5338 655.076 80.7641C656.11 81.9608 656.42 82.6161 656.473 84.2651C656.836 95.3158 656.911 106.548 657.066 117.594L657.978 180.841L661.082 386.975C661.28 395.714 660.64 434.75 662.245 439.704C665.056 444.429 660.191 454.092 655.385 451.761C652.157 452.905 621.885 452.283 616.161 452.246C616.241 454.603 616.572 456.886 615.665 458.994C614.332 460.079 613.895 460.132 611.873 460.132C595.017 460.127 578.117 460.329 561.261 460.345L464.25 460.334L146.61 461.26L86.9349 461.334C74.3273 461.409 61.702 461.649 49.1009 461.436C42.9383 461.335 43.8153 456.955 43.9642 452.299C35.5857 452.294 27.2074 452.336 18.8294 452.432C14.4884 452.469 9.70842 452.682 5.47785 452.267C0.722295 451.793 0.00297902 445.94 0.000311855 442.257C-0.0108856 425.357 0.281663 408.265 0.522773 391.391L1.23273 311.822L2.69269 147.012C2.93167 127.26 2.85314 107.493 3.2132 87.7407C3.30922 82.495 5.6305 82.8618 5.64875 77.7787C5.69836 63.6971 5.54976 49.6044 5.55402 35.5248C5.55509 30.4382 5.27384 22.8104 6.08039 17.9467C6.52206 15.2838 11.3672 10.1494 13.9163 8.79632C16.3242 7.51818 18.2657 6.29897 21.2171 6.11273C35.1572 5.2326 49.3945 4.85221 63.348 4.37542C91.4407 3.43302 119.54 2.66343 147.642 2.06585C250.372 -0.099377 352.892 0.830309 455.641 0.643001ZM474.003 15.7504C377.805 14.6505 281.6 14.3439 185.399 14.8325L73.8255 17.0395C65.66 17.1459 40.5964 18.3287 33.8128 17.4799C28.7942 18.4144 26.4335 21.436 26.3021 26.52C26.4446 43.9691 26.4631 61.4198 26.3558 78.8696C41.3628 78.4401 57.2829 78.6806 72.3519 78.6801L149.787 78.6879L384.519 78.6928L551.297 78.686L605.943 78.6879C613.989 78.6884 626.14 78.3242 633.844 78.7563L633.818 77.9614C634.01 73.0799 633.663 65.9114 633.625 60.8432L633.433 25.0434C631.116 21.0368 628.452 17.4521 623.374 17.1078C616.807 16.6624 610.155 16.8468 603.572 16.8383L574.197 16.5336L474.003 15.7504Z" fill="#DB1B00"/>
<path d="M347.154 357.144C350.515 355.517 354.39 356.482 356.888 359.573C359.386 362.659 359.987 367.23 358.398 371.048C356.809 374.871 353.361 377.148 349.736 376.769C346.11 376.395 343.063 373.439 342.079 369.35C340.88 364.372 343.059 359.128 347.154 357.144Z" fill="#FDE8BE"/>
<path d="M348.501 228.115C351.991 227.15 355.63 228.766 357.689 232.194C359.748 235.617 359.81 240.163 357.847 243.662C355.883 247.166 352.29 248.912 348.776 248.082C345.261 247.253 342.535 244.009 341.894 239.892C341.059 234.543 343.963 229.363 348.501 228.115Z" fill="#FDE8BE"/>
<path d="M261.62 397.675C267.058 395.97 272.681 399.616 274.183 405.829C275.687 412.041 272.502 418.47 267.067 420.194C261.624 421.924 255.986 418.278 254.481 412.053C252.975 405.828 256.173 399.393 261.62 397.675Z" fill="#FDE8BE"/>
<path d="M262.346 356.557C266.008 355.835 269.774 357.159 272.17 360.024C274.566 362.883 275.213 366.822 273.856 370.3C272.5 373.778 269.356 376.241 265.655 376.724C260.186 377.434 255.137 373.68 254.245 368.238C253.352 362.796 256.937 357.631 262.346 356.557Z" fill="#FDE8BE"/>
<path d="M241.435 336.172C245.052 335.404 248.869 336.386 251.398 338.73C253.927 341.075 254.767 344.414 253.59 347.443C252.413 350.475 249.406 352.717 245.741 353.294C240.307 354.155 235.061 351.154 233.898 346.522C232.733 341.893 236.071 337.307 241.435 336.172Z" fill="#FDE8BE"/>
<path d="M347.987 397.754C351.428 396.371 355.154 397.928 357.385 401.686C359.616 405.445 359.9 410.636 358.1 414.786C356.302 418.935 352.785 421.199 349.23 420.498C345.675 419.797 342.802 416.268 341.983 411.604C340.929 405.594 343.558 399.534 347.987 397.754Z" fill="#FDE8BE"/>
<path d="M348.005 272.078C351.47 270.874 355.215 272.268 357.434 275.6C359.653 278.932 359.889 283.512 358.029 287.132C356.169 290.752 352.594 292.662 349.03 291.951C345.466 291.235 342.645 288.038 341.926 283.903C341.027 278.721 343.663 273.592 348.005 272.078Z" fill="#FDE8BE"/>
<path d="M91.0274 272.054C94.5156 270.877 98.2648 272.331 100.454 275.712C102.642 279.093 102.817 283.701 100.893 287.294C98.9695 290.887 95.345 292.721 91.7814 291.907C88.2173 291.098 85.4524 287.804 84.8291 283.631C84.0625 278.491 86.733 273.503 91.0274 272.054Z" fill="#FDE8BE"/>
<path d="M263.145 315.54C268.77 314.883 273.857 318.92 274.491 324.548C275.124 330.175 271.062 335.249 265.433 335.856C259.836 336.464 254.803 332.432 254.174 326.838C253.543 321.243 257.554 316.191 263.145 315.54Z" fill="#FDE8BE"/>
<path d="M198.195 336.21C204.23 335.08 208.893 337.218 210.061 342.261C210.678 344.798 210.009 347.431 208.206 349.556C202.664 356.183 194.432 353.564 190.262 347.458C188.814 341.784 190.982 337.726 198.195 336.21Z" fill="#FDE8BE"/>
<path d="M261.477 272.061C266.923 270.476 272.619 273.629 274.166 279.088C275.712 284.547 272.519 290.217 267.051 291.726C261.636 293.224 256.03 290.066 254.498 284.661C252.967 279.256 256.083 273.629 261.477 272.061Z" fill="#FDE8BE"/>
<path d="M262.264 228.05C265.927 227.296 269.711 228.598 272.13 231.448C274.549 234.303 275.217 238.249 273.871 241.738C272.526 245.228 269.382 247.703 265.674 248.197C260.219 248.919 255.171 245.19 254.253 239.768C253.335 234.341 256.875 229.163 262.264 228.05Z" fill="#FDE8BE"/>
<path d="M347.631 316.038C351.069 314.643 354.891 315.87 357.229 319.127C359.569 322.379 359.939 326.988 358.159 330.69C356.379 334.398 352.82 336.433 349.219 335.804C345.618 335.174 342.725 332.014 341.952 327.862C341.012 322.813 343.449 317.737 347.631 316.038Z" fill="#FDE8BE"/>
<path d="M241.625 377.064C245.698 376.141 249.923 377.786 252.299 381.217C254.674 384.654 254.721 389.187 252.417 392.672C250.114 396.157 245.923 397.889 241.832 397.048C237.741 396.206 234.573 392.96 233.83 388.85C232.858 383.47 236.292 378.275 241.625 377.064Z" fill="#FDE8BE"/>
<path d="M91.1242 228.212C95.7858 226.708 100.611 229.894 101.904 235.332C103.196 240.77 100.467 246.398 95.8063 247.912C91.1456 249.42 86.3178 246.24 85.0212 240.802C83.7227 235.359 86.4565 229.72 91.1242 228.212Z" fill="#FDE8BE"/>
<path d="M90.206 357.095C93.6028 355.51 97.4869 356.552 99.9475 359.711C102.408 362.871 102.926 367.48 101.248 371.275C99.5701 375.07 96.0481 377.247 92.4153 376.736C88.783 376.226 85.804 373.137 84.9446 368.984C83.9218 364.049 86.1628 358.984 90.206 357.095Z" fill="#FDE8BE"/>
<path d="M217.859 397.666C223.305 395.979 228.917 399.651 230.396 405.874C231.876 412.097 228.665 418.511 223.221 420.211C217.771 421.905 212.151 418.232 210.67 412.003C209.189 405.775 212.408 399.353 217.859 397.666Z" fill="#FDE8BE"/>
<path d="M282.162 336.206C286.236 335.284 290.554 336.597 293.036 339.519C295.518 342.436 295.657 346.359 293.385 349.402C291.112 352.445 286.895 353.981 282.764 353.269C278.632 352.557 275.432 349.747 274.705 346.192C273.789 341.706 277.029 337.369 282.162 336.206Z" fill="#FDE8BE"/>
<path d="M217.904 228.186C223.325 226.742 228.896 229.94 230.387 235.347C231.878 240.754 228.732 246.351 223.338 247.893C217.943 249.429 212.316 246.335 210.728 240.96C209.947 238.311 210.269 235.461 211.62 233.056C212.971 230.651 215.238 228.897 217.904 228.186Z" fill="#FDE8BE"/>
<path d="M219.423 315.53C223.127 315.128 226.758 316.768 228.9 319.82C231.041 322.866 231.354 326.841 229.716 330.186C228.079 333.537 224.75 335.725 221.029 335.904C215.509 336.176 210.776 332.005 210.342 326.499C209.908 320.987 213.93 316.132 219.423 315.53Z" fill="#FDE8BE"/>
<path d="M388.98 357.127C392.942 355.503 397.496 356.519 400.391 359.675C403.286 362.83 403.908 367.457 401.951 371.264C399.992 375.072 395.869 377.255 391.618 376.734C387.369 376.218 383.892 373.106 382.909 368.935C381.755 364.041 384.329 359.034 388.98 357.127Z" fill="#FDE8BE"/>
<path d="M389.404 398.088C393.837 396.286 396 397.598 399.802 400.234C401.726 403.808 402.08 404.838 403.082 408.933C399.623 422.856 388.576 424.861 382.832 412.146C381.951 405.212 384 401.111 389.404 398.088Z" fill="#FDE8BE"/>
<path d="M177.135 315.754C183.156 314.521 188.619 317.329 189.654 323.639C190.159 326.594 189.455 329.619 187.701 332.052C184.468 336.478 177.598 337.168 173.453 333.784C171.722 332.399 170.506 330.477 169.997 328.326C167.735 322.483 171.894 317.845 177.135 315.754Z" fill="#FDE8BE"/>
<path d="M304.842 397.488C310.401 396.363 314.925 399.295 315.418 406.996C315.65 410.426 314.811 413.827 313.086 416.454C307.985 424.155 301.56 420.238 298.291 412.422C296.911 404.842 299.564 400.262 304.842 397.488Z" fill="#FDE8BE"/>
<path d="M347.594 187.526C351.042 186.104 354.885 187.33 357.233 190.602C359.581 193.874 359.94 198.503 358.134 202.214C356.327 205.924 352.735 207.936 349.124 207.259C345.513 206.581 342.642 203.359 341.923 199.175C341.066 194.187 343.482 189.222 347.594 187.526Z" fill="#FDE8BE"/>
<path d="M390.541 228.106C394.602 227.161 398.831 228.779 401.227 232.189C403.622 235.604 403.705 240.128 401.434 243.63C399.164 247.127 394.997 248.892 390.904 248.099C386.81 247.301 383.612 244.097 382.822 240.003C381.781 234.605 385.189 229.355 390.541 228.106Z" fill="#FDE8BE"/>
<path d="M176.491 228.274C187.899 225.594 193.528 235.854 187.127 244.25C181.5 251.629 173.533 248.011 169.578 240.468C168.626 234.496 170.881 230.777 176.491 228.274Z" fill="#FDE8BE"/>
<path d="M367.159 377.077C371.248 376.126 375.503 377.772 377.887 381.226C380.271 384.686 380.3 389.249 377.96 392.73C375.62 396.217 371.387 397.918 367.286 397.021C363.185 396.125 360.049 392.806 359.38 388.662C358.523 383.356 361.922 378.293 367.159 377.077Z" fill="#FDE8BE"/>
<path d="M91.0677 397.703C94.5014 396.399 98.1842 398.007 100.377 401.768C102.569 405.523 102.834 410.675 101.045 414.797C99.2558 418.912 95.7709 421.178 92.2362 420.508C88.7014 419.843 85.8231 416.386 84.96 411.768C83.8171 405.648 86.5195 399.428 91.0677 397.703Z" fill="#FDE8BE"/>
<path d="M91.2775 315.732C96.4655 314.674 101.031 316.757 102.064 323.094C102.561 326.201 101.893 329.4 100.222 331.917C95.1993 339.365 88.3072 335.378 84.8788 328.391C84.0364 321.935 86.1365 318.259 91.2775 315.732Z" fill="#FDE8BE"/>
<path d="M135.645 228.022C140.384 226.968 144.964 230.58 145.888 236.102C146.813 241.63 143.735 246.985 139.003 248.087C134.244 249.195 129.62 245.578 128.69 240.023C127.76 234.462 130.878 229.086 135.645 228.022Z" fill="#FDE8BE"/>
<path d="M134.046 357.091C137.42 355.521 141.273 356.542 143.734 359.66C146.195 362.773 146.753 367.342 145.138 371.134C143.522 374.932 140.068 377.17 136.453 376.762C132.838 376.36 129.812 373.394 128.845 369.309C127.654 364.284 129.895 359.019 134.046 357.091Z" fill="#FDE8BE"/>
<path d="M240.977 292.526C244.508 291.478 248.33 292.412 250.983 294.965C253.635 297.522 254.708 301.302 253.791 304.87C252.874 308.438 250.109 311.235 246.553 312.196C241.151 313.652 235.582 310.496 234.056 305.115C232.53 299.733 235.614 294.123 240.977 292.526Z" fill="#FDE8BE"/>
<path d="M390.786 271.74C397.291 271.134 402.71 273.572 403.068 280.666C403.218 283.64 402.148 286.544 400.097 288.735C393.718 295.572 386.474 290.937 382.755 284.154C381.995 277.762 384.849 273.985 390.786 271.74Z" fill="#FDE8BE"/>
<path d="M304.6 228.139C309.322 226.781 314.085 230.17 315.214 235.688C316.343 241.206 313.407 246.74 308.671 248.022C303.935 249.298 299.211 245.838 298.145 240.304C297.099 234.873 299.969 229.464 304.6 228.139Z" fill="#FDE8BE"/>
<path d="M326.086 336.181C330.256 335.282 334.638 336.711 337.051 339.761C339.463 342.816 339.391 346.834 336.868 349.819C334.346 352.804 329.914 354.117 325.779 353.102C321.644 352.092 318.691 348.967 318.39 345.293C318.043 341.06 321.285 337.219 326.086 336.181Z" fill="#FDE8BE"/>
<path d="M348.068 143.534C351.549 142.354 355.293 143.796 357.488 147.161C359.683 150.527 359.875 155.121 357.971 158.72C356.068 162.319 352.461 164.178 348.899 163.399C345.336 162.619 342.552 159.36 341.897 155.201C341.083 150.04 343.75 145 348.068 143.534Z" fill="#FDE8BE"/>
<path d="M367.265 292.295C383.714 289.89 383.195 310.886 369.496 312.505C364.555 313.088 360.905 307.958 359.26 303.912C359.058 297.489 361.389 294.561 367.265 292.295Z" fill="#FDE8BE"/>
<path d="M366.959 336.185C371.06 335.291 375.379 336.66 377.821 339.622C380.263 342.584 380.324 346.528 377.973 349.546C375.624 352.559 371.348 354.026 367.22 353.225C363.093 352.429 359.966 349.532 359.356 345.942C358.601 341.499 361.883 337.289 366.959 336.185Z" fill="#FDE8BE"/>
<path d="M134.498 316.001C137.904 314.67 141.664 315.892 143.983 319.093C146.302 322.298 146.711 326.825 145.014 330.525C143.317 334.22 139.859 336.328 136.29 335.85C132.72 335.372 129.763 332.4 128.829 328.351C127.626 323.135 130.109 317.723 134.498 316.001Z" fill="#FDE8BE"/>
<path d="M177.447 271.661C183.836 271.478 189.693 273.759 189.812 281.008C189.856 284.11 188.58 287.088 186.291 289.223C179.892 295.142 173.14 291.096 169.544 284.55C168.611 277.837 171.363 274.285 177.447 271.661Z" fill="#FDE8BE"/>
<path d="M282.53 292.394C286.786 291.628 288.531 292.372 292.26 294.698C294.328 298.168 295.731 300.751 294.589 305.042C293.877 307.816 292.012 310.153 289.47 311.45C286.982 312.726 284.078 312.901 281.458 311.932C277.858 310.629 276.318 308.26 274.687 305.003C273.938 298.343 276.24 294.55 282.53 292.394Z" fill="#FDE8BE"/>
<path d="M366.632 166.841C372.064 165.495 377.74 168.185 379.297 172.845C380.855 177.504 377.702 182.362 372.262 183.685C366.821 185.008 361.162 182.293 359.632 177.627C358.113 172.994 361.238 168.178 366.632 166.841Z" fill="#FDE8BE"/>
<path d="M304.808 315.755C309.906 314.586 314.497 317.003 315.331 323.16C315.756 326.169 315.084 329.237 313.47 331.676C308.484 339.188 301.43 335.864 298.187 328.378C297.083 321.912 299.573 317.958 304.808 315.755Z" fill="#FDE8BE"/>
<path d="M197.732 377.081C203.176 375.809 208.634 379.145 209.982 384.572C211.329 389.999 208.066 395.497 202.658 396.921C197.249 398.339 191.703 395.155 190.209 389.766C189.466 387.082 189.848 384.214 191.268 381.818C192.687 379.428 195.022 377.716 197.732 377.081Z" fill="#FDE8BE"/>
<path d="M218.79 272.046C224.947 270.508 231.37 273.594 233.192 278.968C235.014 284.335 231.555 289.991 225.437 291.643C221.42 292.729 217.047 291.838 213.985 289.317C210.924 286.797 209.647 283.031 210.641 279.456C211.635 275.887 214.747 273.051 218.79 272.046Z" fill="#FDE8BE"/>
<path d="M197.076 292.55C202.463 290.909 208.166 293.93 209.828 299.314C211.489 304.692 208.484 310.407 203.107 312.086C197.731 313.759 192.009 310.776 190.314 305.403C188.605 299.982 191.642 294.212 197.076 292.55Z" fill="#FDE8BE"/>
<path d="M260.849 187.553C264.866 186.098 269.364 187.294 272.128 190.551C274.892 193.809 275.338 198.442 273.248 202.167C271.157 205.893 266.971 207.926 262.75 207.265C258.53 206.604 255.165 203.388 254.314 199.201C253.305 194.236 256.085 189.28 260.849 187.553Z" fill="#FDE8BE"/>
<path d="M304.146 272.094C307.574 270.877 311.292 272.219 313.532 275.48C315.772 278.746 316.084 283.273 314.319 286.908C312.555 290.549 309.069 292.565 305.518 292.006C301.967 291.446 299.067 288.419 298.195 284.359C297.058 279.077 299.676 273.676 304.146 272.094Z" fill="#FDE8BE"/>
<path d="M175.868 357.065C179.76 355.543 184.188 356.543 187.047 359.592C189.906 362.641 190.622 367.125 188.853 370.913C187.084 374.701 183.188 377.032 179.015 376.793C174.842 376.559 171.232 373.804 169.901 369.842C168.164 364.674 170.789 359.054 175.868 357.065Z" fill="#FDE8BE"/>
<path d="M280.964 377.549C285.03 375.913 289.683 377.055 292.535 380.381C295.387 383.706 295.803 388.478 293.569 392.244C291.336 396.016 286.95 397.94 282.664 397.038C278.377 396.13 275.144 392.597 274.624 388.25C274.075 383.658 276.675 379.272 280.964 377.549Z" fill="#FDE8BE"/>
<path d="M240.527 251.775C244.494 250.394 248.902 251.579 251.641 254.764C254.38 257.949 254.892 262.482 252.932 266.199C250.971 269.917 246.938 272.053 242.763 271.591C238.588 271.123 235.121 268.156 234.023 264.101C232.621 258.922 235.461 253.541 240.527 251.775Z" fill="#FDE8BE"/>
<path d="M218.201 187.179C224.526 186.093 229.957 188.717 230.689 195.373C231.043 198.522 230.002 201.67 227.831 204.019C221.703 210.622 213.894 206.656 210.55 199.567C209.409 193.339 212.392 189.441 218.201 187.179Z" fill="#FDE8BE"/>
<path d="M91.2967 187.17C96.7505 186.182 101.647 188.302 102.182 195.275C102.441 198.476 101.496 201.653 99.5816 204.011C94.1099 210.766 87.7652 206.441 84.7962 199.357C84.221 193.139 86.1514 189.454 91.2967 187.17Z" fill="#FDE8BE"/>
<path d="M303.724 187.547C307.211 186.082 311.111 187.334 313.463 190.675C315.816 194.015 316.113 198.721 314.206 202.428C312.297 206.135 308.597 208.04 304.964 207.187C301.331 206.334 298.551 202.906 298.02 198.628C297.425 193.822 299.809 189.192 303.724 187.547Z" fill="#FDE8BE"/>
<path d="M216.847 357.05C220.773 355.534 225.228 356.577 228.072 359.676C230.915 362.781 231.565 367.315 229.71 371.093C227.855 374.872 223.873 377.123 219.678 376.775C215.484 376.421 211.934 373.534 210.735 369.495C209.217 364.39 211.878 358.97 216.847 357.05Z" fill="#FDE8BE"/>
<path d="M72.0065 207.697C76.0857 206.679 80.3726 208.264 82.8101 211.69C85.2476 215.113 85.3384 219.685 83.04 223.207C80.7411 226.724 76.5211 228.48 72.4039 227.627C68.2872 226.773 65.1125 223.484 64.4037 219.342C63.5013 214.069 66.8162 208.991 72.0065 207.697Z" fill="#FDE8BE"/>
<path d="M389.544 316.022C393.527 314.657 397.939 315.875 400.66 319.087C403.381 322.3 403.854 326.849 401.852 330.556C399.85 334.258 395.782 336.356 391.604 335.839C387.426 335.323 383.992 332.296 382.953 328.214C381.638 323.055 384.507 317.75 389.544 316.022Z" fill="#FDE8BE"/>
<path d="M153.661 336.201C159.09 334.986 164.644 337.753 166.108 342.392C167.57 347.032 164.395 351.821 158.992 353.116C153.589 354.411 147.978 351.727 146.419 347.111C145.653 344.842 145.99 342.402 147.354 340.347C148.717 338.293 150.992 336.798 153.661 336.201Z" fill="#FDE8BE"/>
<path d="M176.964 397.651C182.421 395.992 188.021 399.707 189.469 405.944C190.917 412.181 187.664 418.579 182.205 420.231C176.75 421.884 171.157 418.169 169.71 411.932C168.264 405.702 171.51 399.31 176.964 397.651Z" fill="#FDE8BE"/>
<path d="M47.2262 228.601C51.2529 226.954 55.8825 228.035 58.7632 231.297C61.644 234.554 62.1441 239.284 60.0103 243.079C57.8766 246.868 53.5759 248.896 49.2926 248.124C45.0098 247.357 41.6839 243.96 41.0033 239.659C40.2623 234.978 42.8386 230.4 47.2262 228.601Z" fill="#FDE8BE"/>
<path d="M389.492 187.512C393.502 186.114 397.958 187.339 400.688 190.591C403.418 193.843 403.854 198.445 401.783 202.152C399.712 205.859 395.565 207.899 391.364 207.278C387.164 206.657 383.784 203.504 382.874 199.357C381.765 194.303 384.606 189.217 389.492 187.512Z" fill="#FDE8BE"/>
<path d="M133.469 187.254C149.093 184.141 149.951 205.251 137.099 207.294C131.728 208.148 127.668 203.061 125.582 198.613C125.849 192.502 127.481 189.613 133.469 187.254Z" fill="#FDE8BE"/>
<path d="M134.823 272.072C139.458 270.485 144.319 273.572 145.69 278.981C147.061 284.383 144.424 290.058 139.795 291.672C135.167 293.287 130.293 290.221 128.901 284.824C127.499 279.394 130.157 273.67 134.823 272.072Z" fill="#FDE8BE"/>
<path d="M153.146 292.584C158.519 290.882 164.26 293.845 165.976 299.215C167.692 304.585 164.737 310.33 159.371 312.059C154.004 313.782 148.253 310.836 146.516 305.476C144.771 300.084 147.745 294.301 153.146 292.584Z" fill="#FDE8BE"/>
<path d="M325.554 292.567C329.6 291.305 334.002 292.676 336.622 296.003C339.242 299.337 339.537 303.937 337.363 307.574C335.189 311.212 330.998 313.126 326.824 312.398C322.651 311.669 319.361 308.439 318.553 304.279C317.559 299.157 320.575 294.111 325.554 292.567Z" fill="#FDE8BE"/>
<path d="M304.233 356.838C306.09 356.22 309.943 356.06 311.462 357.254C322.815 366.18 307.268 388.211 298.296 369.48C296.955 363.46 299.378 359.221 304.233 356.838Z" fill="#FDE8BE"/>
<path d="M390.031 143.527C394.081 142.361 398.432 143.8 400.988 147.151C403.543 150.502 403.781 155.079 401.585 158.677C399.39 162.275 395.211 164.156 391.062 163.415C386.913 162.674 383.644 159.463 382.829 155.328C381.803 150.121 384.931 144.995 390.031 143.527Z" fill="#FDE8BE"/>
<path d="M324.93 377.488C329.004 375.927 333.62 377.123 336.423 380.468C339.226 383.812 339.598 388.566 337.349 392.307C335.099 396.043 330.725 397.941 326.458 397.033C322.19 396.125 318.97 392.606 318.44 388.277C317.87 383.617 320.546 379.168 324.93 377.488Z" fill="#FDE8BE"/>
<path d="M135.156 397.609C139.765 396.068 144.457 399.709 145.73 405.811C147.003 411.92 144.393 418.264 139.847 420.116C136.803 421.352 133.494 420.296 131.204 417.351C128.913 414.399 128.002 410.031 128.823 405.929C129.644 401.828 132.069 398.647 135.156 397.609Z" fill="#FDE8BE"/>
<path d="M367.152 207.66C371.236 206.708 375.487 208.347 377.875 211.793C380.263 215.237 380.305 219.794 377.98 223.285C375.655 226.771 371.435 228.49 367.335 227.614C363.234 226.733 360.085 223.443 359.391 219.31C358.497 213.986 361.895 208.885 367.152 207.66Z" fill="#FDE8BE"/>
<path d="M281.528 251.737C285.206 250.502 289.265 251.46 292.006 254.201C295.047 257.247 295.857 261.865 294.033 265.765C292.21 269.659 288.142 271.998 283.858 271.612C279.574 271.226 275.989 268.196 274.892 264.041C273.516 258.83 276.42 253.445 281.528 251.737Z" fill="#FDE8BE"/>
<path d="M282.756 207.412C289.039 207.153 294.724 209.395 294.988 216.379C295.124 219.598 293.828 222.722 291.435 224.939C284.923 230.934 277.78 226.857 274.64 219.797C274.006 213.019 276.764 210.014 282.756 207.412Z" fill="#FDE8BE"/>
<path d="M196.561 251.827C200.476 250.396 204.865 251.489 207.654 254.584C210.445 257.679 211.077 262.16 209.254 265.907C207.43 269.649 203.515 271.917 199.358 271.629C195.202 271.34 191.635 268.561 190.344 264.597C188.636 259.359 191.386 253.714 196.561 251.827Z" fill="#FDE8BE"/>
<path d="M113.416 377.005C118.962 375.912 124.343 379.529 125.426 385.075C126.509 390.622 122.882 396 117.332 397.071C111.797 398.137 106.441 394.526 105.361 388.991C104.281 383.46 107.885 378.093 113.416 377.005Z" fill="#FDE8BE"/>
<path d="M177.15 187.135C183.035 186.262 188.814 188.273 189.707 194.661C190.142 197.779 189.231 200.934 187.192 203.367C180.904 210.849 172.919 207.004 169.504 199.094C168.69 193.023 171.505 189.314 177.15 187.135Z" fill="#FDE8BE"/>
<path d="M326.721 207.566C332.233 206.543 337.54 210.149 338.619 215.65C339.697 221.148 336.144 226.494 330.655 227.626C325.165 228.762 319.786 225.26 318.597 219.783C318.011 217.086 318.544 214.258 320.074 211.957C321.605 209.654 324.003 208.071 326.721 207.566Z" fill="#FDE8BE"/>
<path d="M325.078 251.83C329.131 250.345 333.679 251.569 336.442 254.887C339.205 258.2 339.588 262.895 337.4 266.615C335.211 270.336 330.922 272.278 326.682 271.473C322.442 270.668 319.164 267.29 318.49 263.025C317.728 258.2 320.488 253.505 325.078 251.83Z" fill="#FDE8BE"/>
<path d="M241.697 207.633C247.203 206.423 252.649 209.901 253.869 215.404C255.089 220.908 251.621 226.363 246.119 227.592C240.618 228.821 235.159 225.362 233.919 219.863C232.672 214.338 236.161 208.848 241.697 207.633Z" fill="#FDE8BE"/>
<path d="M47.7972 316.02C51.8068 314.649 56.2462 315.895 58.9573 319.148C61.669 322.407 62.09 326.999 60.0164 330.698C57.9433 334.392 53.8048 336.427 49.6125 335.807C45.4207 335.192 42.0437 332.053 41.1228 327.913C39.9902 322.826 42.8656 317.701 47.7972 316.02Z" fill="#FDE8BE"/>
<path d="M153.01 251.729C156.971 250.413 161.337 251.631 164.037 254.82C166.738 258.002 167.231 262.507 165.282 266.201C163.332 269.896 159.334 272.028 155.181 271.599C151.028 271.163 147.556 268.247 146.411 264.232C144.91 258.971 147.819 253.459 153.01 251.729Z" fill="#FDE8BE"/>
<path d="M154.027 377.053C158.105 376.15 162.323 377.815 164.68 381.265C167.038 384.715 167.06 389.248 164.736 392.72C162.413 396.192 158.211 397.901 154.125 397.036C150.038 396.17 146.889 392.911 146.17 388.791C145.23 383.409 148.691 378.234 154.027 377.053Z" fill="#FDE8BE"/>
<path d="M47.7707 187.5C51.842 186.097 56.3556 187.396 59.0591 190.748C61.762 194.099 62.0748 198.786 59.8414 202.468C57.608 206.149 53.3066 208.037 49.0852 207.187C44.8632 206.338 41.6265 202.935 40.99 198.676C40.262 193.803 43.1124 189.104 47.7707 187.5Z" fill="#FDE8BE"/>
<path d="M366.079 251.789C370.133 250.358 374.646 251.62 377.374 254.945C380.101 258.265 380.459 262.94 378.27 266.635C376.081 270.336 371.813 272.268 367.588 271.479C363.364 270.684 360.086 267.337 359.386 263.098C358.577 258.2 361.399 253.432 366.079 251.789Z" fill="#FDE8BE"/>
<path d="M153.639 207.73C157.678 206.667 161.958 208.168 164.448 211.521C166.938 214.873 167.138 219.406 164.953 222.965C162.767 226.524 158.636 228.396 154.519 227.694C150.402 226.986 147.127 223.852 146.248 219.765C145.097 214.422 148.353 209.121 153.639 207.73Z" fill="#FDE8BE"/>
<path d="M48.9434 356.595C54.4357 355.409 59.855 358.881 61.0772 364.36C62.2995 369.845 58.8657 375.286 53.3898 376.549C47.9143 377.805 42.4487 374.41 41.1525 368.942C40.519 366.27 40.9881 363.457 42.4536 361.133C43.9196 358.81 46.2584 357.172 48.9434 356.595Z" fill="#FDE8BE"/>
<path d="M48.3002 272.042C52.3192 270.899 56.6303 272.314 59.1876 275.623C61.7442 278.926 62.0316 283.454 59.9135 287.057C57.7955 290.66 53.6976 292.608 49.566 291.982C45.435 291.356 42.1012 288.276 41.1483 284.205C39.9037 278.893 43.0525 273.538 48.3002 272.042Z" fill="#FDE8BE"/>
<path d="M113.33 292.603C128.364 288.571 129.788 310.211 116.572 312.457C111.545 313.311 107.272 308.138 105.256 304.326C104.642 298.357 107.311 294.483 113.33 292.603Z" fill="#FDE8BE"/>
<path d="M71.5024 292.548C75.5561 291.313 79.9515 292.706 82.5518 296.054C85.1521 299.401 85.4188 304.007 83.2224 307.626C81.0255 311.252 76.8211 313.146 72.6515 312.384C68.4824 311.627 65.2126 308.378 64.432 304.213C63.4724 299.091 66.5179 294.067 71.5024 292.548Z" fill="#FDE8BE"/>
<path d="M113.287 336.302C123.535 333.942 128.71 342.893 123.662 349.122C117.599 356.603 109.43 353.538 105.223 346.233C104.758 341.36 107.33 337.554 113.287 336.302Z" fill="#FDE8BE"/>
<path d="M261.396 143.559C265.452 142.343 269.838 143.753 272.425 147.104C275.012 150.456 275.266 155.055 273.063 158.671C270.859 162.286 266.656 164.17 262.491 163.407C258.326 162.644 255.063 159.393 254.284 155.231C253.323 150.094 256.391 145.06 261.396 143.559Z" fill="#FDE8BE"/>
<path d="M218.541 143.25C220.87 142.901 225.615 143.235 227.291 145.103C238.797 157.926 218.649 178.49 210.507 157.458C209.512 150.081 212.287 145.554 218.541 143.25Z" fill="#FDE8BE"/>
<path d="M72.4605 336.122C81.5358 334.435 88.2768 343.415 82.6374 349.662C80.6378 351.855 77.6646 353.223 74.4449 353.425C69.4385 353.701 65.231 350.435 64.4939 346.245C63.2558 341.165 66.9862 337.435 72.4605 336.122Z" fill="#FDE8BE"/>
<path d="M197.63 207.688C203.013 206.37 208.465 209.582 209.923 214.928C211.38 220.274 208.312 225.81 203.005 227.405C197.698 229 192.085 226.076 190.351 220.812C189.459 218.107 189.738 215.151 191.12 212.66C192.502 210.168 194.861 208.365 197.63 207.688Z" fill="#FDE8BE"/>
<path d="M112.578 207.789C116.608 206.634 120.934 208.056 123.492 211.376C126.051 214.699 126.322 219.245 124.179 222.843C122.035 226.447 117.909 228.374 113.771 227.71C109.632 227.04 106.319 223.916 105.413 219.827C104.246 214.552 107.384 209.277 112.578 207.789Z" fill="#FDE8BE"/>
<path d="M48.3446 397.69C52.4618 396.371 56.862 398.12 59.3735 402.077C61.8856 406.028 61.9793 411.354 59.6082 415.418C57.2371 419.487 52.9022 421.435 48.7415 420.308C44.5814 419.182 41.4747 415.212 40.9537 410.365C40.3385 404.634 43.4789 399.246 48.3446 397.69Z" fill="#FDE8BE"/>
<path d="M72.5979 376.986C78.1633 375.947 83.5152 379.627 84.5344 385.196C85.5531 390.765 81.8508 396.1 76.2767 397.097C70.7032 398.093 65.3817 394.364 64.4094 388.789C63.4484 383.274 67.0979 378.015 72.5979 376.986Z" fill="#FDE8BE"/>
<path d="M72.061 166.745C77.5546 165.598 83.0912 168.493 84.4163 173.205C85.7408 177.916 82.3508 182.655 76.8506 183.779C71.3505 184.903 65.8302 181.987 64.5313 177.269C63.2416 172.584 66.6038 167.884 72.061 166.745Z" fill="#FDE8BE"/>
<path d="M112.043 251.773C116.065 250.374 120.531 251.621 123.254 254.893C125.976 258.165 126.385 262.783 124.28 266.485C122.175 270.183 117.996 272.192 113.792 271.527C109.586 270.858 106.235 267.656 105.38 263.485C104.349 258.46 107.199 253.456 112.043 251.773Z" fill="#FDE8BE"/>
<path d="M326.148 166.749C331.594 165.603 337.101 168.43 338.49 173.085C339.88 177.742 336.634 182.488 331.215 183.723C325.797 184.96 320.228 182.224 318.734 177.591C317.998 175.309 318.371 172.87 319.767 170.827C321.164 168.785 323.466 167.314 326.148 166.749Z" fill="#FDE8BE"/>
<path d="M91.147 143.491C94.637 142.376 98.3558 143.878 100.507 147.273C102.659 150.667 102.8 155.255 100.864 158.821C98.9281 162.388 95.3115 164.199 91.7617 163.38C88.2119 162.561 85.4589 159.28 84.832 155.123C84.0478 149.925 86.784 144.885 91.147 143.491Z" fill="#FDE8BE"/>
<path d="M304.18 143.557C307.693 142.33 311.49 143.786 313.695 147.204C315.9 150.623 316.047 155.281 314.064 158.88C312.08 162.478 308.386 164.256 304.805 163.334C301.224 162.412 298.514 158.986 298.013 154.748C297.422 149.754 300.04 145.003 304.18 143.557Z" fill="#FDE8BE"/>
<path d="M70.9736 251.824C75.03 250.348 79.5792 251.573 82.3404 254.895C85.1011 258.212 85.4785 262.912 83.2821 266.627C81.0862 270.346 76.7907 272.285 72.5503 271.468C68.3099 270.651 65.0389 267.264 64.3772 262.994C63.6305 258.174 66.3923 253.501 70.9736 251.824Z" fill="#FDE8BE"/>
<path d="M48.364 143.501C52.4197 142.374 56.7516 143.848 59.2783 147.215C61.8045 150.582 62.0088 155.154 59.793 158.733C57.5773 162.312 53.3942 164.167 49.2541 163.406C45.1139 162.645 41.8633 159.425 41.0643 155.292C40.0528 150.06 43.2299 144.928 48.364 143.501Z" fill="#FDE8BE"/>
<path d="M135.024 143.478C139.721 142.011 144.545 145.288 145.768 150.779C146.992 156.271 144.148 161.874 139.432 163.262C134.717 164.65 129.935 161.291 128.779 155.779C127.647 150.38 130.421 144.915 135.024 143.478Z" fill="#FDE8BE"/>
<path d="M177.399 143.229C183.896 142.57 189.28 145.028 189.788 153.124C190.005 156.753 188.818 160.313 186.529 162.899C180.079 170.215 172.553 165.403 169.467 157.117C168.809 149.734 171.363 145.861 177.399 143.229Z" fill="#FDE8BE"/>
<path d="M240.029 167.144C244.032 165.744 248.629 166.654 251.51 169.416C254.392 172.178 254.936 176.196 252.867 179.45C250.799 182.704 246.566 184.491 242.296 183.913C238.026 183.335 234.641 180.518 233.843 176.876C232.946 172.784 235.531 168.716 240.029 167.144Z" fill="#FDE8BE"/>
<path d="M282.815 166.794C297.893 163.957 299.117 182.115 285.697 183.954C280.935 184.606 276.531 180.324 274.638 177.213C274.039 171.595 276.489 168.811 282.815 166.794Z" fill="#FDE8BE"/>
<path d="M112.67 166.812C116.692 165.858 120.985 167.096 123.518 169.937C126.051 172.779 126.314 176.656 124.185 179.731C122.055 182.806 117.958 184.463 113.834 183.917C109.711 183.372 106.389 180.732 105.44 177.25C104.192 172.671 107.383 168.064 112.67 166.812Z" fill="#FDE8BE"/>
<path d="M153.725 166.765C159.157 165.584 164.686 168.371 166.121 173.014C167.556 177.656 164.362 182.424 158.96 183.702C153.558 184.981 147.962 182.293 146.414 177.677C145.65 175.398 145.996 172.951 147.374 170.895C148.752 168.838 151.043 167.349 153.725 166.765Z" fill="#FDE8BE"/>
<path d="M197.631 166.751C203.076 165.61 208.578 168.438 209.965 173.093C211.352 177.748 208.107 182.491 202.691 183.727C197.275 184.964 191.707 182.231 190.21 177.602C189.471 175.319 189.843 172.875 191.241 170.831C192.64 168.786 194.945 167.314 197.631 166.751Z" fill="#FDE8BE"/>
<rect x="38.8311" y="130.392" width="430.026" height="310.729" fill="#DB1B00"/>
<path d="M425.769 140.442C435.445 139.922 450.916 140.434 460.922 140.438L532.567 140.45L583.532 140.433C591.007 140.432 604.406 140.061 611.403 140.873C614.249 143.518 613.186 150.667 613.186 154.716L613.181 178.788L613.186 255.874L613.202 367.514L613.249 401.817C613.281 407.686 613.328 413.618 613.323 419.487C613.318 421.506 612.692 421.806 611.497 423.347C601.602 423.691 590.102 423.422 580.049 423.422H520.725L461.438 423.439C457.134 423.444 426.825 423.986 424.724 422.612C423.06 420.529 423.599 411.814 423.589 408.733L423.567 384.163L423.555 305.619L423.546 197.105V162.283C423.547 156.435 423.524 150.458 423.591 144.601C423.615 142.55 424.448 142.101 425.769 140.442Z" fill="#FDE8BE"/>
<path d="M347.157 357.146C350.518 355.519 354.393 356.484 356.891 359.575C359.389 362.661 359.99 367.232 358.401 371.05C356.812 374.873 353.364 377.15 349.739 376.771C346.113 376.397 343.066 373.441 342.082 369.352C340.883 364.374 343.062 359.13 347.157 357.146Z" fill="#FDE8BE"/>
<path d="M348.504 228.12C351.994 227.155 355.633 228.771 357.692 232.199C359.751 235.622 359.813 240.168 357.85 243.666C355.886 247.171 352.293 248.917 348.779 248.087C345.264 247.257 342.538 244.014 341.897 239.897C341.062 234.548 343.966 229.368 348.504 228.12Z" fill="#FDE8BE"/>
<path d="M261.652 397.68C267.09 395.975 272.713 399.62 274.216 405.833C275.719 412.045 272.534 418.475 267.099 420.199C261.656 421.928 256.018 418.283 254.513 412.058C253.007 405.833 256.205 399.397 261.652 397.68Z" fill="#FDE8BE"/>
<path d="M262.379 356.559C266.04 355.837 269.806 357.161 272.202 360.026C274.599 362.885 275.245 366.824 273.888 370.302C272.532 373.78 269.388 376.243 265.687 376.726C260.218 377.436 255.17 373.682 254.277 368.24C253.384 362.798 256.969 357.633 262.379 356.559Z" fill="#FDE8BE"/>
<path d="M241.438 336.176C245.055 335.409 248.872 336.39 251.401 338.735C253.93 341.079 254.77 344.419 253.593 347.447C252.416 350.48 249.408 352.722 245.744 353.298C240.31 354.159 235.064 351.159 233.9 346.526C232.736 341.898 236.074 337.311 241.438 336.176Z" fill="#FDE8BE"/>
<path d="M347.99 397.758C351.431 396.375 355.157 397.932 357.388 401.691C359.619 405.449 359.902 410.641 358.103 414.79C356.305 418.939 352.788 421.203 349.233 420.502C345.678 419.801 342.805 416.272 341.986 411.608C340.932 405.598 343.561 399.538 347.99 397.758Z" fill="#FDE8BE"/>
<path d="M348.008 272.088C351.473 270.883 355.218 272.277 357.437 275.61C359.656 278.942 359.892 283.522 358.032 287.141C356.172 290.761 352.597 292.671 349.033 291.96C345.469 291.244 342.648 288.048 341.929 283.912C341.03 278.73 343.666 273.602 348.008 272.088Z" fill="#FDE8BE"/>
<path d="M91.0293 272.064C94.5176 270.886 98.2667 272.34 100.456 275.722C102.644 279.103 102.819 283.71 100.895 287.303C98.9715 290.896 95.3469 292.73 91.7833 291.916C88.2193 291.108 85.4544 287.813 84.8311 283.64C84.0645 278.5 86.735 273.513 91.0293 272.064Z" fill="#FDE8BE"/>
<path d="M263.177 315.542C268.802 314.885 273.889 318.922 274.523 324.55C275.156 330.177 271.095 335.25 265.465 335.858C259.869 336.466 254.835 332.434 254.206 326.84C253.576 321.245 257.586 316.193 263.177 315.542Z" fill="#FDE8BE"/>
<path d="M198.204 336.215C204.24 335.084 208.903 337.222 210.071 342.265C210.687 344.803 210.019 347.436 208.216 349.56C202.673 356.187 194.442 353.568 190.271 347.463C188.824 341.789 190.992 337.731 198.204 336.215Z" fill="#FDE8BE"/>
<path d="M261.509 272.07C266.955 270.485 272.651 273.638 274.198 279.097C275.744 284.556 272.552 290.227 267.083 291.735C261.668 293.233 256.062 290.075 254.531 284.67C252.999 279.265 256.115 273.638 261.509 272.07Z" fill="#FDE8BE"/>
<path d="M262.296 228.055C265.959 227.301 269.743 228.603 272.162 231.453C274.581 234.308 275.249 238.253 273.903 241.743C272.558 245.233 269.414 247.708 265.706 248.202C260.251 248.924 255.203 245.195 254.285 239.773C253.367 234.346 256.908 229.168 262.296 228.055Z" fill="#FDE8BE"/>
<path d="M347.634 316.04C351.072 314.645 354.894 315.872 357.232 319.129C359.572 322.381 359.942 326.99 358.162 330.692C356.381 334.4 352.823 336.435 349.222 335.806C345.62 335.176 342.728 332.016 341.955 327.864C341.015 322.815 343.452 317.739 347.634 316.04Z" fill="#FDE8BE"/>
<path d="M241.628 377.066C245.7 376.143 249.926 377.788 252.302 381.219C254.677 384.656 254.724 389.189 252.42 392.674C250.117 396.159 245.926 397.891 241.835 397.05C237.744 396.208 234.576 392.962 233.833 388.852C232.861 383.472 236.295 378.277 241.628 377.066Z" fill="#FDE8BE"/>
<path d="M91.1261 228.216C95.7878 226.713 100.613 229.899 101.906 235.337C103.198 240.775 100.468 246.402 95.8082 247.917C91.1475 249.425 86.3198 246.245 85.0232 240.807C83.7247 235.364 86.4584 229.725 91.1261 228.216Z" fill="#FDE8BE"/>
<path d="M90.2079 357.097C93.6048 355.511 97.4888 356.554 99.9494 359.713C102.41 362.873 102.928 367.482 101.25 371.277C99.5721 375.072 96.05 377.249 92.4173 376.738C88.785 376.228 85.806 373.139 84.9465 368.986C83.9237 364.051 86.1647 358.986 90.2079 357.097Z" fill="#FDE8BE"/>
<path d="M217.869 397.67C223.315 395.983 228.926 399.656 230.406 405.878C231.886 412.101 228.674 418.516 223.23 420.216C217.781 421.909 212.161 418.237 210.68 412.008C209.198 405.779 212.418 399.358 217.869 397.67Z" fill="#FDE8BE"/>
<path d="M282.156 336.21C286.23 335.289 290.548 336.601 293.03 339.523C295.513 342.441 295.651 346.363 293.379 349.407C291.107 352.45 286.89 353.985 282.758 353.273C278.626 352.561 275.427 349.751 274.7 346.196C273.784 341.71 277.023 337.373 282.156 336.21Z" fill="#FDE8BE"/>
<path d="M217.914 228.191C223.335 226.747 228.905 229.944 230.396 235.352C231.887 240.759 228.742 246.356 223.348 247.898C217.953 249.434 212.326 246.34 210.738 240.965C209.956 238.316 210.278 235.466 211.63 233.061C212.981 230.656 215.248 228.902 217.914 228.191Z" fill="#FDE8BE"/>
<path d="M219.433 315.532C223.137 315.13 226.768 316.77 228.909 319.822C231.051 322.868 231.364 326.843 229.726 330.188C228.089 333.539 224.76 335.727 221.039 335.906C215.519 336.178 210.786 332.007 210.351 326.501C209.917 320.989 213.94 316.134 219.433 315.532Z" fill="#FDE8BE"/>
<path d="M388.982 357.129C392.944 355.505 397.498 356.521 400.393 359.676C403.288 362.832 403.91 367.459 401.952 371.266C399.994 375.074 395.871 377.257 391.62 376.736C387.371 376.22 383.894 373.108 382.911 368.936C381.757 364.043 384.331 359.036 388.982 357.129Z" fill="#FDE8BE"/>
<path d="M389.406 398.093C393.839 396.29 396.002 397.602 399.804 400.238C401.728 403.812 402.081 404.842 403.084 408.938C399.625 422.86 388.578 424.865 382.834 412.15C381.953 405.216 384.002 401.115 389.406 398.093Z" fill="#FDE8BE"/>
<path d="M177.175 315.756C183.196 314.523 188.659 317.331 189.694 323.641C190.199 326.596 189.495 329.621 187.741 332.054C184.508 336.48 177.638 337.17 173.493 333.786C171.762 332.401 170.546 330.479 170.037 328.328C167.775 322.485 171.934 317.847 177.175 315.756Z" fill="#FDE8BE"/>
<path d="M304.852 397.492C310.411 396.367 314.935 399.299 315.428 407C315.66 410.431 314.821 413.831 313.096 416.459C307.995 424.16 301.57 420.242 298.301 412.426C296.921 404.847 299.574 400.266 304.852 397.492Z" fill="#FDE8BE"/>
<path d="M347.597 187.533C351.045 186.111 354.888 187.337 357.236 190.609C359.584 193.881 359.943 198.51 358.137 202.221C356.33 205.931 352.738 207.943 349.127 207.265C345.516 206.588 342.645 203.366 341.926 199.182C341.069 194.194 343.485 189.229 347.597 187.533Z" fill="#FDE8BE"/>
<path d="M390.543 228.111C394.604 227.166 398.833 228.784 401.229 232.194C403.624 235.609 403.707 240.133 401.436 243.635C399.166 247.132 394.999 248.897 390.906 248.104C386.812 247.306 383.614 244.102 382.824 240.008C381.783 234.61 385.191 229.359 390.543 228.111Z" fill="#FDE8BE"/>
<path d="M176.531 228.279C187.939 225.599 193.568 235.859 187.167 244.255C181.54 251.634 173.573 248.016 169.618 240.473C168.666 234.501 170.921 230.782 176.531 228.279Z" fill="#FDE8BE"/>
<path d="M367.191 377.079C371.28 376.128 375.535 377.774 377.919 381.228C380.303 384.688 380.332 389.251 377.992 392.732C375.652 396.219 371.419 397.92 367.318 397.023C363.217 396.127 360.081 392.808 359.412 388.664C358.555 383.357 361.955 378.295 367.191 377.079Z" fill="#FDE8BE"/>
<path d="M91.0696 397.707C94.5034 396.403 98.1861 398.011 100.379 401.773C102.571 405.528 102.836 410.68 101.047 414.801C99.2578 418.917 95.7729 421.182 92.2381 420.512C88.7034 419.848 85.825 416.39 84.9619 411.772C83.8191 405.652 86.5214 399.432 91.0696 397.707Z" fill="#FDE8BE"/>
<path d="M91.2794 315.734C96.4674 314.676 101.032 316.759 102.066 323.096C102.563 326.203 101.895 329.402 100.224 331.919C95.2013 339.367 88.3092 335.38 84.8808 328.393C84.0384 321.937 86.1385 318.261 91.2794 315.734Z" fill="#FDE8BE"/>
<path d="M135.618 228.027C140.358 226.973 144.938 230.585 145.862 236.107C146.787 241.635 143.709 246.99 138.977 248.092C134.218 249.2 129.594 245.583 128.664 240.028C127.734 234.467 130.852 229.091 135.618 228.027Z" fill="#FDE8BE"/>
<path d="M134.02 357.093C137.394 355.522 141.247 356.544 143.708 359.662C146.169 362.775 146.727 367.344 145.111 371.136C143.496 374.934 140.042 377.172 136.427 376.764C132.812 376.362 129.785 373.396 128.818 369.311C127.628 364.285 129.869 359.021 134.02 357.093Z" fill="#FDE8BE"/>
<path d="M240.98 292.528C244.51 291.48 248.333 292.414 250.986 294.966C253.638 297.524 254.711 301.304 253.794 304.872C252.877 308.44 250.112 311.237 246.556 312.198C241.154 313.654 235.585 310.498 234.059 305.116C232.533 299.735 235.617 294.125 240.98 292.528Z" fill="#FDE8BE"/>
<path d="M390.788 271.745C397.293 271.139 402.712 273.577 403.07 280.671C403.22 283.645 402.15 286.549 400.099 288.74C393.72 295.577 386.476 290.942 382.757 284.159C381.997 277.767 384.851 273.99 390.788 271.745Z" fill="#FDE8BE"/>
<path d="M304.61 228.144C309.331 226.786 314.095 230.175 315.224 235.693C316.353 241.211 313.417 246.745 308.681 248.027C303.944 249.303 299.22 245.843 298.154 240.309C297.108 234.878 299.978 229.469 304.61 228.144Z" fill="#FDE8BE"/>
<path d="M326.088 336.185C330.258 335.286 334.64 336.716 337.053 339.766C339.465 342.82 339.393 346.839 336.87 349.824C334.348 352.808 329.916 354.122 325.781 353.107C321.646 352.096 318.693 348.972 318.392 345.298C318.045 341.065 321.287 337.223 326.088 336.185Z" fill="#FDE8BE"/>
<path d="M348.071 143.539C351.552 142.359 355.296 143.801 357.491 147.166C359.686 150.531 359.878 155.126 357.974 158.725C356.071 162.324 352.464 164.183 348.902 163.404C345.339 162.624 342.555 159.365 341.9 155.206C341.086 150.045 343.753 145.004 348.071 143.539Z" fill="#FDE8BE"/>
<path d="M367.297 292.297C383.747 289.892 383.227 310.888 369.528 312.507C364.587 313.09 360.937 307.96 359.292 303.914C359.09 297.491 361.421 294.563 367.297 292.297Z" fill="#FDE8BE"/>
<path d="M366.991 336.19C371.092 335.296 375.411 336.665 377.853 339.627C380.295 342.588 380.356 346.533 378.006 349.55C375.656 352.563 371.38 354.03 367.253 353.229C363.125 352.433 359.998 349.536 359.388 345.946C358.633 341.503 361.915 337.293 366.991 336.19Z" fill="#FDE8BE"/>
<path d="M134.472 316.003C137.878 314.672 141.637 315.894 143.956 319.095C146.275 322.3 146.684 326.827 144.987 330.527C143.291 334.222 139.833 336.33 136.263 335.852C132.693 335.374 129.736 332.401 128.803 328.353C127.6 323.137 130.083 317.725 134.472 316.003Z" fill="#FDE8BE"/>
<path d="M177.487 271.67C183.876 271.488 189.733 273.768 189.852 281.018C189.896 284.119 188.62 287.097 186.331 289.233C179.932 295.151 173.18 291.105 169.584 284.559C168.651 277.846 171.404 274.294 177.487 271.67Z" fill="#FDE8BE"/>
<path d="M282.524 292.396C286.78 291.63 288.526 292.374 292.254 294.7C294.322 298.17 295.725 300.753 294.583 305.044C293.871 307.818 292.006 310.155 289.464 311.452C286.977 312.728 284.072 312.903 281.452 311.934C277.852 310.631 276.313 308.262 274.681 305.005C273.933 298.345 276.234 294.552 282.524 292.396Z" fill="#FDE8BE"/>
<path d="M366.664 166.851C372.097 165.504 377.772 168.194 379.33 172.854C380.887 177.513 377.734 182.372 372.294 183.695C366.854 185.018 361.194 182.303 359.664 177.636C358.145 173.004 361.27 168.187 366.664 166.851Z" fill="#FDE8BE"/>
<path d="M304.818 315.757C309.915 314.588 314.507 317.005 315.341 323.162C315.766 326.171 315.094 329.239 313.48 331.678C308.494 339.19 301.439 335.866 298.197 328.38C297.093 321.914 299.583 317.96 304.818 315.757Z" fill="#FDE8BE"/>
<path d="M197.741 377.083C203.186 375.811 208.644 379.147 209.991 384.574C211.339 390.001 208.076 395.499 202.668 396.923C197.259 398.341 191.713 395.157 190.219 389.768C189.476 387.084 189.858 384.216 191.277 381.82C192.697 379.43 195.031 377.718 197.741 377.083Z" fill="#FDE8BE"/>
<path d="M218.8 272.055C224.957 270.518 231.38 273.604 233.202 278.977C235.024 284.345 231.565 290 225.447 291.652C221.43 292.739 217.057 291.848 213.995 289.327C210.934 286.806 209.657 283.041 210.651 279.466C211.645 275.896 214.757 273.06 218.8 272.055Z" fill="#FDE8BE"/>
<path d="M197.086 292.552C202.473 290.911 208.175 293.932 209.837 299.316C211.499 304.694 208.493 310.409 203.117 312.088C197.741 313.761 192.019 310.778 190.324 305.405C188.614 299.984 191.652 294.214 197.086 292.552Z" fill="#FDE8BE"/>
<path d="M260.882 187.56C264.898 186.105 269.396 187.3 272.16 190.558C274.924 193.816 275.371 198.449 273.28 202.174C271.19 205.9 267.003 207.933 262.783 207.272C258.562 206.611 255.197 203.395 254.347 199.208C253.338 194.243 256.118 189.287 260.882 187.56Z" fill="#FDE8BE"/>
<path d="M304.156 272.103C307.584 270.886 311.301 272.228 313.542 275.489C315.782 278.755 316.094 283.282 314.329 286.917C312.565 290.558 309.079 292.575 305.528 292.015C301.977 291.455 299.077 288.428 298.205 284.369C297.068 279.086 299.686 273.685 304.156 272.103Z" fill="#FDE8BE"/>
<path d="M175.908 357.067C179.8 355.545 184.228 356.545 187.087 359.594C189.947 362.643 190.662 367.127 188.893 370.915C187.125 374.703 183.228 377.034 179.055 376.795C174.882 376.561 171.272 373.806 169.941 369.844C168.204 364.676 170.83 359.056 175.908 357.067Z" fill="#FDE8BE"/>
<path d="M280.959 377.551C285.024 375.915 289.678 377.057 292.529 380.382C295.381 383.708 295.797 388.48 293.564 392.246C291.33 396.018 286.944 397.942 282.658 397.04C278.372 396.132 275.138 392.599 274.618 388.252C274.069 383.66 276.669 379.274 280.959 377.551Z" fill="#FDE8BE"/>
<path d="M240.53 251.782C244.497 250.401 248.905 251.586 251.644 254.771C254.383 257.956 254.895 262.489 252.934 266.206C250.974 269.924 246.941 272.06 242.766 271.598C238.591 271.13 235.124 268.163 234.026 264.108C232.624 258.929 235.464 253.548 240.53 251.782Z" fill="#FDE8BE"/>
<path d="M218.211 187.186C224.536 186.1 229.967 188.723 230.699 195.38C231.052 198.529 230.012 201.676 227.841 204.026C221.713 210.629 213.904 206.663 210.56 199.573C209.419 193.346 212.402 189.448 218.211 187.186Z" fill="#FDE8BE"/>
<path d="M91.2986 187.177C96.7525 186.189 101.649 188.309 102.184 195.282C102.443 198.483 101.498 201.66 99.5836 204.018C94.1119 210.772 87.7671 206.448 84.7982 199.364C84.2229 193.146 86.1533 189.461 91.2986 187.177Z" fill="#FDE8BE"/>
<path d="M303.734 187.554C307.221 186.089 311.12 187.341 313.473 190.682C315.826 194.022 316.123 198.728 314.215 202.435C312.307 206.142 308.607 208.047 304.974 207.194C301.341 206.341 298.56 202.913 298.03 198.635C297.435 193.829 299.819 189.198 303.734 187.554Z" fill="#FDE8BE"/>
<path d="M216.857 357.052C220.783 355.536 225.238 356.579 228.082 359.678C230.925 362.783 231.575 367.317 229.72 371.095C227.864 374.874 223.882 377.125 219.688 376.777C215.493 376.423 211.943 373.536 210.745 369.497C209.227 364.392 211.887 358.972 216.857 357.052Z" fill="#FDE8BE"/>
<path d="M72.0241 207.701C76.1033 206.683 80.3901 208.268 82.8277 211.694C85.2652 215.117 85.356 219.689 83.0576 223.211C80.7587 226.728 76.5387 228.484 72.4215 227.63C68.3048 226.777 65.1301 223.488 64.4213 219.346C63.5189 214.073 66.8338 208.995 72.0241 207.701Z" fill="#FDE8BE"/>
<path d="M389.546 316.024C393.529 314.659 397.941 315.877 400.662 319.089C403.383 322.302 403.856 326.851 401.854 330.558C399.852 334.26 395.784 336.358 391.606 335.841C387.428 335.325 383.994 332.298 382.955 328.215C381.64 323.057 384.509 317.752 389.546 316.024Z" fill="#FDE8BE"/>
<path d="M153.663 336.206C159.091 334.99 164.646 337.757 166.11 342.397C167.572 347.036 164.397 351.825 158.994 353.12C153.591 354.415 147.98 351.732 146.421 347.115C145.655 344.847 145.992 342.406 147.356 340.352C148.719 338.297 150.994 336.802 153.663 336.206Z" fill="#FDE8BE"/>
<path d="M177.004 397.655C182.461 395.997 188.061 399.712 189.509 405.948C190.957 412.185 187.704 418.583 182.245 420.236C176.79 421.888 171.197 418.173 169.75 411.937C168.304 405.706 171.55 399.314 177.004 397.655Z" fill="#FDE8BE"/>
<path d="M47.2282 228.606C51.2549 226.958 55.8845 228.04 58.7652 231.302C61.6459 234.559 62.1461 239.289 60.0123 243.084C57.8785 246.873 53.5778 248.901 49.2945 248.129C45.0118 247.362 41.6859 243.964 41.0052 239.664C40.2642 234.983 42.8405 230.405 47.2282 228.606Z" fill="#FDE8BE"/>
<path d="M389.494 187.517C393.504 186.118 397.96 187.343 400.69 190.596C403.42 193.848 403.856 198.449 401.785 202.156C399.714 205.863 395.567 207.904 391.366 207.283C387.165 206.662 383.786 203.509 382.876 199.361C381.767 194.307 384.608 189.221 389.494 187.517Z" fill="#FDE8BE"/>
<path d="M133.501 187.261C149.126 184.147 149.984 205.258 137.131 207.301C131.76 208.155 127.701 203.068 125.614 198.62C125.881 192.509 127.514 189.62 133.501 187.261Z" fill="#FDE8BE"/>
<path d="M134.797 272.077C139.432 270.49 144.293 273.577 145.664 278.985C147.034 284.388 144.398 290.062 139.769 291.677C135.141 293.291 130.267 290.226 128.874 284.828C127.472 279.398 130.131 273.675 134.797 272.077Z" fill="#FDE8BE"/>
<path d="M153.148 292.586C158.521 290.884 164.262 293.847 165.978 299.217C167.694 304.587 164.739 310.332 159.373 312.061C154.006 313.784 148.255 310.838 146.518 305.478C144.773 300.086 147.747 294.303 153.148 292.586Z" fill="#FDE8BE"/>
<path d="M325.556 292.569C329.602 291.307 334.004 292.678 336.624 296.005C339.244 299.338 339.539 303.939 337.365 307.576C335.191 311.214 331 313.128 326.826 312.399C322.653 311.671 319.363 308.441 318.555 304.281C317.561 299.159 320.577 294.113 325.556 292.569Z" fill="#FDE8BE"/>
<path d="M304.243 356.84C306.099 356.222 309.953 356.062 311.472 357.256C322.824 366.182 307.278 388.213 298.306 369.482C296.965 363.462 299.388 359.223 304.243 356.84Z" fill="#FDE8BE"/>
<path d="M390.033 143.532C394.083 142.366 398.434 143.805 400.99 147.156C403.545 150.507 403.783 155.084 401.587 158.682C399.392 162.28 395.213 164.161 391.064 163.42C386.915 162.679 383.646 159.468 382.831 155.333C381.805 150.126 384.933 145 390.033 143.532Z" fill="#FDE8BE"/>
<path d="M324.932 377.49C329.006 375.929 333.622 377.125 336.425 380.47C339.228 383.814 339.6 388.567 337.351 392.309C335.101 396.045 330.727 397.943 326.46 397.035C322.192 396.127 318.972 392.608 318.442 388.279C317.872 383.619 320.548 379.17 324.932 377.49Z" fill="#FDE8BE"/>
<path d="M135.129 397.613C139.739 396.072 144.431 399.714 145.704 405.816C146.977 411.924 144.367 418.268 139.821 420.12C136.776 421.357 133.467 420.3 131.177 417.355C128.887 414.403 127.976 410.035 128.797 405.934C129.618 401.833 132.042 398.651 135.129 397.613Z" fill="#FDE8BE"/>
<path d="M367.184 207.664C371.268 206.712 375.519 208.351 377.907 211.797C380.296 215.241 380.337 219.798 378.012 223.289C375.687 226.775 371.467 228.493 367.367 227.618C363.266 226.737 360.117 223.447 359.423 219.314C358.529 213.99 361.927 208.888 367.184 207.664Z" fill="#FDE8BE"/>
<path d="M281.522 251.744C285.201 250.509 289.259 251.467 292.001 254.208C295.041 257.254 295.851 261.872 294.028 265.772C292.204 269.666 288.136 272.005 283.852 271.619C279.568 271.232 275.983 268.203 274.886 264.047C273.51 258.837 276.414 253.452 281.522 251.744Z" fill="#FDE8BE"/>
<path d="M282.75 207.416C289.033 207.157 294.718 209.398 294.982 216.383C295.118 219.602 293.823 222.726 291.43 224.943C284.917 230.938 277.774 226.861 274.634 219.801C274 213.022 276.759 210.018 282.75 207.416Z" fill="#FDE8BE"/>
<path d="M196.571 251.833C200.486 250.403 204.874 251.496 207.664 254.591C210.455 257.685 211.087 262.167 209.264 265.914C207.44 269.656 203.525 271.924 199.368 271.635C195.212 271.347 191.645 268.568 190.354 264.603C188.646 259.366 191.396 253.721 196.571 251.833Z" fill="#FDE8BE"/>
<path d="M113.382 377.007C118.928 375.914 124.309 379.531 125.392 385.077C126.474 390.624 122.848 396.002 117.298 397.073C111.763 398.139 106.406 394.528 105.327 388.992C104.247 383.462 107.851 378.095 113.382 377.007Z" fill="#FDE8BE"/>
<path d="M177.19 187.141C183.075 186.269 188.854 188.28 189.747 194.668C190.182 197.786 189.271 200.941 187.232 203.374C180.944 210.856 172.959 207.011 169.544 199.101C168.73 193.03 171.545 189.321 177.19 187.141Z" fill="#FDE8BE"/>
<path d="M326.723 207.57C332.235 206.547 337.542 210.153 338.621 215.654C339.699 221.152 336.146 226.498 330.657 227.63C325.167 228.766 319.788 225.264 318.599 219.787C318.012 217.09 318.545 214.262 320.076 211.961C321.607 209.658 324.005 208.075 326.723 207.57Z" fill="#FDE8BE"/>
<path d="M325.08 251.837C329.133 250.352 333.681 251.576 336.444 254.894C339.207 258.207 339.59 262.901 337.402 266.622C335.213 270.343 330.924 272.285 326.684 271.48C322.444 270.675 319.166 267.297 318.492 263.032C317.73 258.207 320.49 253.512 325.08 251.837Z" fill="#FDE8BE"/>
<path d="M241.7 207.637C247.206 206.427 252.652 209.905 253.872 215.407C255.092 220.911 251.624 226.367 246.122 227.596C240.621 228.825 235.162 225.366 233.922 219.867C232.675 214.342 236.164 208.852 241.7 207.637Z" fill="#FDE8BE"/>
<path d="M47.7992 316.022C51.8088 314.651 56.2481 315.897 58.9592 319.15C61.6709 322.409 62.0919 327.001 60.0183 330.7C57.9453 334.394 53.8068 336.429 49.6144 335.809C45.4226 335.194 42.0457 332.055 41.1247 327.915C39.9922 322.828 42.8676 317.703 47.7992 316.022Z" fill="#FDE8BE"/>
<path d="M153.012 251.736C156.973 250.419 161.339 251.638 164.039 254.826C166.74 258.009 167.233 262.514 165.284 266.208C163.334 269.902 159.336 272.035 155.183 271.605C151.03 271.17 147.558 268.254 146.413 264.239C144.912 258.978 147.821 253.466 153.012 251.736Z" fill="#FDE8BE"/>
<path d="M154.029 377.055C158.107 376.152 162.325 377.817 164.682 381.267C167.04 384.717 167.062 389.25 164.738 392.722C162.415 396.194 158.213 397.903 154.127 397.038C150.04 396.172 146.891 392.913 146.172 388.793C145.232 383.411 148.693 378.236 154.029 377.055Z" fill="#FDE8BE"/>
<path d="M47.7726 187.506C51.8439 186.104 56.3575 187.402 59.061 190.754C61.764 194.106 62.0768 198.793 59.8434 202.474C57.61 206.156 53.3086 208.043 49.0871 207.194C44.8651 206.345 41.6285 202.942 40.9919 198.683C40.2639 193.81 43.1143 189.111 47.7726 187.506Z" fill="#FDE8BE"/>
<path d="M366.111 251.796C370.165 250.364 374.679 251.627 377.406 254.952C380.133 258.272 380.491 262.947 378.302 266.642C376.113 270.343 371.845 272.275 367.621 271.485C363.396 270.691 360.118 267.344 359.418 263.105C358.609 258.207 361.431 253.439 366.111 251.796Z" fill="#FDE8BE"/>
<path d="M153.641 207.734C157.68 206.671 161.96 208.172 164.45 211.525C166.94 214.877 167.14 219.41 164.955 222.969C162.769 226.528 158.638 228.4 154.521 227.698C150.404 226.99 147.129 223.856 146.25 219.769C145.099 214.426 148.355 209.125 153.641 207.734Z" fill="#FDE8BE"/>
<path d="M48.9453 356.597C54.4376 355.411 59.857 358.882 61.0792 364.362C62.3014 369.847 58.8677 375.288 53.3917 376.55C47.9163 377.807 42.4506 374.412 41.1544 368.944C40.521 366.272 40.9901 363.459 42.4555 361.135C43.9215 358.812 46.2604 357.174 48.9453 356.597Z" fill="#FDE8BE"/>
<path d="M48.3022 272.051C52.3211 270.908 56.6323 272.323 59.1895 275.632C61.7462 278.935 62.0335 283.463 59.9155 287.066C57.7974 290.669 53.6996 292.617 49.568 291.992C45.4369 291.366 42.1032 288.285 41.1503 284.214C39.9057 278.903 43.0544 273.548 48.3022 272.051Z" fill="#FDE8BE"/>
<path d="M113.296 292.605C128.33 288.573 129.754 310.213 116.538 312.459C111.511 313.313 107.238 308.14 105.222 304.328C104.608 298.359 107.277 294.484 113.296 292.605Z" fill="#FDE8BE"/>
<path d="M71.52 292.55C75.5736 291.315 79.9691 292.708 82.5694 296.056C85.1697 299.403 85.4364 304.009 83.24 307.628C81.0431 311.254 76.8387 313.148 72.6691 312.386C68.5 311.629 65.2302 308.38 64.4496 304.215C63.49 299.093 66.5355 294.069 71.52 292.55Z" fill="#FDE8BE"/>
<path d="M113.252 336.306C123.501 333.947 128.675 342.897 123.628 349.126C117.565 356.608 109.396 353.543 105.189 346.238C104.724 341.365 107.296 337.559 113.252 336.306Z" fill="#FDE8BE"/>
<path d="M261.429 143.564C265.484 142.347 269.87 143.757 272.457 147.109C275.044 150.46 275.298 155.06 273.095 158.676C270.892 162.291 266.688 164.174 262.523 163.412C258.358 162.649 255.095 159.398 254.316 155.236C253.355 150.099 256.423 145.064 261.429 143.564Z" fill="#FDE8BE"/>
<path d="M218.551 143.254C220.88 142.906 225.625 143.24 227.301 145.107C238.807 157.931 218.659 178.495 210.517 157.463C209.522 150.085 212.297 145.559 218.551 143.254Z" fill="#FDE8BE"/>
<path d="M72.4781 336.127C81.5534 334.44 88.2944 343.419 82.6549 349.666C80.6554 351.859 77.6821 353.228 74.4624 353.429C69.4561 353.706 65.2486 350.439 64.5115 346.25C63.2734 341.169 67.0038 337.439 72.4781 336.127Z" fill="#FDE8BE"/>
<path d="M197.639 207.692C203.022 206.374 208.475 209.586 209.933 214.932C211.39 220.277 208.322 225.814 203.015 227.409C197.707 229.004 192.095 226.08 190.361 220.816C189.469 218.111 189.748 215.155 191.13 212.664C192.512 210.171 194.871 208.369 197.639 207.692Z" fill="#FDE8BE"/>
<path d="M112.544 207.793C116.574 206.638 120.9 208.06 123.458 211.38C126.017 214.703 126.288 219.248 124.144 222.847C122.001 226.451 117.875 228.378 113.736 227.714C109.598 227.044 106.285 223.919 105.379 219.831C104.211 214.556 107.35 209.28 112.544 207.793Z" fill="#FDE8BE"/>
<path d="M48.3466 397.695C52.4637 396.376 56.8639 398.124 59.3755 402.081C61.8876 406.033 61.9812 411.359 59.6102 415.422C57.2391 419.491 52.9042 421.439 48.7435 420.313C44.5833 419.187 41.4767 415.217 40.9556 410.37C40.3404 404.639 43.4808 399.25 48.3466 397.695Z" fill="#FDE8BE"/>
<path d="M72.6155 376.988C78.1808 375.948 83.5328 379.629 84.552 385.198C85.5707 390.767 81.8684 396.102 76.2943 397.099C70.7208 398.095 65.3993 394.366 64.4269 388.791C63.466 383.276 67.1154 378.017 72.6155 376.988Z" fill="#FDE8BE"/>
<path d="M72.0785 166.754C77.5722 165.607 83.1088 168.502 84.4339 173.214C85.7584 177.925 82.3684 182.664 76.8682 183.789C71.3681 184.913 65.8478 181.996 64.5488 177.279C63.2591 172.593 66.6214 167.893 72.0785 166.754Z" fill="#FDE8BE"/>
<path d="M112.008 251.78C116.031 250.381 120.497 251.627 123.219 254.9C125.942 258.172 126.351 262.79 124.246 266.492C122.141 270.189 117.962 272.199 113.757 271.534C109.552 270.865 106.201 267.663 105.346 263.492C104.315 258.466 107.164 253.462 112.008 251.78Z" fill="#FDE8BE"/>
<path d="M326.15 166.758C331.596 165.612 337.102 168.439 338.492 173.095C339.882 177.751 336.636 182.497 331.217 183.733C325.799 184.969 320.23 182.233 318.736 177.601C318 175.319 318.373 172.879 319.769 170.837C321.166 168.794 323.468 167.323 326.15 166.758Z" fill="#FDE8BE"/>
<path d="M91.1489 143.496C94.639 142.381 98.3578 143.883 100.509 147.278C102.661 150.672 102.802 155.26 100.866 158.826C98.93 162.393 95.3135 164.204 91.7637 163.385C88.2139 162.566 85.4608 159.285 84.8339 155.128C84.0498 149.93 86.786 144.89 91.1489 143.496Z" fill="#FDE8BE"/>
<path d="M304.19 143.562C307.703 142.335 311.5 143.791 313.704 147.209C315.91 150.628 316.057 155.286 314.074 158.885C312.09 162.483 308.396 164.26 304.815 163.339C301.234 162.417 298.524 158.991 298.022 154.753C297.432 149.759 300.05 145.008 304.19 143.562Z" fill="#FDE8BE"/>
<path d="M70.9912 251.831C75.0475 250.355 79.5968 251.58 82.358 254.902C85.1187 258.219 85.4961 262.919 83.2997 266.633C81.1037 270.353 76.8083 272.292 72.5679 271.475C68.3275 270.658 65.0565 267.271 64.3947 263.001C63.6481 258.181 66.4098 253.508 70.9912 251.831Z" fill="#FDE8BE"/>
<path d="M48.366 143.506C52.4217 142.379 56.7535 143.853 59.2803 147.22C61.8065 150.587 62.0107 155.159 59.795 158.738C57.5792 162.316 53.3961 164.172 49.256 163.411C45.1159 162.65 41.8653 159.43 41.0662 155.296C40.0548 150.065 43.2319 144.933 48.366 143.506Z" fill="#FDE8BE"/>
<path d="M134.997 143.482C139.695 142.016 144.518 145.293 145.742 150.784C146.966 156.275 144.122 161.879 139.406 163.266C134.691 164.654 129.908 161.296 128.753 155.784C127.621 150.385 130.395 144.92 134.997 143.482Z" fill="#FDE8BE"/>
<path d="M177.439 143.234C183.936 142.575 189.32 145.033 189.828 153.129C190.045 156.758 188.858 160.318 186.569 162.904C180.119 170.22 172.593 165.407 169.507 157.122C168.849 149.739 171.403 145.866 177.439 143.234Z" fill="#FDE8BE"/>
<path d="M240.032 167.153C244.035 165.753 248.632 166.663 251.513 169.426C254.395 172.188 254.938 176.205 252.87 179.459C250.802 182.713 246.569 184.5 242.299 183.922C238.029 183.345 234.644 180.527 233.846 176.885C232.949 172.793 235.534 168.725 240.032 167.153Z" fill="#FDE8BE"/>
<path d="M282.809 166.804C297.887 163.967 299.111 182.124 285.691 183.963C280.929 184.615 276.525 180.333 274.633 177.223C274.033 171.604 276.483 168.82 282.809 166.804Z" fill="#FDE8BE"/>
<path d="M112.636 166.821C116.657 165.868 120.951 167.105 123.484 169.947C126.016 172.789 126.28 176.665 124.15 179.74C122.021 182.815 117.924 184.472 113.8 183.927C109.677 183.381 106.355 180.742 105.406 177.259C104.158 172.68 107.349 168.074 112.636 166.821Z" fill="#FDE8BE"/>
<path d="M153.727 166.775C159.159 165.593 164.688 168.38 166.122 173.023C167.557 177.666 164.364 182.433 158.962 183.711C153.56 184.99 147.964 182.302 146.416 177.686C145.652 175.407 145.998 172.96 147.376 170.904C148.754 168.848 151.045 167.358 153.727 166.775Z" fill="#FDE8BE"/>
<path d="M197.641 166.756C203.086 165.615 208.587 168.443 209.975 173.098C211.362 177.752 208.117 182.496 202.701 183.732C197.285 184.969 191.717 182.236 190.219 177.607C189.48 175.323 189.853 172.88 191.251 170.836C192.65 168.791 194.955 167.319 197.641 166.756Z" fill="#FDE8BE"/>
<rect width="7.73457" height="28.1257" transform="matrix(0 1 1 0 447.244 168.491)" fill="#DB1B00"/>
<rect width="7.73457" height="28.1257" transform="matrix(0 1 1 0 563.969 168.491)" fill="#DB1B00"/>
<rect width="7.73457" height="34.454" transform="matrix(0 1 1 0 447.226 421.625)" fill="#FDE8BE"/>
<rect width="7.73457" height="34.454" transform="matrix(0 1 1 0 557.622 421.625)" fill="#FDE8BE"/>
<rect width="7.73457" height="28.1257" transform="matrix(0 1 1 0 563.96 261.308)" fill="#DB1B00"/>
<rect width="7.73457" height="28.1257" transform="matrix(0 1 1 0 563.969 199.434)" fill="#DB1B00"/>
<rect width="7.73457" height="111.096" transform="matrix(0 1 1 0 447.244 199.434)" fill="#DB1B00"/>
<rect width="7.73457" height="28.1257" transform="matrix(0 1 1 0 563.969 292.25)" fill="#DB1B00"/>
<rect width="7.73457" height="111.096" transform="matrix(0 1 1 0 447.244 292.25)" fill="#DB1B00"/>
<rect width="7.73457" height="28.1257" transform="matrix(0 1 1 0 447.281 230.369)" fill="#DB1B00"/>
<rect width="7.73457" height="40.7823" transform="matrix(0 1 1 0 551.312 230.369)" fill="#DB1B00"/>
<rect width="7.73457" height="80.1582" transform="matrix(0 1 1 0 481.732 230.369)" fill="#DB1B00"/>
<rect width="7.73457" height="34.454" transform="matrix(0 1 1 0 447.25 323.183)" fill="#DB1B00"/>
<rect width="7.73457" height="80.1582" transform="matrix(0 1 1 0 511.96 323.183)" fill="#DB1B00"/>
<rect width="7.73457" height="144.847" transform="matrix(0 1 1 0 447.265 354.121)" fill="#DB1B00"/>
<rect width="7.73457" height="28.1257" transform="matrix(0 1 1 0 563.969 385.062)" fill="#DB1B00"/>
<rect width="7.73457" height="111.096" transform="matrix(0 1 1 0 447.244 385.062)" fill="#DB1B00"/>
</svg>
