<svg width="664" height="462" viewBox="0 0 664 462" fill="none" xmlns="http://www.w3.org/2000/svg">
<path d="M455.641 0.642988C516.623 0.531765 578.234 -1.60707 639.056 2.58928C643.633 2.90535 648.108 7.98413 650.306 11.6957C649.922 32.8383 651.122 58.067 650.21 78.4242L649.939 79.6352C652.211 79.6767 653.155 79.5339 655.076 80.7641C656.11 81.9608 656.42 82.617 656.473 84.266C656.836 95.3165 656.91 106.548 657.065 117.594L657.977 180.841L661.081 386.975C661.279 395.712 660.639 434.747 662.244 439.704C665.056 444.429 660.191 454.092 655.385 451.762C652.158 452.906 621.885 452.284 616.161 452.246C616.241 454.604 616.572 456.886 615.665 458.994C614.332 460.079 613.894 460.132 611.872 460.132C595.016 460.127 578.117 460.329 561.26 460.345L464.25 460.334L146.609 461.26L86.9339 461.335C74.3263 461.41 61.7011 461.649 49.0999 461.436C42.9372 461.335 43.8154 456.955 43.9642 452.299C35.5856 452.294 27.2074 452.337 18.8294 452.433C14.4883 452.47 9.70753 452.683 5.47688 452.268C0.721672 451.794 0.00298018 445.94 0.00031309 442.258C-0.0108886 425.358 0.280686 408.266 0.521797 391.392L1.23176 311.823L2.69172 147.013C2.9307 127.26 2.85314 107.493 3.2132 87.7406C3.30932 82.4953 5.62964 82.8621 5.64777 77.7787C5.69738 63.697 5.54878 49.6044 5.55305 35.5248C5.5541 30.4382 5.27288 22.8112 6.07941 17.9477C6.52064 15.285 11.366 10.1507 13.9154 8.79728C16.3232 7.51913 18.2647 6.29997 21.2161 6.11369C35.1562 5.23355 49.3936 4.85317 63.347 4.37639C91.4397 3.43398 119.539 2.6644 147.641 2.06682C250.371 -0.0984243 352.892 0.830298 455.641 0.642988ZM474.002 15.7514C377.804 14.6514 281.599 14.3449 185.398 14.8334L73.8245 17.0404C65.6591 17.1469 40.5958 18.3296 33.8118 17.4809C28.7932 18.4153 26.4326 21.437 26.3011 26.5209C26.4436 43.9701 26.4621 61.4208 26.3548 78.8705C41.3618 78.4411 57.282 78.6816 72.3509 78.6811L149.785 78.6889L384.518 78.6938L551.295 78.6869L605.941 78.6879C613.987 78.6884 626.139 78.3252 633.843 78.7572L633.817 77.9623C634.009 73.0809 633.662 65.9124 633.624 60.8442L633.432 25.0444C631.115 21.0378 628.451 17.4531 623.373 17.1088C616.806 16.6634 610.154 16.8478 603.571 16.8393L574.195 16.5346L474.002 15.7514Z" fill="#DB1B00"/>
<path d="M347.152 357.144C350.513 355.517 354.388 356.483 356.886 359.574C359.384 362.659 359.985 367.231 358.396 371.048C356.807 374.871 353.36 377.149 349.734 376.769C346.109 376.395 343.061 373.44 342.077 369.351C340.878 364.373 343.057 359.129 347.152 357.144Z" fill="#FDE8BE"/>
<path d="M348.499 228.116C351.989 227.15 355.629 228.767 357.687 232.195C359.746 235.618 359.808 240.163 357.845 243.662C355.881 247.166 352.288 248.913 348.774 248.083C345.26 247.253 342.533 244.009 341.892 239.892C341.057 234.544 343.962 229.364 348.499 228.116Z" fill="#FDE8BE"/>
<path d="M261.619 397.676C267.057 395.971 272.68 399.617 274.182 405.83C275.686 412.042 272.501 418.471 267.066 420.195C261.623 421.925 255.985 418.279 254.48 412.054C252.974 405.829 256.172 399.394 261.619 397.676Z" fill="#FDE8BE"/>
<path d="M262.345 356.557C266.007 355.835 269.773 357.159 272.169 360.024C274.565 362.883 275.212 366.822 273.855 370.3C272.499 373.778 269.355 376.241 265.654 376.724C260.185 377.435 255.136 373.68 254.244 368.238C253.351 362.797 256.936 357.631 262.345 356.557Z" fill="#FDE8BE"/>
<path d="M241.434 336.173C245.051 335.405 248.868 336.387 251.397 338.731C253.926 341.076 254.766 344.415 253.589 347.443C252.412 350.476 249.405 352.718 245.74 353.295C240.306 354.156 235.06 351.155 233.897 346.522C232.732 341.894 236.07 337.308 241.434 336.173Z" fill="#FDE8BE"/>
<path d="M347.985 397.755C351.426 396.372 355.152 397.929 357.383 401.687C359.614 405.446 359.898 410.637 358.098 414.787C356.3 418.936 352.783 421.2 349.228 420.499C345.673 419.798 342.8 416.269 341.981 411.605C340.927 405.595 343.556 399.535 347.985 397.755Z" fill="#FDE8BE"/>
<path d="M348.003 272.079C351.468 270.874 355.213 272.269 357.432 275.601C359.651 278.933 359.887 283.513 358.027 287.133C356.167 290.752 352.592 292.662 349.028 291.952C345.464 291.235 342.643 288.039 341.924 283.904C341.025 278.721 343.661 273.593 348.003 272.079Z" fill="#FDE8BE"/>
<path d="M91.0264 272.055C94.5146 270.877 98.2638 272.332 100.453 275.713C102.641 279.094 102.816 283.702 100.892 287.294C98.9685 290.887 95.344 292.722 91.7804 291.908C88.2164 291.099 85.4514 287.805 84.8281 283.631C84.0615 278.491 86.732 273.504 91.0264 272.055Z" fill="#FDE8BE"/>
<path d="M263.144 315.541C268.769 314.884 273.856 318.921 274.49 324.549C275.123 330.176 271.061 335.25 265.432 335.857C259.835 336.465 254.802 332.433 254.173 326.839C253.543 321.244 257.553 316.192 263.144 315.541Z" fill="#FDE8BE"/>
<path d="M198.194 336.211C204.229 335.081 208.892 337.219 210.06 342.262C210.677 344.799 210.008 347.432 208.205 349.557C202.663 356.184 194.431 353.565 190.261 347.459C188.813 341.785 190.981 337.727 198.194 336.211Z" fill="#FDE8BE"/>
<path d="M261.476 272.061C266.922 270.477 272.618 273.629 274.165 279.088C275.711 284.547 272.518 290.218 267.05 291.727C261.635 293.224 256.029 290.066 254.497 284.661C252.966 279.256 256.082 273.629 261.476 272.061Z" fill="#FDE8BE"/>
<path d="M262.263 228.051C265.926 227.296 269.71 228.599 272.129 231.448C274.548 234.303 275.216 238.249 273.87 241.739C272.525 245.229 269.381 247.704 265.673 248.198C260.218 248.92 255.17 245.191 254.252 239.769C253.334 234.341 256.874 229.163 262.263 228.051Z" fill="#FDE8BE"/>
<path d="M347.629 316.039C351.067 314.644 354.889 315.871 357.228 319.128C359.567 322.38 359.937 326.989 358.157 330.691C356.377 334.399 352.818 336.434 349.217 335.805C345.616 335.175 342.723 332.015 341.95 327.863C341.01 322.814 343.447 317.738 347.629 316.039Z" fill="#FDE8BE"/>
<path d="M241.624 377.064C245.697 376.141 249.922 377.786 252.298 381.217C254.673 384.654 254.72 389.187 252.416 392.672C250.113 396.157 245.922 397.889 241.831 397.048C237.74 396.206 234.572 392.96 233.829 388.85C232.857 383.47 236.291 378.275 241.624 377.064Z" fill="#FDE8BE"/>
<path d="M91.1232 228.212C95.7848 226.709 100.61 229.894 101.903 235.332C103.195 240.77 100.466 246.398 95.8053 247.912C91.1446 249.421 86.3168 246.241 85.0202 240.803C83.7218 235.359 86.4555 229.721 91.1232 228.212Z" fill="#FDE8BE"/>
<path d="M90.205 357.095C93.6018 355.51 97.4859 356.552 99.9465 359.712C102.407 362.872 102.926 367.481 101.247 371.275C99.5691 375.07 96.0471 377.247 92.4143 376.737C88.782 376.227 85.803 373.137 84.9436 368.984C83.9208 364.05 86.1618 358.984 90.205 357.095Z" fill="#FDE8BE"/>
<path d="M217.857 397.667C223.303 395.979 228.915 399.652 230.394 405.875C231.874 412.098 228.663 418.512 223.219 420.212C217.77 421.906 212.149 418.233 210.668 412.004C209.187 405.776 212.406 399.354 217.857 397.667Z" fill="#FDE8BE"/>
<path d="M282.16 336.207C286.234 335.285 290.552 336.598 293.034 339.52C295.516 342.437 295.655 346.36 293.383 349.403C291.11 352.446 286.893 353.982 282.762 353.27C278.63 352.558 275.43 349.748 274.703 346.193C273.787 341.707 277.027 337.37 282.16 336.207Z" fill="#FDE8BE"/>
<path d="M217.902 228.187C223.323 226.742 228.894 229.94 230.385 235.347C231.876 240.754 228.73 246.351 223.336 247.893C217.941 249.43 212.314 246.335 210.726 240.961C209.945 238.311 210.267 235.461 211.618 233.056C212.969 230.651 215.236 228.898 217.902 228.187Z" fill="#FDE8BE"/>
<path d="M219.421 315.531C223.125 315.129 226.756 316.769 228.898 319.821C231.039 322.867 231.352 326.842 229.714 330.187C228.077 333.538 224.748 335.726 221.027 335.905C215.507 336.177 210.774 332.006 210.34 326.5C209.906 320.988 213.928 316.133 219.421 315.531Z" fill="#FDE8BE"/>
<path d="M388.979 357.128C392.941 355.504 397.495 356.52 400.39 359.675C403.285 362.83 403.907 367.458 401.95 371.265C399.991 375.072 395.868 377.255 391.617 376.734C387.368 376.218 383.891 373.106 382.908 368.935C381.754 364.042 384.328 359.034 388.979 357.128Z" fill="#FDE8BE"/>
<path d="M389.403 398.089C393.836 396.287 395.999 397.599 399.801 400.235C401.725 403.809 402.079 404.839 403.081 408.934C399.622 422.857 388.575 424.862 382.831 412.147C381.95 405.213 384 401.112 389.403 398.089Z" fill="#FDE8BE"/>
<path d="M177.134 315.755C183.155 314.522 188.618 317.33 189.653 323.64C190.158 326.595 189.454 329.62 187.7 332.053C184.467 336.479 177.597 337.169 173.452 333.785C171.721 332.4 170.505 330.478 169.996 328.327C167.734 322.484 171.893 317.846 177.134 315.755Z" fill="#FDE8BE"/>
<path d="M304.841 397.489C310.4 396.364 314.924 399.296 315.417 406.997C315.649 410.427 314.81 413.828 313.085 416.455C307.984 424.156 301.559 420.239 298.29 412.422C296.91 404.843 299.563 400.263 304.841 397.489Z" fill="#FDE8BE"/>
<path d="M347.592 187.527C351.04 186.105 354.883 187.331 357.231 190.603C359.579 193.875 359.938 198.504 358.132 202.215C356.325 205.925 352.733 207.937 349.122 207.26C345.511 206.582 342.64 203.36 341.921 199.176C341.064 194.188 343.48 189.223 347.592 187.527Z" fill="#FDE8BE"/>
<path d="M390.54 228.106C394.601 227.161 398.83 228.779 401.226 232.189C403.621 235.605 403.704 240.128 401.433 243.631C399.163 247.128 394.996 248.892 390.903 248.1C386.809 247.301 383.611 244.098 382.821 240.003C381.78 234.606 385.188 229.355 390.54 228.106Z" fill="#FDE8BE"/>
<path d="M176.49 228.274C187.898 225.594 193.527 235.855 187.126 244.251C181.499 251.629 173.532 248.012 169.577 240.468C168.625 234.496 170.88 230.778 176.49 228.274Z" fill="#FDE8BE"/>
<path d="M367.157 377.077C371.246 376.126 375.501 377.772 377.885 381.226C380.269 384.686 380.298 389.249 377.958 392.73C375.618 396.217 371.385 397.918 367.284 397.021C363.183 396.125 360.047 392.806 359.378 388.662C358.521 383.356 361.92 378.293 367.157 377.077Z" fill="#FDE8BE"/>
<path d="M91.0667 397.703C94.5004 396.4 98.1832 398.008 100.376 401.769C102.568 405.524 102.833 410.676 101.044 414.798C99.2549 418.913 95.7699 421.179 92.2352 420.509C88.7004 419.844 85.8221 416.387 84.959 411.769C83.8161 405.649 86.5185 399.429 91.0667 397.703Z" fill="#FDE8BE"/>
<path d="M91.2765 315.733C96.4645 314.675 101.03 316.758 102.063 323.095C102.56 326.202 101.892 329.401 100.221 331.918C95.1983 339.366 88.3062 335.379 84.8778 328.392C84.0355 321.936 86.1355 318.26 91.2765 315.733Z" fill="#FDE8BE"/>
<path d="M135.644 228.022C140.383 226.969 144.963 230.58 145.887 236.103C146.812 241.631 143.734 246.985 139.002 248.087C134.243 249.195 129.619 245.579 128.69 240.023C127.759 234.463 130.877 229.087 135.644 228.022Z" fill="#FDE8BE"/>
<path d="M134.045 357.091C137.419 355.521 141.272 356.542 143.733 359.661C146.194 362.774 146.752 367.343 145.137 371.135C143.521 374.932 140.067 377.17 136.452 376.763C132.837 376.361 129.811 373.395 128.844 369.309C127.653 364.284 129.894 359.02 134.045 357.091Z" fill="#FDE8BE"/>
<path d="M240.976 292.527C244.507 291.479 248.329 292.413 250.982 294.966C253.634 297.523 254.707 301.303 253.79 304.871C252.873 308.439 250.108 311.236 246.552 312.197C241.15 313.653 235.581 310.497 234.055 305.115C232.529 299.734 235.613 294.124 240.976 292.527Z" fill="#FDE8BE"/>
<path d="M390.785 271.74C397.29 271.135 402.709 273.573 403.067 280.667C403.217 283.64 402.147 286.544 400.096 288.736C393.717 295.573 386.473 290.938 382.754 284.155C381.994 277.763 384.848 273.985 390.785 271.74Z" fill="#FDE8BE"/>
<path d="M304.599 228.139C309.321 226.782 314.084 230.17 315.213 235.688C316.342 241.206 313.406 246.74 308.67 248.022C303.934 249.298 299.21 245.839 298.144 240.305C297.098 234.874 299.968 229.464 304.599 228.139Z" fill="#FDE8BE"/>
<path d="M326.085 336.182C330.255 335.283 334.637 336.712 337.05 339.762C339.463 342.817 339.39 346.835 336.867 349.82C334.345 352.805 329.913 354.118 325.778 353.103C321.643 352.093 318.69 348.968 318.389 345.294C318.042 341.061 321.284 337.22 326.085 336.182Z" fill="#FDE8BE"/>
<path d="M348.066 143.535C351.547 142.354 355.291 143.796 357.486 147.162C359.681 150.527 359.873 155.122 357.969 158.721C356.066 162.319 352.459 164.179 348.897 163.399C345.334 162.619 342.55 159.36 341.895 155.201C341.081 150.041 343.748 145 348.066 143.535Z" fill="#FDE8BE"/>
<path d="M367.263 292.296C383.712 289.891 383.193 310.887 369.494 312.506C364.553 313.089 360.903 307.959 359.258 303.913C359.056 297.49 361.387 294.562 367.263 292.296Z" fill="#FDE8BE"/>
<path d="M366.957 336.186C371.058 335.292 375.377 336.661 377.819 339.623C380.261 342.585 380.322 346.529 377.971 349.547C375.622 352.56 371.346 354.027 367.219 353.226C363.091 352.43 359.964 349.533 359.354 345.943C358.599 341.5 361.881 337.29 366.957 336.186Z" fill="#FDE8BE"/>
<path d="M134.497 316.002C137.903 314.671 141.663 315.893 143.982 319.094C146.301 322.299 146.71 326.826 145.013 330.526C143.316 334.221 139.858 336.329 136.289 335.851C132.719 335.373 129.762 332.4 128.828 328.352C127.625 323.136 130.108 317.724 134.497 316.002Z" fill="#FDE8BE"/>
<path d="M177.446 271.661C183.835 271.479 189.692 273.759 189.811 281.009C189.855 284.11 188.579 287.088 186.29 289.224C179.891 295.142 173.139 291.097 169.543 284.55C168.61 277.838 171.363 274.285 177.446 271.661Z" fill="#FDE8BE"/>
<path d="M282.528 292.395C286.784 291.629 288.529 292.373 292.258 294.699C294.326 298.169 295.729 300.752 294.587 305.043C293.875 307.817 292.01 310.154 289.468 311.451C286.98 312.727 284.076 312.902 281.456 311.933C277.856 310.63 276.317 308.261 274.685 305.004C273.936 298.344 276.238 294.551 282.528 292.395Z" fill="#FDE8BE"/>
<path d="M366.63 166.842C372.062 165.496 377.738 168.186 379.295 172.846C380.853 177.505 377.7 182.363 372.26 183.686C366.819 185.009 361.16 182.294 359.63 177.628C358.111 172.995 361.236 168.179 366.63 166.842Z" fill="#FDE8BE"/>
<path d="M304.807 315.756C309.905 314.587 314.496 317.004 315.331 323.161C315.755 326.17 315.083 329.238 313.469 331.677C308.483 339.189 301.429 335.865 298.186 328.379C297.082 321.913 299.572 317.959 304.807 315.756Z" fill="#FDE8BE"/>
<path d="M197.731 377.081C203.175 375.809 208.633 379.145 209.981 384.572C211.328 389.999 208.065 395.497 202.657 396.921C197.248 398.339 191.702 395.155 190.208 389.766C189.465 387.082 189.847 384.214 191.267 381.818C192.686 379.428 195.021 377.716 197.731 377.081Z" fill="#FDE8BE"/>
<path d="M218.788 272.046C224.945 270.509 231.368 273.595 233.19 278.968C235.012 284.336 231.553 289.992 225.435 291.643C221.419 292.73 217.045 291.839 213.984 289.318C210.922 286.797 209.645 283.032 210.639 279.457C211.633 275.887 214.745 273.051 218.788 272.046Z" fill="#FDE8BE"/>
<path d="M197.075 292.551C202.462 290.91 208.165 293.931 209.827 299.315C211.488 304.693 208.483 310.408 203.106 312.087C197.73 313.76 192.009 310.777 190.313 305.404C188.604 299.983 191.641 294.213 197.075 292.551Z" fill="#FDE8BE"/>
<path d="M260.849 187.554C264.865 186.099 269.363 187.295 272.127 190.552C274.891 193.81 275.337 198.443 273.247 202.168C271.156 205.894 266.97 207.927 262.749 207.266C258.529 206.605 255.164 203.389 254.313 199.202C253.304 194.237 256.084 189.281 260.849 187.554Z" fill="#FDE8BE"/>
<path d="M304.145 272.095C307.573 270.877 311.291 272.22 313.531 275.48C315.772 278.746 316.083 283.273 314.318 286.909C312.554 290.55 309.068 292.566 305.517 292.006C301.966 291.446 299.066 288.419 298.194 284.36C297.057 279.078 299.675 273.676 304.145 272.095Z" fill="#FDE8BE"/>
<path d="M175.867 357.066C179.759 355.544 184.187 356.544 187.046 359.593C189.906 362.642 190.621 367.125 188.852 370.913C187.084 374.701 183.187 377.033 179.014 376.794C174.841 376.56 171.231 373.805 169.9 369.843C168.163 364.674 170.788 359.055 175.867 357.066Z" fill="#FDE8BE"/>
<path d="M280.962 377.549C285.028 375.913 289.682 377.055 292.533 380.381C295.385 383.706 295.801 388.478 293.567 392.244C291.334 396.016 286.948 397.94 282.662 397.038C278.375 396.13 275.142 392.597 274.622 388.25C274.073 383.658 276.673 379.272 280.962 377.549Z" fill="#FDE8BE"/>
<path d="M240.526 251.776C244.493 250.395 248.901 251.58 251.64 254.765C254.379 257.95 254.891 262.483 252.931 266.2C250.97 269.918 246.937 272.054 242.762 271.592C238.587 271.124 235.12 268.157 234.023 264.102C232.62 258.923 235.46 253.542 240.526 251.776Z" fill="#FDE8BE"/>
<path d="M218.199 187.18C224.524 186.094 229.955 188.718 230.687 195.374C231.041 198.523 230 201.671 227.829 204.02C221.702 210.623 213.892 206.657 210.548 199.567C209.407 193.34 212.39 189.442 218.199 187.18Z" fill="#FDE8BE"/>
<path d="M91.2957 187.171C96.7495 186.183 101.646 188.303 102.181 195.276C102.44 198.477 101.495 201.654 99.5807 204.012C94.1089 210.767 87.7642 206.442 84.7953 199.358C84.22 193.14 86.1504 189.455 91.2957 187.171Z" fill="#FDE8BE"/>
<path d="M303.723 187.548C307.21 186.083 311.11 187.335 313.462 190.676C315.815 194.016 316.112 198.722 314.205 202.429C312.296 206.136 308.596 208.041 304.963 207.188C301.33 206.335 298.55 202.907 298.019 198.629C297.424 193.823 299.808 189.193 303.723 187.548Z" fill="#FDE8BE"/>
<path d="M216.845 357.051C220.771 355.534 225.226 356.578 228.07 359.677C230.913 362.781 231.563 367.315 229.708 371.094C227.853 374.872 223.871 377.123 219.676 376.775C215.482 376.422 211.932 373.535 210.733 369.495C209.215 364.39 211.876 358.97 216.845 357.051Z" fill="#FDE8BE"/>
<path d="M72.0055 207.697C76.0847 206.679 80.3716 208.264 82.8091 211.69C85.2466 215.113 85.3374 219.685 83.039 223.207C80.7402 226.724 76.5202 228.48 72.4029 227.627C68.2862 226.773 65.1116 223.484 64.4027 219.342C63.5003 214.069 66.8152 208.991 72.0055 207.697Z" fill="#FDE8BE"/>
<path d="M389.543 316.023C393.526 314.658 397.938 315.876 400.659 319.088C403.38 322.301 403.853 326.85 401.851 330.557C399.849 334.259 395.781 336.357 391.603 335.84C387.425 335.324 383.991 332.297 382.952 328.214C381.637 323.056 384.506 317.751 389.543 316.023Z" fill="#FDE8BE"/>
<path d="M153.66 336.202C159.089 334.987 164.643 337.754 166.107 342.393C167.57 347.033 164.394 351.822 158.991 353.117C153.588 354.412 147.977 351.728 146.418 347.112C145.652 344.843 145.989 342.403 147.353 340.348C148.716 338.294 150.991 336.799 153.66 336.202Z" fill="#FDE8BE"/>
<path d="M176.963 397.652C182.42 395.993 188.02 399.708 189.468 405.945C190.916 412.182 187.663 418.58 182.204 420.232C176.749 421.885 171.156 418.17 169.709 411.933C168.263 405.703 171.509 399.311 176.963 397.652Z" fill="#FDE8BE"/>
<path d="M47.2253 228.601C51.252 226.954 55.8815 228.036 58.7623 231.298C61.643 234.555 62.1431 239.284 60.0094 243.079C57.8756 246.869 53.5749 248.897 49.2916 248.125C45.0089 247.358 41.6829 243.96 41.0023 239.66C40.2613 234.979 42.8376 230.401 47.2253 228.601Z" fill="#FDE8BE"/>
<path d="M389.491 187.513C393.501 186.115 397.957 187.34 400.687 190.592C403.417 193.844 403.853 198.446 401.782 202.153C399.711 205.86 395.564 207.9 391.363 207.279C387.163 206.658 383.783 203.505 382.873 199.358C381.764 194.304 384.605 189.218 389.491 187.513Z" fill="#FDE8BE"/>
<path d="M133.467 187.255C149.091 184.142 149.95 205.252 137.097 207.295C131.726 208.149 127.666 203.062 125.58 198.614C125.847 192.503 127.479 189.614 133.467 187.255Z" fill="#FDE8BE"/>
<path d="M134.822 272.073C139.457 270.486 144.318 273.573 145.689 278.981C147.06 284.384 144.423 290.059 139.794 291.673C135.166 293.287 130.292 290.222 128.9 284.824C127.498 279.394 130.156 273.671 134.822 272.073Z" fill="#FDE8BE"/>
<path d="M153.145 292.585C158.518 290.883 164.259 293.846 165.975 299.216C167.691 304.586 164.736 310.331 159.37 312.06C154.003 313.783 148.252 310.837 146.515 305.477C144.77 300.085 147.744 294.302 153.145 292.585Z" fill="#FDE8BE"/>
<path d="M325.553 292.568C329.599 291.306 334.001 292.677 336.621 296.004C339.241 299.338 339.536 303.938 337.362 307.575C335.189 311.213 330.997 313.127 326.823 312.399C322.65 311.67 319.36 308.44 318.552 304.28C317.558 299.158 320.574 294.112 325.553 292.568Z" fill="#FDE8BE"/>
<path d="M304.232 356.839C306.089 356.22 309.942 356.06 311.461 357.254C322.814 366.18 307.267 388.212 298.295 369.481C296.954 363.461 299.377 359.222 304.232 356.839Z" fill="#FDE8BE"/>
<path d="M390.03 143.528C394.08 142.361 398.431 143.801 400.987 147.152C403.542 150.503 403.78 155.08 401.584 158.677C399.389 162.275 395.21 164.157 391.061 163.415C386.912 162.675 383.643 159.463 382.828 155.328C381.802 150.122 384.93 144.996 390.03 143.528Z" fill="#FDE8BE"/>
<path d="M324.929 377.488C329.003 375.927 333.62 377.123 336.422 380.468C339.225 383.812 339.597 388.566 337.348 392.307C335.098 396.043 330.724 397.941 326.457 397.033C322.189 396.125 318.969 392.606 318.439 388.277C317.87 383.617 320.545 379.168 324.929 377.488Z" fill="#FDE8BE"/>
<path d="M135.155 397.61C139.764 396.069 144.456 399.71 145.73 405.812C147.002 411.921 144.392 418.265 139.846 420.117C136.802 421.353 133.493 420.297 131.203 417.352C128.912 414.4 128.001 410.032 128.822 405.93C129.643 401.829 132.068 398.648 135.155 397.61Z" fill="#FDE8BE"/>
<path d="M367.15 207.66C371.234 206.708 375.485 208.347 377.873 211.793C380.261 215.237 380.303 219.794 377.978 223.285C375.653 226.771 371.433 228.49 367.333 227.614C363.232 226.733 360.083 223.443 359.389 219.31C358.495 213.986 361.893 208.885 367.15 207.66Z" fill="#FDE8BE"/>
<path d="M281.526 251.738C285.205 250.503 289.263 251.461 292.005 254.202C295.045 257.248 295.855 261.866 294.032 265.766C292.208 269.66 288.14 271.999 283.856 271.613C279.572 271.227 275.987 268.197 274.89 264.041C273.514 258.831 276.418 253.446 281.526 251.738Z" fill="#FDE8BE"/>
<path d="M282.754 207.412C289.037 207.153 294.722 209.395 294.986 216.379C295.122 219.598 293.827 222.722 291.434 224.939C284.921 230.934 277.778 226.857 274.638 219.797C274.004 213.019 276.762 210.014 282.754 207.412Z" fill="#FDE8BE"/>
<path d="M196.56 251.828C200.475 250.397 204.864 251.49 207.653 254.585C210.444 257.68 211.076 262.161 209.253 265.908C207.429 269.65 203.514 271.918 199.357 271.63C195.201 271.341 191.634 268.562 190.343 264.597C188.635 259.36 191.385 253.715 196.56 251.828Z" fill="#FDE8BE"/>
<path d="M113.415 377.005C118.961 375.912 124.342 379.529 125.425 385.075C126.508 390.622 122.881 396 117.331 397.071C111.796 398.137 106.44 394.526 105.36 388.991C104.28 383.46 107.884 378.093 113.415 377.005Z" fill="#FDE8BE"/>
<path d="M177.149 187.136C183.034 186.263 188.813 188.274 189.706 194.662C190.141 197.78 189.23 200.935 187.191 203.368C180.903 210.85 172.918 207.005 169.503 199.095C168.689 193.024 171.504 189.315 177.149 187.136Z" fill="#FDE8BE"/>
<path d="M326.721 207.566C332.232 206.543 337.539 210.149 338.618 215.65C339.696 221.148 336.143 226.494 330.654 227.626C325.164 228.762 319.785 225.26 318.596 219.783C318.01 217.086 318.543 214.258 320.073 211.957C321.604 209.654 324.002 208.071 326.721 207.566Z" fill="#FDE8BE"/>
<path d="M325.077 251.831C329.13 250.346 333.678 251.57 336.441 254.888C339.204 258.201 339.587 262.896 337.399 266.616C335.21 270.337 330.921 272.279 326.681 271.474C322.441 270.669 319.163 267.291 318.489 263.026C317.727 258.201 320.487 253.506 325.077 251.831Z" fill="#FDE8BE"/>
<path d="M241.696 207.633C247.202 206.423 252.648 209.901 253.868 215.404C255.088 220.908 251.62 226.363 246.118 227.592C240.617 228.821 235.158 225.362 233.918 219.863C232.671 214.338 236.16 208.848 241.696 207.633Z" fill="#FDE8BE"/>
<path d="M47.7963 316.021C51.8059 314.65 56.2452 315.896 58.9563 319.149C61.668 322.408 62.089 327 60.0154 330.699C57.9423 334.393 53.8038 336.428 49.6115 335.808C45.4197 335.193 42.0427 332.054 41.1218 327.914C39.9893 322.827 42.8647 317.702 47.7963 316.021Z" fill="#FDE8BE"/>
<path d="M153.009 251.73C156.97 250.414 161.336 251.632 164.036 254.821C166.737 258.003 167.23 262.508 165.281 266.202C163.331 269.897 159.333 272.029 155.18 271.6C151.027 271.164 147.555 268.248 146.41 264.233C144.909 258.972 147.818 253.46 153.009 251.73Z" fill="#FDE8BE"/>
<path d="M154.026 377.053C158.104 376.15 162.322 377.815 164.679 381.265C167.037 384.715 167.059 389.248 164.735 392.72C162.412 396.192 158.21 397.901 154.124 397.036C150.037 396.17 146.888 392.911 146.169 388.791C145.229 383.409 148.69 378.234 154.026 377.053Z" fill="#FDE8BE"/>
<path d="M47.7697 187.5C51.841 186.098 56.3546 187.397 59.0581 190.749C61.761 194.1 62.0739 198.787 59.8405 202.469C57.607 206.15 53.3056 208.037 49.0842 207.188C44.8622 206.339 41.6255 202.936 40.989 198.677C40.261 193.804 43.1114 189.105 47.7697 187.5Z" fill="#FDE8BE"/>
<path d="M366.077 251.79C370.131 250.359 374.645 251.621 377.372 254.946C380.099 258.266 380.457 262.941 378.268 266.636C376.079 270.337 371.811 272.269 367.586 271.48C363.362 270.685 360.084 267.338 359.384 263.099C358.575 258.201 361.397 253.433 366.077 251.79Z" fill="#FDE8BE"/>
<path d="M153.638 207.73C157.677 206.667 161.957 208.168 164.447 211.521C166.937 214.873 167.137 219.406 164.952 222.965C162.766 226.524 158.635 228.396 154.518 227.694C150.401 226.986 147.126 223.852 146.247 219.765C145.096 214.422 148.352 209.121 153.638 207.73Z" fill="#FDE8BE"/>
<path d="M48.9424 356.596C54.4347 355.409 59.8541 358.881 61.0763 364.36C62.2985 369.845 58.8648 375.287 53.3888 376.549C47.9133 377.806 42.4477 374.411 41.1515 368.942C40.5181 366.27 40.9871 363.457 42.4526 361.134C43.9186 358.81 46.2574 357.172 48.9424 356.596Z" fill="#FDE8BE"/>
<path d="M48.2993 272.042C52.3182 270.899 56.6294 272.314 59.1866 275.623C61.7433 278.927 62.0306 283.455 59.9126 287.057C57.7945 290.66 53.6967 292.609 49.5651 291.983C45.434 291.357 42.1002 288.276 41.1473 284.206C39.9027 278.894 43.0515 273.539 48.2993 272.042Z" fill="#FDE8BE"/>
<path d="M113.329 292.604C128.363 288.572 129.787 310.212 116.571 312.458C111.544 313.312 107.271 308.139 105.255 304.327C104.641 298.358 107.31 294.483 113.329 292.604Z" fill="#FDE8BE"/>
<path d="M71.5014 292.549C75.5551 291.314 79.9506 292.707 82.5508 296.055C85.1511 299.402 85.4179 304.008 83.2215 307.627C81.0245 311.253 76.8201 313.147 72.6505 312.385C68.4815 311.628 65.2116 308.379 64.4311 304.214C63.4714 299.092 66.517 294.068 71.5014 292.549Z" fill="#FDE8BE"/>
<path d="M113.286 336.303C123.534 333.943 128.709 342.894 123.661 349.123C117.598 356.604 109.429 353.539 105.222 346.234C104.757 341.361 107.329 337.555 113.286 336.303Z" fill="#FDE8BE"/>
<path d="M261.396 143.559C265.451 142.343 269.837 143.753 272.424 147.104C275.011 150.456 275.265 155.055 273.062 158.671C270.858 162.287 266.655 164.17 262.49 163.407C258.325 162.645 255.062 159.394 254.283 155.232C253.322 150.095 256.39 145.06 261.396 143.559Z" fill="#FDE8BE"/>
<path d="M218.539 143.25C220.868 142.901 225.613 143.235 227.289 145.103C238.795 157.927 218.647 178.491 210.505 157.459C209.511 150.081 212.285 145.554 218.539 143.25Z" fill="#FDE8BE"/>
<path d="M72.4595 336.123C81.5348 334.436 88.2759 343.415 82.6364 349.663C80.6369 351.856 77.6636 353.224 74.4439 353.426C69.4375 353.702 65.23 350.436 64.4929 346.246C63.2549 341.166 66.9853 337.436 72.4595 336.123Z" fill="#FDE8BE"/>
<path d="M197.629 207.688C203.012 206.37 208.464 209.582 209.922 214.928C211.379 220.274 208.311 225.81 203.004 227.405C197.697 229 192.084 226.076 190.35 220.812C189.459 218.107 189.737 215.151 191.119 212.66C192.501 210.168 194.86 208.365 197.629 207.688Z" fill="#FDE8BE"/>
<path d="M112.577 207.789C116.607 206.634 120.933 208.056 123.491 211.376C126.05 214.699 126.321 219.245 124.178 222.843C122.034 226.447 117.908 228.374 113.77 227.71C109.631 227.04 106.318 223.916 105.412 219.827C104.245 214.552 107.383 209.277 112.577 207.789Z" fill="#FDE8BE"/>
<path d="M48.3436 397.691C52.4608 396.372 56.861 398.121 59.3726 402.078C61.8847 406.029 61.9783 411.355 59.6072 415.419C57.2361 419.488 52.9012 421.436 48.7405 420.309C44.5804 419.183 41.4738 415.213 40.9527 410.366C40.3375 404.635 43.4779 399.247 48.3436 397.691Z" fill="#FDE8BE"/>
<path d="M72.5969 376.986C78.1623 375.947 83.5142 379.627 84.5334 385.196C85.5521 390.765 81.8498 396.1 76.2758 397.097C70.7022 398.093 65.3808 394.364 64.4084 388.789C63.4474 383.274 67.0969 378.015 72.5969 376.986Z" fill="#FDE8BE"/>
<path d="M72.06 166.746C77.5536 165.599 83.0902 168.494 84.4153 173.206C85.7398 177.917 82.3498 182.656 76.8497 183.78C71.3495 184.904 65.8292 181.988 64.5303 177.27C63.2406 172.585 66.6029 167.885 72.06 166.746Z" fill="#FDE8BE"/>
<path d="M112.042 251.774C116.064 250.375 120.53 251.622 123.253 254.894C125.975 258.166 126.384 262.784 124.279 266.486C122.174 270.184 117.995 272.193 113.791 271.528C109.585 270.859 106.234 267.657 105.379 263.486C104.348 258.461 107.198 253.457 112.042 251.774Z" fill="#FDE8BE"/>
<path d="M326.147 166.75C331.593 165.604 337.1 168.431 338.489 173.086C339.879 177.743 336.633 182.489 331.214 183.724C325.796 184.961 320.227 182.225 318.733 177.592C317.997 175.31 318.37 172.871 319.766 170.828C321.163 168.786 323.465 167.315 326.147 166.75Z" fill="#FDE8BE"/>
<path d="M91.146 143.492C94.636 142.376 98.3548 143.879 100.506 147.273C102.658 150.667 102.799 155.255 100.863 158.822C98.9271 162.388 95.3105 164.199 91.7607 163.38C88.2109 162.561 85.4579 159.281 84.831 155.123C84.0468 149.925 86.7831 144.886 91.146 143.492Z" fill="#FDE8BE"/>
<path d="M304.179 143.558C307.692 142.331 311.489 143.786 313.694 147.205C315.899 150.623 316.046 155.282 314.063 158.88C312.079 162.479 308.385 164.256 304.804 163.335C301.223 162.413 298.513 158.987 298.012 154.749C297.421 149.755 300.039 145.004 304.179 143.558Z" fill="#FDE8BE"/>
<path d="M70.9726 251.825C75.029 250.349 79.5782 251.574 82.3395 254.896C85.1001 258.213 85.4776 262.913 83.2811 266.628C81.0852 270.347 76.7898 272.286 72.5493 271.469C68.3089 270.652 65.0379 267.265 64.3762 262.995C63.6295 258.175 66.3913 253.502 70.9726 251.825Z" fill="#FDE8BE"/>
<path d="M48.3631 143.502C52.4187 142.375 56.7506 143.849 59.2774 147.216C61.8036 150.583 62.0078 155.154 59.7921 158.733C57.5763 162.312 53.3932 164.167 49.2531 163.406C45.113 162.646 41.8623 159.425 41.0633 155.292C40.0518 150.06 43.2289 144.929 48.3631 143.502Z" fill="#FDE8BE"/>
<path d="M135.023 143.478C139.72 142.011 144.544 145.289 145.767 150.78C146.991 156.271 144.147 161.874 139.431 163.262C134.716 164.65 129.934 161.291 128.778 155.78C127.646 150.381 130.42 144.916 135.023 143.478Z" fill="#FDE8BE"/>
<path d="M177.398 143.23C183.895 142.57 189.279 145.028 189.787 153.125C190.004 156.754 188.817 160.313 186.528 162.899C180.078 170.215 172.552 165.403 169.466 157.118C168.808 149.735 171.362 145.861 177.398 143.23Z" fill="#FDE8BE"/>
<path d="M240.028 167.145C244.031 165.745 248.628 166.655 251.509 169.417C254.391 172.179 254.935 176.197 252.866 179.451C250.798 182.705 246.565 184.491 242.295 183.914C238.025 183.336 234.64 180.519 233.842 176.877C232.945 172.785 235.53 168.717 240.028 167.145Z" fill="#FDE8BE"/>
<path d="M282.813 166.795C297.891 163.958 299.115 182.116 285.695 183.955C280.933 184.607 276.529 180.325 274.636 177.214C274.037 171.596 276.487 168.812 282.813 166.795Z" fill="#FDE8BE"/>
<path d="M112.669 166.813C116.691 165.859 120.984 167.097 123.517 169.938C126.05 172.78 126.313 176.657 124.184 179.732C122.054 182.807 117.957 184.464 113.833 183.918C109.711 183.373 106.388 180.733 105.439 177.251C104.191 172.672 107.382 168.065 112.669 166.813Z" fill="#FDE8BE"/>
<path d="M153.724 166.766C159.156 165.585 164.685 168.372 166.12 173.015C167.555 177.657 164.361 182.425 158.959 183.703C153.557 184.982 147.961 182.294 146.413 177.678C145.649 175.399 145.995 172.952 147.373 170.896C148.751 168.839 151.042 167.35 153.724 166.766Z" fill="#FDE8BE"/>
<path d="M197.63 166.752C203.075 165.61 208.577 168.439 209.964 173.094C211.351 177.748 208.106 182.492 202.69 183.728C197.274 184.964 191.706 182.232 190.209 177.603C189.47 175.319 189.842 172.876 191.24 170.832C192.639 168.787 194.944 167.315 197.63 166.752Z" fill="#FDE8BE"/>
<rect x="38.8311" y="130.393" width="430.026" height="310.729" fill="#DB1B00"/>
<path d="M347.156 357.146C350.517 355.519 354.392 356.484 356.89 359.575C359.388 362.661 359.989 367.233 358.4 371.05C356.811 374.873 353.363 377.151 349.738 376.771C346.112 376.397 343.065 373.442 342.081 369.353C340.882 364.375 343.061 359.131 347.156 357.146Z" fill="#FDE8BE"/>
<path d="M348.503 228.121C351.993 227.155 355.632 228.772 357.691 232.2C359.75 235.623 359.812 240.168 357.849 243.667C355.885 247.171 352.292 248.918 348.778 248.088C345.263 247.258 342.537 244.014 341.896 239.897C341.061 234.549 343.965 229.368 348.503 228.121Z" fill="#FDE8BE"/>
<path d="M261.652 397.68C267.09 395.975 272.713 399.621 274.216 405.833C275.719 412.046 272.534 418.475 267.099 420.199C261.656 421.929 256.018 418.283 254.513 412.058C253.007 405.833 256.205 399.398 261.652 397.68Z" fill="#FDE8BE"/>
<path d="M262.379 356.559C266.04 355.837 269.806 357.161 272.202 360.026C274.599 362.885 275.245 366.824 273.888 370.302C272.532 373.78 269.388 376.243 265.687 376.726C260.218 377.437 255.17 373.682 254.277 368.24C253.384 362.798 256.969 357.633 262.379 356.559Z" fill="#FDE8BE"/>
<path d="M241.437 336.177C245.054 335.409 248.871 336.391 251.4 338.735C253.929 341.079 254.769 344.419 253.592 347.447C252.415 350.48 249.407 352.722 245.743 353.299C240.309 354.16 235.063 351.159 233.899 346.526C232.735 341.898 236.073 337.312 241.437 336.177Z" fill="#FDE8BE"/>
<path d="M347.989 397.759C351.43 396.376 355.156 397.932 357.387 401.691C359.618 405.45 359.901 410.641 358.102 414.79C356.304 418.94 352.787 421.204 349.232 420.503C345.677 419.802 342.804 416.273 341.985 411.609C340.931 405.599 343.56 399.539 347.989 397.759Z" fill="#FDE8BE"/>
<path d="M348.007 272.089C351.472 270.884 355.217 272.278 357.436 275.61C359.655 278.943 359.891 283.523 358.031 287.142C356.171 290.762 352.596 292.672 349.032 291.961C345.468 291.245 342.647 288.049 341.928 283.913C341.029 278.731 343.665 273.603 348.007 272.089Z" fill="#FDE8BE"/>
<path d="M91.0293 272.065C94.5176 270.887 98.2667 272.341 100.456 275.723C102.644 279.104 102.819 283.711 100.895 287.304C98.9715 290.897 95.3469 292.731 91.7833 291.917C88.2193 291.109 85.4544 287.814 84.8311 283.641C84.0645 278.501 86.735 273.514 91.0293 272.065Z" fill="#FDE8BE"/>
<path d="M263.177 315.543C268.802 314.886 273.889 318.923 274.523 324.551C275.156 330.178 271.095 335.251 265.465 335.859C259.869 336.467 254.835 332.435 254.206 326.84C253.576 321.246 257.586 316.194 263.177 315.543Z" fill="#FDE8BE"/>
<path d="M198.203 336.215C204.239 335.085 208.902 337.223 210.07 342.266C210.686 344.803 210.018 347.436 208.215 349.56C202.672 356.188 194.441 353.569 190.27 347.463C188.823 341.789 190.991 337.731 198.203 336.215Z" fill="#FDE8BE"/>
<path d="M261.509 272.071C266.955 270.486 272.651 273.639 274.198 279.098C275.744 284.557 272.552 290.228 267.083 291.736C261.668 293.234 256.062 290.076 254.531 284.671C252.999 279.266 256.115 273.639 261.509 272.071Z" fill="#FDE8BE"/>
<path d="M262.296 228.056C265.959 227.301 269.743 228.604 272.162 231.453C274.581 234.308 275.249 238.254 273.903 241.744C272.558 245.234 269.414 247.709 265.706 248.203C260.251 248.924 255.203 245.196 254.285 239.774C253.367 234.346 256.908 229.168 262.296 228.056Z" fill="#FDE8BE"/>
<path d="M347.633 316.041C351.071 314.646 354.893 315.873 357.231 319.13C359.571 322.382 359.941 326.991 358.161 330.693C356.38 334.401 352.822 336.436 349.221 335.807C345.619 335.177 342.727 332.017 341.954 327.865C341.014 322.816 343.451 317.74 347.633 316.041Z" fill="#FDE8BE"/>
<path d="M241.627 377.067C245.7 376.144 249.925 377.789 252.301 381.22C254.676 384.657 254.723 389.19 252.419 392.675C250.116 396.16 245.925 397.892 241.834 397.051C237.743 396.209 234.575 392.963 233.832 388.853C232.86 383.473 236.294 378.278 241.627 377.067Z" fill="#FDE8BE"/>
<path d="M91.1261 228.217C95.7878 226.714 100.613 229.899 101.906 235.337C103.198 240.775 100.468 246.403 95.8082 247.917C91.1475 249.426 86.3198 246.245 85.0232 240.808C83.7247 235.364 86.4584 229.726 91.1261 228.217Z" fill="#FDE8BE"/>
<path d="M90.2079 357.097C93.6048 355.512 97.4888 356.554 99.9494 359.714C102.41 362.874 102.928 367.483 101.25 371.277C99.5721 375.072 96.05 377.249 92.4173 376.739C88.785 376.228 85.806 373.139 84.9465 368.986C83.9237 364.052 86.1647 358.986 90.2079 357.097Z" fill="#FDE8BE"/>
<path d="M217.869 397.671C223.315 395.983 228.926 399.656 230.406 405.879C231.886 412.101 228.674 418.516 223.23 420.216C217.781 421.91 212.161 418.237 210.68 412.008C209.198 405.78 212.418 399.358 217.869 397.671Z" fill="#FDE8BE"/>
<path d="M282.156 336.211C286.23 335.289 290.548 336.602 293.03 339.524C295.513 342.441 295.651 346.364 293.379 349.407C291.107 352.45 286.89 353.986 282.758 353.274C278.626 352.562 275.427 349.751 274.7 346.196C273.784 341.711 277.023 337.374 282.156 336.211Z" fill="#FDE8BE"/>
<path d="M217.914 228.191C223.335 226.747 228.905 229.945 230.396 235.352C231.887 240.759 228.742 246.356 223.348 247.898C217.953 249.435 212.326 246.34 210.738 240.966C209.956 238.316 210.278 235.466 211.63 233.061C212.981 230.656 215.248 228.903 217.914 228.191Z" fill="#FDE8BE"/>
<path d="M219.433 315.533C223.137 315.131 226.768 316.771 228.909 319.823C231.051 322.869 231.364 326.844 229.726 330.189C228.089 333.54 224.76 335.728 221.039 335.907C215.519 336.179 210.786 332.008 210.351 326.502C209.917 320.99 213.94 316.135 219.433 315.533Z" fill="#FDE8BE"/>
<path d="M388.982 357.13C392.944 355.506 397.498 356.521 400.393 359.677C403.288 362.832 403.91 367.46 401.952 371.267C399.994 375.074 395.871 377.257 391.62 376.736C387.371 376.22 383.894 373.108 382.911 368.937C381.757 364.044 384.331 359.036 388.982 357.13Z" fill="#FDE8BE"/>
<path d="M389.406 398.093C393.839 396.291 396.002 397.603 399.804 400.239C401.728 403.813 402.081 404.843 403.084 408.938C399.625 422.861 388.578 424.866 382.834 412.151C381.953 405.217 384.002 401.115 389.406 398.093Z" fill="#FDE8BE"/>
<path d="M177.174 315.757C183.195 314.524 188.658 317.332 189.693 323.642C190.198 326.597 189.494 329.622 187.74 332.055C184.507 336.481 177.637 337.171 173.492 333.787C171.761 332.402 170.545 330.48 170.036 328.329C167.774 322.486 171.933 317.848 177.174 315.757Z" fill="#FDE8BE"/>
<path d="M304.851 397.493C310.41 396.368 314.934 399.3 315.427 407.001C315.659 410.431 314.82 413.832 313.095 416.459C307.994 424.16 301.569 420.243 298.3 412.426C296.92 404.847 299.573 400.267 304.851 397.493Z" fill="#FDE8BE"/>
<path d="M347.596 187.533C351.044 186.111 354.887 187.337 357.235 190.609C359.583 193.881 359.942 198.51 358.136 202.221C356.329 205.931 352.737 207.943 349.126 207.265C345.515 206.588 342.644 203.366 341.925 199.182C341.068 194.194 343.484 189.229 347.596 187.533Z" fill="#FDE8BE"/>
<path d="M390.543 228.111C394.604 227.166 398.833 228.784 401.229 232.194C403.624 235.61 403.707 240.133 401.436 243.635C399.166 247.132 394.999 248.897 390.906 248.104C386.812 247.306 383.614 244.102 382.824 240.008C381.783 234.611 385.191 229.36 390.543 228.111Z" fill="#FDE8BE"/>
<path d="M176.53 228.279C187.938 225.599 193.567 235.86 187.166 244.256C181.539 251.634 173.572 248.017 169.617 240.473C168.665 234.501 170.92 230.783 176.53 228.279Z" fill="#FDE8BE"/>
<path d="M367.19 377.08C371.279 376.129 375.534 377.775 377.918 381.229C380.302 384.689 380.331 389.252 377.991 392.733C375.651 396.22 371.418 397.921 367.317 397.024C363.216 396.128 360.08 392.809 359.411 388.665C358.554 383.358 361.954 378.296 367.19 377.08Z" fill="#FDE8BE"/>
<path d="M91.0696 397.707C94.5034 396.404 98.1861 398.011 100.379 401.773C102.571 405.528 102.836 410.68 101.047 414.802C99.2578 418.917 95.7729 421.183 92.2381 420.512C88.7034 419.848 85.825 416.391 84.9619 411.773C83.8191 405.652 86.5214 399.433 91.0696 397.707Z" fill="#FDE8BE"/>
<path d="M91.2794 315.735C96.4674 314.677 101.032 316.76 102.066 323.097C102.563 326.204 101.895 329.403 100.224 331.92C95.2013 339.368 88.3092 335.381 84.8808 328.394C84.0384 321.938 86.1385 318.262 91.2794 315.735Z" fill="#FDE8BE"/>
<path d="M135.617 228.027C140.357 226.974 144.937 230.585 145.861 236.108C146.786 241.636 143.708 246.99 138.976 248.092C134.217 249.2 129.593 245.584 128.663 240.028C127.733 234.468 130.851 229.092 135.617 228.027Z" fill="#FDE8BE"/>
<path d="M134.019 357.093C137.393 355.523 141.246 356.544 143.707 359.663C146.168 362.776 146.726 367.345 145.11 371.137C143.495 374.934 140.041 377.172 136.426 376.765C132.811 376.363 129.784 373.397 128.817 369.311C127.627 364.286 129.868 359.022 134.019 357.093Z" fill="#FDE8BE"/>
<path d="M240.979 292.529C244.509 291.481 248.332 292.415 250.985 294.967C253.637 297.525 254.71 301.305 253.793 304.873C252.876 308.441 250.111 311.238 246.555 312.199C241.153 313.654 235.584 310.499 234.058 305.117C232.532 299.736 235.616 294.126 240.979 292.529Z" fill="#FDE8BE"/>
<path d="M390.788 271.745C397.293 271.14 402.712 273.578 403.07 280.671C403.22 283.645 402.15 286.549 400.099 288.741C393.72 295.577 386.476 290.943 382.757 284.16C381.997 277.767 384.851 273.99 390.788 271.745Z" fill="#FDE8BE"/>
<path d="M304.609 228.144C309.33 226.786 314.094 230.175 315.223 235.693C316.352 241.211 313.416 246.745 308.68 248.027C303.944 249.303 299.219 245.844 298.153 240.31C297.107 234.879 299.977 229.469 304.609 228.144Z" fill="#FDE8BE"/>
<path d="M326.088 336.185C330.258 335.287 334.64 336.716 337.053 339.766C339.465 342.821 339.393 346.839 336.87 349.824C334.348 352.809 329.916 354.122 325.781 353.107C321.646 352.097 318.693 348.972 318.392 345.298C318.045 341.065 321.287 337.224 326.088 336.185Z" fill="#FDE8BE"/>
<path d="M348.07 143.54C351.551 142.359 355.295 143.801 357.49 147.166C359.685 150.532 359.877 155.127 357.973 158.726C356.07 162.324 352.463 164.184 348.901 163.404C345.338 162.624 342.554 159.365 341.899 155.206C341.085 150.046 343.752 145.005 348.07 143.54Z" fill="#FDE8BE"/>
<path d="M367.296 292.298C383.746 289.893 383.226 310.889 369.527 312.508C364.586 313.091 360.936 307.961 359.291 303.915C359.089 297.492 361.42 294.564 367.296 292.298Z" fill="#FDE8BE"/>
<path d="M366.99 336.19C371.091 335.296 375.41 336.665 377.852 339.627C380.294 342.589 380.355 346.533 378.005 349.551C375.655 352.564 371.379 354.031 367.252 353.23C363.124 352.433 359.997 349.537 359.387 345.946C358.632 341.504 361.914 337.294 366.99 336.19Z" fill="#FDE8BE"/>
<path d="M134.471 316.004C137.877 314.673 141.636 315.895 143.955 319.096C146.274 322.301 146.683 326.828 144.986 330.528C143.29 334.223 139.832 336.331 136.262 335.853C132.692 335.375 129.735 332.402 128.802 328.354C127.599 323.138 130.082 317.726 134.471 316.004Z" fill="#FDE8BE"/>
<path d="M177.486 271.671C183.875 271.489 189.732 273.769 189.851 281.019C189.895 284.12 188.619 287.098 186.33 289.234C179.931 295.152 173.179 291.106 169.583 284.56C168.65 277.847 171.403 274.295 177.486 271.671Z" fill="#FDE8BE"/>
<path d="M282.524 292.397C286.78 291.631 288.526 292.375 292.254 294.701C294.322 298.171 295.725 300.754 294.583 305.045C293.871 307.819 292.006 310.156 289.464 311.453C286.977 312.729 284.072 312.904 281.452 311.935C277.852 310.632 276.313 308.263 274.681 305.006C273.933 298.346 276.234 294.553 282.524 292.397Z" fill="#FDE8BE"/>
<path d="M366.664 166.851C372.096 165.505 377.771 168.195 379.329 172.855C380.886 177.514 377.733 182.372 372.293 183.695C366.853 185.018 361.193 182.303 359.663 177.637C358.144 173.004 361.269 168.188 366.664 166.851Z" fill="#FDE8BE"/>
<path d="M304.817 315.758C309.914 314.589 314.506 317.006 315.34 323.163C315.765 326.172 315.093 329.24 313.479 331.679C308.493 339.191 301.438 335.867 298.196 328.381C297.092 321.915 299.582 317.961 304.817 315.758Z" fill="#FDE8BE"/>
<path d="M197.74 377.084C203.185 375.812 208.643 379.148 209.99 384.575C211.338 390.002 208.075 395.5 202.667 396.924C197.258 398.342 191.712 395.158 190.218 389.769C189.475 387.085 189.857 384.217 191.277 381.821C192.696 379.43 195.03 377.719 197.74 377.084Z" fill="#FDE8BE"/>
<path d="M218.8 272.056C224.957 270.519 231.38 273.605 233.202 278.978C235.024 284.346 231.565 290.001 225.447 291.653C221.43 292.74 217.057 291.849 213.995 289.328C210.934 286.807 209.657 283.042 210.651 279.467C211.645 275.897 214.757 273.061 218.8 272.056Z" fill="#FDE8BE"/>
<path d="M197.085 292.553C202.472 290.912 208.174 293.933 209.836 299.317C211.498 304.695 208.492 310.41 203.116 312.089C197.74 313.762 192.018 310.779 190.323 305.406C188.614 299.985 191.651 294.215 197.085 292.553Z" fill="#FDE8BE"/>
<path d="M260.882 187.56C264.898 186.105 269.396 187.3 272.16 190.558C274.924 193.816 275.371 198.449 273.28 202.174C271.19 205.9 267.003 207.933 262.783 207.272C258.562 206.611 255.197 203.395 254.347 199.208C253.338 194.243 256.118 189.287 260.882 187.56Z" fill="#FDE8BE"/>
<path d="M304.155 272.104C307.583 270.887 311.3 272.229 313.541 275.49C315.781 278.756 316.093 283.283 314.328 286.918C312.564 290.559 309.078 292.576 305.527 292.016C301.976 291.456 299.076 288.429 298.204 284.37C297.067 279.087 299.685 273.686 304.155 272.104Z" fill="#FDE8BE"/>
<path d="M175.907 357.068C179.799 355.546 184.227 356.546 187.086 359.595C189.946 362.644 190.661 367.127 188.892 370.915C187.124 374.703 183.227 377.035 179.054 376.796C174.881 376.562 171.271 373.807 169.94 369.845C168.203 364.676 170.829 359.057 175.907 357.068Z" fill="#FDE8BE"/>
<path d="M280.959 377.552C285.024 375.916 289.678 377.057 292.529 380.383C295.381 383.709 295.797 388.481 293.564 392.247C291.33 396.019 286.944 397.943 282.658 397.041C278.372 396.133 275.138 392.6 274.618 388.253C274.069 383.661 276.669 379.275 280.959 377.552Z" fill="#FDE8BE"/>
<path d="M240.529 251.782C244.496 250.401 248.904 251.586 251.643 254.771C254.382 257.956 254.894 262.489 252.933 266.206C250.973 269.924 246.94 272.06 242.765 271.598C238.59 271.13 235.123 268.163 234.025 264.108C232.623 258.929 235.463 253.548 240.529 251.782Z" fill="#FDE8BE"/>
<path d="M218.211 187.186C224.536 186.1 229.967 188.723 230.699 195.38C231.052 198.529 230.012 201.676 227.841 204.026C221.713 210.629 213.904 206.663 210.56 199.573C209.419 193.346 212.402 189.448 218.211 187.186Z" fill="#FDE8BE"/>
<path d="M91.2986 187.177C96.7525 186.189 101.649 188.309 102.184 195.282C102.443 198.483 101.498 201.66 99.5836 204.018C94.1119 210.772 87.7671 206.448 84.7982 199.364C84.2229 193.146 86.1533 189.461 91.2986 187.177Z" fill="#FDE8BE"/>
<path d="M303.733 187.554C307.22 186.089 311.119 187.341 313.472 190.682C315.825 194.022 316.122 198.728 314.214 202.435C312.306 206.142 308.606 208.047 304.973 207.194C301.34 206.341 298.559 202.913 298.029 198.635C297.434 193.829 299.818 189.198 303.733 187.554Z" fill="#FDE8BE"/>
<path d="M216.857 357.053C220.783 355.536 225.238 356.58 228.082 359.679C230.925 362.783 231.575 367.317 229.72 371.096C227.864 374.874 223.882 377.125 219.688 376.777C215.493 376.424 211.943 373.537 210.745 369.497C209.227 364.392 211.887 358.972 216.857 357.053Z" fill="#FDE8BE"/>
<path d="M72.0231 207.702C76.1023 206.684 80.3892 208.269 82.8267 211.694C85.2642 215.118 85.355 219.69 83.0566 223.212C80.7577 226.729 76.5377 228.485 72.4205 227.631C68.3038 226.778 65.1291 223.489 64.4203 219.347C63.5179 214.074 66.8328 208.996 72.0231 207.702Z" fill="#FDE8BE"/>
<path d="M389.546 316.025C393.529 314.66 397.941 315.878 400.662 319.09C403.383 322.303 403.856 326.852 401.854 330.559C399.852 334.261 395.784 336.359 391.606 335.842C387.428 335.326 383.994 332.298 382.955 328.216C381.64 323.058 384.509 317.753 389.546 316.025Z" fill="#FDE8BE"/>
<path d="M153.663 336.206C159.091 334.99 164.646 337.758 166.11 342.397C167.572 347.037 164.397 351.825 158.994 353.12C153.591 354.415 147.98 351.732 146.421 347.116C145.655 344.847 145.992 342.406 147.356 340.352C148.719 338.298 150.994 336.803 153.663 336.206Z" fill="#FDE8BE"/>
<path d="M177.003 397.656C182.46 395.997 188.06 399.712 189.508 405.949C190.956 412.186 187.703 418.584 182.244 420.236C176.789 421.889 171.196 418.174 169.75 411.937C168.303 405.707 171.549 399.314 177.003 397.656Z" fill="#FDE8BE"/>
<path d="M47.2282 228.606C51.2549 226.959 55.8845 228.041 58.7652 231.303C61.6459 234.559 62.1461 239.289 60.0123 243.084C57.8785 246.874 53.5778 248.901 49.2945 248.129C45.0118 247.363 41.6859 243.965 41.0052 239.664C40.2642 234.983 42.8405 230.406 47.2282 228.606Z" fill="#FDE8BE"/>
<path d="M389.494 187.517C393.504 186.119 397.96 187.344 400.69 190.596C403.42 193.848 403.856 198.45 401.785 202.157C399.714 205.864 395.567 207.904 391.366 207.283C387.165 206.662 383.786 203.509 382.876 199.362C381.767 194.308 384.608 189.222 389.494 187.517Z" fill="#FDE8BE"/>
<path d="M133.5 187.261C149.125 184.147 149.983 205.258 137.13 207.301C131.759 208.155 127.7 203.068 125.613 198.62C125.88 192.509 127.513 189.62 133.5 187.261Z" fill="#FDE8BE"/>
<path d="M134.796 272.078C139.431 270.49 144.292 273.578 145.663 278.986C147.033 284.389 144.397 290.063 139.768 291.678C135.14 293.292 130.266 290.227 128.873 284.829C127.471 279.399 130.13 273.676 134.796 272.078Z" fill="#FDE8BE"/>
<path d="M153.148 292.587C158.521 290.885 164.262 293.848 165.978 299.218C167.694 304.588 164.739 310.333 159.373 312.062C154.006 313.785 148.255 310.839 146.518 305.479C144.773 300.087 147.747 294.304 153.148 292.587Z" fill="#FDE8BE"/>
<path d="M325.556 292.57C329.602 291.308 334.004 292.678 336.624 296.006C339.244 299.339 339.539 303.94 337.365 307.577C335.191 311.215 331 313.129 326.826 312.4C322.653 311.672 319.363 308.442 318.555 304.282C317.561 299.16 320.577 294.114 325.556 292.57Z" fill="#FDE8BE"/>
<path d="M304.242 356.841C306.098 356.222 309.952 356.062 311.471 357.256C322.823 366.182 307.277 388.214 298.305 369.483C296.964 363.463 299.387 359.224 304.242 356.841Z" fill="#FDE8BE"/>
<path d="M390.033 143.533C394.083 142.366 398.434 143.806 400.99 147.157C403.545 150.508 403.783 155.085 401.587 158.682C399.392 162.28 395.213 164.161 391.064 163.42C386.915 162.68 383.646 159.468 382.831 155.333C381.805 150.127 384.933 145.001 390.033 143.533Z" fill="#FDE8BE"/>
<path d="M324.932 377.491C329.006 375.93 333.622 377.126 336.425 380.471C339.228 383.815 339.6 388.568 337.351 392.31C335.101 396.046 330.727 397.944 326.46 397.036C322.192 396.128 318.972 392.609 318.442 388.28C317.872 383.62 320.548 379.171 324.932 377.491Z" fill="#FDE8BE"/>
<path d="M135.128 397.614C139.738 396.073 144.43 399.714 145.703 405.816C146.976 411.924 144.366 418.269 139.82 420.121C136.775 421.357 133.466 420.301 131.176 417.355C128.886 414.404 127.975 410.035 128.796 405.934C129.617 401.833 132.041 398.652 135.128 397.614Z" fill="#FDE8BE"/>
<path d="M367.183 207.665C371.267 206.713 375.518 208.352 377.906 211.798C380.295 215.242 380.336 219.799 378.011 223.29C375.686 226.776 371.466 228.494 367.366 227.619C363.265 226.738 360.116 223.448 359.422 219.315C358.528 213.991 361.926 208.889 367.183 207.665Z" fill="#FDE8BE"/>
<path d="M281.522 251.744C285.201 250.509 289.259 251.467 292.001 254.208C295.041 257.254 295.851 261.872 294.028 265.772C292.204 269.666 288.136 272.005 283.852 271.619C279.568 271.232 275.983 268.203 274.886 264.047C273.51 258.837 276.414 253.452 281.522 251.744Z" fill="#FDE8BE"/>
<path d="M282.75 207.417C289.033 207.158 294.718 209.399 294.982 216.384C295.118 219.603 293.823 222.726 291.43 224.944C284.917 230.939 277.774 226.862 274.634 219.802C274 213.023 276.759 210.019 282.75 207.417Z" fill="#FDE8BE"/>
<path d="M196.57 251.833C200.485 250.403 204.873 251.496 207.663 254.591C210.454 257.685 211.086 262.167 209.263 265.914C207.439 269.656 203.524 271.924 199.367 271.635C195.211 271.347 191.644 268.568 190.353 264.603C188.645 259.366 191.395 253.721 196.57 251.833Z" fill="#FDE8BE"/>
<path d="M113.381 377.008C118.927 375.915 124.308 379.532 125.391 385.078C126.473 390.625 122.847 396.003 117.297 397.074C111.762 398.14 106.405 394.529 105.326 388.993C104.246 383.463 107.85 378.096 113.381 377.008Z" fill="#FDE8BE"/>
<path d="M177.189 187.141C183.074 186.269 188.853 188.28 189.746 194.668C190.181 197.786 189.27 200.941 187.231 203.374C180.943 210.856 172.958 207.011 169.543 199.101C168.729 193.03 171.544 189.321 177.189 187.141Z" fill="#FDE8BE"/>
<path d="M326.723 207.571C332.235 206.548 337.542 210.154 338.621 215.655C339.699 221.153 336.146 226.499 330.657 227.631C325.167 228.767 319.788 225.265 318.599 219.788C318.012 217.091 318.545 214.263 320.076 211.962C321.607 209.659 324.005 208.076 326.723 207.571Z" fill="#FDE8BE"/>
<path d="M325.08 251.837C329.133 250.352 333.681 251.576 336.444 254.894C339.207 258.207 339.59 262.901 337.402 266.622C335.213 270.343 330.924 272.285 326.684 271.48C322.444 270.675 319.166 267.297 318.492 263.032C317.73 258.207 320.49 253.512 325.08 251.837Z" fill="#FDE8BE"/>
<path d="M241.699 207.638C247.205 206.428 252.651 209.906 253.871 215.408C255.091 220.912 251.623 226.367 246.121 227.597C240.62 228.826 235.161 225.367 233.921 219.868C232.674 214.342 236.163 208.853 241.699 207.638Z" fill="#FDE8BE"/>
<path d="M47.7992 316.023C51.8088 314.652 56.2481 315.898 58.9592 319.151C61.6709 322.41 62.0919 327.002 60.0183 330.701C57.9453 334.395 53.8068 336.43 49.6144 335.81C45.4226 335.195 42.0457 332.056 41.1247 327.916C39.9922 322.829 42.8676 317.704 47.7992 316.023Z" fill="#FDE8BE"/>
<path d="M153.012 251.736C156.973 250.419 161.339 251.638 164.039 254.826C166.74 258.009 167.233 262.514 165.284 266.208C163.334 269.902 159.336 272.035 155.183 271.605C151.03 271.17 147.558 268.254 146.413 264.239C144.912 258.978 147.821 253.466 153.012 251.736Z" fill="#FDE8BE"/>
<path d="M154.029 377.056C158.107 376.153 162.325 377.818 164.682 381.268C167.04 384.718 167.062 389.251 164.738 392.723C162.415 396.195 158.213 397.904 154.127 397.039C150.04 396.173 146.891 392.914 146.172 388.794C145.232 383.412 148.693 378.237 154.029 377.056Z" fill="#FDE8BE"/>
<path d="M47.7726 187.506C51.8439 186.104 56.3575 187.402 59.061 190.754C61.764 194.106 62.0768 198.793 59.8434 202.474C57.61 206.156 53.3086 208.043 49.0871 207.194C44.8651 206.345 41.6285 202.942 40.9919 198.683C40.2639 193.81 43.1143 189.111 47.7726 187.506Z" fill="#FDE8BE"/>
<path d="M366.11 251.796C370.164 250.364 374.678 251.627 377.405 254.952C380.132 258.272 380.49 262.947 378.301 266.642C376.112 270.343 371.844 272.275 367.62 271.485C363.395 270.691 360.117 267.344 359.417 263.105C358.608 258.207 361.43 253.439 366.11 251.796Z" fill="#FDE8BE"/>
<path d="M153.641 207.735C157.68 206.672 161.96 208.173 164.45 211.526C166.94 214.878 167.14 219.411 164.955 222.97C162.769 226.529 158.638 228.401 154.521 227.699C150.404 226.991 147.129 223.857 146.25 219.77C145.099 214.427 148.355 209.126 153.641 207.735Z" fill="#FDE8BE"/>
<path d="M48.9453 356.598C54.4376 355.411 59.857 358.883 61.0792 364.362C62.3014 369.847 58.8677 375.289 53.3917 376.551C47.9163 377.808 42.4506 374.413 41.1544 368.944C40.521 366.272 40.9901 363.459 42.4555 361.136C43.9215 358.812 46.2604 357.174 48.9453 356.598Z" fill="#FDE8BE"/>
<path d="M48.3022 272.052C52.3211 270.909 56.6323 272.324 59.1895 275.633C61.7462 278.936 62.0335 283.464 59.9155 287.067C57.7974 290.67 53.6996 292.618 49.568 291.992C45.4369 291.367 42.1032 288.286 41.1503 284.215C39.9057 278.904 43.0544 273.549 48.3022 272.052Z" fill="#FDE8BE"/>
<path d="M113.295 292.606C128.329 288.574 129.753 310.214 116.537 312.46C111.51 313.314 107.237 308.141 105.221 304.329C104.607 298.36 107.276 294.485 113.295 292.606Z" fill="#FDE8BE"/>
<path d="M71.519 292.551C75.5727 291.316 79.9681 292.709 82.5684 296.057C85.1687 299.404 85.4354 304.009 83.239 307.629C81.0421 311.255 76.8377 313.149 72.6681 312.387C68.499 311.63 65.2292 308.38 64.4486 304.216C63.489 299.094 66.5345 294.07 71.519 292.551Z" fill="#FDE8BE"/>
<path d="M113.251 336.307C123.5 333.947 128.674 342.898 123.627 349.127C117.564 356.608 109.395 353.543 105.188 346.238C104.723 341.365 107.295 337.559 113.251 336.307Z" fill="#FDE8BE"/>
<path d="M261.429 143.564C265.484 142.348 269.87 143.758 272.457 147.109C275.044 150.461 275.298 155.06 273.095 158.676C270.892 162.291 266.688 164.175 262.523 163.412C258.358 162.65 255.095 159.399 254.316 155.237C253.355 150.099 256.423 145.065 261.429 143.564Z" fill="#FDE8BE"/>
<path d="M218.551 143.255C220.88 142.906 225.625 143.24 227.301 145.108C238.807 157.932 218.659 178.496 210.517 157.464C209.522 150.086 212.297 145.559 218.551 143.255Z" fill="#FDE8BE"/>
<path d="M72.4771 336.127C81.5524 334.44 88.2934 343.419 82.654 349.666C80.6544 351.86 77.6812 353.228 74.4615 353.43C69.4551 353.706 65.2476 350.44 64.5105 346.25C63.2724 341.17 67.0028 337.439 72.4771 336.127Z" fill="#FDE8BE"/>
<path d="M197.638 207.693C203.021 206.375 208.474 209.587 209.932 214.933C211.389 220.278 208.321 225.815 203.014 227.41C197.706 229.005 192.094 226.081 190.36 220.817C189.468 218.112 189.747 215.156 191.129 212.665C192.511 210.172 194.87 208.37 197.638 207.693Z" fill="#FDE8BE"/>
<path d="M112.543 207.794C116.573 206.639 120.899 208.061 123.457 211.381C126.016 214.704 126.287 219.249 124.143 222.848C122 226.452 117.874 228.379 113.735 227.715C109.597 227.045 106.284 223.92 105.378 219.832C104.21 214.557 107.349 209.281 112.543 207.794Z" fill="#FDE8BE"/>
<path d="M48.3466 397.695C52.4637 396.376 56.8639 398.124 59.3755 402.082C61.8876 406.033 61.9812 411.359 59.6102 415.423C57.2391 419.492 52.9042 421.44 48.7435 420.313C44.5833 419.187 41.4767 415.217 40.9556 410.37C40.3404 404.639 43.4808 399.251 48.3466 397.695Z" fill="#FDE8BE"/>
<path d="M72.6145 376.989C78.1799 375.949 83.5318 379.63 84.551 385.199C85.5697 390.768 81.8674 396.103 76.2933 397.1C70.7198 398.096 65.3983 394.367 64.426 388.792C63.465 383.277 67.1145 378.018 72.6145 376.989Z" fill="#FDE8BE"/>
<path d="M72.0776 166.755C77.5712 165.608 83.1078 168.502 84.4329 173.214C85.7574 177.926 82.3674 182.665 76.8672 183.789C71.3671 184.913 65.8468 181.996 64.5479 177.279C63.2582 172.594 66.6204 167.894 72.0776 166.755Z" fill="#FDE8BE"/>
<path d="M112.007 251.78C116.03 250.381 120.496 251.627 123.218 254.9C125.941 258.172 126.35 262.79 124.245 266.492C122.14 270.189 117.961 272.199 113.756 271.534C109.551 270.865 106.2 267.663 105.345 263.492C104.314 258.466 107.163 253.462 112.007 251.78Z" fill="#FDE8BE"/>
<path d="M326.15 166.759C331.596 165.613 337.102 168.44 338.492 173.095C339.882 177.751 336.636 182.498 331.217 183.733C325.799 184.969 320.23 182.233 318.736 177.601C318 175.319 318.373 172.88 319.769 170.837C321.166 168.795 323.468 167.323 326.15 166.759Z" fill="#FDE8BE"/>
<path d="M91.1489 143.497C94.639 142.381 98.3578 143.884 100.509 147.278C102.661 150.672 102.802 155.26 100.866 158.827C98.93 162.393 95.3135 164.204 91.7637 163.385C88.2139 162.566 85.4608 159.286 84.8339 155.128C84.0498 149.93 86.786 144.891 91.1489 143.497Z" fill="#FDE8BE"/>
<path d="M304.189 143.563C307.702 142.336 311.499 143.791 313.703 147.21C315.909 150.628 316.056 155.287 314.073 158.885C312.089 162.484 308.395 164.261 304.814 163.339C301.233 162.417 298.523 158.992 298.021 154.754C297.431 149.759 300.049 145.009 304.189 143.563Z" fill="#FDE8BE"/>
<path d="M70.9902 251.831C75.0466 250.355 79.5958 251.58 82.357 254.902C85.1177 258.219 85.4951 262.919 83.2987 266.633C81.1028 270.353 76.8073 272.292 72.5669 271.475C68.3265 270.658 65.0555 267.271 64.3938 263.001C63.6471 258.181 66.4089 253.508 70.9902 251.831Z" fill="#FDE8BE"/>
<path d="M48.366 143.507C52.4217 142.38 56.7535 143.854 59.2803 147.221C61.8065 150.588 62.0107 155.159 59.795 158.738C57.5792 162.317 53.3961 164.172 49.256 163.411C45.1159 162.651 41.8653 159.43 41.0662 155.297C40.0548 150.065 43.2319 144.934 48.366 143.507Z" fill="#FDE8BE"/>
<path d="M134.996 143.483C139.694 142.016 144.517 145.294 145.741 150.785C146.965 156.276 144.121 161.879 139.405 163.267C134.69 164.655 129.907 161.296 128.752 155.785C127.62 150.386 130.394 144.921 134.996 143.483Z" fill="#FDE8BE"/>
<path d="M177.438 143.235C183.935 142.575 189.319 145.033 189.827 153.129C190.044 156.759 188.857 160.318 186.568 162.904C180.118 170.22 172.592 165.408 169.506 157.123C168.848 149.74 171.402 145.866 177.438 143.235Z" fill="#FDE8BE"/>
<path d="M240.031 167.153C244.034 165.754 248.631 166.664 251.512 169.426C254.394 172.188 254.938 176.206 252.869 179.46C250.801 182.714 246.568 184.5 242.298 183.922C238.028 183.345 234.643 180.527 233.845 176.885C232.948 172.793 235.533 168.726 240.031 167.153Z" fill="#FDE8BE"/>
<path d="M282.809 166.804C297.887 163.967 299.111 182.125 285.691 183.963C280.929 184.616 276.525 180.333 274.633 177.223C274.033 171.605 276.483 168.821 282.809 166.804Z" fill="#FDE8BE"/>
<path d="M112.635 166.821C116.656 165.868 120.95 167.105 123.483 169.947C126.015 172.789 126.279 176.665 124.149 179.741C122.02 182.816 117.923 184.473 113.799 183.927C109.676 183.381 106.354 180.742 105.405 177.26C104.157 172.681 107.348 168.074 112.635 166.821Z" fill="#FDE8BE"/>
<path d="M153.727 166.775C159.159 165.594 164.688 168.381 166.122 173.023C167.557 177.666 164.364 182.433 158.962 183.712C153.56 184.99 147.964 182.303 146.416 177.687C145.652 175.408 145.998 172.961 147.376 170.904C148.754 168.848 151.045 167.358 153.727 166.775Z" fill="#FDE8BE"/>
<path d="M197.64 166.757C203.085 165.615 208.586 168.444 209.974 173.098C211.361 177.753 208.116 182.497 202.7 183.733C197.284 184.969 191.716 182.237 190.219 177.607C189.479 175.324 189.852 172.881 191.25 170.836C192.649 168.791 194.954 167.32 197.64 166.757Z" fill="#FDE8BE"/>
<rect x="22.5957" y="130.638" width="391.912" height="296.582" fill="#DB1B00"/>
</svg>
