<svg width="902" height="798" viewBox="0 0 902 798" fill="none" xmlns="http://www.w3.org/2000/svg">
<path d="M261.223 28.3981C281.936 27.7635 305.743 28.3179 326.655 28.3194L452.842 28.2989C453.141 34.2203 451.934 51.5298 454.123 55.3825C455.898 56.5913 464.033 55.9233 467.208 56.2064L467.825 56.2641C468.331 60.861 468.878 90.9839 466.702 93.5428C463.799 94.6423 457.761 94.2874 454.401 94.2443C454.348 100.89 457.175 98.6989 456.695 106.834C450.164 109.004 450.604 109.493 449.375 116.222C458.114 116.209 469.402 116.542 477.92 115.988C480.523 109.081 478.809 85.3663 479.197 76.6543C479.347 73.3336 478.514 68.3285 479.457 64.877C483.337 63.8743 495.427 64.194 499.95 64.1927L536.836 64.1949C554.638 64.1993 573.29 64.814 590.987 64.1777C632.193 62.6959 673.396 63.7145 714.633 63.3912C724.098 63.6026 733.946 62.7109 743.221 65.0835C764.974 70.647 772.77 88.5822 772.893 108.982L772.884 519.086L772.902 650.29V690.38C772.902 708.602 774.994 722.632 760.949 736.719C755.954 741.796 749.612 745.341 742.675 746.935C736.756 748.265 714.492 747.811 707.604 747.815L638.381 747.793H303.86L217.705 747.789L189.815 747.798C178.993 747.851 164.261 748.978 154.283 745.583C144.394 742.219 136.283 735.006 131.795 725.578C125.81 713.049 127.631 685.413 127.647 670.956L127.657 605.898L127.653 403.836L127.652 193.127C127.648 164.927 126.484 136.988 126.911 108.701C127.246 86.5786 140.41 65.6172 164.073 64.5274C186.979 63.4723 210.06 64.2385 232.873 64.589C233.92 64.6119 234.07 70.4308 234.024 71.2811C235.141 80.2313 232.032 108.458 235.056 115.419C237.016 116.762 261.226 116.653 262.808 115.384C262.343 113.469 262.356 112.742 262.27 110.74C252.15 102.55 254.189 108.086 258.242 94.1989C253.281 94.2751 248.795 94.6529 244.033 93.2411C245.249 85.4055 243.249 60.9988 245.71 56.8929C248.328 55.4133 255.77 55.9655 259.078 56.0237C259.861 48.0057 258.6 37.2856 259.718 29.2161C259.799 28.6344 260.422 28.6516 261.223 28.3981ZM273.239 375.939L439.493 375.976C439.486 350.952 439.119 324.881 439.572 299.946L273.223 299.963L273.239 375.939Z" fill="#FDE8BE"/>
<path d="M167.19 466.031C169.59 465.599 179.278 465.767 182.287 465.767L212.844 465.771L327.888 465.793L595.891 465.78L684.62 465.776C699.978 465.776 715.261 465.758 730.693 465.815C739.18 465.846 748.456 472.125 750.698 480.62C752.406 487.071 751.697 494.896 751.825 501.585C751.926 506.729 751.821 512.035 751.816 517.205L751.785 580.655L751.821 643.234C751.825 653.847 752.032 664.591 751.649 675.195C751.261 686.019 744.197 692.88 733.869 695.165C732.191 695.478 722.576 695.363 720.295 695.359L690.319 695.315H574.468L306.666 695.328H217.548C201.58 695.328 185.58 695.372 169.644 695.267C162.561 695.39 154.803 690.674 151.718 684.297C151.013 682.84 149.712 679.836 149.644 678.317C149.349 671.619 149.498 664.191 149.501 657.532L149.527 606.632L149.511 526.465C149.498 514.91 149.465 503.347 149.484 491.796C149.493 486.133 149.048 480.902 152.166 475.913C155.799 470.1 160.735 467.563 167.19 466.031Z" fill="#FDE8BE"/>
<path d="M166.806 473.377L726.697 473.346C735.836 473.381 743.051 474.557 744.218 486.015C744.936 493.083 744.482 501.089 744.473 508.24L744.42 550.937C744.403 591.995 744.579 633.129 744.332 674.183C744.315 677.09 743.284 679.529 742.341 682.303C739.351 685.003 737.994 687.253 734.105 687.588C720.201 688.209 701.58 687.667 687.433 687.667L596.749 687.658L321.182 687.662L206.434 687.671C193.691 687.685 178.05 687.997 165.189 687.35C163.597 687.266 159.176 683.536 158.448 681.929C157.245 679.274 156.17 676.072 156.195 673.078C155.974 662.765 156.094 652.293 156.111 641.98L156.122 586.029L156.15 518.826C156.166 508.121 155.006 493.153 157.295 482.47C158.267 477.935 162.747 475.293 166.806 473.377Z" fill="#FDE8BE"/>
<path d="M375.911 631.327C387.289 630.415 397.24 638.927 398.105 650.306C398.971 661.685 390.422 671.601 379.037 672.421C367.714 673.24 357.862 664.75 357.001 653.432C356.14 642.111 364.595 632.229 375.911 631.327Z" fill="#FDE8BE"/>
<path d="M374.972 481.052C386.186 479.67 396.417 487.587 397.893 498.785C399.369 509.988 391.539 520.283 380.35 521.856C377.56 522.247 374.718 522.062 372.002 521.314C362.534 518.698 356.235 509.759 356.957 499.961C357.679 490.168 365.223 482.25 374.972 481.052Z" fill="#FDE8BE"/>
<path d="M374.138 581.499C385.391 579.587 396.045 587.21 397.874 598.474C399.701 609.739 392.004 620.333 380.724 622.082C369.56 623.808 359.093 616.207 357.283 605.058C355.473 593.908 363 583.388 374.138 581.499Z" fill="#FDE8BE"/>
<path d="M482.917 631.352C494.166 631.013 503.595 639.781 504.075 651.023C504.551 662.265 495.901 671.803 484.661 672.42C477.266 672.825 470.228 669.223 466.229 662.992C462.234 656.761 461.9 648.861 465.353 642.313C468.806 635.765 475.513 631.577 482.917 631.352Z" fill="#FDE8BE"/>
<path d="M482.066 581.25C493.275 580.453 503.048 588.798 504.004 599.992C504.964 611.186 496.755 621.072 485.576 622.19C478.204 622.93 471.003 619.641 466.73 613.581C462.463 607.526 461.784 599.64 464.964 592.942C468.14 586.248 474.676 581.779 482.066 581.25Z" fill="#FDE8BE"/>
<path d="M374.166 531.067C385.373 529.231 395.947 536.827 397.774 548.034C399.601 559.241 391.989 569.805 380.778 571.624C369.583 573.434 359.036 565.838 357.212 554.648C355.387 543.454 362.975 532.903 374.166 531.067Z" fill="#FDE8BE"/>
<path d="M196.377 481.319C207.53 479.32 218.194 486.727 220.214 497.872C222.235 509.018 214.848 519.696 203.704 521.74C192.528 523.787 181.812 516.376 179.786 505.2C177.76 494.019 185.194 483.323 196.377 481.319Z" fill="#FDE8BE"/>
<path d="M195.387 631.941C202.589 630.286 210.128 632.624 215.127 638.067C220.125 643.514 221.811 651.225 219.542 658.257C217.273 665.29 211.399 670.561 204.161 672.062C193.141 674.343 182.336 667.333 179.932 656.342C177.528 645.346 184.419 634.469 195.387 631.941Z" fill="#FDE8BE"/>
<path d="M197.993 581.341C209.296 580.236 219.351 588.515 220.437 599.818C221.522 611.122 213.226 621.158 201.918 622.224C190.64 623.285 180.632 615.015 179.549 603.742C178.467 592.469 186.719 582.446 197.993 581.341Z" fill="#FDE8BE"/>
<path d="M649.856 631.378C661.104 630.343 671.075 638.591 672.163 649.833C673.251 661.075 665.046 671.084 653.806 672.225C642.492 673.374 632.401 665.104 631.309 653.787C630.212 642.47 638.528 632.421 649.856 631.378Z" fill="#FDE8BE"/>
<path d="M599.912 631.388C611.139 630.74 620.793 639.252 621.559 650.473C622.326 661.693 613.913 671.438 602.704 672.323C595.34 672.904 588.236 669.487 584.092 663.375C579.952 657.263 579.414 649.398 582.687 642.78C585.959 636.161 592.539 631.81 599.912 631.388Z" fill="#FDE8BE"/>
<path d="M597.334 481.293C608.529 479.399 619.139 486.96 620.998 498.163C622.857 509.365 615.259 519.947 604.05 521.77C592.89 523.589 582.364 516.032 580.514 504.878C578.66 493.728 586.182 483.177 597.334 481.293Z" fill="#FDE8BE"/>
<path d="M250.847 631.899C258.105 630.318 265.651 632.788 270.573 638.35C275.495 643.912 277.025 651.702 274.573 658.712C272.12 665.722 266.069 670.861 258.752 672.147C247.752 674.076 237.228 666.854 235.076 655.894C232.924 644.938 239.933 634.272 250.847 631.899Z" fill="#FDE8BE"/>
<path d="M597.448 581.546C608.622 579.595 619.258 587.076 621.192 598.248C623.129 609.424 615.629 620.046 604.451 621.966C593.295 623.881 582.698 616.4 580.765 605.25C578.835 594.1 586.301 583.492 597.448 581.546Z" fill="#FDE8BE"/>
<path d="M480.477 481.207C491.518 479.564 501.851 487.059 503.718 498.068C505.586 509.077 498.301 519.553 487.33 521.64C480.032 523.032 472.558 520.367 467.779 514.678C463.005 508.993 461.679 501.168 464.313 494.224C466.947 487.279 473.126 482.299 480.477 481.207Z" fill="#FDE8BE"/>
<path d="M252.158 581.497C263.365 579.784 273.835 587.49 275.533 598.697C277.231 609.904 269.513 620.362 258.301 622.049C247.109 623.727 236.671 616.029 234.976 604.84C233.281 593.65 240.97 583.205 252.158 581.497Z" fill="#FDE8BE"/>
<path d="M250.818 531.408C261.88 528.96 272.833 535.944 275.278 547.005C277.722 558.067 270.731 569.014 259.666 571.454C248.61 573.889 237.671 566.905 235.229 555.852C232.786 544.799 239.765 533.856 250.818 531.408Z" fill="#FDE8BE"/>
<path d="M197.136 531.103C208.288 529.505 218.641 537.202 220.322 548.339C222.002 559.48 214.38 569.885 203.253 571.647C192.008 573.43 181.464 565.711 179.766 554.455C178.069 543.2 185.866 532.715 197.136 531.103Z" fill="#FDE8BE"/>
<path d="M426.811 481.349C437.846 479.279 448.495 486.466 450.702 497.475C452.904 508.483 445.844 519.215 434.861 521.553C427.638 523.09 420.146 520.624 415.248 515.098C410.35 509.571 408.802 501.838 411.195 494.854C413.588 487.87 419.553 482.709 426.811 481.349Z" fill="#FDE8BE"/>
<path d="M484.167 530.876C495.368 531.255 504.189 540.555 503.974 551.758C503.758 562.96 494.584 571.913 483.379 571.856C475.984 571.82 469.184 567.809 465.581 561.353C461.974 554.898 462.128 547.002 465.978 540.692C469.827 534.381 476.777 530.63 484.167 530.876Z" fill="#FDE8BE"/>
<path d="M649.86 581.319C661.003 580.31 670.891 588.422 672.08 599.54C673.273 610.664 665.324 620.682 654.225 622.06C646.878 622.967 639.611 619.845 635.216 613.892C630.82 607.938 629.979 600.073 633.014 593.323C636.048 586.572 642.487 581.984 649.86 581.319Z" fill="#FDE8BE"/>
<path d="M430.107 631.413C441.294 631.114 450.657 639.846 451.128 651.027C451.604 662.207 443.02 671.701 431.846 672.349C424.46 672.78 417.416 669.196 413.416 662.973C409.415 656.751 409.08 648.856 412.538 642.316C415.996 635.777 422.711 631.611 430.107 631.413Z" fill="#FDE8BE"/>
<path d="M251.642 481.344C262.723 479.354 273.333 486.681 275.4 497.743C277.467 508.809 270.216 519.47 259.164 521.615C256.047 522.218 252.833 522.09 249.774 521.24C240.565 518.682 234.351 510.095 234.798 500.548C235.245 491.001 242.235 483.031 251.642 481.344Z" fill="#FDE8BE"/>
<path d="M427.449 581.544C438.496 579.822 448.885 587.273 450.792 598.286C452.695 609.304 445.415 619.811 434.432 621.898C427.163 623.281 419.713 620.634 414.944 614.98C410.175 609.322 408.828 601.536 411.42 594.605C414.011 587.678 420.139 582.685 427.449 581.544Z" fill="#FDE8BE"/>
<path d="M596.163 531.416C607.204 528.813 618.263 535.683 620.814 546.74C623.368 557.793 616.44 568.815 605.372 571.316C594.379 573.795 583.447 566.93 580.911 555.948C578.374 544.97 585.192 534.005 596.163 531.416Z" fill="#FDE8BE"/>
<path d="M648.076 481.315C659.043 479.43 669.508 486.656 671.626 497.581C673.745 508.507 666.742 519.124 655.863 521.471C652.595 522.18 649.204 522.074 645.984 521.167C636.784 518.569 630.605 509.951 631.107 500.404C631.609 490.857 638.651 482.931 648.076 481.315Z" fill="#FDE8BE"/>
<path d="M426.401 531.352C437.424 529.058 448.229 536.104 450.576 547.112C452.92 558.121 445.921 568.958 434.92 571.35C426.635 573.155 418.096 569.659 413.455 562.56C408.815 555.466 409.036 546.241 414.01 539.375C416.998 535.254 421.416 532.391 426.401 531.352Z" fill="#FDE8BE"/>
<path d="M649.022 531.07C660.125 529.644 670.312 537.407 671.875 548.491C673.443 559.574 665.802 569.857 654.734 571.557C647.454 572.675 640.134 569.795 635.571 564.013C631.012 558.231 629.911 550.442 632.695 543.625C635.478 536.804 641.715 532.008 649.022 531.07Z" fill="#FDE8BE"/>
<path d="M718.867 495C722.03 494.868 722.021 495.242 724.104 497.637C724.095 513.878 723.813 530.977 724.219 547.155C729.103 549.075 728.473 551.158 728.077 555.641C723.245 555.663 711.336 554.073 708.504 558.019C708.174 559.529 708.24 559.485 708.738 560.877C709.107 561.216 709.473 561.559 709.839 561.898C713.824 562.414 725.016 562.136 728.143 562.11C728.513 567.517 728.262 575.862 728.262 581.49C728.385 585.224 729.028 585.7 726.196 588.214C722.58 588.122 708.561 588.883 706.606 587.58C704.223 583.005 705.729 555.826 705.13 548.001C709.596 548.111 712.908 546.988 717.625 546.882L717.568 512.231C717.564 508.21 716.762 497.915 718.867 495Z" fill="#FDE8BE"/>
<path d="M304.348 522.842C307.367 523.789 320.65 523.397 324.307 523.361C324.713 529.134 324.67 544.631 324.061 550.914C323.885 552.724 310.54 550.17 308.08 552.103C306.824 553.09 306.92 552.39 306.039 554.754C306.486 558.37 311.64 557.33 314.654 557.264L324.34 557.225C324.427 559.497 324.372 562.042 324.373 564.336C318.439 564.764 309.988 564.363 303.642 564.574C303.582 556.916 304.018 549.127 303.847 541.416C303.764 537.669 303.125 525.532 304.348 522.842Z" fill="#FDE8BE"/>
<path d="M303.876 617.445C310.725 617.52 317.481 617.419 324.349 617.626C324.469 621.95 324.723 642.374 324.159 645.496C320.504 646.518 307.189 642.444 305.432 648.041C306.028 651.375 308.289 651.335 310.827 651.022C315.381 650.917 319.937 650.855 324.493 650.837L324.347 658.451C318.795 659.002 309.901 658.57 303.834 658.808C304.119 645.276 303.886 631.03 303.876 617.445Z" fill="#FDE8BE"/>
<path d="M710.997 590.246C713.028 591.21 714.322 592.157 716.163 593.412C716.031 594.292 715.688 602.408 715.917 603.064C717.379 607.234 712.006 639.275 720.77 636.148C725.39 630.494 720.414 595.296 723.712 592.778C726.1 592.703 728.011 593.623 728.266 596.129C728.266 607.463 728.826 624.527 728.046 635.386C723.448 643.916 717.454 642.828 710.922 637.13C711.27 621.973 710.988 605.499 710.997 590.246Z" fill="#FDE8BE"/>
<path d="M273.244 299.966L439.594 299.949C439.14 324.884 439.508 350.955 439.514 375.979L273.26 375.942L273.244 299.966ZM281.981 367.705C280.613 366.081 281.275 343.809 281.489 340.38C281.076 340.99 280.554 341.877 280.6 342.618C280.864 346.88 279.566 364.661 281.083 367.581L281.751 367.831L281.981 367.705Z" fill="#FDE8BE"/>
<path d="M281.479 340.377C284.337 340.426 287.187 339.305 289.38 339.422C294.895 339.715 300.038 340.33 305.615 340.337L390.431 340.326C398.184 340.269 425.642 338.073 431.808 340.319C432.525 342.679 432.624 365.381 431.465 367.655C425.441 368.925 417.208 368.081 410.701 368.071L370.923 368.062L312.323 368.077C304.588 368.079 288.825 368.507 281.97 367.702C280.603 366.078 281.265 343.806 281.479 340.377Z" fill="#FDE8BE"/>
<path d="M281.508 340.377C281.294 343.806 280.632 366.078 281.999 367.703L281.769 367.828L281.102 367.578C279.585 364.659 280.883 346.877 280.619 342.615C280.573 341.874 281.095 340.988 281.508 340.377Z" fill="#FDE8BE"/>
<path d="M338.021 421.208C347.794 420.613 361.126 421.039 371.235 421.04L443.717 421.046C455.948 421.05 471.759 421.508 483.757 420.823C490.566 424.361 490.737 428.782 490.878 435.987C491.01 442.981 490.178 447.666 483.158 450.661C476.723 451.092 467.289 450.833 460.638 450.833L419.618 450.828L366.967 450.85C358.402 450.85 349.837 450.859 341.274 450.85C339.528 450.846 339.396 450.533 337.994 449.921C334.636 448.45 333.795 446.971 331.991 443.941C331.652 433.948 329.432 427.654 338.021 421.208Z" fill="#FDE8BE"/>
<path d="M461.809 426.586C464.113 426.197 466.553 427.715 468.645 428.758C474.027 436.651 472.631 441.297 463.769 445.296C457.308 445.723 454.881 440.452 453.181 435.365C455.828 429.971 456.154 428.661 461.809 426.586Z" fill="#FDE8BE"/>
<path d="M358.261 426.538C363.189 426.56 365.542 429.04 367.897 432.927L367.915 439.033C365.353 442.588 364.106 444.054 359.928 445.151C355.918 445.873 352.21 442.579 351.141 438.87C349.919 434.632 350.723 433.112 352.597 429.464C354.405 428.328 356.335 427.465 358.261 426.538Z" fill="#FDE8BE"/>
<path d="M578.145 420.758L646.693 420.757C653.85 420.746 675.462 420.214 681.298 421.391C683.8 423.821 684.91 424.816 686.693 427.807C686.812 432.51 687.019 440.229 686.429 444.693C683.355 448.582 682.452 449.476 677.832 450.801L611.138 450.805C600.109 450.801 588.825 451.092 577.907 450.761C568.821 450.484 568.152 442.126 568.715 435.383C569.385 427.406 567.883 422.061 578.145 420.758Z" fill="#FDE8BE"/>
<path d="M658.254 426.594C663.548 425.568 666.803 431.618 668.472 435.474C668.256 436.159 668.018 436.839 667.772 437.513C665.922 442.543 664.209 443.239 659.58 445.379C652.484 444.802 649.688 440.015 649.939 433.425C652.784 428.745 653.317 428.406 658.254 426.594Z" fill="#FDE8BE"/>
<path d="M595.243 426.676C599.224 425.757 603.857 429.152 604.972 433.111C605.707 435.643 605.35 438.366 603.99 440.625C602.259 443.527 600.299 444.209 597.321 445.033C591.825 446.341 588.632 439.86 587.139 435.632C588.337 432.726 588.848 431.686 590.495 429.015L595.243 426.676Z" fill="#FDE8BE"/>
<path d="M492.141 354.669C496.449 354.273 508.966 354.486 513.652 354.555C521.61 354.671 533.863 354.128 541.421 354.808C541.65 357.621 542.024 374.79 540.774 376.598C524.905 376.979 507.173 376.605 491.181 376.588C491.001 371.766 489.675 357.772 492.141 354.669Z" fill="#FDE8BE"/>
<path d="M179.135 354.572L228.344 354.519C228.532 358.292 228.725 373.434 228.253 376.292L227.368 376.644L192.665 376.626C189.435 376.639 181.277 377.125 178.787 376.76C177.598 374.038 177.435 356.952 179.135 354.572Z" fill="#FDE8BE"/>
<path d="M638.18 267.957C667.362 266.916 697.4 268.792 726.644 267.754C730.124 267.63 732.33 270.365 731.141 273.852C729.648 275.202 730.485 274.825 728.587 275.13L667.697 275.131C657.924 275.142 647.856 275.246 638.074 275.097C636.405 275.072 635.885 274.458 634.854 273.233C633.938 270.35 635.867 268.998 638.18 267.957Z" fill="#FDE8BE"/>
<path d="M636.14 185.529L707.357 185.476C713.554 185.475 723.235 185.368 729.727 185.645C730.123 185.925 730.515 186.204 730.907 186.483C732.431 189.185 731.316 190.666 729.246 192.423C726.758 192.768 724.089 192.695 721.57 192.695C694.981 192.683 668.388 192.813 641.804 192.654C640.002 192.643 637.501 192.417 635.871 191.685C634.259 189.519 634.492 187.596 636.14 185.529Z" fill="#FDE8BE"/>
<path d="M637.983 168.432L699.67 168.435C709.218 168.422 718.868 168.159 728.39 168.665C731.244 168.816 731.896 172.282 731.244 174.495C729.989 175.619 730.698 175.278 729.047 175.566L667.615 175.563C657.794 175.569 647.69 175.703 637.864 175.527C636.182 175.497 635.79 175.008 634.839 173.904C634.341 171.123 635.825 169.761 637.983 168.432Z" fill="#FDE8BE"/>
<path d="M636.768 218.632C646.968 218.633 727.937 217.771 730.659 219.184C732.178 221.408 731.641 223.332 729.703 225.055C725.1 225.779 721.528 225.909 716.891 225.848C690.469 225.497 663.973 226.086 637.561 225.661C635.869 224.223 635.085 223.655 634.702 221.514C635.341 219.409 634.869 220.185 636.768 218.632Z" fill="#FDE8BE"/>
<path d="M637.898 234.923L698.334 234.868C708.336 234.865 718.404 234.822 728.415 234.906C731.551 234.932 731.67 238.25 731.088 240.608C730.031 241.884 730.63 241.652 729.371 241.977L664.945 241.984C656.114 241.989 646.433 242.092 637.567 241.855C636.475 241.826 635.806 241.108 635.026 240.385C634.018 237.454 635.471 236.164 637.898 234.923Z" fill="#FDE8BE"/>
<path d="M638.881 201.268C643.668 202.085 657.991 201.783 663.73 201.786L710.627 201.766C717.105 201.728 724.597 200.717 730.803 202.601C732.366 203.075 731.424 206.69 730.939 207.799C729.596 208.85 730.345 208.543 728.574 208.669C697.92 208.666 667.152 208.93 636.542 208.401C634.485 208.366 633.375 203.19 638.881 201.268Z" fill="#FDE8BE"/>
<path d="M635.553 251.818C643.137 252.267 653.192 251.983 660.921 251.983L706.717 251.968C710.492 251.966 727.805 251.713 730.368 252.225C732.597 254.799 731.289 256.631 729.395 259.046C728.303 259.226 724.193 258.903 722.718 258.897C716.455 258.875 710.192 258.87 703.934 258.869L661.15 258.869C654.57 258.868 642.599 259.192 636.482 258.418C634.192 256.513 634.557 254.437 635.553 251.818Z" fill="#FDE8BE"/>
<path d="M454.641 360.652C458.918 360.783 471.069 360.11 474.28 361.374C475.958 364.816 474.875 381.217 475.152 385.656C475.293 387.882 475.218 388.605 473.835 389.96C467.158 390.049 460.481 390.038 453.805 389.928C453.355 381.703 453.752 370.98 453.765 362.589C453.765 361.796 454.17 361.242 454.641 360.652Z" fill="#FDE8BE"/>
<path d="M239.258 360.505C245.444 361.058 252.365 360.304 258.802 360.956C259.199 365.089 259.609 386.771 258.539 389.988C251.986 389.969 245.432 389.99 238.878 390.052C238.846 385.574 238.403 363.583 239.258 360.505Z" fill="#FDE8BE"/>
<path d="M178.071 383.901C183.351 384.437 191.612 384.211 197.068 384.214L228.409 384.207L228.585 395.244C226.796 395.586 215.817 395.434 213.459 395.432L178.105 395.383C177.956 392.08 178.079 387.299 178.071 383.901Z" fill="#FDE8BE"/>
<path d="M491.17 384.135C507.219 384.542 525.906 383.442 541.528 384.372C541.555 387.715 541.661 391.354 541.449 394.667C537.714 396.146 498.115 395.437 491.394 395.278C491.02 392.288 491.17 387.285 491.17 384.135Z" fill="#FDE8BE"/>
<path d="M359.557 230.007C363.395 232.013 364.407 238.575 365.22 242.571C366.165 247.214 367.497 252.771 367.319 257.47L361.727 257.491L351.74 257.501C352.183 250.832 355.335 234.93 359.557 230.007Z" fill="#FDE8BE"/>
<rect x="616.374" y="133.603" width="124.007" height="165.342" fill="#FDE8BE"/>
<rect x="148.83" y="209.557" width="604.37" height="485.926" fill="#FDE8BE"/>
<rect x="291.58" y="519.334" width="57.7037" height="154.889" fill="#FDE8BE"/>
<rect x="692.439" y="495.036" width="48.5926" height="160.963" fill="#FDE8BE"/>
<path d="M167.187 466.032C169.587 465.6 179.275 465.768 182.285 465.768L212.841 465.772L327.885 465.794L595.888 465.781L684.617 465.777C699.975 465.777 715.258 465.759 730.69 465.816C739.178 465.847 748.453 472.126 750.695 480.621C752.404 487.072 751.695 494.897 751.822 501.586C751.924 506.73 751.818 512.036 751.813 517.206L751.783 580.656L751.818 643.235C751.822 653.848 752.029 664.592 751.646 675.196C751.259 686.02 744.194 692.881 733.866 695.166C732.188 695.479 722.573 695.364 720.292 695.36L690.316 695.316H574.466L306.663 695.329H217.545C201.577 695.329 185.577 695.373 169.641 695.268C162.558 695.391 154.8 690.675 151.715 684.298C151.01 682.841 149.709 679.837 149.641 678.318C149.346 671.62 149.495 664.192 149.498 657.533L149.524 606.633L149.508 526.466C149.495 514.911 149.462 503.348 149.481 491.797C149.49 486.134 149.045 480.903 152.164 475.914C155.796 470.101 160.732 467.564 167.187 466.032Z" fill="#761717"/>
<path d="M166.831 473.373L726.722 473.342C735.861 473.377 743.075 474.553 744.243 486.011C744.96 493.079 744.507 501.084 744.498 508.236L744.445 550.932C744.428 591.991 744.604 633.125 744.357 674.179C744.339 677.085 743.309 679.525 742.366 682.299C739.376 684.998 738.019 687.249 734.13 687.583C720.226 688.204 701.605 687.662 687.458 687.662L596.773 687.654L321.207 687.658L206.459 687.667C193.716 687.68 178.075 687.993 165.214 687.345C163.621 687.262 159.201 683.532 158.473 681.925C157.27 679.269 156.195 676.068 156.22 673.074C155.999 662.76 156.119 652.289 156.135 641.976L156.147 586.024L156.175 518.822C156.191 508.117 155.031 493.149 157.32 482.466C158.292 477.93 162.772 475.288 166.831 473.373Z" fill="#FDE8BE"/>
<path d="M375.908 631.324C387.286 630.412 397.237 638.924 398.102 650.303C398.968 661.682 390.419 671.599 379.034 672.418C367.711 673.237 357.859 664.747 356.998 653.43C356.137 642.108 364.592 632.226 375.908 631.324Z" fill="#761717"/>
<path d="M374.951 481.053C386.165 479.67 396.396 487.588 397.872 498.786C399.348 509.988 391.518 520.284 380.329 521.856C377.539 522.248 374.697 522.063 371.981 521.314C362.513 518.699 356.214 509.759 356.936 499.962C357.658 490.168 365.202 482.251 374.951 481.053Z" fill="#761717"/>
<path d="M374.143 581.502C385.395 579.591 396.05 587.213 397.879 598.478C399.706 609.742 392.008 620.337 380.729 622.085C369.565 623.811 359.098 616.211 357.288 605.061C355.478 593.911 363.005 583.391 374.143 581.502Z" fill="#761717"/>
<path d="M482.931 631.35C494.18 631.011 503.609 639.778 504.089 651.021C504.565 662.263 495.915 671.801 484.675 672.417C477.28 672.822 470.242 669.22 466.243 662.989C462.249 656.758 461.914 648.858 465.367 642.31C468.82 635.762 475.527 631.574 482.931 631.35Z" fill="#761717"/>
<path d="M482.059 581.246C493.268 580.449 503.041 588.794 503.997 599.988C504.957 611.182 496.747 621.068 485.569 622.186C478.196 622.926 470.995 619.637 466.723 613.577C462.455 607.522 461.777 599.636 464.957 592.938C468.133 586.245 474.669 581.775 482.059 581.246Z" fill="#761717"/>
<path d="M374.176 531.064C385.383 529.227 395.956 536.824 397.784 548.031C399.611 559.238 391.999 569.802 380.788 571.62C369.593 573.43 359.046 565.834 357.221 554.645C355.397 543.451 362.985 532.9 374.176 531.064Z" fill="#761717"/>
<path d="M196.376 481.321C207.528 479.322 218.193 486.729 220.213 497.874C222.233 509.019 214.846 519.698 203.702 521.741C192.527 523.789 181.811 516.378 179.785 505.201C177.759 494.021 185.193 483.325 196.376 481.321Z" fill="#761717"/>
<path d="M195.384 631.94C202.587 630.284 210.126 632.623 215.124 638.065C220.122 643.513 221.809 651.223 219.54 658.256C217.271 665.288 211.397 670.559 204.159 672.061C193.138 674.342 182.334 667.331 179.93 656.34C177.525 645.344 184.417 634.468 195.384 631.94Z" fill="#761717"/>
<path d="M197.997 581.339C209.3 580.233 219.355 588.512 220.441 599.816C221.526 611.12 213.229 621.156 201.922 622.221C190.644 623.283 180.635 615.013 179.553 603.74C178.471 592.466 186.723 582.444 197.997 581.339Z" fill="#761717"/>
<path d="M649.863 631.372C661.111 630.337 671.083 638.585 672.171 649.827C673.259 661.069 665.053 671.079 653.814 672.219C642.499 673.368 632.409 665.099 631.316 653.781C630.22 642.464 638.535 632.415 649.863 631.372Z" fill="#761717"/>
<path d="M599.909 631.385C611.136 630.738 620.79 639.25 621.556 650.47C622.323 661.69 613.91 671.435 602.701 672.321C595.337 672.902 588.233 669.485 584.089 663.373C579.949 657.26 579.412 649.396 582.684 642.777C585.956 636.159 592.536 631.808 599.909 631.385Z" fill="#761717"/>
<path d="M597.337 481.29C608.533 479.397 619.143 486.957 621.001 498.16C622.86 509.363 615.263 519.944 604.054 521.767C592.893 523.586 582.367 516.03 580.517 504.875C578.663 493.726 586.186 483.175 597.337 481.29Z" fill="#761717"/>
<path d="M250.866 631.901C258.125 630.32 265.67 632.79 270.593 638.352C275.515 643.914 277.044 651.703 274.592 658.714C272.14 665.724 266.089 670.863 258.772 672.149C247.771 674.078 237.248 666.856 235.096 655.896C232.943 644.94 239.953 634.274 250.866 631.901Z" fill="#761717"/>
<path d="M597.447 581.546C608.621 579.595 619.257 587.077 621.191 598.249C623.129 609.425 615.628 620.046 604.45 621.966C593.294 623.882 582.697 616.4 580.764 605.25C578.834 594.101 586.3 583.492 597.447 581.546Z" fill="#761717"/>
<path d="M480.465 481.207C491.507 479.564 501.839 487.059 503.706 498.068C505.574 509.077 498.289 519.553 487.318 521.64C480.02 523.032 472.546 520.367 467.767 514.678C462.993 508.993 461.667 501.168 464.301 494.224C466.935 487.279 473.114 482.299 480.465 481.207Z" fill="#761717"/>
<path d="M252.144 581.502C263.351 579.789 273.822 587.495 275.52 598.702C277.217 609.909 269.499 620.368 258.287 622.054C247.095 623.732 236.657 616.035 234.962 604.845C233.267 593.656 240.956 583.211 252.144 581.502Z" fill="#761717"/>
<path d="M250.804 531.407C261.866 528.959 272.819 535.943 275.264 547.004C277.708 558.066 270.717 569.013 259.652 571.453C248.596 573.888 237.657 566.904 235.215 555.851C232.772 544.798 239.75 533.855 250.804 531.407Z" fill="#761717"/>
<path d="M197.117 531.103C208.269 529.505 218.622 537.202 220.303 548.339C221.983 559.48 214.361 569.885 203.234 571.647C191.989 573.43 181.445 565.711 179.747 554.455C178.049 543.2 185.847 532.715 197.117 531.103Z" fill="#761717"/>
<path d="M426.827 481.347C437.863 479.278 448.512 486.464 450.718 497.473C452.92 508.482 445.86 519.213 434.877 521.552C427.655 523.089 420.163 520.623 415.265 515.096C410.367 509.57 408.818 501.837 411.211 494.853C413.605 487.869 419.569 482.708 426.827 481.347Z" fill="#761717"/>
<path d="M484.16 530.879C495.36 531.257 504.182 540.558 503.966 551.76C503.75 562.963 494.576 571.915 483.372 571.858C475.977 571.823 469.177 567.811 465.574 561.356C461.967 554.9 462.121 547.004 465.97 540.694C469.82 534.384 476.77 530.632 484.16 530.879Z" fill="#761717"/>
<path d="M649.872 581.317C661.015 580.309 670.902 588.42 672.091 599.539C673.285 610.662 665.335 620.68 654.236 622.059C646.89 622.966 639.623 619.844 635.227 613.89C630.832 607.937 629.991 600.072 633.025 593.321C636.06 586.571 642.499 581.982 649.872 581.317Z" fill="#761717"/>
<path d="M430.079 631.416C441.266 631.117 450.63 639.849 451.101 651.03C451.577 662.21 442.993 671.704 431.819 672.352C424.433 672.783 417.389 669.199 413.388 662.976C409.388 656.754 409.053 648.859 412.511 642.319C415.969 635.78 422.684 631.614 430.079 631.416Z" fill="#761717"/>
<path d="M251.648 481.343C262.729 479.353 273.339 486.68 275.406 497.742C277.473 508.808 270.222 519.469 259.17 521.614C256.053 522.217 252.839 522.089 249.78 521.239C240.571 518.681 234.356 510.094 234.803 500.547C235.25 491 242.24 483.03 251.648 481.343Z" fill="#761717"/>
<path d="M427.441 581.546C438.488 579.824 448.877 587.275 450.784 598.288C452.687 609.306 445.406 619.813 434.423 621.9C427.154 623.283 419.705 620.636 414.936 614.982C410.167 609.324 408.819 601.538 411.411 594.607C414.003 587.68 420.13 582.687 427.441 581.546Z" fill="#761717"/>
<path d="M596.148 531.412C607.19 528.809 618.249 535.679 620.799 546.736C623.353 557.789 616.425 568.811 605.357 571.312C594.364 573.791 583.433 566.926 580.896 555.944C578.359 544.966 585.177 534.001 596.148 531.412Z" fill="#761717"/>
<path d="M648.066 481.312C659.032 479.428 669.497 486.654 671.615 497.579C673.734 508.504 666.731 519.121 655.852 521.468C652.584 522.177 649.193 522.072 645.974 521.164C636.773 518.566 630.594 509.949 631.096 500.402C631.598 490.855 638.64 482.928 648.066 481.312Z" fill="#761717"/>
<path d="M426.402 531.35C437.424 529.055 448.229 536.101 450.577 547.11C452.92 558.119 445.922 568.956 434.921 571.347C426.635 573.153 418.096 569.656 413.456 562.558C408.816 555.464 409.036 546.238 414.011 539.373C416.998 535.251 421.417 532.389 426.402 531.35Z" fill="#761717"/>
<path d="M649 531.072C660.103 529.646 670.29 537.409 671.853 548.493C673.421 559.576 665.78 569.859 654.712 571.559C647.432 572.677 640.112 569.797 635.549 564.015C630.99 558.233 629.889 550.444 632.673 543.627C635.456 536.806 641.693 532.01 649 531.072Z" fill="#761717"/>
<path d="M274.213 35.0088L438.918 35.0092L438.928 109.086C438.929 114.158 439.496 147.332 438.075 149.398C426.734 149.8 414.124 149.514 402.634 149.508L339.642 149.512L298.868 149.523C291.972 149.524 281.517 149.814 274.936 149.132C274.208 120.218 275.467 90.8678 274.9 61.9198C274.719 52.6622 273.945 44.3787 274.213 35.0088Z" fill="#761717"/>
<rect x="273.318" y="163.999" width="167.037" height="45.5556" fill="#761717"/>
</svg>
