<svg width="902" height="798" viewBox="0 0 902 798" fill="none" xmlns="http://www.w3.org/2000/svg">
<path d="M261.223 28.3986C281.936 27.764 305.743 28.3184 326.655 28.3199L452.842 28.2994C453.141 34.2208 451.934 51.5303 454.123 55.383C455.898 56.5918 464.033 55.9237 467.208 56.2069L467.825 56.2646C468.331 60.8614 468.878 90.9844 466.702 93.5433C463.799 94.6428 457.761 94.2879 454.401 94.2448C454.348 100.89 457.175 98.6994 456.695 106.835C450.164 109.005 450.604 109.493 449.375 116.222C458.113 116.209 469.402 116.542 477.92 115.988C480.523 109.082 478.809 85.3668 479.197 76.6548C479.347 73.3341 478.514 68.329 479.457 64.8775C483.337 63.8748 495.427 64.1945 499.95 64.1932L536.836 64.1954C554.638 64.1998 573.29 64.8145 590.987 64.1782C632.193 62.6964 673.396 63.7149 714.633 63.3917C724.098 63.6031 733.946 62.7114 743.221 65.084C764.974 70.6474 772.77 88.5827 772.893 108.982L772.884 519.087L772.902 650.291V690.38C772.902 708.602 774.994 722.632 760.949 736.719C755.954 741.796 749.612 745.341 742.675 746.935C736.756 748.265 714.492 747.812 707.604 747.816L638.381 747.794H303.86L217.705 747.79L189.815 747.798C178.993 747.851 164.261 748.979 154.283 745.583C144.394 742.219 136.283 735.006 131.795 725.578C125.81 713.05 127.631 685.413 127.647 670.956L127.657 605.898L127.653 403.837L127.652 193.128C127.648 164.928 126.484 136.988 126.911 108.701C127.246 86.5791 140.41 65.6177 164.073 64.5278C186.979 63.4727 210.06 64.239 232.873 64.5895C233.92 64.6124 234.07 70.4312 234.024 71.2816C235.141 80.2318 232.032 108.459 235.056 115.419C237.016 116.763 261.226 116.654 262.808 115.384C262.343 113.47 262.356 112.743 262.27 110.74C252.15 102.55 254.189 108.086 258.242 94.1994C253.281 94.2756 248.795 94.6534 244.033 93.2416C245.249 85.406 243.249 60.9993 245.71 56.8934C248.328 55.4138 255.77 55.966 259.078 56.0241C259.861 48.0062 258.6 37.2861 259.718 29.2166C259.799 28.6349 260.422 28.6521 261.223 28.3986ZM273.239 375.94L439.493 375.977C439.486 350.953 439.119 324.882 439.572 299.947L273.223 299.963L273.239 375.94Z" fill="#FDE8BE"/>
<path d="M167.19 466.032C169.59 465.6 179.278 465.767 182.287 465.767L212.844 465.772L327.888 465.794L595.891 465.78L684.62 465.776C699.978 465.776 715.261 465.758 730.693 465.816C739.18 465.847 748.456 472.126 750.698 480.62C752.406 487.072 751.697 494.897 751.825 501.586C751.926 506.729 751.821 512.035 751.816 517.205L751.785 580.656L751.821 643.235C751.825 653.847 752.032 664.592 751.649 675.196C751.261 686.02 744.197 692.88 733.869 695.166C732.191 695.478 722.576 695.364 720.295 695.359L690.319 695.315H574.468L306.666 695.329H217.548C201.58 695.329 185.58 695.373 169.644 695.267C162.561 695.39 154.803 690.674 151.718 684.298C151.013 682.84 149.712 679.837 149.644 678.318C149.349 671.62 149.498 664.191 149.501 657.533L149.527 606.632L149.511 526.466C149.498 514.911 149.465 503.347 149.484 491.797C149.493 486.134 149.048 480.902 152.166 475.913C155.799 470.1 160.735 467.564 167.19 466.032Z" fill="#FDE8BE"/>
<path d="M166.806 473.377L726.697 473.347C735.836 473.382 743.051 474.558 744.218 486.016C744.936 493.083 744.482 501.089 744.473 508.24L744.42 550.937C744.403 591.996 744.579 633.129 744.332 674.184C744.315 677.09 743.284 679.53 742.341 682.304C739.351 685.003 737.994 687.253 734.105 687.588C720.201 688.209 701.58 687.667 687.433 687.667L596.749 687.659L321.182 687.663L206.434 687.672C193.691 687.685 178.05 687.998 165.189 687.35C163.597 687.267 159.176 683.537 158.448 681.93C157.245 679.274 156.17 676.073 156.195 673.078C155.974 662.765 156.094 652.294 156.111 641.981L156.122 586.029L156.15 518.826C156.166 508.121 155.006 493.154 157.295 482.471C158.267 477.935 162.747 475.293 166.806 473.377Z" fill="#FDE8BE"/>
<path d="M375.911 631.328C387.289 630.416 397.24 638.928 398.105 650.307C398.971 661.686 390.422 671.602 379.037 672.422C367.714 673.241 357.862 664.751 357.001 653.433C356.14 642.112 364.595 632.23 375.911 631.328Z" fill="#FDE8BE"/>
<path d="M374.972 481.053C386.186 479.671 396.417 487.588 397.893 498.786C399.369 509.989 391.539 520.284 380.35 521.856C377.56 522.248 374.718 522.063 372.002 521.315C362.534 518.699 356.235 509.76 356.957 499.962C357.679 490.169 365.223 482.251 374.972 481.053Z" fill="#FDE8BE"/>
<path d="M374.138 581.5C385.391 579.588 396.045 587.211 397.874 598.475C399.701 609.74 392.004 620.334 380.724 622.083C369.56 623.809 359.093 616.208 357.283 605.059C355.473 593.909 363 583.389 374.138 581.5Z" fill="#FDE8BE"/>
<path d="M482.917 631.353C494.166 631.014 503.595 639.782 504.075 651.024C504.551 662.266 495.901 671.804 484.661 672.421C477.266 672.826 470.228 669.224 466.229 662.993C462.234 656.762 461.9 648.862 465.353 642.314C468.806 635.766 475.513 631.578 482.917 631.353Z" fill="#FDE8BE"/>
<path d="M482.066 581.251C493.275 580.454 503.048 588.799 504.004 599.992C504.964 611.186 496.755 621.072 485.576 622.191C478.204 622.931 471.003 619.641 466.73 613.582C462.463 607.527 461.784 599.64 464.964 592.942C468.14 586.249 474.676 581.779 482.066 581.251Z" fill="#FDE8BE"/>
<path d="M374.166 531.068C385.373 529.231 395.947 536.828 397.774 548.035C399.601 559.242 391.989 569.806 380.778 571.624C369.583 573.434 359.036 565.838 357.212 554.649C355.387 543.455 362.975 532.904 374.166 531.068Z" fill="#FDE8BE"/>
<path d="M196.377 481.32C207.53 479.321 218.194 486.728 220.214 497.873C222.235 509.018 214.848 519.697 203.704 521.74C192.528 523.788 181.812 516.377 179.786 505.2C177.76 494.02 185.194 483.324 196.377 481.32Z" fill="#FDE8BE"/>
<path d="M195.387 631.942C202.589 630.286 210.128 632.625 215.127 638.067C220.125 643.514 221.811 651.225 219.542 658.258C217.273 665.29 211.399 670.561 204.161 672.063C193.141 674.344 182.336 667.333 179.932 656.342C177.528 645.346 184.419 634.47 195.387 631.942Z" fill="#FDE8BE"/>
<path d="M197.993 581.341C209.296 580.236 219.351 588.515 220.437 599.818C221.522 611.122 213.226 621.158 201.918 622.224C190.64 623.285 180.632 615.015 179.549 603.742C178.467 592.469 186.719 582.446 197.993 581.341Z" fill="#FDE8BE"/>
<path d="M649.856 631.379C661.104 630.344 671.075 638.592 672.163 649.834C673.251 661.076 665.046 671.085 653.806 672.226C642.492 673.375 632.401 665.105 631.309 653.788C630.212 642.471 638.528 632.422 649.856 631.379Z" fill="#FDE8BE"/>
<path d="M599.912 631.388C611.139 630.741 620.793 639.253 621.559 650.473C622.326 661.693 613.913 671.438 602.704 672.323C595.34 672.905 588.236 669.488 584.092 663.375C579.952 657.263 579.414 649.399 582.687 642.78C585.959 636.162 592.539 631.811 599.912 631.388Z" fill="#FDE8BE"/>
<path d="M597.334 481.293C608.529 479.4 619.139 486.961 620.998 498.164C622.857 509.366 615.259 519.948 604.05 521.771C592.89 523.59 582.364 516.033 580.514 504.879C578.66 493.729 586.182 483.178 597.334 481.293Z" fill="#FDE8BE"/>
<path d="M250.847 631.899C258.105 630.318 265.651 632.788 270.573 638.35C275.495 643.912 277.025 651.702 274.573 658.712C272.12 665.722 266.069 670.861 258.752 672.147C247.752 674.076 237.228 666.854 235.076 655.894C232.924 644.938 239.933 634.272 250.847 631.899Z" fill="#FDE8BE"/>
<path d="M597.448 581.546C608.622 579.595 619.258 587.076 621.192 598.248C623.129 609.424 615.629 620.046 604.451 621.966C593.295 623.881 582.698 616.4 580.765 605.25C578.835 594.1 586.301 583.492 597.448 581.546Z" fill="#FDE8BE"/>
<path d="M480.477 481.207C491.518 479.565 501.851 487.059 503.718 498.068C505.586 509.077 498.301 519.553 487.33 521.641C480.032 523.032 472.558 520.368 467.779 514.679C463.005 508.994 461.679 501.168 464.313 494.224C466.947 487.28 473.126 482.299 480.477 481.207Z" fill="#FDE8BE"/>
<path d="M252.158 581.497C263.365 579.784 273.835 587.49 275.533 598.697C277.231 609.904 269.513 620.363 258.301 622.049C247.109 623.727 236.671 616.03 234.976 604.84C233.281 593.651 240.97 583.206 252.158 581.497Z" fill="#FDE8BE"/>
<path d="M250.818 531.409C261.88 528.961 272.833 535.945 275.278 547.006C277.722 558.068 270.731 569.015 259.666 571.455C248.61 573.89 237.671 566.906 235.229 555.853C232.786 544.8 239.765 533.857 250.818 531.409Z" fill="#FDE8BE"/>
<path d="M197.136 531.104C208.288 529.505 218.641 537.203 220.322 548.339C222.002 559.48 214.38 569.886 203.253 571.647C192.008 573.431 181.464 565.711 179.766 554.456C178.069 543.2 185.866 532.715 197.136 531.104Z" fill="#FDE8BE"/>
<path d="M426.811 481.349C437.846 479.28 448.495 486.466 450.702 497.475C452.904 508.484 445.844 519.215 434.861 521.554C427.638 523.09 420.146 520.624 415.248 515.098C410.35 509.572 408.802 501.839 411.195 494.855C413.588 487.871 419.553 482.71 426.811 481.349Z" fill="#FDE8BE"/>
<path d="M484.167 530.877C495.368 531.255 504.189 540.556 503.974 551.758C503.758 562.961 494.584 571.913 483.379 571.856C475.984 571.821 469.184 567.809 465.581 561.354C461.974 554.898 462.128 547.002 465.978 540.692C469.827 534.382 476.777 530.63 484.167 530.877Z" fill="#FDE8BE"/>
<path d="M649.86 581.319C661.003 580.311 670.891 588.422 672.08 599.541C673.273 610.664 665.324 620.682 654.225 622.061C646.878 622.968 639.611 619.846 635.216 613.892C630.82 607.939 629.979 600.074 633.014 593.323C636.048 586.573 642.487 581.984 649.86 581.319Z" fill="#FDE8BE"/>
<path d="M430.107 631.414C441.294 631.114 450.657 639.847 451.128 651.027C451.604 662.208 443.02 671.702 431.846 672.349C424.46 672.781 417.416 669.196 413.416 662.974C409.415 656.752 409.08 648.856 412.538 642.317C415.996 635.778 422.711 631.612 430.107 631.414Z" fill="#FDE8BE"/>
<path d="M251.642 481.345C262.723 479.354 273.333 486.682 275.4 497.743C277.467 508.81 270.216 519.471 259.164 521.615C256.047 522.218 252.833 522.091 249.774 521.241C240.565 518.682 234.351 510.095 234.798 500.548C235.245 491.002 242.235 483.031 251.642 481.345Z" fill="#FDE8BE"/>
<path d="M427.449 581.544C438.496 579.822 448.885 587.273 450.792 598.286C452.695 609.304 445.415 619.811 434.432 621.898C427.163 623.281 419.713 620.634 414.944 614.98C410.175 609.322 408.828 601.536 411.42 594.605C414.011 587.678 420.139 582.685 427.449 581.544Z" fill="#FDE8BE"/>
<path d="M596.163 531.416C607.204 528.814 618.263 535.683 620.814 546.74C623.368 557.793 616.44 568.815 605.372 571.317C594.379 573.796 583.447 566.931 580.911 555.948C578.374 544.97 585.192 534.005 596.163 531.416Z" fill="#FDE8BE"/>
<path d="M648.076 481.315C659.043 479.431 669.508 486.657 671.626 497.582C673.745 508.507 666.742 519.124 655.863 521.471C652.595 522.18 649.204 522.075 645.984 521.167C636.784 518.569 630.605 509.952 631.107 500.405C631.609 490.858 638.651 482.931 648.076 481.315Z" fill="#FDE8BE"/>
<path d="M426.401 531.353C437.424 529.059 448.229 536.105 450.576 547.113C452.92 558.122 445.921 568.959 434.92 571.351C426.635 573.156 418.096 569.66 413.455 562.561C408.815 555.467 409.036 546.242 414.01 539.376C416.998 535.255 421.416 532.392 426.401 531.353Z" fill="#FDE8BE"/>
<path d="M649.022 531.071C660.125 529.645 670.312 537.408 671.875 548.492C673.443 559.575 665.802 569.858 654.734 571.558C647.454 572.676 640.134 569.796 635.571 564.014C631.012 558.232 629.911 550.443 632.695 543.626C635.478 536.805 641.715 532.009 649.022 531.071Z" fill="#FDE8BE"/>
<path d="M718.867 495.001C722.03 494.869 722.021 495.243 724.104 497.638C724.095 513.879 723.813 530.978 724.219 547.156C729.103 549.076 728.473 551.159 728.077 555.642C723.245 555.664 711.336 554.074 708.504 558.02C708.174 559.53 708.24 559.486 708.738 560.878C709.107 561.217 709.473 561.56 709.839 561.899C713.824 562.415 725.016 562.137 728.143 562.111C728.513 567.518 728.262 575.863 728.262 581.491C728.385 585.225 729.028 585.701 726.196 588.215C722.58 588.123 708.561 588.884 706.606 587.581C704.223 583.006 705.729 555.827 705.13 548.002C709.596 548.112 712.908 546.989 717.625 546.883L717.568 512.232C717.564 508.211 716.762 497.916 718.867 495.001Z" fill="#FDE8BE"/>
<path d="M304.348 522.843C307.367 523.79 320.65 523.398 324.307 523.362C324.713 529.135 324.67 544.632 324.061 550.915C323.885 552.725 310.54 550.171 308.08 552.104C306.824 553.091 306.92 552.391 306.039 554.755C306.486 558.371 311.64 557.331 314.654 557.265L324.34 557.226C324.427 559.498 324.372 562.043 324.373 564.337C318.439 564.765 309.988 564.364 303.642 564.575C303.582 556.917 304.018 549.128 303.847 541.417C303.764 537.67 303.125 525.533 304.348 522.843Z" fill="#FDE8BE"/>
<path d="M303.876 617.446C310.725 617.521 317.481 617.42 324.349 617.627C324.469 621.951 324.723 642.375 324.159 645.497C320.504 646.518 307.189 642.445 305.432 648.042C306.028 651.376 308.289 651.336 310.827 651.023C315.381 650.918 319.937 650.856 324.493 650.838L324.347 658.452C318.795 659.003 309.901 658.571 303.834 658.809C304.119 645.277 303.886 631.031 303.876 617.446Z" fill="#FDE8BE"/>
<path d="M710.997 590.246C713.028 591.21 714.322 592.157 716.163 593.412C716.031 594.293 715.688 602.409 715.917 603.065C717.379 607.235 712.006 639.275 720.77 636.149C725.39 630.495 720.414 595.297 723.712 592.778C726.1 592.703 728.011 593.624 728.266 596.129C728.266 607.464 728.826 624.528 728.046 635.387C723.448 643.917 717.454 642.829 710.922 637.131C711.27 621.974 710.988 605.5 710.997 590.246Z" fill="#FDE8BE"/>
<path d="M273.244 299.966L439.594 299.95C439.14 324.885 439.508 350.956 439.514 375.98L273.26 375.943L273.244 299.966ZM281.981 367.706C280.613 366.082 281.275 343.81 281.489 340.381C281.076 340.991 280.554 341.878 280.6 342.619C280.864 346.881 279.566 364.662 281.083 367.582L281.751 367.832L281.981 367.706Z" fill="#FDE8BE"/>
<path d="M281.479 340.377C284.337 340.426 287.187 339.305 289.38 339.422C294.895 339.715 300.038 340.33 305.615 340.337L390.431 340.326C398.184 340.269 425.642 338.073 431.808 340.319C432.525 342.679 432.624 365.381 431.465 367.655C425.441 368.925 417.208 368.081 410.701 368.071L370.923 368.062L312.323 368.077C304.588 368.079 288.825 368.507 281.97 367.702C280.603 366.078 281.265 343.806 281.479 340.377Z" fill="#FDE8BE"/>
<path d="M281.508 340.378C281.294 343.807 280.632 366.079 281.999 367.703L281.769 367.829L281.102 367.579C279.585 364.659 280.883 346.878 280.619 342.616C280.573 341.875 281.095 340.988 281.508 340.378Z" fill="#FDE8BE"/>
<path d="M338.021 421.209C347.794 420.614 361.126 421.04 371.235 421.041L443.717 421.047C455.948 421.051 471.759 421.509 483.757 420.824C490.566 424.362 490.737 428.783 490.878 435.988C491.01 442.982 490.178 447.667 483.158 450.662C476.723 451.093 467.289 450.834 460.638 450.834L419.618 450.829L366.967 450.851C358.402 450.851 349.837 450.86 341.274 450.851C339.528 450.847 339.396 450.534 337.994 449.922C334.636 448.451 333.795 446.972 331.991 443.942C331.652 433.949 329.432 427.655 338.021 421.209Z" fill="#FDE8BE"/>
<path d="M461.809 426.587C464.113 426.198 466.553 427.716 468.645 428.758C474.027 436.651 472.631 441.298 463.769 445.296C457.308 445.723 454.881 440.452 453.181 435.365C455.828 429.971 456.154 428.661 461.809 426.587Z" fill="#FDE8BE"/>
<path d="M358.261 426.539C363.189 426.561 365.542 429.041 367.897 432.928L367.915 439.034C365.353 442.589 364.106 444.055 359.928 445.152C355.918 445.874 352.21 442.58 351.141 438.871C349.919 434.633 350.723 433.113 352.597 429.465C354.405 428.329 356.335 427.466 358.261 426.539Z" fill="#FDE8BE"/>
<path d="M578.145 420.759L646.693 420.758C653.85 420.747 675.462 420.215 681.298 421.392C683.8 423.822 684.91 424.817 686.693 427.808C686.812 432.511 687.019 440.23 686.429 444.694C683.355 448.583 682.452 449.477 677.832 450.802L611.138 450.806C600.109 450.802 588.825 451.093 577.907 450.762C568.821 450.485 568.152 442.127 568.715 435.384C569.385 427.407 567.883 422.062 578.145 420.759Z" fill="#FDE8BE"/>
<path d="M658.254 426.595C663.548 425.569 666.803 431.619 668.472 435.475C668.256 436.16 668.018 436.84 667.772 437.514C665.922 442.544 664.209 443.24 659.58 445.38C652.484 444.803 649.688 440.015 649.939 433.426C652.784 428.746 653.317 428.407 658.254 426.595Z" fill="#FDE8BE"/>
<path d="M595.243 426.676C599.224 425.757 603.857 429.153 604.972 433.111C605.707 435.643 605.35 438.367 603.99 440.625C602.259 443.527 600.299 444.21 597.321 445.033C591.825 446.341 588.632 439.861 587.139 435.632C588.337 432.726 588.848 431.686 590.495 429.015L595.243 426.676Z" fill="#FDE8BE"/>
<path d="M492.141 354.67C496.449 354.274 508.966 354.487 513.652 354.556C521.61 354.672 533.863 354.128 541.421 354.808C541.65 357.622 542.024 374.791 540.774 376.598C524.905 376.98 507.173 376.605 491.181 376.589C491.001 371.767 489.675 357.773 492.141 354.67Z" fill="#FDE8BE"/>
<path d="M179.135 354.572L228.344 354.52C228.532 358.292 228.725 373.434 228.253 376.292L227.368 376.645L192.665 376.626C189.435 376.64 181.277 377.125 178.787 376.761C177.598 374.039 177.435 356.952 179.135 354.572Z" fill="#FDE8BE"/>
<path d="M638.18 267.958C667.362 266.917 697.4 268.793 726.644 267.755C730.124 267.631 732.33 270.366 731.141 273.853C729.648 275.203 730.485 274.826 728.587 275.131L667.697 275.132C657.924 275.143 647.856 275.247 638.074 275.098C636.405 275.073 635.885 274.459 634.854 273.234C633.938 270.351 635.867 268.999 638.18 267.958Z" fill="#FDE8BE"/>
<path d="M636.14 185.53L707.357 185.477C713.554 185.476 723.235 185.369 729.727 185.646C730.123 185.926 730.515 186.205 730.907 186.484C732.431 189.186 731.316 190.667 729.246 192.424C726.758 192.769 724.089 192.696 721.57 192.696C694.981 192.684 668.388 192.814 641.804 192.655C640.002 192.644 637.501 192.418 635.871 191.686C634.259 189.52 634.492 187.597 636.14 185.53Z" fill="#FDE8BE"/>
<path d="M637.983 168.433L699.67 168.436C709.218 168.422 718.868 168.159 728.39 168.665C731.244 168.817 731.896 172.283 731.244 174.495C729.989 175.62 730.698 175.279 729.047 175.566L667.615 175.563C657.794 175.569 647.69 175.704 637.864 175.528C636.182 175.498 635.79 175.008 634.839 173.905C634.341 171.124 635.825 169.762 637.983 168.433Z" fill="#FDE8BE"/>
<path d="M636.768 218.632C646.968 218.633 727.937 217.772 730.659 219.185C732.178 221.408 731.641 223.333 729.703 225.055C725.1 225.78 721.528 225.91 716.891 225.848C690.469 225.497 663.973 226.087 637.561 225.662C635.869 224.223 635.085 223.655 634.702 221.514C635.341 219.409 634.869 220.186 636.768 218.632Z" fill="#FDE8BE"/>
<path d="M637.898 234.924L698.334 234.869C708.336 234.866 718.404 234.823 728.415 234.907C731.551 234.933 731.67 238.251 731.088 240.609C730.031 241.885 730.63 241.653 729.371 241.978L664.945 241.985C656.114 241.99 646.433 242.093 637.567 241.856C636.475 241.827 635.806 241.109 635.026 240.386C634.018 237.455 635.471 236.165 637.898 234.924Z" fill="#FDE8BE"/>
<path d="M638.881 201.269C643.668 202.086 657.991 201.783 663.73 201.787L710.627 201.766C717.105 201.728 724.597 200.718 730.803 202.601C732.366 203.075 731.424 206.69 730.939 207.799C729.596 208.851 730.345 208.544 728.574 208.669C697.92 208.667 667.152 208.931 636.542 208.402C634.485 208.366 633.375 203.19 638.881 201.269Z" fill="#FDE8BE"/>
<path d="M635.553 251.819C643.137 252.268 653.192 251.984 660.921 251.984L706.717 251.969C710.492 251.967 727.805 251.714 730.368 252.226C732.597 254.8 731.289 256.632 729.395 259.047C728.303 259.227 724.193 258.904 722.718 258.898C716.455 258.876 710.192 258.871 703.934 258.87L661.15 258.87C654.57 258.869 642.599 259.193 636.482 258.419C634.192 256.514 634.557 254.438 635.553 251.819Z" fill="#FDE8BE"/>
<path d="M454.641 360.652C458.918 360.783 471.069 360.11 474.28 361.374C475.958 364.816 474.875 381.217 475.152 385.656C475.293 387.882 475.218 388.605 473.835 389.96C467.158 390.049 460.481 390.038 453.805 389.928C453.355 381.703 453.752 370.98 453.765 362.589C453.765 361.796 454.17 361.242 454.641 360.652Z" fill="#FDE8BE"/>
<path d="M239.258 360.505C245.444 361.058 252.365 360.304 258.802 360.956C259.199 365.089 259.609 386.771 258.539 389.988C251.986 389.969 245.432 389.99 238.878 390.052C238.846 385.574 238.403 363.583 239.258 360.505Z" fill="#FDE8BE"/>
<path d="M178.071 383.901C183.351 384.437 191.612 384.211 197.068 384.214L228.409 384.207L228.585 395.244C226.796 395.586 215.817 395.434 213.459 395.432L178.105 395.383C177.956 392.08 178.079 387.299 178.071 383.901Z" fill="#FDE8BE"/>
<path d="M491.17 384.135C507.219 384.543 525.906 383.442 541.528 384.372C541.555 387.716 541.661 391.355 541.449 394.667C537.714 396.147 498.115 395.438 491.394 395.279C491.02 392.288 491.17 387.286 491.17 384.135Z" fill="#FDE8BE"/>
<path d="M359.557 230.007C363.395 232.013 364.407 238.575 365.22 242.571C366.165 247.214 367.497 252.771 367.319 257.47L361.727 257.491L351.74 257.501C352.183 250.832 355.335 234.93 359.557 230.007Z" fill="#FDE8BE"/>
<rect x="616.374" y="133.604" width="124.007" height="165.342" fill="#FDE8BE"/>
<rect x="148.83" y="209.557" width="604.37" height="485.926" fill="#FDE8BE"/>
<rect x="291.58" y="519.334" width="57.7037" height="154.889" fill="#FDE8BE"/>
<rect x="692.439" y="495.036" width="48.5926" height="160.963" fill="#FDE8BE"/>
<path d="M166.831 473.373L726.722 473.342C735.861 473.377 743.075 474.553 744.243 486.011C744.96 493.079 744.507 501.084 744.498 508.236L744.445 550.932C744.428 591.991 744.604 633.125 744.357 674.179C744.339 677.085 743.309 679.525 742.366 682.299C739.376 684.998 738.019 687.249 734.13 687.583C720.226 688.204 701.605 687.662 687.458 687.662L596.773 687.654L321.207 687.658L206.459 687.667C193.716 687.68 178.075 687.993 165.214 687.345C163.621 687.262 159.201 683.532 158.473 681.925C157.27 679.269 156.195 676.068 156.22 673.074C155.999 662.76 156.119 652.289 156.135 641.976L156.147 586.024L156.175 518.822C156.191 508.117 155.031 493.149 157.32 482.466C158.292 477.93 162.772 475.288 166.831 473.373Z" fill="#FDE8BE"/>
</svg>
