<svg width="183" height="92" viewBox="0 0 183 92" fill="none" xmlns="http://www.w3.org/2000/svg">
<path d="M183 92C183 79.9184 180.633 67.9551 176.035 56.7931C171.437 45.6312 164.697 35.4892 156.2 26.9462C147.704 18.4032 137.617 11.6265 126.516 7.00309C115.414 2.37965 103.516 3.99672e-06 91.5 3.99959e-06C79.484 4.00246e-06 67.5857 2.37965 56.4845 7.00309C45.3832 11.6265 35.2963 18.4032 26.7997 26.9462C18.3032 35.4892 11.5633 45.6312 6.96502 56.7931C2.36671 67.9551 -4.54381e-06 79.9184 -4.02145e-06 92L91.5 92L183 92Z" fill="#DB1B00"/>
</svg>
