<svg width="566" height="780" viewBox="0 0 566 780" fill="none" xmlns="http://www.w3.org/2000/svg">
<path d="M1.014 40.4072C6.07399 29.1361 13.9705 16.701 20.5402 6.10241C22.851 2.37401 33.6176 0.878723 37.8611 0.393893C50.8776 -1.22765 82.7371 2.58858 96.6105 4.03443C121.674 6.7586 146.774 9.14819 171.901 11.2022C239.949 17.1767 308.366 17.6274 376.487 12.5502C404.439 10.594 432.353 8.095 460.209 5.05401C480.937 2.89196 502.12 -0.333361 522.997 0.169231C529.689 0.330521 538.252 0.738074 543.926 4.69544C547.584 7.2444 564.26 37.0658 565.124 42.1075C566.07 47.6547 566.286 62.274 562.772 66.759C556.839 74.3266 538.248 74.9401 529.233 76.1541L497.152 80.2713C396.903 91.6811 295.895 95.0462 195.104 90.3332C154.226 88.2461 113.412 85.0539 72.7071 80.7598L37.9475 76.2443C27.8121 75.0904 13.0992 74.0866 4.43181 68.5936C-0.411213 65.5243 -0.834598 44.5249 1.014 40.4072Z" fill="#761717"/>
<path d="M56.1938 76.1631L88.533 80.9684C87.9138 80.8937 87.2946 80.8186 86.6754 80.7433C86.7339 85.4359 86.6915 90.1294 86.5486 94.819C83.8261 100.458 81.5453 101.369 76.3785 102.902C69.2288 114.73 70.9371 129.617 70.9724 143.451L71.0014 180.468L70.992 299.123L70.9777 669.513L71.0018 735.08C71.0058 745.991 71.2814 757.342 70.8607 768.151C69.7183 782.486 50.2588 783.104 48.275 769.178C47.5202 763.881 47.9771 756.795 47.9744 751.289L47.9534 714.202L47.9668 565.184L47.9499 267.728L47.9651 172.892C47.9463 157.782 47.9021 142.666 47.928 127.555C47.9526 113.289 49.0762 101.126 56.1888 89.0889L56.1938 76.1631Z" fill="#761717"/>
<path d="M481.083 80.5432L510.621 76.1631C510.524 80.4125 510.25 85.7997 510.86 89.8796C511.377 93.3527 513.565 97.8585 514.497 101.289C516.336 108.09 517.308 116.809 517.304 123.92C517.269 166.737 517.317 209.615 517.313 252.427L517.304 503.932V681.375L517.247 736.477C517.264 745.843 517.494 755.22 517.397 764.586C517.273 770.392 515.284 776.163 510.382 778.384C503.81 781.367 495.12 776.556 494.665 768.017C494.338 761.971 494.501 755.291 494.501 749.173L494.51 713.231L494.537 600.058L494.506 237.031L494.537 170.439C494.546 154.555 496.163 121.747 492.009 107.82C491.293 106.219 490.466 104.589 489.697 103.013C478.815 98.597 480.879 92.1291 481.083 80.5432Z" fill="#761717"/>
<path d="M131.142 494.424C134.968 493.74 154.163 494.128 158.787 494.133L218.439 494.128L372.662 494.138L411.884 494.118C419.344 494.113 432.959 493.592 439.616 495.451C451.851 498.888 462.4 507.774 468.95 520.153C472.443 526.747 474.24 533.186 475.07 540.827C476.171 550.923 476.237 661.122 475.012 665.943C474.396 668.359 472.274 670.601 470.424 671.796C467.907 673.394 464.939 673.772 462.183 672.837C451.718 669.426 455.331 655.719 454.652 646.317C454.505 644.264 454.656 641.664 454.665 639.57L454.723 577.102C454.723 568.118 454.687 559.069 454.687 550.086C454.683 533.968 447.848 522.804 434.038 518.856C425.841 518.136 416.482 518.376 408.187 518.376L368.881 518.392L246.576 518.417L168.247 518.381C156.914 518.376 140.212 517.671 129.343 519.444C121.796 521.491 113.779 529.821 111.805 538.559C109.655 548.073 110.47 561.964 110.488 571.949L110.488 627.109C110.555 638.667 110.585 650.244 110.445 661.811C110.274 675.978 91.1904 677.383 89.6731 663.328C89.1224 658.231 89.3887 652.266 89.4188 647.052L89.5822 617.825L89.5165 568.43C89.5058 560.483 89.1459 547.185 90.1839 539.708C91.3759 530.939 94.415 522.641 99.0357 515.532C107.075 503.239 118.062 496.585 131.142 494.424Z" fill="#761717"/>
<path d="M111.11 704.793C111.121 712.747 111.485 726.058 110.435 733.541C109.23 742.318 106.157 750.624 101.484 757.74C93.3539 770.043 82.2432 776.704 69.0155 778.866C67.4013 779.152 63.0822 779.251 58.2565 779.269L48.6333 760.284V755.03C56.5552 755.036 64.6339 754.825 70.8349 753.824C78.4662 751.774 86.574 743.437 88.5702 734.691C90.7442 725.168 89.9202 711.264 89.9022 701.271L89.9018 646.06C89.8345 634.493 89.804 622.905 89.9458 611.327C90.119 597.147 109.417 595.741 110.952 609.809C111.509 614.91 111.24 620.88 111.209 626.099L111.044 655.353L111.11 704.793Z" fill="#761717"/>
<path d="M454.942 702.368C454.931 710.581 454.572 724.325 455.608 732.052C456.798 741.115 459.831 749.692 464.443 757.039C472.468 769.743 483.434 776.62 496.49 778.853C498.083 779.148 502.346 779.25 507.109 779.269L516.608 759.666V754.241C508.788 754.247 500.815 754.029 494.694 752.996C487.162 750.879 479.16 742.271 477.189 733.24C475.044 723.407 475.857 709.05 475.875 698.732L475.875 641.723C475.941 629.779 475.972 617.814 475.832 605.859C475.661 591.218 456.613 589.766 455.098 604.291C454.549 609.559 454.814 615.724 454.844 621.113L455.007 651.319L454.942 702.368Z" fill="#761717"/>
<rect x="61.1602" y="76.4492" width="438.307" height="434.06" fill="#761717"/>
</svg>
