<svg width="583" height="616" viewBox="0 0 583 616" fill="none" xmlns="http://www.w3.org/2000/svg">
<path d="M62.9934 5.33536L60.215 3.41912C58.6045 5.26803 59.1035 5.33417 59.0353 8.23353L58.4252 8.78302C57.258 8.87473 56.8222 8.97287 55.6626 8.70116C54.7191 6.48126 56.2325 1.50996 50.9537 3.41912C48.8884 4.1668 50.1261 6.17127 49.9063 8.4575C48.8036 9.1074 48.8907 9.14075 47.6288 9.05927C44.5745 6.29709 48.6302 4.82731 43.5447 3.41912C38.8002 4.36347 42.0127 6.27018 40.0724 8.74436C36.8135 8.78378 37.9883 8.21648 37.147 5.33492C36.4308 2.89106 37.0991 6.79057 34.2834 6.19751C32.2181 6.80383 29.8446 9.99676 28.7267 11.7551L28.3666 21.0592C27.3624 21.8599 26.3013 22.7069 25.3843 23.6008C22.2882 26.5646 20.1661 30.3985 19.2983 34.5942C18.1273 40.2861 18.6086 55.9732 18.6162 62.7004L18.6238 123.271C18.6238 133.09 19.5674 154.001 16.6229 162.374C9.4986 182.626 0.176331 186.856 0.0209351 210.588L0.0285034 440.772V508.377C0.0285034 518.617 -0.043457 529.102 0.146057 539.103C0.581848 562.075 15.0919 580.822 37.8215 585.384C43.6232 586.551 48.0342 586.68 53.9308 586.692C54.1278 592.281 53.4988 607.598 56.6669 611.369C58.6564 613.734 61.5554 614.552 64.5302 614.779C69.6877 615.174 80.0141 615.859 83.9553 612.169C85.1338 611.066 85.8954 609.622 86.2896 608.064C87.5553 603.059 87.093 592.273 87.2256 586.673L488.498 586.699C488.521 591.034 488.828 596.033 488.958 600.444C489.095 603.991 488.924 608.769 491.149 611.619C493.061 613.885 496.3 614.601 499.014 614.825C525.347 616.993 520.977 608.633 521.682 586.673C535.963 586.669 547.373 587.086 560.231 579.226C571.201 572.522 577.708 562.397 580.54 549.952C582.5 541.342 582.056 530.834 582.057 521.879L582.047 492.128L582.048 387.677L582.047 264.468L582.07 226.406C582.073 218.24 582.277 210.53 581.63 202.373C579.993 181.748 564.055 172.41 563.601 150.796C563.378 140.17 563.468 129.498 563.472 118.879L563.499 58.4152C563.501 47.6704 563.809 36.5925 563.139 25.8704C562.448 14.8167 553.385 4.3974 542.467 2.32377C537.299 1.34228 531.479 1.62991 526.203 1.63066L504.031 1.65416C497.197 1.65795 490.328 1.53024 483.502 1.69319C479.326 1.79285 479.06 5.85371 478.915 8.91982C442.503 8.39118 404.94 8.89291 368.416 8.88192L65.7617 8.81826C65.5798 3.93242 67.0899 8.10096 62.9934 5.33536Z" fill="#FDE8BE"/>
<path d="M517.691 4.46523H521.396C523.006 6.31414 522.999 5.33417 523.067 8.23353L523.677 8.78302C524.845 8.87473 525.28 8.97287 526.44 8.70116C527.383 6.48126 525.378 3.42576 530.657 5.33492C532.722 6.0826 531.976 6.17127 532.196 8.4575C533.299 9.1074 533.212 9.14075 534.474 9.05927C537.528 6.29709 533.906 5.87342 538.992 4.46523C543.736 5.40958 540.09 6.27018 542.03 8.74436C545.289 8.78378 544.114 8.21648 544.956 5.33492C545.672 2.89106 545.438 6.79101 548.253 6.19795C550.318 6.80427 551.766 8.1445 552.884 9.90284L553.736 21.0592C554.74 21.8599 555.801 22.7069 556.718 23.6008C559.814 26.5646 561.936 30.3985 562.804 34.5942C563.975 40.2861 563.494 55.9732 563.486 62.7004L563.479 123.271C563.479 133.09 562.535 154.001 565.48 162.374C572.604 182.626 581.926 186.856 582.082 210.588L582.074 440.772V508.377C582.074 518.617 582.146 529.102 581.956 539.103C581.521 562.075 567.011 580.822 544.281 585.384C538.479 586.551 534.068 586.68 528.172 586.692C527.975 592.281 528.604 607.598 525.436 611.369C523.446 613.734 520.547 614.552 517.572 614.78C512.415 615.174 502.088 615.86 498.147 612.169C496.969 611.066 496.207 609.622 495.813 608.065C494.547 603.059 495.01 592.274 494.877 586.673L93.6043 586.699C93.5819 591.034 93.275 596.033 93.1443 600.444C93.0075 603.991 93.1784 608.769 90.9539 611.619C89.0413 613.885 85.802 614.601 83.0887 614.825C56.7557 616.993 61.1254 608.633 60.4202 586.673C46.1393 586.669 34.7298 587.086 21.8716 579.226C10.9017 572.523 4.39467 562.397 1.56237 549.952C-0.39719 541.342 0.0461855 530.834 0.0450486 521.879L0.0560351 492.128L0.0549017 387.677L0.0556535 264.468L0.0329172 226.406C0.0298856 218.24 -0.174366 210.53 0.472885 202.373C2.1092 181.748 18.0476 172.41 18.5012 150.796C18.7244 140.17 18.6349 129.498 18.6308 118.879L18.6031 58.4152C18.6012 47.6704 18.2931 36.5925 18.9635 25.8704C19.6547 14.8167 28.7174 4.3974 39.6354 2.32377C44.8032 1.34228 50.6231 1.62991 55.8993 1.63066L78.0718 1.65416C84.9058 1.65795 91.7743 1.53024 98.6008 1.69319C102.777 1.79285 103.042 5.85371 103.188 8.91982C139.599 8.39118 177.162 8.89291 213.686 8.88192L516.341 8.81826C516.523 3.93242 513.595 7.23082 517.691 4.46523Z" fill="#FDE8BE"/>
<path d="M65.6684 185.537C71.012 185.05 83.5822 185.397 89.3639 185.397L136.766 185.407L288.842 185.401L445.126 185.393L494.614 185.387C503.811 185.388 517.347 184.635 526.074 186.532C541.501 189.887 554.079 205.449 555.549 220.925C556.118 226.935 555.97 234.044 556.087 240.292C556.436 253.89 556.644 267.49 556.712 281.092C557.455 324.668 557.637 368.252 557.262 411.835C557.152 438.566 556.853 465.294 556.356 492.021L555.985 511.935C555.928 515.85 555.962 521.762 555.473 525.543C554.477 532.922 551.559 539.91 547.011 545.81C540.039 554.757 531.137 559.441 519.981 560.794C516.328 561.252 504.724 560.964 500.688 560.953L463.896 560.949L334.696 560.953L153.142 560.945L95.7504 560.976C87.1728 560.983 73.5688 561.415 65.5876 560.794C58.2595 560.165 51.2818 557.379 45.5365 552.786C36.9699 546.159 31.4402 536.355 30.1999 525.597C29.4769 519.408 29.6281 512.822 29.5492 506.558L29.0873 479.076C28.3654 440.245 28.0797 401.406 28.2305 362.571C28.2104 330.068 28.5022 297.569 29.1062 265.074L29.5394 239.198C29.6144 233.006 29.456 226.476 30.2064 220.355C32.4899 201.723 47.0345 187.518 65.6684 185.537Z" fill="#FDE8BE"/>
<path d="M66.6568 188.191C77.4611 187.797 89.8631 188.09 100.761 188.1L159.778 188.103L342.402 188.106L461.526 188.118L498.334 188.079C505.292 188.072 512.624 187.847 519.506 188.304C536.309 189.419 550.171 203.767 552.604 220.111C553.312 224.872 553.104 231.109 553.172 235.968L553.6 259.907C554.131 292.805 554.4 325.706 554.404 358.606C554.502 395.729 554.305 432.851 553.805 469.969C553.71 481.963 553.54 493.957 553.29 505.951C553.199 510.718 553.259 520.082 552.717 524.497C551.891 531.409 549.273 537.984 545.119 543.566C538.457 552.388 529.912 556.78 519.135 558.227C486.162 558.852 451.264 558.284 418.136 558.28L223.826 558.292L117.618 558.295L84.5706 558.322C70.2837 558.337 59.2244 559.97 47.2491 550.531C39.1099 544.062 33.9065 534.6 32.8061 524.262C32.2911 519.35 32.4389 511.26 32.3623 505.989L31.795 476.165C31.1819 438.285 30.9386 400.401 31.0644 362.513C31.0254 330.761 31.2876 299.008 31.8503 267.259L32.3468 237.38C32.4305 232.743 32.3214 225.302 32.8663 221.019C33.8163 213.928 36.707 207.237 41.2196 201.686C47.8664 193.442 56.2367 189.273 66.6568 188.191Z" fill="#FDE8BE"/>
<path d="M67.2945 196.466C73.0913 195.972 84.1098 196.296 90.2859 196.296L134.036 196.304L271.957 196.296L436.693 196.306L488.935 196.296C498.091 196.291 507.466 196.12 516.568 196.412C530.097 196.845 541.897 207.838 544.156 221.031C544.91 225.434 544.815 230.731 544.91 235.271L545.266 255.302C545.744 278.128 546.013 300.957 546.066 323.789C546.562 370.347 546.445 416.909 545.71 463.464L545.05 501.499C544.925 508.324 545.077 515.737 544.433 522.486C543.031 537.166 532.617 547.656 518.122 549.823C515.261 550.274 505.992 550.096 502.839 550.089L474.02 550.047L367.894 550.054L167.704 550.073L104.359 550.066C93.2016 550.07 79.9485 550.43 68.9706 549.918C64.0495 549.706 59.2702 548.205 55.1112 545.564C48.1449 541.073 43.2507 533.994 41.5075 525.892C40.4889 520.989 40.5571 507.358 40.4533 501.973L39.7526 449.799C38.964 396.332 38.9826 342.858 39.8087 289.394L40.3483 246.699C40.4722 239.317 40.4169 231.81 41.0085 224.459C42.2507 209.018 52.6302 199.267 67.2945 196.466Z" fill="#FDE8BE"/>
<path d="M114.274 18.7189C119.038 18.3426 125.968 18.5313 130.902 18.5344L159.194 18.5571L247.699 18.556L405.831 18.5491C431.994 18.5552 458.202 18.576 484.365 18.5654C486.135 18.5647 488.325 18.847 489.947 19.548C493.051 20.8888 495.901 24.2399 497.072 27.3579C498.261 30.5115 498.129 34.0134 496.696 37.0663C494.749 41.2799 491.8 43.142 487.7 44.6491C481.91 45.3551 464.8 44.8958 458.218 44.8996L396.732 44.9125L191.552 44.9159L139.493 44.9155C134.429 44.9136 119.562 45.2653 115.149 44.7999C113.793 44.665 112.471 44.2978 111.24 43.7139C99.8745 38.2933 101.49 22.9753 114.274 18.7189Z" fill="#FDE8BE"/>
<path d="M415.824 63.3872C440.471 60.982 462.405 79.0046 464.827 103.651C467.248 128.298 449.24 150.243 424.593 152.681C399.927 155.119 377.955 137.091 375.534 112.422C373.109 87.7535 391.154 65.7943 415.824 63.3872Z" fill="#FDE8BE"/>
<path d="M416.362 70.1891C437.257 68.1014 455.886 83.3645 457.948 104.264C460.006 125.164 444.719 143.771 423.819 145.805C402.954 147.835 384.386 132.582 382.332 111.72C380.274 90.8583 395.504 72.2729 416.362 70.1891Z" fill="#FDE8BE"/>
<path d="M418.324 71.8662L418.779 72.0079C419.829 73.8735 418.222 77.1397 419.844 78.5381L420.855 78.3725C421.803 77.1196 421.424 73.8262 421.416 71.9026C427.57 72.4312 430.621 73.0436 436.101 75.7721L435.597 76.674C434.737 78.1962 433.793 79.0845 434.782 80.7227L435.638 80.6753C437.056 79.7825 437.465 78.4441 438.234 76.8832C443.972 80.3991 446.692 83.339 450.274 88.8827C448.583 89.8237 447.003 90.2132 447.314 92.3316L448.136 92.7325C449.61 92.753 450.346 92.022 451.6 91.1739C454.673 96.8047 455.056 100.195 455.909 106.524C453.976 106.498 450.577 105.967 449.788 108.046C451.085 109.764 453.984 109.215 455.962 109.124C455.628 114.204 454.385 120.157 451.755 124.57C450.179 123.66 448.129 121.907 446.533 123.097L446.78 124.031C447.898 125.432 449.144 125.908 450.743 126.763C446.56 132.662 444.726 134.507 438.86 138.749C437.969 137.042 436.953 134.166 434.926 133.939L434.604 134.664C434.74 136.621 435.813 138.087 436.802 139.84C431.03 142.567 428.654 143.301 422.314 143.905L421.742 143.767C420.727 141.79 422.458 137.76 420.461 136.953L419.631 137.39C418.737 138.585 419.097 142.182 419.135 143.919C413.129 143.499 409.926 143.057 404.526 140.33C405.443 138.507 407.247 136.473 405.989 134.689L405.083 134.896C403.693 135.967 403.151 137.487 402.34 139.101C396.345 135.578 393.218 132.678 389.69 126.653C391.24 125.656 392.464 125.258 392.589 123.351L392.013 122.969C390.479 123.046 389.925 123.722 388.629 124.71C385.749 119.572 384.866 114.92 384.529 109.148C386.439 109.185 389.781 109.776 390.638 107.753C389.38 106.013 386.431 106.492 384.457 106.536C384.904 100.032 386.068 96.428 388.974 90.6952C390.702 91.64 392.779 93.4677 394.594 92.3979L394.541 91.5718C393.556 89.9968 391.934 89.2761 390.285 88.2889C393.923 82.8494 396.371 80.7132 401.734 77.1367C402.613 78.8693 403.287 81.096 405.337 81.3923L405.743 80.6901C405.743 78.8484 404.883 77.5736 404.045 75.8824C409.153 73.1099 412.583 72.3922 418.324 71.8662Z" fill="#FDE8BE"/>
<path d="M434.369 82.9737C437.639 82.6331 445.957 92.7386 446.518 95.7706C446.317 96.765 445.567 97.471 444.816 98.1322C434.361 107.351 423.834 116.489 413.576 125.932C411.006 128.299 408.452 130.688 405.701 132.85C403.007 132.815 401.305 130.987 399.713 129.008C397.974 126.839 393.264 123.128 393.169 120.454C395.098 116.865 429.488 86.6405 434.369 82.9737Z" fill="#FDE8BE"/>
<path d="M279.033 89.2473C279.934 89.1158 280.654 89.1162 281.555 89.0954C283.053 90.7703 281.217 100.355 282.462 102.195C283.72 102.613 283.125 102.647 284.308 102.149C284.903 101.122 284.66 90.9499 284.675 88.9062C289.711 89.369 293.857 91.0799 297.514 94.7099C301.209 98.3729 303.301 103.349 303.331 108.55C303.354 114.549 300.807 119.238 296.771 123.383C295.081 124.684 293.482 125.77 291.527 126.647C286.54 128.882 280.855 128.984 275.789 126.928C270.903 124.872 267.049 120.936 265.097 116.007C263.002 110.93 263.12 105.21 265.421 100.224C268.339 93.9308 272.91 91.413 279.033 89.2473Z" fill="#FDE8BE"/>
<path d="M138.628 88.873C140.57 91.2783 137.677 100.699 140.266 102.48L141.007 102.235C142.384 100.02 141.76 92.1154 141.722 88.9428C147.345 89.4574 151.74 91.3768 155.538 95.7416C158.963 99.7005 160.679 104.855 160.311 110.077C159.86 116.13 157.016 120.381 152.611 124.231C150.169 126.084 147.349 127.374 144.351 128.008C139.135 129.102 133.7 128.002 129.321 124.967C124.97 121.94 122.002 117.308 121.072 112.09C120.101 106.83 121.296 101.402 124.385 97.0353C128.009 92.0043 132.775 89.925 138.628 88.873Z" fill="#FDE8BE"/>
<path d="M67.1256 88.8854C69.2709 90.5884 65.9016 100.91 69.0151 102.625L69.7165 102.179C70.9371 99.3017 70.3804 92.2194 70.2948 88.8013C75.0726 89.425 79.1555 90.9871 82.7138 94.3514C86.6447 98.0572 88.8885 103.21 88.9241 108.612C88.9468 115.163 86.1077 119.58 81.6607 123.935C78.8409 126.078 75.6979 127.547 72.1903 128.129C67.0013 129.025 61.6706 127.776 57.4191 124.669C53.1642 121.512 50.3285 116.803 49.529 111.566C48.7445 106.321 50.0538 100.977 53.1745 96.6892C56.6669 91.9867 61.4788 89.6664 67.1256 88.8854Z" fill="#FDE8BE"/>
<path d="M208 89.2177C208.725 89.1415 209.41 89.1188 210.136 89.0836C212.05 91.0734 209.247 99.7003 211.441 102.675C214.483 102.692 213.327 91.4304 213.308 88.9111C218.394 89.3886 222.416 91.1227 226.07 94.7796C229.832 98.4914 231.905 103.585 231.804 108.869C231.723 115.073 229.083 119.457 224.872 123.638C222.454 125.427 220.648 126.601 217.675 127.514C212.651 129.073 207.212 128.548 202.579 126.057C197.929 123.552 194.472 119.292 192.979 114.225C191.458 109.168 192.014 103.713 194.526 99.0674C197.639 93.4192 202.112 90.9302 208 89.2177Z" fill="#FDE8BE"/>
<path d="M512.418 89.7809C522.85 88.0669 532.692 95.1404 534.393 105.573C536.091 116.006 529.005 125.839 518.568 127.524C508.155 129.207 498.343 122.136 496.65 111.724C494.952 101.311 502.008 91.4919 512.418 89.7809Z" fill="#FDE8BE"/>
<path d="M513.555 94.2184C521.483 93.1467 528.796 98.6476 529.967 106.56C531.138 114.473 525.731 121.857 517.833 123.128C512.638 123.965 507.389 121.941 504.1 117.83C500.811 113.719 499.988 108.156 501.944 103.269C503.903 98.3812 508.337 94.924 513.555 94.2184Z" fill="#FDE8BE"/>
<path d="M515.207 97.2051C530.308 98.3423 528.087 115.117 523.718 115.873C522.392 114.798 521.929 114.07 520.216 114.521C519.023 115.712 519.311 115.038 519.019 116.458C519.822 118.534 520.254 118.644 518.522 119.965C514.922 120.382 512.224 120.395 508.999 118.191C506.415 116.41 504.676 113.642 504.198 110.539C503.035 102.956 508.249 98.4295 515.207 97.2051Z" fill="#FDE8BE"/>
<path d="M511.933 99.5447C512.809 99.0907 513.862 99.1612 514.669 99.7273C515.476 100.293 515.901 101.262 515.772 102.239C515.639 103.215 514.976 104.039 514.052 104.374C512.74 104.848 511.289 104.225 510.732 102.95C510.175 101.676 510.698 100.186 511.933 99.5447Z" fill="#FDE8BE"/>
<path d="M104.925 18.7189C109.69 18.3426 116.619 18.5313 121.554 18.5344L149.845 18.5571L238.35 18.556L396.482 18.5491C422.645 18.5552 448.854 18.576 475.017 18.5654C476.786 18.5647 478.977 18.847 480.599 19.548C483.702 20.8888 486.552 24.2399 487.723 27.3579C488.913 30.5115 488.78 34.0134 487.348 37.0663C485.4 41.2799 482.452 43.142 478.351 44.6491C472.561 45.3551 455.451 44.8958 448.869 44.8996L387.384 44.9125L182.203 44.9159L130.144 44.9155C125.08 44.9136 110.214 45.2653 105.801 44.7999C104.445 44.665 103.122 44.2978 101.891 43.7139C90.5259 38.2933 92.1414 22.9753 104.925 18.7189Z" fill="#65C6F7"/>
<path d="M65.6684 185.537C71.012 185.05 83.5822 185.397 89.3639 185.397L136.766 185.407L288.842 185.401L445.126 185.393L494.614 185.387C503.811 185.388 517.347 184.635 526.074 186.532C541.501 189.887 554.079 205.449 555.549 220.925C556.118 226.935 555.97 234.044 556.087 240.292C556.436 253.89 556.644 267.49 556.712 281.092C557.455 324.668 557.637 368.252 557.262 411.835C557.152 438.566 556.853 465.294 556.356 492.021L555.985 511.935C555.928 515.85 555.962 521.762 555.473 525.543C554.477 532.922 551.559 539.91 547.011 545.81C540.039 554.757 531.137 559.441 519.981 560.794C516.328 561.252 504.724 560.964 500.688 560.953L463.896 560.949L334.696 560.953L153.142 560.945L95.7504 560.976C87.1728 560.983 73.5688 561.415 65.5876 560.794C58.2595 560.165 51.2818 557.379 45.5365 552.786C36.9699 546.159 31.4402 536.355 30.1999 525.597C29.4769 519.408 29.6281 512.822 29.5492 506.558L29.0873 479.076C28.3654 440.245 28.0797 401.406 28.2305 362.571C28.2104 330.068 28.5022 297.569 29.1062 265.074L29.5394 239.198C29.6144 233.006 29.456 226.476 30.2064 220.355C32.4899 201.723 47.0345 187.518 65.6684 185.537Z" fill="#65C6F7"/>
<path d="M67.2945 196.466C73.0913 195.972 84.1098 196.296 90.2859 196.296L134.036 196.304L271.957 196.296L436.693 196.306L488.935 196.296C498.091 196.291 507.466 196.12 516.568 196.412C530.097 196.845 541.897 207.838 544.156 221.031C544.91 225.434 544.815 230.731 544.91 235.271L545.266 255.302C545.744 278.128 546.013 300.957 546.066 323.789C546.562 370.347 546.445 416.909 545.71 463.464L545.05 501.499C544.925 508.324 545.077 515.737 544.433 522.486C543.031 537.166 532.617 547.656 518.122 549.823C515.261 550.274 505.992 550.096 502.839 550.089L474.02 550.047L367.894 550.054L167.704 550.073L104.359 550.066C93.2016 550.07 79.9485 550.43 68.9706 549.918C64.0495 549.706 59.2702 548.205 55.1112 545.564C48.1449 541.073 43.2507 533.994 41.5075 525.892C40.4889 520.989 40.5571 507.358 40.4533 501.973L39.7526 449.799C38.964 396.332 38.9826 342.858 39.8087 289.394L40.3483 246.699C40.4722 239.317 40.4169 231.81 41.0085 224.459C42.2507 209.018 52.6302 199.267 67.2945 196.466Z" fill="#65C6F7"/>
<path d="M415.824 63.3872C440.471 60.982 462.405 79.0046 464.827 103.651C467.248 128.298 449.24 150.243 424.593 152.681C399.927 155.119 377.955 137.091 375.534 112.422C373.109 87.7535 391.154 65.7943 415.824 63.3872Z" fill="#65C6F7"/>
<path d="M416.362 70.1891C437.257 68.1014 455.886 83.3645 457.948 104.264C460.006 125.164 444.719 143.771 423.819 145.805C402.954 147.835 384.386 132.582 382.332 111.72C380.274 90.8583 395.504 72.2729 416.362 70.1891Z" fill="#FDE8BE"/>
<path d="M418.324 71.8662L418.779 72.0079C419.829 73.8735 418.222 77.1397 419.844 78.5381L420.855 78.3725C421.803 77.1196 421.424 73.8262 421.416 71.9026C427.57 72.4312 430.621 73.0436 436.101 75.7721L435.597 76.674C434.737 78.1962 433.793 79.0845 434.782 80.7227L435.638 80.6753C437.056 79.7825 437.465 78.4441 438.234 76.8832C443.972 80.3991 446.692 83.339 450.274 88.8827C448.583 89.8237 447.003 90.2132 447.314 92.3316L448.136 92.7325C449.61 92.753 450.346 92.022 451.6 91.1739C454.673 96.8047 455.056 100.195 455.909 106.524C453.976 106.498 450.577 105.967 449.788 108.046C451.085 109.764 453.984 109.215 455.962 109.124C455.628 114.204 454.385 120.157 451.755 124.57C450.179 123.66 448.129 121.907 446.533 123.097L446.78 124.031C447.898 125.432 449.144 125.908 450.743 126.763C446.56 132.662 444.726 134.507 438.86 138.749C437.969 137.042 436.953 134.166 434.926 133.939L434.604 134.664C434.74 136.621 435.813 138.087 436.802 139.84C431.03 142.567 428.654 143.301 422.314 143.905L421.742 143.767C420.727 141.79 422.458 137.76 420.461 136.953L419.631 137.39C418.737 138.585 419.097 142.182 419.135 143.919C413.129 143.499 409.926 143.057 404.526 140.33C405.443 138.507 407.247 136.473 405.989 134.689L405.083 134.896C403.693 135.967 403.151 137.487 402.34 139.101C396.345 135.578 393.218 132.678 389.69 126.653C391.24 125.656 392.464 125.258 392.589 123.351L392.013 122.969C390.479 123.046 389.925 123.722 388.629 124.71C385.749 119.572 384.866 114.92 384.529 109.148C386.439 109.185 389.781 109.776 390.638 107.753C389.38 106.013 386.431 106.492 384.457 106.536C384.904 100.032 386.068 96.428 388.974 90.6952C390.702 91.64 392.779 93.4677 394.594 92.3979L394.541 91.5718C393.556 89.9968 391.934 89.2761 390.285 88.2889C393.923 82.8494 396.371 80.7132 401.734 77.1367C402.613 78.8693 403.287 81.096 405.337 81.3923L405.743 80.6901C405.743 78.8484 404.883 77.5736 404.045 75.8824C409.153 73.1099 412.583 72.3922 418.324 71.8662Z" fill="#65C6F7"/>
<path d="M434.369 82.9737C437.639 82.6331 445.957 92.7386 446.518 95.7706C446.317 96.765 445.567 97.471 444.816 98.1322C434.361 107.351 423.834 116.489 413.576 125.932C411.006 128.299 408.452 130.688 405.701 132.85C403.007 132.815 401.305 130.987 399.713 129.008C397.974 126.839 393.264 123.128 393.169 120.454C395.098 116.865 429.488 86.6405 434.369 82.9737Z" fill="#FDE8BE"/>
<path d="M279.033 89.2473C279.934 89.1158 280.654 89.1162 281.555 89.0954C283.053 90.7703 281.217 100.355 282.462 102.195C283.72 102.613 283.125 102.647 284.308 102.149C284.903 101.122 284.66 90.9499 284.675 88.9062C289.711 89.369 293.857 91.0799 297.514 94.7099C301.209 98.3729 303.301 103.349 303.331 108.55C303.354 114.549 300.807 119.238 296.771 123.383C295.081 124.684 293.482 125.77 291.527 126.647C286.54 128.882 280.855 128.984 275.789 126.928C270.903 124.872 267.049 120.936 265.097 116.007C263.002 110.93 263.12 105.21 265.421 100.224C268.339 93.9308 272.91 91.413 279.033 89.2473Z" fill="#65C6F7"/>
<path d="M138.628 88.873C140.57 91.2783 137.677 100.699 140.266 102.48L141.007 102.235C142.384 100.02 141.76 92.1154 141.722 88.9428C147.345 89.4574 151.74 91.3768 155.538 95.7416C158.963 99.7005 160.679 104.855 160.311 110.077C159.86 116.13 157.016 120.381 152.611 124.231C150.169 126.084 147.349 127.374 144.351 128.008C139.135 129.102 133.7 128.002 129.321 124.967C124.97 121.94 122.002 117.308 121.072 112.09C120.101 106.83 121.296 101.402 124.385 97.0353C128.009 92.0043 132.775 89.925 138.628 88.873Z" fill="#65C6F7"/>
<path d="M67.1256 88.8854C69.2709 90.5884 65.9016 100.91 69.0151 102.625L69.7165 102.179C70.9371 99.3017 70.3804 92.2194 70.2948 88.8013C75.0726 89.425 79.1555 90.9871 82.7138 94.3514C86.6447 98.0572 88.8885 103.21 88.9241 108.612C88.9468 115.163 86.1077 119.58 81.6607 123.935C78.8409 126.078 75.6979 127.547 72.1903 128.129C67.0013 129.025 61.6706 127.776 57.4191 124.669C53.1642 121.512 50.3285 116.803 49.529 111.566C48.7445 106.321 50.0538 100.977 53.1745 96.6892C56.6669 91.9867 61.4788 89.6664 67.1256 88.8854Z" fill="#65C6F7"/>
<path d="M208 89.2177C208.725 89.1415 209.41 89.1188 210.136 89.0836C212.05 91.0734 209.247 99.7003 211.441 102.675C214.483 102.692 213.327 91.4304 213.308 88.9111C218.394 89.3886 222.416 91.1227 226.07 94.7796C229.832 98.4914 231.905 103.585 231.804 108.869C231.723 115.073 229.083 119.457 224.872 123.638C222.454 125.427 220.648 126.601 217.675 127.514C212.651 129.073 207.212 128.548 202.579 126.057C197.929 123.552 194.472 119.292 192.979 114.225C191.458 109.168 192.014 103.713 194.526 99.0674C197.639 93.4192 202.112 90.9302 208 89.2177Z" fill="#65C6F7"/>
<path d="M512.418 89.7809C522.85 88.0669 532.692 95.1404 534.393 105.573C536.091 116.006 529.005 125.839 518.568 127.524C508.155 129.207 498.343 122.136 496.65 111.724C494.952 101.311 502.008 91.4919 512.418 89.7809Z" fill="#65C6F7"/>
<path d="M513.555 94.2184C521.483 93.1467 528.796 98.6476 529.967 106.56C531.138 114.473 525.731 121.857 517.833 123.128C512.638 123.965 507.389 121.941 504.1 117.83C500.811 113.719 499.988 108.156 501.944 103.269C503.903 98.3812 508.337 94.924 513.555 94.2184Z" fill="#FDE8BE"/>
<path d="M515.207 97.2051C530.308 98.3423 528.087 115.117 523.718 115.873C522.392 114.798 521.929 114.07 520.216 114.521C519.023 115.712 519.311 115.038 519.019 116.458C519.822 118.534 520.254 118.644 518.522 119.965C514.922 120.382 512.224 120.395 508.999 118.191C506.415 116.41 504.676 113.642 504.198 110.539C503.035 102.956 508.249 98.4295 515.207 97.2051Z" fill="#65C6F7"/>
<path d="M511.933 99.5447C512.809 99.0907 513.862 99.1612 514.669 99.7273C515.476 100.293 515.901 101.262 515.772 102.239C515.639 103.215 514.976 104.039 514.052 104.374C512.74 104.848 511.289 104.225 510.732 102.95C510.175 101.676 510.698 100.186 511.933 99.5447Z" fill="#FDE8BE"/>
</svg>
