<svg width="583" height="616" viewBox="0 0 583 616" fill="none" xmlns="http://www.w3.org/2000/svg">
<path d="M62.9915 5.33536L60.2131 3.41912C58.6025 5.26803 59.1016 5.33417 59.0334 8.23353L58.4232 8.78302C57.256 8.87473 56.8203 8.97287 55.6606 8.70116C54.7171 6.48126 56.2306 1.50996 50.9518 3.41912C48.8865 4.1668 50.1241 6.17127 49.9044 8.4575C48.8016 9.1074 48.8888 9.14075 47.6268 9.05927C44.5725 6.29709 48.6283 4.82731 43.5428 3.41912C38.7983 4.36347 42.0107 6.27018 40.0705 8.74436C36.8115 8.78378 37.9863 8.21648 37.1451 5.33492C36.4288 2.89106 37.0971 6.79057 34.2815 6.19751C32.2162 6.80383 29.8427 9.99676 28.7247 11.7551L28.3647 21.0592C27.3605 21.8599 26.2994 22.7069 25.3823 23.6008C22.2863 26.5646 20.1642 30.3985 19.2963 34.5942C18.1254 40.2861 18.6067 55.9732 18.6143 62.7004L18.6218 123.271C18.6218 133.09 19.5654 154.001 16.621 162.374C9.49664 182.626 0.174377 186.856 0.0189819 210.588L0.0265503 440.772V508.377C0.0265503 518.617 -0.0454102 529.102 0.144104 539.103C0.579895 562.075 15.09 580.822 37.8195 585.384C43.6213 586.551 48.0323 586.68 53.9288 586.692C54.1259 592.281 53.4969 607.598 56.6649 611.369C58.6544 613.734 61.5534 614.552 64.5282 614.779C69.6857 615.174 80.0122 615.859 83.9533 612.169C85.1318 611.066 85.8935 609.622 86.2876 608.064C87.5533 603.059 87.091 592.273 87.2236 586.673L488.496 586.699C488.519 591.034 488.826 596.033 488.956 600.444C489.093 603.991 488.922 608.769 491.147 611.619C493.059 613.885 496.299 614.601 499.012 614.825C525.345 616.993 520.975 608.633 521.68 586.673C535.961 586.669 547.371 587.086 560.229 579.226C571.199 572.522 577.706 562.397 580.538 549.952C582.498 541.342 582.054 530.834 582.056 521.879L582.045 492.128L582.046 387.677L582.045 264.468L582.068 226.406C582.071 218.24 582.275 210.53 581.628 202.373C579.991 181.748 564.053 172.41 563.599 150.796C563.376 140.17 563.466 129.498 563.47 118.879L563.497 58.4152C563.499 47.6704 563.807 36.5925 563.137 25.8704C562.446 14.8167 553.383 4.3974 542.465 2.32377C537.297 1.34228 531.477 1.62991 526.201 1.63066L504.029 1.65416C497.195 1.65795 490.326 1.53024 483.5 1.69319C479.324 1.79285 479.058 5.85371 478.913 8.91982C442.501 8.39118 404.938 8.89291 368.414 8.88192L65.7598 8.81826C65.5779 3.93242 67.088 8.10096 62.9915 5.33536Z" fill="#FDE8BE"/>
<path d="M517.691 4.46523H521.396C523.006 6.31414 522.999 5.33417 523.067 8.23353L523.677 8.78302C524.845 8.87473 525.28 8.97287 526.44 8.70116C527.383 6.48126 525.378 3.42576 530.657 5.33492C532.722 6.0826 531.976 6.17127 532.196 8.4575C533.299 9.1074 533.212 9.14075 534.474 9.05927C537.528 6.29709 533.906 5.87342 538.992 4.46523C543.736 5.40958 540.09 6.27018 542.03 8.74436C545.289 8.78378 544.114 8.21648 544.956 5.33492C545.672 2.89106 545.438 6.79101 548.253 6.19795C550.318 6.80427 551.766 8.1445 552.884 9.90284L553.736 21.0592C554.74 21.8599 555.801 22.7069 556.718 23.6008C559.814 26.5646 561.936 30.3985 562.804 34.5942C563.975 40.2861 563.494 55.9732 563.486 62.7004L563.479 123.271C563.479 133.09 562.535 154.001 565.48 162.374C572.604 182.626 581.926 186.856 582.082 210.588L582.074 440.772V508.377C582.074 518.617 582.146 529.102 581.956 539.103C581.521 562.075 567.011 580.822 544.281 585.384C538.479 586.551 534.068 586.68 528.172 586.692C527.975 592.281 528.604 607.598 525.436 611.369C523.446 613.734 520.547 614.552 517.572 614.78C512.415 615.174 502.088 615.86 498.147 612.169C496.969 611.066 496.207 609.622 495.813 608.065C494.547 603.059 495.01 592.274 494.877 586.673L93.6043 586.699C93.5819 591.034 93.275 596.033 93.1443 600.444C93.0075 603.991 93.1784 608.769 90.9539 611.619C89.0413 613.885 85.802 614.601 83.0887 614.825C56.7557 616.993 61.1254 608.633 60.4202 586.673C46.1393 586.669 34.7298 587.086 21.8716 579.226C10.9017 572.523 4.39467 562.397 1.56237 549.952C-0.39719 541.342 0.0461855 530.834 0.0450486 521.879L0.0560351 492.128L0.0549017 387.677L0.0556535 264.468L0.0329172 226.406C0.0298856 218.24 -0.174366 210.53 0.472885 202.373C2.1092 181.748 18.0476 172.41 18.5012 150.796C18.7244 140.17 18.6349 129.498 18.6308 118.879L18.6031 58.4152C18.6012 47.6704 18.2931 36.5925 18.9635 25.8704C19.6547 14.8167 28.7174 4.3974 39.6354 2.32377C44.8032 1.34228 50.6231 1.62991 55.8993 1.63066L78.0718 1.65416C84.9058 1.65795 91.7743 1.53024 98.6008 1.69319C102.777 1.79285 103.042 5.85371 103.188 8.91982C139.599 8.39118 177.162 8.89291 213.686 8.88192L516.341 8.81826C516.523 3.93242 513.595 7.23082 517.691 4.46523Z" fill="#FDE8BE"/>
<path d="M65.6684 185.536C71.012 185.049 83.5822 185.396 89.3639 185.396L136.766 185.406L288.842 185.4L445.126 185.392L494.614 185.386C503.811 185.387 517.347 184.634 526.074 186.531C541.501 189.886 554.079 205.448 555.549 220.924C556.118 226.934 555.97 234.043 556.087 240.291C556.436 253.889 556.644 267.489 556.712 281.091C557.455 324.667 557.637 368.251 557.262 411.834C557.152 438.565 556.853 465.293 556.356 492.02L555.985 511.934C555.928 515.849 555.962 521.761 555.473 525.542C554.477 532.921 551.559 539.909 547.011 545.809C540.039 554.756 531.137 559.44 519.981 560.793C516.328 561.251 504.724 560.963 500.688 560.952L463.896 560.948L334.696 560.952L153.142 560.944L95.7504 560.975C87.1728 560.982 73.5688 561.414 65.5876 560.793C58.2595 560.164 51.2818 557.378 45.5365 552.785C36.9699 546.158 31.4402 536.354 30.1999 525.596C29.4769 519.407 29.6281 512.821 29.5492 506.557L29.0873 479.075C28.3654 440.244 28.0797 401.405 28.2305 362.57C28.2104 330.067 28.5022 297.568 29.1062 265.073L29.5394 239.197C29.6144 233.005 29.456 226.475 30.2064 220.354C32.4899 201.723 47.0345 187.517 65.6684 185.536Z" fill="#FDE8BE"/>
<path d="M66.6558 188.19C77.4601 187.797 89.8621 188.089 100.76 188.099L159.777 188.102L342.402 188.105L461.525 188.117L498.333 188.079C505.291 188.071 512.623 187.846 519.505 188.303C536.308 189.419 550.17 203.767 552.603 220.11C553.311 224.872 553.103 231.108 553.171 235.968L553.599 259.906C554.13 292.804 554.399 325.705 554.403 358.606C554.501 395.728 554.304 432.85 553.804 469.969C553.709 481.962 553.539 493.956 553.289 505.95C553.198 510.717 553.258 520.081 552.716 524.496C551.89 531.408 549.272 537.983 545.118 543.565C538.456 552.387 529.911 556.779 519.134 558.227C486.161 558.852 451.263 558.284 418.135 558.28L223.825 558.291L117.617 558.295L84.5696 558.321C70.2827 558.337 59.2234 559.97 47.2481 550.53C39.109 544.061 33.9056 534.599 32.8051 524.261C32.2901 519.35 32.4379 511.259 32.3613 505.988L31.794 476.165C31.1809 438.284 30.9376 400.401 31.0634 362.513C31.0244 330.76 31.2866 299.008 31.8494 267.259L32.3458 237.38C32.4295 232.743 32.3204 225.302 32.8653 221.018C33.8154 213.927 36.706 207.237 41.2186 201.685C47.8654 193.442 56.2357 189.272 66.6558 188.19Z" fill="#FDE8BE"/>
<path d="M67.2926 196.466C73.0894 195.972 84.1078 196.296 90.284 196.296L134.034 196.303L271.955 196.296L436.691 196.306L488.933 196.296C498.089 196.291 507.464 196.12 516.566 196.411C530.095 196.844 541.896 207.838 544.154 221.03C544.908 225.433 544.813 230.731 544.908 235.27L545.264 255.302C545.742 278.128 546.011 300.957 546.064 323.789C546.56 370.347 546.443 416.909 545.708 463.463L545.048 501.499C544.923 508.324 545.075 515.736 544.431 522.485C543.029 537.166 532.615 547.655 518.12 549.823C515.259 550.274 505.99 550.096 502.837 550.088L474.018 550.046L367.892 550.054L167.702 550.073L104.357 550.065C93.1996 550.069 79.9465 550.429 68.9687 549.918C64.0476 549.705 59.2682 548.205 55.1092 545.563C48.1429 541.073 43.2488 533.994 41.5056 525.892C40.487 520.988 40.5552 507.357 40.4513 501.972L39.7507 449.798C38.9621 396.332 38.9806 342.858 39.8067 289.394L40.3464 246.699C40.4703 239.316 40.415 231.809 41.0065 224.458C42.2487 209.018 52.6282 199.266 67.2926 196.466Z" fill="#FDE8BE"/>
<path d="M114.272 18.7179C119.036 18.3416 125.966 18.5303 130.9 18.5334L159.192 18.5561L247.697 18.555L405.829 18.5482C431.992 18.5542 458.2 18.5751 484.363 18.5645C486.133 18.5637 488.323 18.846 489.945 19.5471C493.049 20.8878 495.899 24.2389 497.07 27.3569C498.26 30.5106 498.127 34.0125 496.694 37.0653C494.747 41.2789 491.798 43.141 487.698 44.6481C481.908 45.3541 464.798 44.8948 458.216 44.8986L396.73 44.9115L191.55 44.9149L139.491 44.9145C134.427 44.9127 119.56 45.2643 115.147 44.799C113.792 44.6641 112.469 44.2969 111.238 43.7129C99.8726 38.2924 101.488 22.9743 114.272 18.7179Z" fill="#FDE8BE"/>
<path d="M415.823 63.3862C440.47 60.981 462.404 79.0036 464.826 103.65C467.247 128.297 449.239 150.243 424.592 152.68C399.926 155.119 377.954 137.09 375.533 112.421C373.108 87.7525 391.153 65.7933 415.823 63.3862Z" fill="#FDE8BE"/>
<path d="M416.361 70.1891C437.256 68.1014 455.885 83.3645 457.947 104.264C460.005 125.164 444.718 143.771 423.818 145.805C402.953 147.835 384.385 132.582 382.331 111.72C380.273 90.8583 395.503 72.2729 416.361 70.1891Z" fill="#FDE8BE"/>
<path d="M418.323 71.8662L418.778 72.0079C419.828 73.8735 418.221 77.1397 419.843 78.5381L420.854 78.3725C421.802 77.1196 421.423 73.8262 421.415 71.9026C427.57 72.4312 430.62 73.0436 436.1 75.7721L435.596 76.674C434.736 78.1962 433.792 79.0845 434.781 80.7227L435.637 80.6753C437.055 79.7825 437.464 78.4441 438.233 76.8832C443.971 80.3991 446.691 83.339 450.273 88.8827C448.582 89.8237 447.002 90.2132 447.313 92.3316L448.135 92.7325C449.609 92.753 450.345 92.022 451.599 91.1739C454.672 96.8047 455.055 100.195 455.908 106.524C453.975 106.498 450.576 105.967 449.788 108.046C451.084 109.764 453.983 109.215 455.961 109.124C455.627 114.204 454.384 120.157 451.754 124.57C450.178 123.66 448.128 121.907 446.532 123.097L446.779 124.031C447.897 125.432 449.143 125.908 450.742 126.763C446.559 132.662 444.725 134.507 438.859 138.749C437.968 137.042 436.952 134.166 434.925 133.939L434.603 134.664C434.739 136.621 435.812 138.087 436.801 139.84C431.029 142.567 428.653 143.301 422.313 143.905L421.741 143.767C420.726 141.79 422.457 137.76 420.46 136.953L419.63 137.39C418.736 138.585 419.096 142.182 419.134 143.919C413.128 143.499 409.925 143.057 404.525 140.33C405.442 138.507 407.246 136.473 405.988 134.689L405.082 134.896C403.692 135.967 403.15 137.487 402.339 139.101C396.344 135.578 393.217 132.678 389.689 126.653C391.239 125.656 392.463 125.258 392.588 123.351L392.012 122.969C390.478 123.046 389.924 123.722 388.628 124.71C385.748 119.572 384.865 114.92 384.528 109.148C386.438 109.185 389.78 109.776 390.637 107.753C389.379 106.013 386.43 106.492 384.456 106.536C384.903 100.032 386.067 96.428 388.973 90.6952C390.701 91.64 392.778 93.4677 394.593 92.3979L394.54 91.5718C393.555 89.9968 391.933 89.2761 390.284 88.2889C393.922 82.8494 396.37 80.7132 401.733 77.1367C402.612 78.8693 403.286 81.096 405.336 81.3923L405.742 80.6901C405.742 78.8484 404.882 77.5736 404.044 75.8824C409.152 73.1099 412.582 72.3922 418.323 71.8662Z" fill="#FDE8BE"/>
<path d="M434.368 82.9742C437.638 82.6336 445.956 92.7391 446.517 95.7711C446.316 96.7655 445.566 97.4714 444.815 98.1327C434.36 107.352 423.833 116.49 413.575 125.932C411.005 128.299 408.451 130.689 405.7 132.85C403.006 132.815 401.304 130.988 399.712 129.008C397.973 126.84 393.263 123.128 393.168 120.455C395.097 116.866 429.487 86.641 434.368 82.9742Z" fill="#FDE8BE"/>
<path d="M279.033 89.2473C279.934 89.1158 280.654 89.1162 281.555 89.0954C283.053 90.7703 281.217 100.355 282.462 102.195C283.72 102.613 283.125 102.647 284.308 102.149C284.903 101.122 284.66 90.9499 284.675 88.9062C289.711 89.369 293.857 91.0799 297.514 94.7099C301.209 98.3729 303.301 103.349 303.331 108.55C303.354 114.549 300.807 119.238 296.771 123.383C295.081 124.684 293.482 125.77 291.527 126.647C286.54 128.882 280.855 128.984 275.789 126.928C270.903 124.872 267.049 120.936 265.097 116.007C263.002 110.93 263.12 105.21 265.421 100.224C268.339 93.9308 272.91 91.413 279.033 89.2473Z" fill="#FDE8BE"/>
<path d="M138.627 88.873C140.569 91.2783 137.676 100.699 140.265 102.48L141.007 102.235C142.383 100.02 141.76 92.1154 141.721 88.9428C147.344 89.4574 151.739 91.3768 155.537 95.7416C158.962 99.7005 160.678 104.855 160.31 110.077C159.859 116.13 157.015 120.381 152.61 124.231C150.168 126.084 147.348 127.374 144.35 128.008C139.135 129.102 133.699 128.002 129.32 124.967C124.969 121.94 122.001 117.308 121.071 112.09C120.1 106.83 121.295 101.402 124.384 97.0353C128.008 92.0043 132.774 89.925 138.627 88.873Z" fill="#FDE8BE"/>
<path d="M67.1237 88.8849C69.2689 90.5879 65.8997 100.91 69.0131 102.625L69.7146 102.179C70.9352 99.3012 70.3785 92.2189 70.2928 88.8008C75.0707 89.4245 79.1535 90.9866 82.7119 94.3509C86.6428 98.0567 88.8865 103.209 88.9222 108.612C88.9449 115.163 86.1058 119.579 81.6588 123.935C78.839 126.078 75.696 127.546 72.1884 128.128C66.9994 129.024 61.6686 127.776 57.4172 124.669C53.1623 121.512 50.3266 116.802 49.527 111.565C48.7426 106.32 50.0518 100.977 53.1725 96.6887C56.665 91.9863 61.4769 89.6659 67.1237 88.8849Z" fill="#FDE8BE"/>
<path d="M207.999 89.2177C208.724 89.1415 209.409 89.1188 210.135 89.0836C212.049 91.0734 209.246 99.7003 211.44 102.675C214.482 102.692 213.326 91.4304 213.307 88.9111C218.393 89.3886 222.415 91.1227 226.069 94.7796C229.831 98.4914 231.904 103.585 231.803 108.869C231.722 115.073 229.082 119.457 224.871 123.638C222.453 125.427 220.647 126.601 217.674 127.514C212.65 129.073 207.211 128.548 202.578 126.057C197.928 123.552 194.471 119.292 192.978 114.225C191.457 109.168 192.013 103.713 194.525 99.0674C197.638 93.4192 202.111 90.9302 207.999 89.2177Z" fill="#FDE8BE"/>
<path d="M512.417 89.7795C522.849 88.0654 532.691 95.139 534.392 105.572C536.09 116.004 529.004 125.837 518.567 127.523C508.154 129.206 498.343 122.135 496.649 111.722C494.951 101.31 502.007 91.4904 512.417 89.7795Z" fill="#FDE8BE"/>
<path d="M513.553 94.2184C521.481 93.1467 528.794 98.6476 529.965 106.56C531.136 114.473 525.729 121.857 517.831 123.128C512.636 123.965 507.387 121.941 504.098 117.83C500.809 113.719 499.986 108.156 501.942 103.269C503.901 98.3812 508.335 94.924 513.553 94.2184Z" fill="#FDE8BE"/>
<path d="M515.205 97.2041C530.306 98.3413 528.085 115.116 523.716 115.872C522.39 114.797 521.927 114.069 520.214 114.52C519.021 115.711 519.309 115.037 519.017 116.457C519.82 118.533 520.252 118.643 518.52 119.964C514.92 120.381 512.222 120.394 508.997 118.19C506.413 116.409 504.674 113.641 504.196 110.538C503.033 102.955 508.247 98.4285 515.205 97.2041Z" fill="#FDE8BE"/>
<path d="M511.932 99.5442C512.808 99.0902 513.861 99.1607 514.668 99.7268C515.475 100.293 515.9 101.261 515.771 102.238C515.638 103.215 514.975 104.038 514.051 104.374C512.739 104.847 511.288 104.225 510.731 102.95C510.174 101.675 510.697 100.186 511.932 99.5442Z" fill="#FDE8BE"/>
</svg>
